<?xml version="1.0" encoding="UTF-8"?><svg id="a" xmlns="http://www.w3.org/2000/svg" width="412.01" height="412.01" viewBox="0 0 412.01 412.01"><defs><style>.b{fill:#f9ed82;}.c{fill:#e6e6e6;}.d{fill:#ef7954;}.e{fill:#999;}.f{fill:#b3b3b3;}.g{fill:#666;}.h{fill:#ccc;}.i{fill:#d3674a;}.j{fill:#99b5c4;}.k{fill:gray;}.l{fill:#555;}.m{fill:#638591;}.n{fill:#4d4d4d;}.o{fill:#010101;opacity:.2;}.o,.p{isolation:isolate;}.p{fill:#f2f2f2;opacity:.49;}</style></defs><rect class="l" x=".03" y=".03" width="411.95" height="411.95"/><polygon class="o" points="334.3 90.33 638.3 436.57 464.2 610.23 74.26 321.68 114.5 285.88 328.42 281.99 334.3 90.33"/><rect class="m" x="241.26" y="117.73" width="54.57" height="22.55"/><rect class="j" x="295.83" y="117.73" width="14.97" height="22.55"/><rect class="n" x="76.57" y="117.73" width="113.64" height="150.17"/><path class="d" d="m233.82,158.81h-4.74v-4.94c0-5.86-4.77-10.62-10.62-10.62h-24.08c-8.47,0-15.36-6.89-15.36-15.36v-10.17h4.74v10.17c0,5.86,4.77,10.62,10.62,10.62h24.08c8.47,0,15.36,6.89,15.36,15.36v4.94Z"/><path class="b" d="m245.32,158.81h-4.74v-14.41c0-5.86-4.77-10.62-10.62-10.62h-1.47c-8.47,0-15.36-6.89-15.36-15.36v-10.17h4.74v10.17c0,5.86,4.77,10.62,10.62,10.62h1.47c8.47,0,15.36,6.89,15.36,15.36v14.41Z"/><rect class="k" x="284.19" y="140.28" width="9.02" height="40.14"/><rect class="g" x="252.9" y="140.28" width="31.29" height="40.14"/><path class="h" d="m268.55,172.79h-131.92c-2.12,0-3.83-1.72-3.83-3.83h0c0-2.12,1.72-3.83,3.83-3.83h131.92c2.12,0,3.83,1.72,3.83,3.83h0c0,2.12-1.72,3.83-3.83,3.83Z"/><rect class="k" x="66.42" y="278.05" width="267.88" height="15.66"/><rect class="e" x="200.36" y="278.05" width="133.94" height="15.66"/><polygon class="k" points="103.96 293.7 66.42 293.7 74.26 321.68 96.12 321.68 103.96 293.7"/><polygon class="k" points="217.86 293.7 180.31 293.7 188.15 321.68 210.02 321.68 217.86 293.7"/><polygon class="k" points="334.31 293.7 296.77 293.7 304.61 321.68 326.48 321.68 334.31 293.7"/><rect class="c" x="102.04" y="251.72" width="196.63" height="16.18"/><rect class="f" x="102.04" y="251.72" width="92.54" height="16.18"/><polygon class="e" points="200.36 293.7 200.36 321.68 210.02 321.68 217.88 293.7 200.36 293.7"/><polygon class="g" points="86.44 293.7 86.44 321.68 96.1 321.68 103.96 293.7 86.44 293.7"/><polygon class="e" points="316.8 293.7 316.8 321.68 326.46 321.68 334.31 293.7 316.8 293.7"/><rect class="m" x="106.1" y="117.73" width="54.57" height="22.55"/><rect class="k" x="149.03" y="140.28" width="9.02" height="40.14"/><rect class="g" x="117.74" y="140.28" width="31.29" height="40.14"/><rect class="j" x="160.67" y="117.73" width="14.97" height="22.55"/><rect class="e" x="232.47" y="158.81" width="27.51" height="24.8"/><rect class="k" x="221.19" y="158.81" width="13.76" height="24.8"/><path class="h" d="m227.05,172.79h-8.34c-2.12,0-3.83-1.72-3.83-3.83h0c0-2.12,1.72-3.83,3.83-3.83h8.34c2.12,0,3.83,1.72,3.83,3.83h0c0,2.12-1.72,3.83-3.83,3.83Z"/><rect class="j" x="228.75" y="183.62" width="24.02" height="19.51"/><rect class="m" x="228.75" y="183.62" width="10.15" height="19.51"/><rect class="j" x="236.69" y="203.12" width="8.12" height="6.76"/><polygon class="d" points="273.42 251.71 127.3 251.71 144.86 227.14 255.85 227.14 273.42 251.71"/><polygon class="i" points="200.36 227.14 200.36 251.71 127.3 251.71 144.86 227.14 200.36 227.14"/><path class="d" d="m229.71,229.51h-29.35v-4.74h29.35c4.57,0,8.28-3.72,8.28-8.28v-6.6h4.74v6.6c0,7.18-5.84,13.02-13.02,13.02Z"/><path class="e" d="m200.36,90.33v187.72h133.94V90.33h-133.94Zm123.79,177.57h-113.64V117.73h113.64v150.17Z"/><path class="k" d="m66.42,90.33v187.72h133.94V90.33H66.42Zm123.79,177.57h-113.64V117.73h113.64v150.17Z"/><polygon class="p" points="76.57 117.73 76.57 187.68 146.52 117.73 76.57 117.73"/><polygon class="p" points="129.42 267.9 190.21 267.9 190.21 207.11 129.42 267.9"/><polygon class="p" points="76.57 257.84 76.57 267.9 97.72 267.9 190.21 175.41 190.21 144.19 76.57 257.84"/></svg>