<?xml version="1.0" encoding="UTF-8"?><svg id="a" xmlns="http://www.w3.org/2000/svg" width="412.01" height="412.01" viewBox="0 0 412.01 412.01"><defs><style>.d{fill:#00478c;}.e{fill:#007431;}.f{fill:#ffdfbf;}.g{fill:#ffae2a;}.h{fill:#fff;}.i{fill:#9c6000;}.j{fill:#754800;}.k{fill:#010101;isolation:isolate;opacity:.2;}</style></defs><rect id="b" class="d" x=".03" y=".03" width="411.95" height="411.95"/><path id="c" class="k" d="m186.45,54.53l544.27,428.35-202.31,216.95L149.83,346.79c12.21-97.42,24.41-194.84,36.62-292.26Z"/><path class="i" d="m264.82,332.59c-29.57,5.86-62.28,12.35-91.85,18.21-1.61.44-9.13,2.3-16.64-1.94-10.21-5.78-11.02-17.58-11.06-18.43-8.46-37.27-13.78-75.17-22.24-112.44-2.87-9.94-1.49-16.3.35-20.31,1.21-2.63,3.55-5.77,8.25-12.07,4.07-5.46,5.86-7.28,7.2-11.03,1.51-4.23,1.44-8.11,1.18-10.64-.28-2.76-.63-9.88,3.53-17.18,2.56-4.49,5.82-7.3,7.95-8.85-2.72-15.64-5.44-31.28-8.16-46.93-.76-.2-1.84-.61-2.57-1.58-.93-1.24-.74-2.66-.45-6.45.09-1.2.23-3.1.37-5.51-.13-1.34-.27-2.68-.4-4.03,16-3.17,32-6.35,48.01-9.52.25,1.05.51,2.09.76,3.14,1.03,1.62,1.86,3.02,2.49,4.1,2.03,3.5,2.35,4.5,2.19,5.59-.18,1.29-.97,2.24-1.55,2.82,3.9,15.68,7.79,31.37,11.69,47.05,5.47,2.66,9.03,5.89,11.13,8.13,3.45,3.69,5.49,7.41,6.97,10.13,3.14,5.76,2.33,6.41,4.56,9.51,2.58,3.58,4.74,4.23,11.26,8.78,5.69,3.96,9.27,6.46,12.01,9.52,2.85,3.18,6.33,8.71,7.38,18.47,11.98,55.22,19.79,96.54,22.15,112.09.66,4.35,1.97,13.24-3.11,20.62-3.86,5.61-9.17,7.93-11.39,8.75Z"/><path class="g" d="m138.03,66.44c-.72-3.63,4.27-7.7,11.09-9.05l24.79-4.92c6.82-1.35,12.99.51,13.7,4.14l1.96,9.89c-1.2-.79-2.9-1.61-4.66-1.21-2.46.56-2.8,3-5.22,3.4-2.27.38-2.98-1.6-5.31-1.18-2.27.41-2.27,2.41-4.65,2.93-2.34.51-3.13-1.26-5.29-.68-2.11.57-2.48,2.94-4.47,3.43-2.13.52-2.92-1.6-5.41-1.27-2.19.29-2.23,1.97-4.67,2.46-2.18.44-2.97-.71-5.25-.49-2.06.2-3.65,1.44-4.67,2.46"/><path class="j" d="m254.53,179.52s0,0,0,0c-.03-.06-.07-.13-.11-.19-.71-1.38-1.55-2.69-2.48-3.9-.02-.03-.05-.06-.07-.1-4.58-6.23-10.42-9.75-14.09-12.2-5.76-3.85-8.42-4.82-11.26-8.78-2.23-3.1-1.42-3.75-4.56-9.51-1.48-2.71-3.51-6.44-6.97-10.13-2.09-2.24-5.65-5.46-11.13-8.13-2.92-11.76-5.84-23.52-8.77-35.28-6.29,1.92-11.49,2.84-14.98,3.32-10.65,1.46-15.97.3-24.9,3-4.47,1.35-7.9,3.08-9.99,4.24,2.09,12.01,4.18,24.02,6.27,36.03-2.13,1.55-5.39,4.36-7.95,8.85-4.16,7.3-3.82,14.42-3.53,17.18.26,2.53.33,6.41-1.18,10.64-1.09,3.05-2.31,4.59-7.2,11.03-1.61,2.11-2.89,3.82-3.93,5.22-1.21,1.35-2.27,2.84-3.16,4.41-.87,1.31-1.07,1.82-1.13,2.23-2.1,4.68-2.82,10.04-1.74,15.45l23.87,120.34c2.76,13.9,16.26,22.94,30.17,20.18l84.79-16.81c13.9-2.76,22.94-16.26,20.18-30.17l-23.87-120.34c-.47-2.35-1.24-4.55-2.27-6.59Z"/><rect class="f" x="131.89" y="200.85" width="137.77" height="113.67" transform="translate(-46.29 43.98) rotate(-11.22)"/><rect class="e" x="161.93" y="94.89" width="28.7" height="63.62" rx="8.34" ry="8.34" transform="translate(-21.28 36.71) rotate(-11.22)"/><path class="f" d="m198.16,103.45c-16.99,3.4-33.98,6.8-50.96,10.2-1.19-6.99-2.38-13.99-3.56-20.98,16.49-3.21,32.98-6.42,49.48-9.64,1.68,6.81,3.37,13.61,5.05,20.42Z"/><rect class="e" x="141.43" y="209.78" width="28.7" height="113.67" transform="translate(-48.89 35.4) rotate(-11.22)"/><path class="h" d="m164.24,285.27c1.06-.21,2.04-.07,2.93.43.89.5,1.58,1.29,2.06,2.39.39.87.68,1.7.87,2.49s.68,3.15,1.46,7.07c.11.55.17.88.17.98,0,.11-.05.17-.15.19-.15.03-.29-.23-.4-.79-.11-.56-.26-.88-.45-.99-.19-.1-.6-.09-1.24.03l-14.7,2.91c-.5.1-.67.55-.53,1.35.1.61.09.93-.04.95-.15.03-.26-.14-.33-.52-.07-.36-.14-.71-.21-1.05l-1.22-6.16c-.78-3.95.18-6.19,2.89-6.73,2.25-.45,3.93.75,5.04,3.59l.11.03c.02-1.8.23-3.09.65-3.86.69-1.27,1.72-2.05,3.07-2.32Zm-7.98,6.36c-2.48.49-3.57,1.49-3.27,3,.11.54.2.89.29,1.07.19.34.49.48.9.4l6.77-1.34c-.3-1.49-.76-2.46-1.4-2.91-.64-.45-1.74-.52-3.29-.21Zm8.68-2.23c-2.41.48-3.68,1.44-3.8,2.89-.05.57.03,1.36.23,2.38l1.49-.29c.43-.08,1.04-.19,1.83-.31.4-.06,1.13-.2,2.21-.41,1.85-.37,2.82-.61,2.92-.74.16-.17.18-.58.05-1.21-.42-2.1-2.06-2.87-4.94-2.3Z"/><path class="h" d="m160.76,271.97c1.83-.36,3.45.06,4.87,1.28,1.11.95,1.8,2.1,2.07,3.46.32,1.61.02,3.11-.91,4.51-.92,1.4-2.17,2.26-3.74,2.57-1.64.33-3.16.02-4.54-.92-1.39-.94-2.25-2.24-2.57-3.9-.32-1.59,0-3.07.95-4.44.95-1.37,2.24-2.22,3.88-2.54Zm.79,3.87c-2.12.42-3.55.85-4.28,1.3-.81.5-1.14,1.1-1,1.82.13.66.69,1.09,1.68,1.28.99.19,2.29.13,3.89-.19,2.24-.44,3.79-.98,4.64-1.61.68-.51.96-1.08.83-1.73-.16-.8-.74-1.23-1.75-1.3-.95-.06-2.29.08-4.02.43Z"/><path class="h" d="m164.46,263.02c.13-.03.26.29.38.93.03.15.11.63.23,1.44.06.41.13.82.21,1.21.07.37.23,1.07.47,2.09l.18.76c.09.37.07.57-.07.6-.14.03-.23-.16-.29-.55-.1-.6-.23-.94-.39-1-.16-.07-.68-.01-1.57.16l-13.5,2.68c-.58.12-.91.25-1,.39-.09.14-.07.51.04,1.1.09.43.07.66-.06.69-.15.03-.27-.18-.38-.62-.45-1.89-1.05-3.39-1.8-4.5.51-.1,3.51-.7,9-1.79l6.39-1.27c1.16-.23,1.84-.4,2.02-.49.19-.1.23-.33.14-.68l-.15-.77c-.04-.22,0-.35.13-.37Z"/><path class="h" d="m161.24,254.49c.19-.04.47.08.84.34.97.68,1.6,1.77,1.9,3.25.27,1.36.11,2.32-.47,2.89-.22.22-.44.37-.66.44-.22.07-.79.2-1.71.38l-1.23.24c-.33.03-.68.08-1.04.15l-.53.16-2.31.46-1.85.37c-.31.06-.48.14-.51.24-.04.1,0,.36.08.78.1.51.08.78-.05.81-.1.02-.19-.06-.26-.24-.37-1.6-1.52-2.81-3.44-3.64-.27-.11-.41-.2-.43-.29-.02-.1.09-.18.33-.23,1.47-.27,2.27-.49,2.38-.66.11-.16.09-.6-.04-1.3-.14-.72-.28-1.22-.4-1.49-.02-.03-.04-.06-.05-.1-.01-.07.03-.11.14-.13.25-.05.4.04.44.26.16.69.32,1.46.49,2.31.01.07.04.19.07.36l.54-.11c4.56-.9,7.22-1.47,7.99-1.69.96-.35,1.35-.94,1.19-1.75-.07-.36-.42-.78-1.05-1.25-.29-.23-.45-.38-.46-.45-.01-.05.03-.09.11-.1Z"/><path class="h" d="m157.73,244.6c.38-.07.92.05,1.62.37,1.51.7,2.41,1.81,2.72,3.35.34,1.73.08,3.25-.8,4.58-.87,1.33-2.17,2.16-3.88,2.5-1.68.33-3.18.07-4.51-.79s-2.16-2.09-2.48-3.69c-.22-1.09-.16-2.07.16-2.94.36-.96,1.01-1.67,1.95-2.12.29-.13.65-.25,1.07-.37.12.38.47,1.96,1.04,4.72.08.43.21.96.37,1.61.62-.07,1.15-.15,1.57-.23,1.99-.4,3.32-1.09,3.99-2.1.4-.59.52-1.25.38-1.97-.12-.6-.44-1.13-.96-1.61-.52-.47-1.13-.79-1.84-.95-.35-.07-.54-.15-.55-.24-.01-.07.03-.11.13-.13Zm-3.85,4.12c-1.31.24-2.2.52-2.67.82s-.65.72-.55,1.23c.21,1.04,1.49,1.41,3.84,1.1-.07-.36-.22-1.11-.45-2.26-.07-.34-.13-.64-.18-.9Z"/><path class="h" d="m157.87,229.72c.14-.03.25.17.33.6,0,.04.05.26.13.67.08.41.2,1.01.36,1.8l.16.82.44,2.21c.05.24,0,.37-.12.4-.11.02-.19-.07-.23-.27l-.04-.2c-.09-.44-.19-.68-.32-.74-.13-.05-.52-.02-1.17.11l-4.98.99c-1.84.36-2.92.7-3.23,1.01-.27.26-.35.66-.25,1.18s.35.92.74,1.19.83.36,1.33.26l7.75-1.54c.2-.08.32-.17.35-.3.04-.12.02-.41-.05-.86-.03-.14,0-.21.11-.24s.17.03.21.14c.04.12.13.54.28,1.28.15.74.28,1.34.39,1.82.22.93.43,1.89.62,2.86.04.21,0,.32-.12.34-.14.03-.26-.22-.36-.74-.1-.52-.27-.8-.49-.85h-.37s-5.88,1.16-5.88,1.16c-1.65.33-2.51.52-2.57.56-.25.1-.33.36-.25.77.04.22.08.42.12.59l.06.28c.05.27.03.42-.09.44-.11.02-.2-.07-.25-.27-.46-1.89-1.17-3.33-2.11-4.33-.09-.12-.15-.21-.16-.26-.03-.14.1-.23.37-.29.75-.15,1.24-.25,1.46-.29-1.36-.67-2.18-1.72-2.46-3.14-.29-1.47.03-2.53.97-3.18.39-.27.85-.48,1.37-.63.52-.15,1.61-.39,3.27-.72l3.72-.74c.53-.11.83-.21.91-.31.08-.1.07-.39-.02-.86-.09-.47-.07-.72.07-.75Z"/><path class="h" d="m181.38,143.26c.62-.12,1.18-.04,1.7.25s.92.75,1.2,1.38c.22.5.39.98.5,1.44.11.46.39,1.83.84,4.09.06.32.1.51.1.57,0,.06-.03.1-.09.11-.09.02-.17-.13-.23-.46s-.15-.51-.26-.57c-.11-.06-.35-.05-.72.02l-8.51,1.69c-.29.06-.39.32-.31.78.06.35.05.54-.02.55-.08.02-.15-.08-.19-.3-.04-.21-.08-.41-.12-.61l-.71-3.56c-.45-2.29.1-3.59,1.67-3.9,1.3-.26,2.27.43,2.92,2.08l.07.02c.01-1.04.14-1.79.38-2.24.4-.74.99-1.18,1.78-1.34Zm-4.62,3.68c-1.44.28-2.07.86-1.89,1.74.06.31.12.52.17.62.11.2.29.28.52.23l3.92-.78c-.17-.86-.44-1.43-.81-1.69-.37-.26-1.01-.3-1.91-.12Zm5.02-1.29c-1.4.28-2.13.83-2.2,1.67-.03.33.02.79.13,1.38l.86-.17c.25-.05.6-.11,1.06-.18.23-.04.66-.12,1.28-.24,1.07-.21,1.63-.35,1.69-.43.09-.1.1-.33.03-.7-.24-1.22-1.19-1.66-2.86-1.33Z"/><path class="h" d="m179.37,135.56c1.06-.21,2,.04,2.82.74.65.55,1.04,1.22,1.2,2,.18.93,0,1.8-.52,2.61-.53.81-1.26,1.31-2.17,1.49-.95.19-1.83.01-2.63-.54-.8-.55-1.3-1.3-1.49-2.26-.18-.92,0-1.78.55-2.57s1.3-1.28,2.25-1.47Zm.46,2.24c-1.23.24-2.05.49-2.47.75-.47.29-.66.64-.58,1.05.08.38.4.63.97.74.57.11,1.32.07,2.25-.11,1.3-.26,2.19-.57,2.69-.93.39-.29.55-.63.48-1-.09-.46-.43-.71-1.01-.75-.55-.03-1.33.05-2.33.25Z"/><path class="h" d="m181.51,130.38c.08-.02.15.17.22.54.02.09.06.37.13.83.04.24.08.47.12.7.04.22.13.62.27,1.21l.1.44c.05.22.04.33-.04.35s-.14-.09-.17-.32c-.06-.35-.13-.54-.22-.58-.09-.04-.39,0-.91.09l-7.82,1.55c-.34.07-.53.14-.58.22-.05.08-.04.3.03.64.05.25.04.38-.04.4-.08.02-.16-.1-.22-.36-.26-1.1-.61-1.96-1.04-2.6.3-.06,2.03-.4,5.21-1.03l3.7-.73c.67-.13,1.06-.23,1.17-.29s.13-.19.08-.39l-.09-.45c-.03-.13,0-.2.07-.22Z"/><path class="h" d="m179.65,125.44c.11-.02.27.04.49.2.56.4.93,1.02,1.1,1.88.16.79.07,1.34-.27,1.67-.13.13-.25.21-.38.25-.12.04-.46.11-.99.22l-.71.14c-.19.02-.39.05-.6.09l-.31.09-1.34.27-1.07.21c-.18.04-.28.08-.3.14-.02.06,0,.21.04.46.06.3.05.45-.03.47-.06.01-.11-.03-.15-.14-.21-.92-.88-1.63-1.99-2.11-.16-.06-.24-.12-.25-.17-.01-.06.05-.1.19-.13.85-.16,1.31-.29,1.37-.38.06-.1.06-.35-.02-.75-.08-.42-.16-.7-.23-.86-.01-.02-.02-.04-.03-.06,0-.04.02-.07.08-.08.15-.03.23.02.26.15.09.4.18.85.28,1.34,0,.04.02.11.04.21l.31-.06c2.64-.52,4.18-.85,4.63-.98.55-.2.78-.54.69-1.01-.04-.21-.24-.45-.61-.73-.17-.13-.26-.22-.27-.26,0-.03.02-.05.07-.06Z"/><path class="h" d="m177.62,119.71c.22-.04.53.03.94.22.87.4,1.4,1.05,1.57,1.94.2,1,.04,1.88-.46,2.65-.51.77-1.25,1.25-2.24,1.45-.97.19-1.84.04-2.61-.45-.77-.49-1.25-1.21-1.44-2.14-.13-.63-.09-1.2.09-1.7.21-.56.59-.96,1.13-1.23.17-.08.38-.15.62-.22.07.22.27,1.13.61,2.74.05.25.12.56.21.93.36-.04.66-.09.91-.13,1.15-.23,1.92-.63,2.31-1.21.23-.34.3-.72.22-1.14-.07-.35-.25-.66-.55-.93s-.66-.46-1.07-.55c-.2-.04-.31-.09-.32-.14,0-.04.02-.07.08-.08Zm-2.23,2.39c-.76.14-1.27.3-1.54.48-.27.18-.38.41-.32.71.12.6.86.82,2.22.64-.04-.21-.13-.64-.26-1.31-.04-.2-.07-.37-.1-.52Z"/><path class="h" d="m177.7,111.1c.08-.02.14.1.19.35,0,.02.03.15.08.39.05.24.12.58.21,1.04l.09.48.25,1.28c.03.14,0,.21-.07.23-.06.01-.11-.04-.13-.16l-.02-.12c-.05-.25-.11-.39-.19-.42s-.3,0-.68.07l-2.88.57c-1.06.21-1.69.41-1.87.58-.16.15-.21.38-.15.68.06.3.2.53.43.69.23.16.48.21.77.15l4.49-.89c.12-.04.18-.1.21-.17s.01-.24-.03-.5c-.02-.08,0-.12.06-.14.06-.01.1.02.12.08.02.07.08.31.16.74.08.43.16.78.22,1.05.13.54.25,1.09.36,1.66.02.12,0,.18-.07.2-.08.02-.15-.13-.21-.43-.06-.3-.15-.46-.28-.49h-.22s-3.41.67-3.41.67c-.96.19-1.45.3-1.49.33-.14.06-.19.21-.14.45.03.13.05.24.07.34l.03.16c.03.16.02.24-.05.26-.06.01-.11-.04-.15-.16-.27-1.09-.68-1.93-1.22-2.51-.06-.07-.09-.12-.09-.15-.02-.08.06-.13.21-.17.43-.09.72-.14.85-.17-.79-.39-1.26-.99-1.43-1.82-.17-.85.02-1.46.56-1.84.23-.16.49-.28.79-.37.3-.09.93-.22,1.89-.41l2.15-.43c.31-.06.48-.12.53-.18.04-.06.04-.23-.02-.5-.05-.27-.04-.42.04-.43Z"/><path class="e" d="m215.3,229.68l-3.47.69-2.09-3.31-6.31,1.25-.59,3.84-3.38.67,3.02-17.01,3.37-.67,9.45,14.53Zm-7.11-5.08l-3.34-5.43-.97,6.28,4.31-.85Z"/><path class="e" d="m216.97,229.35l-3.13-15.79,3.03-.6,3.13,15.79-3.03.6Z"/><path class="e" d="m226.08,215.66l.48,2.41-2.07.41.91,4.61c.19.93.31,1.47.38,1.62.07.15.18.26.34.33.16.07.34.09.54.05.28-.06.67-.23,1.16-.53l.72,2.3c-.64.44-1.41.75-2.3.93-.55.11-1.06.11-1.53.02-.47-.1-.84-.27-1.1-.52-.26-.25-.48-.62-.66-1.09-.13-.34-.31-1.04-.52-2.11l-.99-4.99-1.39.28-.48-2.41,1.39-.28-.45-2.27,2.69-2.37.8,4.04,2.07-.41Z"/></svg>