<?xml version="1.0" encoding="UTF-8"?><svg id="a" xmlns="http://www.w3.org/2000/svg" width="412.01" height="412.01" viewBox="0 0 412.01 412.01"><defs><style>.b{fill:#f75b57;}.c{fill:#994530;}.d{fill:#bc3535;}.e{fill:#486b26;}.f{fill:#4c312c;}.g{fill:#732f29;}.h{fill:#010101;isolation:isolate;opacity:.2;}</style></defs><rect class="g" x=".03" y=".03" width="411.95" height="411.95"/><polygon class="h" points="252.77 139.72 612.03 462.7 479.57 594.83 142.08 280.12 252.77 139.72"/><path class="d" d="m210.19,143.73c-7.79,1.93-15.94,1.93-23.72,0-40.55-10.03-74.51-6.18-74.12,70.29.2,39.17,36.89,89.97,75.44,81.28,6.91-1.56,14.16-1.56,21.07,0,38.56,8.69,75.24-42.1,75.44-81.28.39-76.47-33.56-80.32-74.11-70.29Z"/><path class="b" d="m131.2,194.49c-2.09,0-3.77-1.69-3.77-3.77,0-20.79,15.22-37.7,33.93-37.7,2.09,0,3.77,1.69,3.77,3.77s-1.69,3.77-3.77,3.77c-14.55,0-26.39,13.53-26.39,30.16,0,2.08-1.69,3.77-3.77,3.77Z"/><path class="f" d="m198.05,158.01c-2.02,0-3.7-1.61-3.76-3.65-.51-15.96-6.64-35.99-22.33-44.35-1.84-.98-2.53-3.26-1.55-5.1.98-1.84,3.26-2.53,5.11-1.55,18.53,9.88,25.74,32.7,26.31,50.77.07,2.08-1.56,3.82-3.65,3.89-.05,0-.08,0-.12,0Z"/><path class="c" d="m197.72,171.56c-6.33,0-12.3-2.47-16.78-6.96-1.47-1.47-1.47-3.86,0-5.33s3.86-1.47,5.33,0c3.06,3.06,7.13,4.75,11.45,4.75s8.39-1.69,11.44-4.75c1.47-1.47,3.86-1.47,5.33,0,1.47,1.47,1.47,3.86,0,5.33-4.48,4.49-10.44,6.96-16.77,6.96Z"/><path class="e" d="m194.43,131.77l2.3-15.41c2.42-16.27,15.2-29.04,31.47-31.47l15.4-2.29-2.3,15.41c-2.42,16.27-15.2,29.04-31.47,31.47l-15.4,2.29Z"/></svg>