<?xml version="1.0" encoding="UTF-8"?><svg id="a" xmlns="http://www.w3.org/2000/svg" width="412.01" height="412.01" viewBox="0 0 412.01 412.01"><defs><style>.b{fill:#fff;}.c{fill:#d25102;}.d{fill:#d65c0a;}.e{fill:#732f29;}.f{fill:#010101;isolation:isolate;opacity:.2;}</style></defs><rect class="e" x=".03" y=".03" width="411.95" height="411.95"/><polygon class="f" points="307.25 143.73 632.99 436.57 458.9 610.23 138.67 311.63 307.25 143.73"/><polygon class="c" points="232.91 227.04 310.12 149.83 257 96.72 174.21 179.5 174.21 179.51 97.01 256.71 150.13 309.83 232.91 227.04 232.91 227.04"/><path class="d" d="m145.91,318.87l10.83-15.66-53.12-53.12-15.66,10.84,2.41,2.41c-.84.84-1.46,1.93-1.63,3.05-.35,2.24,1.18,3.77,3.42,3.42,1.12-.17,2.2-.79,3.05-1.63l4.83,4.83c-.84.84-1.46,1.93-1.63,3.05-.35,2.24,1.18,3.77,3.41,3.41,1.12-.17,2.2-.79,3.05-1.63l4.83,4.83c-.84.84-1.46,1.93-1.63,3.04-.35,2.24,1.18,3.77,3.42,3.42,1.12-.17,2.2-.79,3.05-1.63l4.83,4.83c-.84.84-1.46,1.93-1.63,3.05-.35,2.24,1.18,3.77,3.42,3.42,1.12-.17,2.2-.79,3.05-1.63l4.83,4.83c-.84.84-1.46,1.93-1.63,3.05-.35,2.24,1.18,3.77,3.41,3.41,1.12-.17,2.2-.79,3.05-1.63l4.83,4.83c-.84.84-1.46,1.93-1.63,3.04-.35,2.24,1.18,3.77,3.42,3.42,1.12-.17,2.2-.79,3.05-1.63l2.42,2.42Z"/><path class="d" d="m256.75,92.14l-10.83,15.66,53.12,53.12,15.66-10.84-2.41-2.41c.84-.84,1.46-1.93,1.63-3.05.35-2.24-1.18-3.77-3.42-3.42-1.12.17-2.2.79-3.05,1.63l-4.83-4.83c.84-.84,1.46-1.93,1.63-3.05.35-2.24-1.18-3.77-3.41-3.41-1.12.17-2.2.79-3.05,1.63l-4.83-4.83c.84-.84,1.46-1.93,1.63-3.04.35-2.24-1.18-3.77-3.42-3.42-1.12.17-2.2.79-3.05,1.63l-4.83-4.83c.84-.84,1.46-1.93,1.63-3.05.35-2.24-1.18-3.77-3.42-3.42-1.12.17-2.2.79-3.05,1.63l-4.83-4.83c.84-.84,1.46-1.93,1.63-3.05.35-2.24-1.18-3.77-3.41-3.41-1.12.17-2.2.79-3.05,1.63l-4.83-4.83c.84-.84,1.46-1.93,1.63-3.04.35-2.24-1.18-3.77-3.42-3.42-1.12.17-2.2.79-3.05,1.63l-2.42-2.42Z"/><path class="b" d="m169.67,236c.35.27.68.55.99.86,1.7,1.7,2.81,4.27,3.33,7.7.41,2.75.39,5.61-.06,8.56-.43,2.69-.96,4.27-1.6,4.74-.7.53-2.24,1.16-4.63,1.89-2.39.73-3.8,1-4.23.82-.12-.04-.24-.11-.34-.22-.12-.12-.25-.32-.37-.59-.12-.27-.24-.45-.34-.55l-19.96-19.96c-.33-.33-.04-.94.86-1.85.41-.41.81-.73,1.2-.95.35-1.58,1.02-3.35,2-5.3.99-1.95,2-3.45,3.05-4.5.62-.62,1.18-1,1.69-1.17.51-.16,1.13-.17,1.85-.03.97.23,1.59.34,1.88.34.08,0,.7-.06,1.85-.18.68-.06,1.24.03,1.69.28.33.17.64.39.92.68,1.62,1.62,2.31,4.47,2.06,8.53,3.86-.53,6.58-.23,8.16.89Zm-15.4-4.62c-.12-.04-.28.03-.46.22-.47.47-.96,1.46-1.48,2.96-.51,1.5-.72,2.65-.62,3.45l3.2,3.2c.27-2.36.33-4.56.2-6.61-.13-2.04-.42-3.12-.85-3.22Zm10.22,8.01c-.51.56-1.16,1.72-1.94,3.48-.82,1.93-1.27,3.47-1.36,4.62l5.73,5.73c.96-1.71,1.15-4.15.55-7.33-.6-3.18-1.59-5.35-2.99-6.5Z"/><path class="b" d="m195.98,230.95c.27.31.39.68.37,1.11-.02.43-.2.77-.52,1.02-2.9,2.2-4.79,3.13-5.7,2.8-.12-.04-.23-.1-.31-.19-.1-.1-.17-.26-.2-.48-.03-.22-.08-.38-.15-.49s-.12-.24-.14-.38c-.12-.21-.47-.58-1.05-1.11-.06.43.06,1.29.37,2.59.37,1.4.53,2.46.49,3.2-.04,1.27-.48,2.33-1.32,3.17-.49.49-1.17.78-2.03.86-.41.04-1.21.04-2.4,0-2.09-.12-3.23-.19-3.42-.22-1.01-.14-1.77-.47-2.28-.99-.17-.16-.31-.35-.43-.55-1.42-2.2-1.92-5.12-1.51-8.78.31-2.65,1.16-5.98,2.56-10.01-.66-.66-1.24-.91-1.76-.77-.33.08-.82,1.03-1.46,2.85-.65,1.82-1.01,3.18-1.09,4.08,0,.33-.04.82-.12,1.48-.14.55-.4.93-.77,1.14-.29.17-1.14.28-2.56.34-1.42.06-2.27.01-2.56-.15-.72-.39-.98-1-.77-1.82,0-.04.29-.58.86-1.6.35-1.17.7-2.34,1.05-3.51.84-2.36,1.79-4.13,2.83-5.3.45-.49,1.23-.78,2.34-.86,1.01-.06,2.01-.13,3.02-.21s2.01-.2,3.02-.34c1.23-.08,2.12.14,2.65.68l11.64,11.64c.74.33,1.19.6,1.36.8Zm-13.92-4.07c-.62,1.4-.88,2.86-.8,4.37.12,1.19.24,2.37.34,3.54,0,.86.15,1.83.46,2.89.31,1.07.63,1.77.96,2.09.16.17.31.18.43.06.43-.43.47-2.32.11-5.68s-.86-5.79-1.49-7.29Z"/><path class="b" d="m181.19,199.17c.14.14.29.38.45.72.15.34.25.55.29.63.29.53.8,1.29,1.54,2.28l18.91,18.91c.25.25.53.41.85.48.32.07.54.17.66.29,1.31,1.31,1.78,2.27,1.39,2.86-.14.23-.93.74-2.37,1.54-1.44.8-2.36,1.22-2.77,1.26-.84.06-1.43-.07-1.76-.4-.08-.08-.13-.21-.15-.4-.02-.18-.15-.4-.4-.65l-21.71-21.71c-.12-.12-.29-.21-.49-.28-.21-.06-.37-.15-.49-.28-.45-.53-.4-1.24.15-2.12.16-.25.59-.68,1.29-1.29.82-.7,1.59-1.24,2.31-1.63,1.09-.6,1.86-.67,2.31-.22Z"/><path class="b" d="m191.97,192.52c.06.02.15.09.28.22.45.45.95,1.13,1.48,2.03.57.99.81,1.61.71,1.88-.12.29-1.23.95-3.31,1.99s-3.29,1.49-3.62,1.37c-.16-.04-.35-.16-.55-.37-.55-.55-1-1.28-1.32-2.19-.37-1.03-.39-1.79-.06-2.28.39-.55,1.39-1.2,3-1.93,1.61-.73,2.75-.97,3.4-.72Zm21.19,21.37c.82.66,1.03,1.38.62,2.16-.08.12-.21.28-.4.46-.74.74-1.81,1.5-3.2,2.28-1.5.84-2.54,1.18-3.11,1.02-.27-.06-.49-.47-.68-1.23-.12-.49-.6-1.15-1.42-1.97l-12.94-12.94c-1.03-.53-1.67-.93-1.94-1.2-.27-.27-.02-.78.74-1.54.62-.62,1.66-1.28,3.14-2,1.48-.72,2.47-1.05,2.99-.99.14.02.28.09.4.22.17.17.35.59.57,1.28.22.69.44,1.14.66,1.37l12.38,12.38c.21.21.58.35,1.12.42.54.07.9.17,1.06.29Z"/><path class="b" d="m224.13,198.06c1.13,1.13,1.66,2.41,1.59,3.83-.07,1.43-.78,2.83-2.11,4.2-.33.33-.74.64-1.23.92-.88.51-1.36.78-1.42.8-.45.29-.91.58-1.39.86-.47.29-.96.45-1.45.49-.86.04-1.87-.08-3.02-.37-.93-.23-1.85-.47-2.77-.74-.92-.27-1.45-.46-1.57-.59-.29-.29-.3-.71-.03-1.26.06-.14.23-.35.49-.62.62-.62,1.46-1.32,2.53-2.12,1.07-.8,1.69-1.2,1.86-1.19.17.01.88.49,2.11,1.43,1.07.82,1.76,1.08,2.06.77.47-.47.07-1.34-1.2-2.62-1.62-1.62-3.07-2.21-4.34-1.76-2.9,1.05-5.01,1.52-6.34,1.42-1.64-.12-3.36-1.08-5.14-2.86-1.17-1.17-1.97-2.58-2.39-4.23-.42-1.65-.31-3,.32-4.05.29-.45,1.87-1.25,4.74-2.4.25-.12.9-.55,1.97-1.29.76-.51,1.43-.75,2-.71.86.08,1.84.61,2.93,1.57.78.74,1.55,1.49,2.31,2.25.84.56,1.32.89,1.45,1.02.57.57.63,1.18.15,1.82-.25.33-.92.78-2.03,1.36-1.23.62-2.13.88-2.71.8-.14-.02-.98-.73-2.49-2.12-1.44-1.31-2.27-1.86-2.5-1.63-.31.31-.2,1,.34,2.06.53,1.07,1.23,2.03,2.09,2.89,1.09,1.09,2.01,1.54,2.77,1.36,1.56-.45,3.12-.89,4.68-1.32,1.56-.43,2.83-.54,3.82-.34,1.29.27,2.6,1.06,3.91,2.37Z"/><path class="b" d="m224.56,173.55c.35.39.55.84.62,1.35.06.51-.04.9-.31,1.17-.08.08-.16.15-.25.19-.39.19-1.09.78-2.09,1.79l12.16,12.17s.21.08.69.29c.48.22.86.46,1.12.72.59.6.5,1.32-.28,2.19-.41.45-1.39,1.06-2.93,1.82-1.66.84-2.71,1.13-3.14.86-.18-.1-.42-.48-.69-1.12-.28-.65-.54-1.09-.79-1.34l-10.9-10.9-1.05,1.05c-.39.39-1.22.53-2.48.42-1.26-.11-2.1-.37-2.51-.79-.31-.31-.47-.7-.48-1.19s.13-.87.42-1.16l2.22-2.22-2.77-2.77c-.72-.1-1.31-.39-1.79-.86-.43-.43-.51-.88-.25-1.35.14-.23.38-.5.71-.83.76-.76,1.77-1.53,3.02-2.31,1.25-.78,2.16-1.2,2.71-1.26.27-.02.48.05.65.21.21.21.35.68.43,1.42.08.74.19,1.2.34,1.39l1.66,1.66.98-.99c.21-.21,1.01-.27,2.4-.18,1.4.08,2.25.28,2.56.58Z"/><path class="b" d="m233.4,159.59c1.66-.6,3.61-.39,5.85.62,2.03.92,4.05,2.39,6.07,4.4,2.77,2.77,4.7,5.65,5.79,8.62,1.13,3.22.81,5.51-.96,6.87-.72.43-1.76,1.12-3.11,2.06-.94.74-1.86,1.34-2.74,1.82-1.48.86-3.41.8-5.79-.19-2.2-.92-4.34-2.43-6.44-4.53-2.11-2.11-3.71-4.36-4.77-6.74-1.15-2.63-1.44-4.99-.86-7.08.1-.35.35-.72.74-1.11.41-.41,1.35-1.09,2.83-2.03.78-.78,1.91-1.68,3.39-2.71Zm-.68,6.22c-.55.55-.39,1.74.48,3.56.87,1.82,1.93,3.34,3.16,4.57,1.48,1.48,3.11,2.76,4.9,3.85,1.95,1.17,3.24,1.56,3.88,1.17.8-.51.65-1.84-.46-3.97-1.07-2.05-2.54-4.02-4.43-5.91-1.05-1.05-2.22-1.95-3.51-2.71-1.89-1.15-3.22-1.33-4-.55Z"/></svg>