<?xml version="1.0" encoding="UTF-8"?><svg id="a" xmlns="http://www.w3.org/2000/svg" width="412.01" height="412.01" viewBox="0 0 412.01 412.01"><defs><style>.d{fill:#00478c;}.e{fill:#ffae2a;}.f{fill:#fff;}.g{fill:#fcb23c;}.h{fill:#9c6000;}.i{fill:#754800;}.j{fill:#010101;isolation:isolate;opacity:.2;}</style></defs><rect id="b" class="d" x=".03" y=".03" width="411.95" height="411.95"/><polygon id="c" class="j" points="178.98 53.72 730.72 482.88 528.41 699.82 149.83 346.79 178.98 53.72"/><path class="h" d="m260.69,334.91c-29.72,5.89-59.43,11.79-89.15,17.68-1.62.44-9.18,2.32-16.72-1.95-10.26-5.81-11.08-17.67-11.12-18.52-8.51-37.46-17.01-74.93-25.52-112.39-2.88-9.99-1.49-16.39.36-20.41,1.21-2.64,3.57-5.8,8.29-12.13,4.09-5.49,5.89-7.32,7.24-11.08,1.52-4.25,1.45-8.15,1.19-10.69-.28-2.78-.63-9.93,3.55-17.27,2.57-4.51,5.85-7.34,7.99-8.9-2.73-15.72-5.47-31.44-8.2-47.16-.76-.2-1.85-.62-2.59-1.59-.94-1.24-.75-2.67-.45-6.48.09-1.2.23-3.12.37-5.54-.14-1.35-.27-2.7-.41-4.05l48.25-9.57c.26,1.05.51,2.11.77,3.16,1.03,1.62,1.87,3.03,2.5,4.12,2.04,3.52,2.36,4.52,2.21,5.62-.18,1.3-.97,2.26-1.56,2.83,3.92,15.76,7.83,31.53,11.75,47.29,5.5,2.68,9.08,5.92,11.18,8.17,3.47,3.71,5.51,7.45,7,10.18,3.16,5.79,2.35,6.44,4.59,9.56,2.59,3.6,4.76,4.25,11.32,8.82,5.72,3.99,9.31,6.49,12.07,9.57,2.86,3.2,6.36,8.76,7.41,18.57,12.04,55.5,19.89,97.03,22.26,112.66.67,4.38,1.98,13.3-3.13,20.72-3.88,5.64-9.22,7.97-11.45,8.8Z"/><path class="i" d="m260.69,334.91c-29.72,5.89-59.43,11.79-89.15,17.68-1.62.44-9.18,2.32-16.72-1.95-10.26-5.81-11.08-17.67-11.12-18.52-8.51-37.46-17.01-74.93-25.52-112.39-2.88-9.99-1.49-16.39.36-20.41,1.21-2.64,3.57-5.8,8.29-12.13,4.09-5.49,5.89-7.32,7.24-11.08,1.52-4.25,1.45-8.15,1.19-10.69-.28-2.78-.63-9.93,3.55-17.27,2.57-4.51,5.85-7.34,7.99-8.9-2.1-12.07-4.2-24.15-6.3-36.22,2.1-1.17,5.55-2.91,10.04-4.27,8.98-2.71,14.33-1.55,25.03-3.02,3.5-.48,8.73-1.4,15.05-3.33,2.94,11.82,5.87,23.64,8.81,35.46,5.5,2.68,9.08,5.92,11.18,8.17,3.47,3.71,5.51,7.45,7,10.18,3.16,5.79,2.35,6.44,4.59,9.56,2.59,3.6,4.76,4.25,11.32,8.82,5.72,3.99,9.31,6.49,12.07,9.57,2.86,3.2,6.36,8.76,7.41,18.57,12.04,55.5,19.89,97.03,22.26,112.66.67,4.38,1.98,13.3-3.13,20.72-3.88,5.64-9.22,7.97-11.45,8.8Z"/><path class="e" d="m133.25,67.4c-.72-3.65,4.29-7.74,11.15-9.1l24.92-4.94c6.85-1.36,13.05.51,13.77,4.16l1.97,9.94c-1.2-.79-2.92-1.62-4.68-1.22-2.47.56-2.81,3.01-5.24,3.41-2.28.38-3-1.61-5.33-1.19-2.28.41-2.28,2.43-4.68,2.95-2.35.51-3.15-1.27-5.32-.68-2.12.57-2.5,2.96-4.5,3.45-2.14.52-2.94-1.61-5.43-1.28-2.2.29-2.24,1.98-4.69,2.47-2.19.44-2.99-.72-5.28-.49-2.07.2-3.67,1.44-4.69,2.47"/><ellipse class="g" cx="195.72" cy="251.8" rx="55.31" ry="69.76" transform="translate(-45.24 42.88) rotate(-11.22)"/><ellipse class="f" cx="195.72" cy="251.8" rx="47.62" ry="60.06" transform="translate(-45.24 42.88) rotate(-11.22)"/><path class="g" d="m166.56,259.05c.21,1.07.07,2.05-.43,2.95-.5.9-1.3,1.59-2.4,2.08-.87.39-1.71.68-2.51.87-.8.19-3.17.68-7.11,1.46-.55.11-.88.17-.98.17s-.17-.05-.19-.15c-.03-.15.23-.29.79-.4.56-.11.89-.26,1-.45.1-.19.09-.61-.03-1.24l-2.93-14.77c-.1-.5-.55-.68-1.35-.54-.61.1-.93.09-.96-.04-.03-.15.15-.26.52-.33.36-.07.71-.14,1.06-.21l6.19-1.23c3.97-.79,6.23.18,6.77,2.9.45,2.26-.75,3.95-3.6,5.07l-.03.11c1.81.02,3.1.24,3.88.65,1.28.7,2.06,1.72,2.33,3.09Zm-6.39-8.02c-.49-2.49-1.5-3.59-3.02-3.29-.54.11-.9.21-1.07.29-.35.19-.48.5-.4.91l1.35,6.81c1.5-.3,2.48-.77,2.93-1.41s.52-1.75.21-3.31Zm2.24,8.72c-.48-2.42-1.45-3.7-2.9-3.82-.58-.05-1.37.03-2.39.23l.3,1.5c.08.43.19,1.04.31,1.84.06.4.2,1.14.41,2.22.37,1.86.62,2.83.74,2.93.18.16.58.18,1.22.05,2.11-.42,2.88-2.07,2.31-4.96Z"/><path class="g" d="m175.99,261.86c.02.12-.04.2-.19.23l-3.42.68-2.47.49c-.1.02-.23.05-.39.08-.14.03-.21.04-.23.05-.21.04-.32,0-.34-.1-.02-.08.17-.17.56-.26.58-.13.91-.26.99-.4.08-.13.06-.48-.05-1.05l-1.48-7.44c-.13-.66-.26-1.04-.4-1.15-.14-.11-.49-.11-1.06,0-.36.07-.57.1-.64.1-.06,0-.11-.06-.13-.16-.02-.12.09-.21.35-.26,1.89-.39,3.45-1.01,4.67-1.84.08.2.23.76.47,1.68l.65,3.27.96,4.85c.14.7.29,1.1.44,1.2.15.09.61.07,1.36-.08.19-.04.3,0,.32.12Zm-5.05-15.99c.1.48.01.93-.26,1.34s-.64.66-1.11.76c-.49.1-.94.02-1.34-.24-.4-.26-.65-.64-.75-1.14-.1-.48,0-.91.27-1.28.27-.38.67-.62,1.2-.72.47-.09.9-.02,1.28.23.38.25.61.6.71,1.07Z"/><path class="g" d="m184.64,258.59c.04.19-.08.47-.35.85-.69.98-1.78,1.61-3.27,1.91-1.37.27-2.33.12-2.9-.47-.22-.22-.37-.44-.44-.66-.07-.22-.2-.79-.38-1.72l-.25-1.24c-.03-.33-.08-.68-.15-1.04l-.16-.53-.46-2.32-.37-1.86c-.06-.31-.14-.48-.24-.52-.1-.03-.36,0-.79.08-.52.1-.79.08-.81-.05-.02-.1.06-.19.24-.26,1.61-.37,2.82-1.52,3.65-3.46.11-.27.2-.42.29-.43.1-.02.18.09.23.33.28,1.48.5,2.28.66,2.39.16.11.6.1,1.3-.04.72-.14,1.22-.28,1.5-.41.03-.02.06-.04.1-.05.07-.01.11.03.14.14.05.25-.04.4-.26.44-.7.16-1.47.32-2.32.49-.07.01-.19.04-.36.07l.11.54c.91,4.58,1.48,7.26,1.7,8.03.35.96.94,1.36,1.76,1.2.37-.07.79-.42,1.26-1.05.23-.3.38-.45.45-.47.05,0,.09.03.1.11Z"/><path class="g" d="m193.38,253.72c.34,1.71-.08,3.17-1.25,4.37-.81.83-1.72,1.34-2.74,1.54-.38.08-.95.06-1.72-.04-.41-.06-.71-.07-.92-.03-.37.07-.71.28-1.04.63-.07.07-.13.11-.17.12-.09.02-.16-.01-.19-.09-.03-.08-.08-.32-.17-.73l-2.01-10.16c-.01-.05-.04-.18-.08-.39-.04-.19-.07-.36-.1-.51l-.18-.9c-.07-.35-.18-.57-.33-.65-.15-.08-.44-.08-.87,0-.36.07-.55.06-.57-.03s.05-.16.22-.19c1.54-.31,2.85-.74,3.92-1.31l.09.32,1.19,6c.39-.85,1.07-1.38,2.03-1.57,1.16-.23,2.2-.01,3.11.66.91.67,1.5,1.65,1.75,2.94Zm-3.02.68c-.52-2.63-1.33-3.84-2.43-3.62-.61.12-1,.5-1.17,1.12-.07.24-.08.5-.04.8.04.3.19,1.13.46,2.5l.25,1.24c.25,1.28.51,2.1.76,2.48s.64.52,1.15.42c.71-.14,1.14-.59,1.29-1.33.15-.75.07-1.95-.26-3.61Z"/><path class="g" d="m206.01,255.39c.02.11-.08.19-.31.25-1.23.29-2.07.52-2.53.7-.46.18-.83.42-1.13.72-.07.07-.14.11-.21.12-.05.01-.09-.04-.11-.15-.04-.19-.07-.34-.09-.46-.02-.11-.05-.25-.08-.42-.02-.12-.05-.23-.08-.32-.67,1.08-1.5,1.71-2.5,1.91-.89.18-1.65.03-2.27-.44-.39-.29-.68-.91-.87-1.86l-.29-1.45c-.03-.16-.11-.57-.24-1.2s-.3-1.52-.53-2.65c-.06-.3-.14-.47-.24-.53-.1-.05-.35-.04-.76.02-.35.06-.53.04-.55-.06-.02-.11.06-.18.25-.22l.22-.04c.2-.04.51-.09.93-.15.42-.06.7-.11.85-.14.03,0,.16-.04.41-.11.25-.07.62-.15,1.1-.25l.39-.08.44,2.21c.21,1.05.35,1.82.42,2.32.07.5.1.71.09.64.28,1.43.55,2.31.81,2.62.25.32.58.44.97.36.45-.09.82-.42,1.11-1.01.09-.17.13-.34.12-.5-.01-.16-.08-.55-.2-1.16l-.7-3.51c-.2-.99-.33-1.59-.4-1.79-.08-.25-.27-.35-.58-.29l-.56.11c-.19.04-.29,0-.31-.11-.02-.08.34-.19,1.07-.34.63-.13,1.64-.33,3.01-.62.1.52.27,1.34.49,2.48l.82,4.13c.13.64.21,1.01.27,1.12.05.11.17.17.35.17.13,0,.5-.06,1.11-.18.18-.04.28,0,.3.11Z"/><path class="g" d="m212.4,246.97c.08.39.03.74-.15,1.04-.18.29-.46.48-.82.55-.73.14-1.17-.12-1.3-.8-.04-.23,0-.48.13-.74.03-.06.04-.11.03-.15-.02-.12-.12-.17-.3-.13-.46.09-.73.52-.83,1.28-.05.43.08,1.44.39,3.03l.29,1.48.35,1.79c.07.37.29.53.67.48.22-.03.48-.07.78-.13.15-.01.24.02.25.1.02.11-.03.18-.15.2l-.41.08c-.12.02-.71.14-1.77.35.05-.01-.25.05-.92.18l-1,.2-.77.15c-.14.03-.29.06-.47.09-.15.03-.23,0-.25-.09-.02-.09.07-.15.26-.19.55-.12.88-.25.97-.37.1-.12.09-.44,0-.94l-1.11-5.48c-.09-.46-.22-.76-.38-.92-.16-.15-.47-.2-.93-.15-.36.04-.56.06-.61.06-.05,0-.08-.04-.1-.12-.01-.08.03-.12.14-.15.12-.02.24-.05.35-.07l.41-.08c1.05-.21,2.13-.65,3.25-1.32.12.26.22.56.29.92l.17.86c.13-.71.32-1.23.57-1.56s.62-.54,1.11-.64c.46-.09.87-.02,1.21.2.35.23.57.56.65.99Z"/><path class="g" d="m223.57,244.54c.14.72-.13,1.15-.83,1.28-.64.13-1.01-.1-1.13-.69-.02-.09-.02-.21,0-.34.02-.13.03-.22.02-.28-.04-.23-.19-.32-.43-.27-.16.03-.3.13-.42.3s-.15.34-.12.52c.02.08.1.22.25.42.36.45.58.89.67,1.33.2,1.02-.1,1.96-.9,2.82-.62.66-1.44,1.09-2.49,1.3-.43.09-.95.1-1.55.04-.16-.01-.29,0-.4.01-.26.05-.46.17-.61.37-.15.19-.2.41-.16.64.1.5.53.67,1.3.51.58-.12,1.43-.37,2.55-.76.28-.1.54-.17.8-.22.91-.18,1.66-.09,2.25.26.59.36.97.95,1.13,1.78.26,1.33-.04,2.49-.91,3.48-.87.99-2.17,1.66-3.91,2-1.22.24-2.23.22-3.03-.07-.8-.29-1.27-.8-1.42-1.55-.22-1.13.47-1.97,2.08-2.53-1.07-.2-1.68-.7-1.84-1.5-.21-1.09.28-1.95,1.47-2.6-1.38-.39-2.18-1.17-2.41-2.32-.18-.91.06-1.76.73-2.54.67-.78,1.58-1.29,2.71-1.51,1.32-.26,2.41-.1,3.29.49.38-.77.93-1.22,1.63-1.36.92-.18,1.47.15,1.64.99Zm-4.41,2.96c-.41-2.07-1.11-3.01-2.1-2.81-.99.2-1.3,1.23-.93,3.11.22,1.13.51,1.92.85,2.36.34.44.8.61,1.37.49.53-.11.85-.38.97-.84.11-.46.06-1.23-.15-2.32Zm3.53,7.46c-.2-1-.89-1.39-2.07-1.15-.57.11-1.3.33-2.2.67-.64.24-1.13.39-1.45.46l-.31.06c-.29.54-.37,1.14-.23,1.82.29,1.44,1.36,1.97,3.24,1.6,1-.2,1.8-.63,2.38-1.3.58-.66.79-1.38.64-2.16Z"/><path class="g" d="m232.31,248.27c.06.3-.04.73-.29,1.29-.55,1.2-1.44,1.91-2.66,2.16-1.37.27-2.58.06-3.64-.63-1.05-.69-1.72-1.72-1.99-3.08-.26-1.33-.06-2.52.62-3.58s1.66-1.71,2.93-1.97c.87-.17,1.65-.13,2.33.13.76.29,1.32.8,1.68,1.55.1.23.2.52.29.85-.3.1-1.55.37-3.75.83-.34.07-.76.17-1.27.29.06.5.12.91.18,1.25.31,1.58.87,2.64,1.66,3.17.47.31.99.41,1.56.3.47-.09.9-.35,1.28-.76.38-.41.63-.9.76-1.46.06-.28.12-.43.19-.44.05-.01.09.02.11.1Zm-3.27-3.05c-.19-1.04-.41-1.75-.65-2.12-.24-.37-.57-.52-.97-.44-.83.16-1.12,1.18-.88,3.05.29-.06.88-.18,1.79-.36.27-.05.51-.1.71-.14Z"/><path class="g" d="m239.59,241.58c.08.39.03.74-.15,1.04-.18.3-.45.48-.82.55-.73.15-1.17-.12-1.3-.8-.04-.23,0-.48.13-.74.03-.06.04-.11.03-.15-.02-.12-.12-.17-.3-.13-.46.09-.73.52-.83,1.28-.05.43.08,1.44.39,3.03l.29,1.48.35,1.79c.07.37.29.53.67.48.22-.03.48-.07.78-.13.15-.01.24.02.25.1.02.11-.03.17-.15.2l-.41.08c-.12.02-.71.14-1.77.35.05-.01-.25.05-.92.18l-1,.2-.77.15c-.14.03-.29.06-.47.09-.15.03-.23,0-.25-.09s.07-.15.26-.19c.55-.12.88-.25.97-.37.1-.12.09-.44,0-.94l-1.11-5.48c-.09-.46-.22-.76-.38-.92-.16-.15-.47-.2-.93-.15-.36.04-.56.06-.61.06s-.08-.04-.1-.12.03-.12.14-.15c.12-.02.24-.05.35-.07l.41-.08c1.04-.21,2.13-.65,3.25-1.32.12.26.22.56.29.92l.17.86c.13-.71.32-1.23.57-1.56.25-.33.62-.54,1.11-.64.46-.09.87-.02,1.21.2.35.23.57.56.65.99Z"/><ellipse class="g" cx="186.85" cy="211.45" rx="10.52" ry="13.37" transform="translate(-37.56 40.39) rotate(-11.22)"/><rect x="160.17" y="215.58" width="12.13" height="4.7" transform="translate(-39.22 36.5) rotate(-11.22)"/><rect x="201.93" y="207.3" width="12.13" height="4.7" transform="translate(-36.81 44.47) rotate(-11.22)"/><rect x="167.5" y="272.76" width="67.33" height="4.7" transform="translate(-49.67 44.39) rotate(-11.22)"/><rect x="173.59" y="281.01" width="58.42" height="4.7" transform="translate(-51.25 44.87) rotate(-11.22)"/><rect x="178.95" y="289.27" width="51" height="4.7" transform="translate(-52.82 45.34) rotate(-11.22)"/></svg>