<?xml version="1.0" encoding="UTF-8"?>
<svg id="a" xmlns="http://www.w3.org/2000/svg" viewBox="0 0 412.01 412.01">
  <defs>
    <style>
      .cls-1 {
        fill: #010101;
        isolation: isolate;
        opacity: .2;
      }

      .cls-1, .cls-2, .cls-3, .cls-4, .cls-5, .cls-6, .cls-7, .cls-8, .cls-9 {
        stroke-width: 0px;
      }

      .cls-10 {
        font-size: 17px;
      }

      .cls-11 {
        font-size: 19px;
      }

      .cls-12 {
        font-size: 20.75px;
      }

      .cls-13, .cls-14 {
        font-family: BodoniSvtyTwoITCTT-Bold, 'Bodoni 72';
        font-weight: 700;
      }

      .cls-13, .cls-7 {
        fill: #fcb23c;
      }

      .cls-14, .cls-9 {
        fill: #0062e9;
      }

      .cls-3 {
        fill: #754800;
      }

      .cls-4 {
        fill: #9c6000;
      }

      .cls-5 {
        fill: #ffae2a;
      }

      .cls-6 {
        fill: #fff;
      }

      .cls-8 {
        fill: #00478c;
      }

      .cls-15 {
        font-size: 26.29px;
      }
    </style>
  </defs>
  <rect id="Background" class="cls-8" x=".03" y=".03" width="411.95" height="411.95"/>
  <polygon id="Shadow" class="cls-1" points="178.98 53.72 730.72 482.88 528.41 699.82 149.83 346.79 178.98 53.72"/>
  <g>
    <path class="cls-4" d="m260.18,334.63c-29.72,5.89-59.43,11.79-89.15,17.68-1.62.44-9.18,2.32-16.72-1.95-10.26-5.81-11.08-17.67-11.12-18.52-8.51-37.46-17.01-74.93-25.52-112.39-2.88-9.99-1.49-16.39.36-20.41,1.21-2.64,3.57-5.8,8.29-12.13,4.09-5.49,5.89-7.32,7.24-11.08,1.52-4.25,1.45-8.15,1.19-10.69-.28-2.78-.63-9.93,3.55-17.27,2.57-4.51,5.85-7.34,7.99-8.9-2.73-15.72-5.47-31.44-8.2-47.16-.76-.2-1.85-.62-2.59-1.59-.94-1.24-.75-2.67-.45-6.48.09-1.2.23-3.12.37-5.54-.14-1.35-.27-2.7-.41-4.05,16.08-3.19,32.17-6.38,48.25-9.57.26,1.05.51,2.11.77,3.16,1.03,1.62,1.87,3.03,2.5,4.12,2.04,3.52,2.36,4.52,2.21,5.62-.18,1.3-.97,2.26-1.56,2.83,3.92,15.76,7.83,31.53,11.75,47.29,5.5,2.68,9.08,5.92,11.18,8.17,3.47,3.71,5.51,7.45,7,10.18,3.16,5.79,2.35,6.44,4.59,9.56,2.59,3.6,4.76,4.25,11.32,8.82,5.72,3.99,9.31,6.49,12.07,9.57,2.86,3.2,6.36,8.76,7.41,18.57,12.04,55.5,19.89,97.03,22.26,112.66.67,4.38,1.98,13.3-3.13,20.72-3.88,5.64-9.22,7.97-11.45,8.8Z"/>
    <path class="cls-3" d="m260.18,334.63c-29.72,5.89-59.43,11.79-89.15,17.68-1.62.44-9.18,2.32-16.72-1.95-10.26-5.81-11.08-17.67-11.12-18.52-8.51-37.46-17.01-74.93-25.52-112.39-2.88-9.99-1.49-16.39.36-20.41,1.21-2.64,3.57-5.8,8.29-12.13,4.09-5.49,5.89-7.32,7.24-11.08,1.52-4.25,1.45-8.15,1.19-10.69-.28-2.78-.63-9.93,3.55-17.27,2.57-4.51,5.85-7.34,7.99-8.9-2.1-12.07-4.2-24.15-6.3-36.22,2.1-1.17,5.55-2.91,10.04-4.27,8.98-2.71,14.33-1.55,25.03-3.02,3.5-.48,8.73-1.4,15.05-3.33,2.94,11.82,5.87,23.64,8.81,35.46,5.5,2.68,9.08,5.92,11.18,8.17,3.47,3.71,5.51,7.45,7,10.18,3.16,5.79,2.35,6.44,4.59,9.56,2.59,3.6,4.76,4.25,11.32,8.82,5.72,3.99,9.31,6.49,12.07,9.57,2.86,3.2,6.36,8.76,7.41,18.57,12.04,55.5,19.89,97.03,22.26,112.66.67,4.38,1.98,13.3-3.13,20.72-3.88,5.64-9.22,7.97-11.45,8.8Z"/>
    <path class="cls-5" d="m132.75,67.13c-.72-3.65,4.29-7.74,11.15-9.1l24.92-4.94c6.85-1.36,13.05.51,13.77,4.16l1.97,9.94c-1.2-.79-2.92-1.62-4.68-1.22-2.47.56-2.81,3.01-5.24,3.41-2.28.38-3-1.61-5.33-1.19-2.28.41-2.28,2.43-4.68,2.95-2.35.51-3.15-1.27-5.32-.68-2.12.57-2.5,2.96-4.5,3.45-2.14.52-2.94-1.61-5.43-1.28-2.2.29-2.24,1.98-4.69,2.47-2.19.44-2.99-.72-5.28-.49-2.07.2-3.67,1.44-4.69,2.47"/>
    <ellipse class="cls-7" cx="195.22" cy="251.53" rx="55.31" ry="69.76" transform="translate(-45.2 42.78) rotate(-11.22)"/>
    <ellipse class="cls-6" cx="195.22" cy="251.53" rx="47.62" ry="60.06" transform="translate(-45.2 42.78) rotate(-11.22)"/>
    <path class="cls-9" d="m173.54,302.17c9.96,7.3,21.69,10.59,33.36,8.28,19.66-3.9,33.43-22.56,36.02-45.62l-69.38,37.34Z"/>
    <text class="cls-13" transform="translate(149.98 255.42) rotate(-11.22)"><tspan class="cls-15" x="0" y="0">Bit</tspan><tspan class="cls-12" x="32.15" y="0">burger</tspan></text>
    <ellipse class="cls-7" cx="186.35" cy="211.18" rx="10.52" ry="13.37" transform="translate(-37.52 40.28) rotate(-11.22)"/>
    <rect class="cls-2" x="159.67" y="215.31" width="12.13" height="4.7" transform="translate(-39.18 36.4) rotate(-11.22)"/>
    <rect class="cls-2" x="201.43" y="207.03" width="12.13" height="4.7" transform="translate(-36.77 44.36) rotate(-11.22)"/>
    <rect class="cls-2" x="173.09" y="280.74" width="58.42" height="4.7" transform="translate(-51.21 44.76) rotate(-11.22)"/>
    <rect class="cls-2" x="178.44" y="289" width="51" height="4.7" transform="translate(-52.78 45.24) rotate(-11.22)"/>
    <text class="cls-14" transform="translate(174.71 278.26) rotate(-11.22)"><tspan class="cls-11" x="0" y="0">0</tspan><tspan class="cls-10" x="10.68" y="0">,</tspan><tspan class="cls-15" x="16.08" y="0">0%</tspan></text>
    <path class="cls-9" d="m132.75,67.13c-.72-3.65,4.29-7.74,11.15-9.1l24.92-4.94c6.85-1.36,13.05.51,13.77,4.16l1.97,9.94c-1.2-.79-2.92-1.62-4.68-1.22-2.47.56-2.81,3.01-5.24,3.41-2.28.38-3-1.61-5.33-1.19-2.28.41-2.28,2.43-4.68,2.95-2.35.51-3.15-1.27-5.32-.68-2.12.57-2.5,2.96-4.5,3.45-2.14.52-2.94-1.61-5.43-1.28-2.2.29-2.24,1.98-4.69,2.47-2.19.44-2.99-.72-5.28-.49-2.07.2-3.67,1.44-4.69,2.47"/>
  </g>
</svg>