<?xml version="1.0" encoding="UTF-8"?><svg id="a" xmlns="http://www.w3.org/2000/svg" width="412.01" height="412.01" viewBox="0 0 412.01 412.01"><defs><style>.b{opacity:.1;}.c{fill:#e3e2e2;}.d{fill:#a8a845;}.e{fill:#414142;}.f{fill:#964b61;}.g{fill:#555;}.h{fill:#2b2d30;}.i{fill:#4a7297;}.j{fill:#010101;opacity:.2;}.j,.k,.l{isolation:isolate;}.k{fill:#f2f2f2;opacity:.2;}.l{fill:#040000;opacity:.06;}</style></defs><rect class="g" x=".03" y=".03" width="411.95" height="411.95"/><polygon class="j" points="301.43 122.22 638.3 436.57 464.2 610.23 80.09 267.57 301.43 122.22"/><rect class="c" x="151.58" y="91.23" width="108.85" height="59.4"/><path class="h" d="m340.32,174.04v86.69c0,5.05-4.12,9.17-9.14,9.17H80.83c-5.02,0-9.14-4.12-9.14-9.17v-86.69c0-.35,0-.7.04-1.05.08-.7.23-1.4.51-2.06.19-.54.43-1.05.7-1.55l1.83-2.18c1.59-1.48,3.77-2.33,6.06-2.33h250.35c2.29,0,4.47.86,6.06,2.33l1.83,2.18c.27.5.51,1.01.7,1.55.27.66.43,1.36.51,2.06.04.35.04.7.04,1.05Z"/><polygon class="e" points="340.32 170.92 71.69 170.92 72.94 169.37 74.77 167.19 112.08 121.59 299.93 121.59 337.24 167.19 339.07 169.37 340.32 170.92"/><path class="e" d="m277.24,211.16v58.73h-142.46v-58.73c0-7.84,6.41-14.25,14.25-14.25h113.97c7.84,0,14.25,6.41,14.25,14.25Z"/><g class="b"><path class="c" d="m87.98,203.02h0c-4.36,0-7.89-3.53-7.89-7.89h0c0-4.36,3.53-7.89,7.89-7.89h0c4.36,0,7.89,3.53,7.89,7.89h0c0,4.36-3.53,7.89-7.89,7.89Z"/><path class="c" d="m111.64,203.02h0c-4.36,0-7.89-3.53-7.89-7.89h0c0-4.36,3.53-7.89,7.89-7.89h0c4.36,0,7.89,3.53,7.89,7.89h0c0,4.36-3.53,7.89-7.89,7.89Z"/></g><g class="b"><path class="c" d="m297.6,203.02h0c-4.36,0-7.89-3.53-7.89-7.89h0c0-4.36,3.53-7.89,7.89-7.89h0c4.36,0,7.89,3.53,7.89,7.89h0c0,4.36-3.53,7.89-7.89,7.89Z"/><path class="c" d="m321.26,203.02h0c-4.36,0-7.89-3.53-7.89-7.89h0c0-4.36,3.53-7.89,7.89-7.89h0c4.36,0,7.89,3.53,7.89,7.89h0c0,4.36-3.53,7.89-7.89,7.89Z"/></g><path class="k" d="m340.28,172.99H71.73c.08-.7.23-1.4.51-2.06h267.53c.27.66.43,1.36.51,2.06Z"/><rect class="i" x="251.7" y="164.61" width="30.96" height="6.33"/><rect class="f" x="214.94" y="164.61" width="30.96" height="6.33"/><rect class="d" x="288.45" y="164.61" width="30.96" height="6.33"/><path class="h" d="m267.45,210.99h-124.16c-.61,0-1.1.49-1.1,1.1v2.79c0,.61.49,1.1,1.1,1.1h124.16c.61,0,1.1-.49,1.1-1.1v-2.79c0-.61-.49-1.1-1.1-1.1Z"/><polygon class="c" points="287.25 298.1 124.76 298.1 140.04 234.45 144.95 213.99 267.06 213.99 271.97 234.45 287.25 298.1"/><polygon class="l" points="271.97 234.45 140.04 234.45 144.95 213.99 267.06 213.99 271.97 234.45"/><path class="e" d="m202.64,249.02c.05,1.86-.31,3.51-1.1,4.95s-1.91,2.8-3.32,4.03c-1.43,1.25-3.55,2.79-6.37,4.65-4.71,3.16-7.49,6.39-8.24,9.68l12.06-.02.07-5.87,7.86-.02-.06,14.27h-30.37c.55-4.42,1.4-7.92,2.56-10.58,1.13-2.59,2.67-4.9,4.62-6.96,1.91-2.01,4.6-4.35,8.04-6.99,1.77-1.35,3.12-2.64,4.04-3.86.91-1.21,1.38-2.43,1.41-3.66s-.29-2.09-.94-2.69c-.65-.59-1.6-.88-2.84-.88-1.6.01-2.83.58-3.69,1.72-.87,1.15-1.49,3.06-1.86,5.78l-7.38-.26c.64-4.49,2.1-7.7,4.37-9.75s5.29-3.01,9.29-3.03c3.59-.03,6.41.76,8.5,2.37,2.13,1.65,3.26,4.01,3.35,7.13Z"/><path class="e" d="m224.77,250.33l7.57-.04,1.28,6.25h-3.48s-4.15,6.87-4.15,6.87l8.05,9.34h3.89s1.66,7.93,1.66,7.93h-11.35l-6.85-9.56-4.97,9.56h-9.12l-.37-7.89h4.09s5.29-8.12,5.29-8.12l-6.41-8.03-3.75.02-.3-6.23,9.58-.05,5.45,7.36,3.88-7.41Z"/></svg>