<?xml version="1.0" encoding="UTF-8"?>
<svg id="Layer_1" data-name="Layer 1" xmlns="http://www.w3.org/2000/svg" viewBox="0 0 412.01 412.01">
  <defs>
    <style>
      .cls-1 {
        fill: #010101;
        opacity: .2;
      }

      .cls-1, .cls-2, .cls-3, .cls-4 {
        stroke-width: 0px;
      }

      .cls-2 {
        fill: #512f17;
      }

      .cls-3 {
        fill: #8a6437;
      }

      .cls-4 {
        fill: #fff;
      }
    </style>
  </defs>
  <rect class="cls-3" x=".03" y=".03" width="411.95" height="411.95"/>
  <polygon class="cls-1" points="158.76 360.14 393.43 528.57 533.42 479.3 255 266.74 158.76 360.14"/>
  <path class="cls-4" d="m203.13,254.54c5.66-7.31,10.46-28.47.34-38.18-10-9.6-16.59-18.55-15.8-27.4.62-6.89,5.71-13.72,17.15-20.75-7.66,8.57-11.4,22.91-4.17,32.31,7.42,8.44,20.23,14.9,19.58,28.82-.88,9.87-3.93,15.3-11.38,21.57-3.46,2.39-5.72,3.62-5.72,3.62Z"/>
  <path class="cls-4" d="m256.89,351.56c-1.55,0-3.15-.11-4.75-.33-9.62-1.32-18.15-6.32-24.02-14.05-5.87-7.74-8.37-17.3-7.05-26.92,2.46-17.91,17.93-31.41,35.99-31.41,1.66,0,3.34.11,4.99.34,9.68,1.33,17.61,6.46,22.33,14.45,4.24,7.17,5.76,16.14,4.42,25.93-2.68,19.44-15.2,31.99-31.91,31.99Zm.17-58.17c-10.82,0-20.1,8.1-21.58,18.85-.79,5.77.71,11.51,4.23,16.15,3.52,4.64,8.64,7.64,14.41,8.43.94.13,1.87.2,2.77.2,10.93,0,16.21-10.04,17.5-19.43.88-6.41-.02-12.29-2.53-16.55-2.48-4.2-6.45-6.71-11.78-7.44-1-.14-2.01-.21-3.01-.21Z"/>
  <path class="cls-4" d="m146.66,266.74l8.8,87.75c.43,4.96,6.59,9.16,13.7,9.16h63.34c7.11,0,13.28-4.2,13.7-9.16l8.8-87.75h-108.33Z"/>
  <path class="cls-2" d="m167.92,288.52l3.62,51.29c.28,4.68,4.34,8.23,9.03,8.23h41.76c4.69,0,8.75-3.55,9.03-8.23l3.62-51.29h-67.06Z"/>
</svg>