<?xml version="1.0" encoding="UTF-8"?>
<svg id="a" xmlns="http://www.w3.org/2000/svg" viewBox="0 0 412.01 412.01">
  <defs>
    <style>
      .cls-1 {
        stroke: #f4a500;
        stroke-miterlimit: 10;
        stroke-width: 10px;
      }

      .cls-1, .cls-2 {
        fill: #fff;
      }

      .cls-3 {
        fill: #010101;
        isolation: isolate;
        opacity: .2;
      }

      .cls-3, .cls-4, .cls-5, .cls-6, .cls-2, .cls-7, .cls-8 {
        stroke-width: 0px;
      }

      .cls-9 {
        font-size: 11.11px;
      }

      .cls-9, .cls-10, .cls-11 {
        fill: #00164f;
        font-family: Arial-BoldMT, Arial;
        font-weight: 700;
      }

      .cls-10 {
        font-size: 16.2px;
      }

      .cls-11 {
        font-size: 16.2px;
      }

      .cls-4 {
        fill: #9c6000;
      }

      .cls-5 {
        fill: #231f20;
      }

      .cls-6 {
        fill: #ffae2a;
      }

      .cls-7 {
        fill: #00478c;
      }

      .cls-8 {
        fill: #00026a;
      }
    </style>
  </defs>
  <rect id="Background" class="cls-7" x=".03" y=".03" width="411.95" height="411.95"/>
  <path id="Shadow" class="cls-3" d="m186.45,54.53c181.42,142.78,362.85,285.57,544.27,428.35l-202.31,216.95L149.83,346.79c12.21-97.42,24.41-194.84,36.62-292.26Z"/>
  <path class="cls-4" d="m268.2,335.12c-29.72,6.45-62.61,13.59-92.33,20.04-1.61.47-9.17,2.49-16.82-1.66-10.4-5.65-11.44-17.54-11.5-18.39-9.22-37.45-15.27-75.59-24.48-113.04-3.07-9.97-1.8-16.42-.01-20.5,1.17-2.67,3.48-5.89,8.1-12.33,4.01-5.58,5.78-7.45,7.07-11.26,1.45-4.29,1.31-8.21,1-10.75-.34-2.78-.81-9.95,3.25-17.4,2.5-4.57,5.74-7.47,7.86-9.07-3.03-15.73-6.06-31.46-9.09-47.19-.77-.18-1.87-.58-2.62-1.55-.96-1.23-.8-2.67-.57-6.5.07-1.21.18-3.14.27-5.56-.16-1.35-.32-2.7-.48-4.06,16.09-3.49,32.17-6.98,48.26-10.48.28,1.05.55,2.1.83,3.16,1.07,1.61,1.93,3.01,2.58,4.09,2.11,3.5,2.45,4.49,2.32,5.6-.16,1.31-.93,2.28-1.52,2.87,4.22,15.75,8.43,31.5,12.65,47.26,5.57,2.59,9.22,5.78,11.37,8,3.55,3.66,5.67,7.38,7.21,10.09,3.28,5.76,2.47,6.42,4.78,9.51,2.66,3.57,4.86,4.18,11.52,8.65,5.81,3.9,9.47,6.35,12.29,9.39,2.93,3.16,6.55,8.67,7.78,18.5,13.09,55.49,21.72,97.03,24.38,112.68.75,4.38,2.23,13.32-2.76,20.86-3.8,5.73-9.11,8.17-11.33,9.04Z"/>
  <path class="cls-6" d="m135.45,68.92c-.79-3.65,4.17-7.85,11.02-9.34l24.92-5.41c6.85-1.49,13.11.28,13.9,3.92l2.16,9.94c-1.22-.77-2.96-1.57-4.72-1.14-2.47.61-2.77,3.07-5.2,3.52-2.28.42-3.04-1.56-5.38-1.1-2.28.45-2.24,2.48-4.64,3.05-2.35.56-3.18-1.22-5.35-.59-2.12.61-2.45,3.01-4.45,3.54-2.14.56-2.98-1.56-5.48-1.19-2.21.33-2.21,2.03-4.66,2.57-2.19.48-3.01-.67-5.31-.4-2.07.24-3.65,1.52-4.66,2.57"/>
  <path class="cls-8" d="m255.04,180.89s0,0,0,0c-.03-.06-.07-.13-.11-.19-.75-1.38-1.61-2.68-2.58-3.89-.02-.03-.05-.06-.07-.1-4.73-6.2-10.69-9.64-14.44-12.05-5.88-3.78-8.58-4.71-11.52-8.65-2.31-3.09-1.5-3.76-4.78-9.51-1.54-2.71-3.66-6.43-7.21-10.09-2.15-2.22-5.8-5.41-11.37-8-3.16-11.81-6.32-23.62-9.48-35.43-6.31,2.06-11.54,3.07-15.05,3.62-10.72,1.66-16.11.6-25.07,3.48-4.48,1.44-7.91,3.25-10,4.46,2.33,12.08,4.65,24.16,6.98,36.24-2.12,1.6-5.36,4.5-7.86,9.07-4.06,7.44-3.59,14.61-3.25,17.4.31,2.55.45,6.46-1,10.75-1.04,3.1-2.25,4.68-7.07,11.26-1.58,2.16-2.85,3.91-3.87,5.33-1.19,1.39-2.24,2.9-3.11,4.51-.85,1.34-1.04,1.85-1.1,2.27-2.03,4.76-2.66,10.18-1.48,15.62l26.26,120.98c3.03,13.98,16.82,22.85,30.8,19.81l85.23-18.5c13.98-3.03,22.85-16.82,19.81-30.8l-26.26-120.98c-.51-2.36-1.34-4.57-2.41-6.61Z"/>
  <rect class="cls-2" x="161.71" y="96.8" width="28.96" height="74.24" rx="8.34" ry="8.34" transform="translate(-24.4 40.43) rotate(-12.25)"/>
  <path class="cls-2" d="m196.78,105.17c-17.08,3.74-34.15,7.48-51.23,11.21-1.33-7.03-2.65-14.07-3.98-21.1,16.58-3.54,33.16-7.08,49.74-10.62,1.82,6.84,3.64,13.67,5.47,20.51Z"/>
  <text class="cls-9" transform="translate(186.83 163.16) rotate(-102.25)"><tspan x="0" y="0">RADLER</tspan></text>
  <ellipse class="cls-1" cx="203.29" cy="261.76" rx="50.99" ry="69.49" transform="translate(-50.91 49.09) rotate(-12.25)"/>
  <text class="cls-11" transform="translate(191.9 297.64) rotate(-139.67) scale(.92 1)"><tspan x="0" y="0"> </tspan></text>
  <text class="cls-11" transform="translate(188.9 295.11) rotate(-134.35) scale(.92 1)"><tspan x="0" y="0"> </tspan></text>
  <text class="cls-11" transform="translate(186.16 292.32) rotate(-129.57) scale(.92 1)"><tspan x="0" y="0"> </tspan></text>
  <text class="cls-11" transform="translate(183.64 289.28) rotate(-125.17) scale(.92 1)"><tspan x="0" y="0"> </tspan></text>
  <text class="cls-11" transform="translate(181.37 286.06) rotate(-121.11) scale(.92 1)"><tspan x="0" y="0"> </tspan></text>
  <text class="cls-11" transform="translate(179.3 282.64) rotate(-117.25) scale(.92 1)"><tspan x="0" y="0"> </tspan></text>
  <text class="cls-11" transform="translate(177.48 279.12) rotate(-113.61) scale(.92 1)"><tspan x="0" y="0"> </tspan></text>
  <text class="cls-11" transform="translate(175.88 275.47) rotate(-110.11) scale(.92 1)"><tspan x="0" y="0"> </tspan></text>
  <text class="cls-11" transform="translate(174.5 271.71) rotate(-106.7) scale(.92 1)"><tspan x="0" y="0"> </tspan></text>
  <text class="cls-11" transform="translate(173.35 267.89) rotate(-103.41) scale(.92 1)"><tspan x="0" y="0"> </tspan></text>
  <text class="cls-11" transform="translate(172.42 264.01) rotate(-100.14) scale(.92 1)"><tspan x="0" y="0"> </tspan></text>
  <text class="cls-11" transform="translate(171.71 260.08) rotate(-96.81) scale(.92 1)"><tspan x="0" y="0"> </tspan></text>
  <text class="cls-11" transform="translate(171.11 256.23) rotate(-91.29) scale(.92 1)"><tspan x="0" y="0">F</tspan></text>
  <text class="cls-11" transform="translate(170.88 247.48) rotate(-83.06) scale(.92 1)"><tspan x="0" y="0">L</tspan></text>
  <text class="cls-11" transform="translate(171.83 238.81) rotate(-73.09) scale(.92 1)"><tspan x="0" y="0">E</tspan></text>
  <text class="cls-11" transform="translate(174.39 229.8) rotate(-59.6) scale(.92 1)"><tspan x="0" y="0">N</tspan></text>
  <text class="cls-11" transform="translate(179.34 221.08) rotate(-41.47) scale(.92 1)"><tspan x="0" y="0">S</tspan></text>
  <text class="cls-11" transform="translate(185.88 214.84) rotate(-18.24) scale(.92 1)"><tspan x="0" y="0">B</tspan></text>
  <text class="cls-11" transform="translate(195.1 211.58) rotate(7.15) scale(.92 1)"><tspan x="0" y="0">U</tspan></text>
  <text class="cls-11" transform="translate(204.94 212.75) rotate(28.46) scale(.92 1)"><tspan x="0" y="0">R</tspan></text>
  <text class="cls-11" transform="translate(213.85 217.49) rotate(44.64) scale(.92 1)"><tspan x="0" y="0">G</tspan></text>
  <text class="cls-11" transform="translate(221.68 225.32) rotate(56.49) scale(.92 1)"><tspan x="0" y="0">E</tspan></text>
  <text class="cls-11" transform="translate(226.99 233.25) rotate(66.04) scale(.92 1)"><tspan x="0" y="0">R</tspan></text>
  <text class="cls-10" transform="translate(176.81 303.21) rotate(40.83) scale(.92 1)"><tspan x="0" y="0"> </tspan></text>
  <text class="cls-10" transform="translate(180.4 306.29) rotate(36.36) scale(.92 1)"><tspan x="0" y="0"> </tspan></text>
  <text class="cls-10" transform="translate(184.53 309.55) rotate(27.8) scale(.92 1)"><tspan x="0" y="0">R</tspan></text>
  <text class="cls-10" transform="translate(196.08 315.42) rotate(11.21) scale(.92 1)"><tspan x="0" y="0">A</tspan></text>
  <text class="cls-10" transform="translate(209.77 317.41) rotate(-12.48) scale(.92 1)"><tspan x="0" y="0">D</tspan></text>
  <text class="cls-10" transform="translate(222.18 314.32) rotate(-27.89) scale(.92 1)"><tspan x="0" y="0">L</tspan></text>
  <text class="cls-10" transform="translate(231.98 308.87) rotate(-44.16) scale(.92 1)"><tspan x="0" y="0">E</tspan></text>
  <text class="cls-10" transform="translate(240.47 300.23) rotate(-60.68) scale(.92 1)"><tspan x="0" y="0">R</tspan></text>
  <path class="cls-5" d="m177.68,281.61c1.06-.1,2.73-.26,4.78-.51l-.59-2.72c-.08-.35.19-.7.58-.79l3.53-.77c.4-.09.78.13.86.48l.68,3.13c.63-.09,1.27-.19,1.92-.3l-.09-.4c-.08-.35.19-.7.58-.79l1.08-.23-1.17-5.38c-2.97.04-5.73.31-7.03.45-.34.04-.59-.26-.46-.54,1.15-2.48,1.41-5.75,1.25-8.94-.27-5.48,3.91-10.55,9.92-12.09.02,0,.04-.01.06-.02.29-.08.57.11.57.38-.02.62,0,1.25.02,1.89l1.51-.19-1.12-5.15c-.07-.33.18-.67.56-.75s.75.12.82.46l5.63,25.95,1.3-.28-6.37-29.33c-.07-.33.18-.67.56-.75s.75.12.82.46l1.12,5.15,2.05-.64c-.25-.63-.52-1.25-.81-1.84-.11-.22.06-.49.33-.54.82-.14,2.48-.49,4.41-1.15l-.83-3.83c-.07-.33.18-.67.56-.75s.75.12.82.46l.79,3.63c1.31-.53,2.68-1.22,3.95-2.09.26-.18.62-.06.67.22.44,2.64,2.39,12.84,7.14,16.9.22.19.13.53-.18.63-1.37.45-4.56,1.54-7.53,2.98l1.69,7.78c1.34-.82,2.96-1.6,4.7-2.34l-.22-.51c-.27-.64.1-1.39.84-1.67l2.39-.91-.5-2.31c-1.92.96-3.7,2.05-4.8,3.21-.25.27-.73.14-.74-.2-.03-.74-.09-1.81-.21-3.1,1.6-.67,3.26-1.27,4.8-1.77.18-.06.34-.14.49-.24.36-.24.62-.58.73-.98.16-.56-.02-1.12-.47-1.51-.36-.31-.7-.66-1.03-1.04-2.74-3.2-4.35-8.76-5.15-12.28.72-.21,1.5-.46,2.31-.78l-.88-4.06c-.07-.33.18-.67.56-.75.19-.04.38-.01.52.07.15.08.26.22.29.38l.83,3.81c1.04-.47,2.1-1.04,3.1-1.72.26-.18.62-.06.67.22.44,2.64,2.39,12.84,7.14,16.9.22.19.13.53-.18.63-1.24.41-3.97,1.34-6.69,2.58l.53,2.43,2.81-1.06c.74-.28,1.56.01,1.83.66l.31.73c2.68-.8,4.94-1.39,6.1-1.68.35-.09.64.2.51.5-.49,1.1-1.34,3.32-1.4,5.4-.05,1.7-.45,3.4-1.17,5.01h0c-.22.51-.72.89-1.31,1.02l-46.11,10.01c-.69.15-1.38-.07-1.78-.56-.79-.98-2.2-2.61-3.49-3.57-.29-.22-.12-.66.27-.69Zm26.58-7.42l1.79-.39c.77-.17,1.52.25,1.66.93l.06.27c.75-.44,1.38-.91,1.87-1.41.33-.33.72-.66,1.16-.98l-1.73-7.97c-1.59.85-3.02,1.79-3.96,2.77-.25.27-.73.14-.74-.2-.03-.77-.1-1.9-.22-3.27l-1.98.62,2.09,9.63h0Zm-2.35-10.84l2.12-.66c-.37-3.49-1.11-8.06-2.54-12.15l-2.22.69,2.63,12.12Zm-5.94-7.86l-1.7.21c.34,4.22,1.44,8.61,2.55,12.13l1.78-.22-2.63-12.12Zm-3.57,22.92l1.08-.23c.4-.09.78.13.86.48l.13.59c1.34-.27,2.67-.56,3.96-.87l-.34-1.55c-.15-.68.36-1.37,1.13-1.53l1-.22-1.36-6.25-1.66.21c.69,2.08,1.33,3.77,1.75,4.8.14.34-.27.68-.64.53-1.79-.72-4.4-.98-7.01-1.03l1.1,5.08h0Z"/>
</svg>