<?xml version="1.0" encoding="UTF-8"?><svg id="a" xmlns="http://www.w3.org/2000/svg" width="412.01" height="412.01" viewBox="0 0 412.01 412.01"><defs><style>.d{fill:#00478c;}.e{fill:#00164f;}.f{fill:#ffae2a;}.g,.h{fill:#fff;}.i{fill:#231f20;}.j{fill:#9c6000;}.k{fill:#754800;}.h{stroke:#f4a500;stroke-miterlimit:10;stroke-width:10px;}.l{fill:#010101;isolation:isolate;opacity:.2;}</style></defs><rect id="b" class="d" x=".03" y=".03" width="411.95" height="411.95"/><path id="c" class="l" d="m186.45,54.53l544.27,428.35-202.31,216.95L149.83,346.79c12.21-97.42,24.41-194.84,36.62-292.26Z"/><path class="j" d="m268.2,335.12c-29.72,6.45-62.61,13.59-92.33,20.04-1.61.47-9.17,2.49-16.82-1.66-10.4-5.65-11.44-17.54-11.5-18.39-9.22-37.45-15.27-75.59-24.48-113.04-3.07-9.97-1.8-16.42-.01-20.5,1.17-2.67,3.48-5.89,8.1-12.33,4.01-5.58,5.78-7.45,7.07-11.26,1.45-4.29,1.31-8.21,1-10.75-.34-2.78-.81-9.95,3.25-17.4,2.5-4.57,5.74-7.47,7.86-9.07-3.03-15.73-6.06-31.46-9.09-47.19-.77-.18-1.87-.58-2.62-1.55-.96-1.23-.8-2.67-.57-6.5.07-1.21.18-3.14.27-5.56-.16-1.35-.32-2.7-.48-4.06l48.26-10.48c.28,1.05.55,2.1.83,3.16,1.07,1.61,1.93,3.01,2.58,4.09,2.11,3.5,2.45,4.49,2.32,5.6-.16,1.31-.93,2.28-1.52,2.87,4.22,15.75,8.43,31.5,12.65,47.26,5.57,2.59,9.22,5.78,11.37,8,3.55,3.66,5.67,7.38,7.21,10.09,3.28,5.76,2.47,6.42,4.78,9.51,2.66,3.57,4.86,4.18,11.52,8.65,5.81,3.9,9.47,6.35,12.29,9.39,2.93,3.16,6.55,8.67,7.78,18.5,13.09,55.49,21.72,97.03,24.38,112.68.75,4.38,2.23,13.32-2.76,20.86-3.8,5.73-9.11,8.17-11.33,9.04Z"/><path class="f" d="m135.45,68.92c-.79-3.65,4.17-7.85,11.02-9.34l24.92-5.41c6.85-1.49,13.11.28,13.9,3.92l2.16,9.94c-1.22-.77-2.96-1.57-4.72-1.14-2.47.61-2.77,3.07-5.2,3.52-2.28.42-3.04-1.56-5.38-1.1-2.28.45-2.24,2.48-4.64,3.05-2.35.56-3.18-1.22-5.35-.59-2.12.61-2.45,3.01-4.45,3.54-2.14.56-2.98-1.56-5.48-1.19-2.21.33-2.21,2.03-4.66,2.57-2.19.48-3.01-.67-5.31-.4-2.07.24-3.65,1.52-4.66,2.57"/><path class="k" d="m255.04,180.89s0,0,0,0c-.03-.06-.07-.13-.11-.19-.75-1.38-1.61-2.68-2.58-3.89-.02-.03-.05-.06-.07-.1-4.73-6.2-10.69-9.64-14.44-12.05-5.88-3.78-8.58-4.71-11.52-8.65-2.31-3.09-1.5-3.76-4.78-9.51-1.54-2.71-3.66-6.43-7.21-10.09-2.15-2.22-5.8-5.41-11.37-8-3.16-11.81-6.32-23.62-9.48-35.43-6.31,2.06-11.54,3.07-15.05,3.62-10.72,1.66-16.11.6-25.07,3.48-4.48,1.44-7.91,3.25-10,4.46,2.33,12.08,4.65,24.16,6.98,36.24-2.12,1.6-5.36,4.5-7.86,9.07-4.06,7.44-3.59,14.61-3.25,17.4.31,2.55.45,6.46-1,10.75-1.04,3.1-2.25,4.68-7.07,11.26-1.58,2.16-2.85,3.91-3.87,5.33-1.19,1.39-2.24,2.9-3.11,4.51-.85,1.34-1.04,1.85-1.1,2.27-2.03,4.76-2.66,10.18-1.48,15.62l26.26,120.98c3.03,13.98,16.82,22.85,30.8,19.81l85.23-18.5c13.98-3.03,22.85-16.82,19.81-30.8l-26.26-120.98c-.51-2.36-1.34-4.57-2.41-6.61Z"/><rect class="g" x="161.71" y="96.8" width="28.96" height="74.24" rx="8.34" ry="8.34" transform="translate(-24.4 40.43) rotate(-12.25)"/><path class="g" d="m196.78,105.17c-17.08,3.74-34.15,7.48-51.23,11.21-1.33-7.03-2.65-14.07-3.98-21.1,16.58-3.54,33.16-7.08,49.74-10.62,1.82,6.84,3.64,13.67,5.47,20.51Z"/><path class="e" d="m186.6,162.34l-7.77,1.69-.55-2.52c-.21-.95-.3-1.58-.29-1.89.02-.47.19-.9.52-1.29.33-.38.8-.64,1.42-.78.48-.1.9-.1,1.26,0,.36.1.67.27.91.49.24.23.43.47.55.73.16.36.31.89.46,1.6l.22,1.02,2.93-.64.34,1.57Zm-6.8-.17l2.21-.48-.19-.86c-.13-.62-.26-1.02-.39-1.21-.13-.19-.29-.33-.49-.41-.2-.08-.41-.1-.64-.05-.28.06-.5.19-.65.4-.15.21-.22.44-.21.7,0,.2.07.58.19,1.14l.16.76Z"/><path class="e" d="m185.04,155.15l-7.77,1.69-.34-1.57,7.77-1.69.34,1.57Z"/><path class="e" d="m184.36,152.04l-7.71,1.67-.34-1.57,6.4-1.39-.85-3.9,1.31-.28,1.19,5.47Z"/><path class="e" d="m180.49,146.4l-.48-1.49c.49-.2.83-.47,1.01-.81.18-.33.22-.74.11-1.22-.11-.51-.3-.86-.57-1.07-.27-.21-.55-.28-.83-.22-.18.04-.33.13-.43.26-.11.14-.18.35-.21.64-.02.2-.05.64-.07,1.33-.03.89-.15,1.53-.38,1.94-.32.57-.79.92-1.41,1.06-.4.09-.79.06-1.18-.09-.39-.15-.73-.42-1-.8-.27-.38-.47-.87-.6-1.47-.21-.98-.16-1.76.16-2.34.32-.59.83-.97,1.54-1.15l.41,1.55c-.38.15-.64.36-.77.62-.13.26-.14.61-.05,1.05.1.46.27.79.51,1.01.16.14.34.19.54.14.18-.04.32-.15.42-.33.12-.24.19-.75.21-1.56.01-.8.08-1.41.19-1.82.11-.41.31-.75.6-1.03.29-.28.68-.47,1.17-.58.45-.1.89-.06,1.33.1.44.16.81.45,1.09.86.29.41.5.96.65,1.63.21.98.15,1.79-.19,2.41s-.93,1.08-1.78,1.37Z"/><path class="e" d="m181.36,138.21l-7.77,1.69-1.25-5.76,1.32-.29.91,4.19,1.72-.37-.85-3.9,1.31-.28.85,3.9,2.12-.46-.94-4.34,1.31-.28,1.28,5.91Z"/><path class="e" d="m179.79,130.95l-7.77,1.69-.33-1.53,4.5-4.31-5.19,1.13-.32-1.46,7.77-1.69.34,1.57-4.39,4.24,5.07-1.1.32,1.46Z"/><path class="e" d="m178.09,123.12l-7.77,1.69-1.25-5.76,1.31-.29.91,4.19,1.72-.37-.85-3.9,1.31-.28.85,3.9,2.12-.46-.94-4.34,1.31-.28,1.28,5.91Z"/><path class="e" d="m176.51,115.88l-7.77,1.69-.72-3.3c-.18-.83-.24-1.45-.18-1.86.06-.41.24-.76.55-1.06.31-.3.69-.51,1.15-.61.58-.13,1.1-.06,1.56.2.45.26.81.72,1.05,1.38.12-.38.28-.71.47-.98.19-.27.54-.66,1.07-1.17l1.31-1.28.41,1.88-1.44,1.5c-.52.53-.84.89-.96,1.08-.13.18-.2.36-.22.54-.02.18,0,.45.08.81l.07.32,3.25-.7.34,1.57Zm-4.83-.6l-.25-1.16c-.16-.75-.3-1.22-.4-1.39-.1-.17-.25-.3-.42-.37-.18-.07-.38-.08-.62-.03-.26.06-.46.17-.59.35-.13.18-.19.39-.18.66,0,.13.08.51.22,1.15l.27,1.22,1.97-.43Z"/><ellipse class="h" cx="203.29" cy="261.76" rx="50.99" ry="69.49" transform="translate(-50.91 49.09) rotate(-12.25)"/><path class="e" d="m171.03,255.1l-11.6.26-.17-7.34,1.96-.04.12,5.18,2.75-.06-.1-4.47,1.96-.04.1,4.47,4.93-.11.05,2.16Z"/><path class="e" d="m170.96,246.31l-11.42-1.39.26-2.15,9.48,1.16.65-5.34,1.94.24-.91,7.48Z"/><path class="e" d="m172.09,237.75l-11.1-3.37,2.31-7.6,1.88.57-1.68,5.53,2.46.75,1.56-5.14,1.87.57-1.56,5.15,3.02.92,1.74-5.73,1.87.57-2.37,7.79Z"/><path class="e" d="m174.9,228.81l-10-5.87,1.07-1.81,8.9.14-6.68-3.92,1.02-1.73,10,5.87-1.1,1.87-8.71-.1,6.52,3.83-1.02,1.73Z"/><path class="e" d="m177.19,217.87l1.43-1.56c.6.49,1.17.74,1.69.75.53.01,1.04-.2,1.53-.63.52-.46.81-.93.86-1.4.05-.47-.06-.87-.34-1.19-.18-.21-.39-.33-.63-.38s-.54,0-.92.14c-.25.1-.8.35-1.63.77-1.07.53-1.94.79-2.59.75-.92-.04-1.68-.41-2.28-1.09-.39-.44-.64-.96-.75-1.55-.11-.59-.03-1.18.22-1.77.26-.59.69-1.15,1.31-1.7,1.01-.89,1.98-1.32,2.91-1.29.93.03,1.76.43,2.49,1.21l-1.55,1.51c-.46-.38-.9-.57-1.3-.57-.4,0-.83.21-1.29.61-.47.42-.75.85-.83,1.29-.05.29.02.54.22.77.18.21.42.31.71.32.37,0,1.04-.24,2-.74.97-.5,1.73-.8,2.3-.92.57-.12,1.12-.09,1.67.1.54.19,1.06.55,1.54,1.1.44.5.72,1.08.85,1.74.13.66.05,1.3-.23,1.93-.28.62-.77,1.25-1.47,1.86-1.01.9-2.02,1.33-3.01,1.3-.99-.03-1.97-.48-2.94-1.36Z"/><path class="e" d="m183.27,203.44l4.07-1.33c.8-.26,1.42-.42,1.84-.48.42-.06.82-.02,1.21.11.39.13.75.35,1.08.66.33.32.58.71.74,1.19.17.52.2,1.03.08,1.55-.12.51-.36.95-.73,1.31.68,0,1.27.17,1.76.53.49.36.84.86,1.04,1.5.17.5.22,1.02.16,1.57-.06.54-.23,1.02-.51,1.42-.28.41-.68.73-1.21.97-.33.15-1.15.45-2.45.89l-3.46,1.14-3.62-11.02Zm2.66,1.16l.84,2.55,1.35-.44c.8-.26,1.29-.44,1.48-.53.34-.16.57-.38.7-.67.13-.28.14-.6.02-.96-.11-.34-.29-.59-.53-.75-.24-.16-.54-.2-.9-.13-.21.04-.8.22-1.77.54l-1.18.39Zm1.44,4.38l.97,2.95,1.9-.62c.74-.24,1.2-.42,1.39-.53.29-.16.49-.39.6-.68.12-.3.11-.64-.02-1.03-.11-.33-.27-.59-.5-.77-.22-.18-.49-.28-.81-.29-.31-.01-.94.13-1.87.44l-1.66.54Z"/><path class="e" d="m197.55,200.18l2.15.27-.78,6.23c-.12.99-.18,1.63-.16,1.93.03.48.2.89.51,1.22.31.33.76.53,1.36.61.61.08,1.08,0,1.43-.23.34-.23.57-.54.68-.92.11-.38.23-1.03.34-1.94l.8-6.37,2.15.27-.76,6.05c-.17,1.38-.36,2.35-.54,2.91-.19.56-.46,1.01-.82,1.36s-.82.61-1.37.78-1.25.2-2.09.09c-1.01-.13-1.77-.35-2.26-.67-.49-.32-.87-.7-1.12-1.15-.25-.44-.4-.89-.44-1.35-.06-.68,0-1.66.16-2.95l.77-6.14Z"/><path class="e" d="m205.84,213.24l5.53-10.2,4,2.17c1,.54,1.69,1.03,2.04,1.46.36.43.55.95.57,1.57.02.62-.13,1.23-.46,1.83-.41.76-.96,1.28-1.65,1.56-.69.27-1.48.25-2.37-.07.27.48.46.95.55,1.41.1.46.16,1.2.18,2.24l.07,2.61-2.27-1.23-.17-2.96c-.06-1.06-.12-1.74-.19-2.04-.07-.3-.18-.55-.34-.73-.16-.19-.46-.4-.9-.64l-.38-.21-2.31,4.26-1.9-1.03Zm5.09-4.85l1.41.76c.91.5,1.5.76,1.78.8.27.04.53,0,.77-.14.24-.13.44-.35.61-.66.19-.34.25-.67.2-.97-.06-.3-.22-.57-.5-.79-.14-.11-.6-.37-1.37-.79l-1.48-.8-1.4,2.59Z"/><path class="e" d="m221.11,218.7l1.37-1.39,3.32,3.27-3.25,3.29c-.66.02-1.42-.14-2.28-.49-.87-.35-1.61-.83-2.24-1.45-.8-.79-1.31-1.65-1.55-2.6-.23-.95-.17-1.91.2-2.87.37-.97.94-1.85,1.72-2.64.85-.86,1.77-1.46,2.76-1.8.99-.34,1.99-.37,2.98-.09.76.21,1.5.67,2.23,1.39.95.93,1.47,1.88,1.58,2.83.11.96-.14,1.89-.73,2.8l-1.83-1.2c.29-.51.41-1.03.34-1.56s-.32-1.01-.76-1.45c-.67-.67-1.44-.96-2.29-.89-.85.07-1.73.56-2.62,1.47-.97.98-1.49,1.91-1.57,2.8-.08.89.2,1.65.85,2.29.32.32.71.57,1.17.75.46.18.9.29,1.33.33l1.03-1.05-1.76-1.74Z"/><path class="e" d="m222.23,226.21l9.67-6.4,4.38,6.62-1.64,1.08-3.19-4.82-2.14,1.42,2.97,4.48-1.63,1.08-2.97-4.48-2.63,1.74,3.3,4.99-1.63,1.08-4.5-6.79Z"/><path class="e" d="m227.38,234.23l10.6-4.71,1.85,4.16c.46,1.05.71,1.85.73,2.41.02.56-.15,1.09-.51,1.59-.36.5-.85.89-1.48,1.17-.8.35-1.55.43-2.26.23-.71-.2-1.32-.7-1.84-1.5-.08.55-.22,1.03-.42,1.45-.2.42-.61,1.05-1.22,1.89l-1.54,2.11-1.05-2.36,1.67-2.45c.6-.88.96-1.45,1.09-1.74.13-.28.19-.54.18-.79-.01-.24-.12-.59-.32-1.05l-.18-.4-4.43,1.97-.88-1.98Zm6.99-.74l.65,1.46c.42.95.73,1.52.92,1.72.19.2.42.32.69.35.27.04.57-.01.88-.15.36-.16.61-.38.75-.65.14-.27.17-.58.09-.93-.05-.17-.25-.66-.61-1.46l-.68-1.54-2.69,1.19Z"/><path class="e" d="m177.8,304.3l7.09-9.18,2.75,2.12c1.04.8,1.68,1.38,1.93,1.71.38.51.55,1.13.52,1.84-.03.71-.33,1.44-.89,2.17-.44.56-.9.96-1.38,1.2-.49.24-.96.35-1.42.35-.46,0-.87-.09-1.22-.25-.48-.23-1.1-.64-1.88-1.24l-1.12-.86-2.68,3.46-1.71-1.32Zm7.6-6.3l-2.01,2.6.94.72c.67.52,1.16.82,1.46.9.3.08.6.07.88-.04.29-.1.54-.29.75-.56.26-.33.38-.68.37-1.04-.01-.36-.14-.67-.37-.94-.17-.2-.57-.54-1.18-1.01l-.83-.64Z"/><path class="e" d="m186.67,310.65l5.77-10.06,1.88,1.07-5.77,10.06-1.88-1.08Z"/><path class="e" d="m191.38,313.29l4.13-10.74,2.02.78-3.43,8.91,5.02,1.93-.7,1.82-7.04-2.71Z"/><path class="e" d="m201.81,313.09l2.11-.1c.08.77.31,1.34.68,1.72.37.38.88.59,1.54.63.7.04,1.23-.09,1.6-.39.37-.3.57-.66.59-1.09.01-.27-.05-.51-.18-.71-.14-.2-.39-.38-.75-.54-.25-.11-.82-.31-1.7-.6-1.14-.38-1.93-.8-2.37-1.28-.62-.67-.91-1.47-.85-2.38.03-.59.22-1.13.55-1.63.34-.5.8-.86,1.4-1.1.6-.24,1.31-.33,2.13-.29,1.34.08,2.33.45,2.98,1.13.64.67.95,1.54.93,2.61l-2.16-.02c-.06-.6-.23-1.04-.52-1.32-.29-.28-.74-.43-1.35-.47-.63-.04-1.13.08-1.5.34-.24.17-.37.4-.38.7-.01.27.08.51.28.72.26.26.91.56,1.94.88,1.04.33,1.8.65,2.28.96.49.32.86.73,1.12,1.24.26.51.36,1.14.32,1.87-.04.67-.24,1.28-.61,1.84-.37.56-.88.96-1.52,1.21-.64.25-1.42.34-2.35.29-1.35-.08-2.37-.47-3.06-1.19-.69-.72-1.06-1.73-1.13-3.03Z"/><path class="e" d="m214.61,316.52l-3.33-11.11,7.61-2.28.56,1.88-5.54,1.66.74,2.46,5.15-1.54.56,1.87-5.15,1.54.91,3.02,5.73-1.72.56,1.87-7.8,2.34Z"/><path class="e" d="m226.06,312.52l-6.41-9.67,1.75-1.16,7.93,4.04-4.28-6.46,1.67-1.11,6.41,9.67-1.81,1.2-7.78-3.92,4.18,6.31-1.68,1.11Z"/><path class="e" d="m236.46,304.72l-9.03-7.29,4.99-6.18,1.53,1.23-3.63,4.5,2,1.62,3.38-4.18,1.52,1.23-3.38,4.19,2.46,1.98,3.76-4.66,1.52,1.23-5.12,6.34Z"/><path class="e" d="m243.53,295.09l-10.64-4.62,1.81-4.18c.46-1.05.88-1.77,1.28-2.16.4-.39.9-.63,1.52-.7.61-.07,1.23.03,1.86.3.8.35,1.36.85,1.7,1.51.33.66.38,1.45.14,2.37.46-.31.91-.54,1.35-.67.45-.14,1.19-.27,2.22-.38l2.6-.3-1.03,2.37-2.94.43c-1.05.15-1.72.27-2.02.37-.3.09-.53.23-.7.4-.17.18-.36.49-.55.95l-.17.4,4.44,1.93-.86,1.98Zm-5.28-4.65l.64-1.47c.41-.95.63-1.56.64-1.84.01-.27-.05-.53-.21-.75-.16-.23-.39-.41-.71-.55-.36-.15-.69-.19-.98-.11-.3.08-.54.27-.74.57-.09.15-.31.63-.66,1.43l-.67,1.55,2.7,1.17Z"/><path class="i" d="m177.68,281.61c1.06-.1,2.73-.26,4.78-.51l-.59-2.72c-.08-.35.19-.7.58-.79l3.53-.77c.4-.09.78.13.86.48l.68,3.13c.63-.09,1.27-.19,1.92-.3l-.09-.4c-.08-.35.19-.7.58-.79l1.08-.23-1.17-5.38c-2.97.04-5.73.31-7.03.45-.34.04-.59-.26-.46-.54,1.15-2.48,1.41-5.75,1.25-8.94-.27-5.48,3.91-10.55,9.92-12.09.02,0,.04-.01.06-.02.29-.08.57.11.57.38-.02.62,0,1.25.02,1.89l1.51-.19-1.12-5.15c-.07-.33.18-.67.56-.75s.75.12.82.46l5.63,25.95,1.3-.28-6.37-29.33c-.07-.33.18-.67.56-.75s.75.12.82.46l1.12,5.15,2.05-.64c-.25-.63-.52-1.25-.81-1.84-.11-.22.06-.49.33-.54.82-.14,2.48-.49,4.41-1.15l-.83-3.83c-.07-.33.18-.67.56-.75s.75.12.82.46l.79,3.63c1.31-.53,2.68-1.22,3.95-2.09.26-.18.62-.06.67.22.44,2.64,2.39,12.84,7.14,16.9.22.19.13.53-.18.63-1.37.45-4.56,1.54-7.53,2.98l1.69,7.78c1.34-.82,2.96-1.6,4.7-2.34l-.22-.51c-.27-.64.1-1.39.84-1.67l2.39-.91-.5-2.31c-1.92.96-3.7,2.05-4.8,3.21-.25.27-.73.14-.74-.2-.03-.74-.09-1.81-.21-3.1,1.6-.67,3.26-1.27,4.8-1.77.18-.06.34-.14.49-.24.36-.24.62-.58.73-.98.16-.56-.02-1.12-.47-1.51-.36-.31-.7-.66-1.03-1.04-2.74-3.2-4.35-8.76-5.15-12.28.72-.21,1.5-.46,2.31-.78l-.88-4.06c-.07-.33.18-.67.56-.75.19-.04.38-.01.52.07.15.08.26.22.29.38l.83,3.81c1.04-.47,2.1-1.04,3.1-1.72.26-.18.62-.06.67.22.44,2.64,2.39,12.84,7.14,16.9.22.19.13.53-.18.63-1.24.41-3.97,1.34-6.69,2.58l.53,2.43,2.81-1.06c.74-.28,1.56.01,1.83.66l.31.73c2.68-.8,4.94-1.39,6.1-1.68.35-.09.64.2.51.5-.49,1.1-1.34,3.32-1.4,5.4-.05,1.7-.45,3.4-1.17,5.01h0c-.22.51-.72.89-1.31,1.02l-46.11,10.01c-.69.15-1.38-.07-1.78-.56-.79-.98-2.2-2.61-3.49-3.57-.29-.22-.12-.66.27-.69Zm26.58-7.42l1.79-.39c.77-.17,1.52.25,1.66.93l.06.27c.75-.44,1.38-.91,1.87-1.41.33-.33.72-.66,1.16-.98l-1.73-7.97c-1.59.85-3.02,1.79-3.96,2.77-.25.27-.73.14-.74-.2-.03-.77-.1-1.9-.22-3.27l-1.98.62,2.09,9.63h0Zm-2.35-10.84l2.12-.66c-.37-3.49-1.11-8.06-2.54-12.15l-2.22.69,2.63,12.12Zm-5.94-7.86l-1.7.21c.34,4.22,1.44,8.61,2.55,12.13l1.78-.22-2.63-12.12Zm-3.57,22.92l1.08-.23c.4-.09.78.13.86.48l.13.59c1.34-.27,2.67-.56,3.96-.87l-.34-1.55c-.15-.68.36-1.37,1.13-1.53l1-.22-1.36-6.25-1.66.21c.69,2.08,1.33,3.77,1.75,4.8.14.34-.27.68-.64.53-1.79-.72-4.4-.98-7.01-1.03l1.1,5.08h0Z"/></svg>