<?xml version="1.0" encoding="UTF-8"?>
<svg id="a" xmlns="http://www.w3.org/2000/svg" viewBox="0 0 412.01 412.01">
  <defs>
    <style>
      .cls-1 {
        font-size: 9.97px;
      }

      .cls-1, .cls-2 {
        font-family: Arial-ItalicMT, Arial;
        font-style: italic;
      }

      .cls-1, .cls-2, .cls-3 {
        fill: #3f8078;
      }

      .cls-4, .cls-5 {
        font-family: Arial-Black, 'Arial Black';
        font-weight: 800;
      }

      .cls-4, .cls-5, .cls-6 {
        fill: #164727;
      }

      .cls-7 {
        font-size: 16.06px;
      }

      .cls-2 {
        font-size: 5.54px;
      }

      .cls-8 {
        fill: #010101;
        isolation: isolate;
        opacity: .2;
      }

      .cls-8, .cls-9, .cls-3, .cls-6, .cls-10, .cls-11 {
        stroke-width: 0px;
      }

      .cls-12 {
        font-size: 17.16px;
      }

      .cls-5 {
        font-size: 6.64px;
      }

      .cls-13 {
        font-size: 20.49px;
      }

      .cls-9 {
        fill: #258a2c;
      }

      .cls-10 {
        fill: #bcbcbc;
      }

      .cls-11 {
        fill: #00478c;
      }
    </style>
  </defs>
  <rect id="Background" class="cls-11" x=".03" y=".03" width="411.95" height="411.95"/>
  <polygon id="Shadow" class="cls-8" points="261.69 50.36 762.13 490.73 559.82 707.68 149.44 354.29 261.69 50.36"/>
  <g>
    <path class="cls-9" d="m206.7,367.34c-17.3-3.6-34.59-7.2-51.89-10.8-1.94-.25-3.34-.89-4.39-1.62-5.94-4.16-6.62-15.85-1.88-29.11,11.46-60.09,20.69-105.44,24.86-128.13,1.05-5.72,3.33-18.45,12.18-31.75,5.83-8.76,12.43-14.64,16.93-18.14,7.19-25.77,14.37-51.54,21.56-77.31-.43-.72-1.02-1.9-1.18-3.43-.21-1.96.45-2.9,2.31-7.78,1.43-3.75,1.5-4.38,2.47-5.72,1.13-1.56,2.4-2.58,3.29-3.19,9.58,1.95,19.16,3.9,28.74,5.86.43.68.98,1.7,1.4,3.02.43,1.35.66,2.84.53,5.9-.23,5.2-.34,7.79-2.21,10.11-.92,1.13-1.94,1.82-2.62,2.21-3.41,25.87-6.82,51.75-10.24,77.62,2.33,4.56,5.63,11.97,7.62,21.53,3.43,16.48,1,29.88-.39,37.16-3.38,17.73-12.62,64.5-27.13,127.88-1.26,14.4-7.17,24.94-14.63,26.23-1.38.24-3.15.22-5.33-.55Z"/>
    <rect class="cls-10" x="167.08" y="185.4" width="70.46" height="145.25" rx="30.98" ry="30.98" transform="translate(55.83 -35.32) rotate(11.56)"/>
    <rect class="cls-6" x="190.45" y="291.31" width="2.6" height="32.35" transform="translate(-147.82 433.98) rotate(-78.48)"/>
    <rect class="cls-3" x="196.39" y="254.4" width="2.6" height="58.91" transform="translate(-119.92 420.88) rotate(-78.48)"/>
    <rect class="cls-6" x="189.52" y="297.93" width="2.6" height="28.24" transform="translate(-153.04 436.72) rotate(-78.48)"/>
    <path class="cls-10" d="m225.79,47.6c.59-2.89,5.51-4.35,10.95-3.24l19.75,4.02c5.43,1.11,9.39,4.38,8.8,7.27l-1.61,7.88c-.64-.95-1.64-2.08-3.05-2.33-1.98-.35-2.98,1.34-4.88.89-1.78-.42-1.7-2.1-3.54-2.51-1.79-.4-2.41,1.08-4.33.72-1.88-.35-1.91-1.89-3.68-2.13-1.73-.23-2.73,1.4-4.35,1.14-1.73-.27-1.66-2.08-3.58-2.6-1.7-.46-2.25.76-4.19.37-1.74-.35-1.96-1.44-3.71-1.98-1.57-.49-3.13-.07-4.19.37"/>
    <polygon class="cls-10" points="223.36 73.01 256.49 79.79 252.45 110.37 215.08 102.72 223.36 73.01"/>
    <text class="cls-4" transform="translate(170.1 253.87) rotate(11.56) scale(1 1.59)"><tspan class="cls-7" x="0" y="0">J</tspan><tspan class="cls-12" x="10.71" y="0">E</tspan><tspan class="cls-13" x="23.11" y="1.39">V</tspan><tspan class="cls-12" x="39.04" y=".35">E</tspan><tspan class="cls-7" x="51.44" y="0">R</tspan></text>
    <text class="cls-5" transform="translate(224.84 90.37) rotate(11.56) scale(1 1.59)"><tspan x="0" y="0">JEVER</tspan></text>
    <text class="cls-1" transform="translate(188.21 275.85) rotate(11.56)"><tspan x="0" y="0">FUN</tspan></text>
    <text class="cls-2" transform="translate(228.88 97.62) rotate(11.56)"><tspan x="0" y="0">FUN</tspan></text>
  </g>
</svg>