<?xml version="1.0" encoding="UTF-8"?><svg id="a" xmlns="http://www.w3.org/2000/svg" width="412.01" height="412.01" viewBox="0 0 412.01 412.01"><defs><style>.b{fill:none;}.c{fill:#e8dbd4;}.d{fill:#fff;}.e{fill:#d8c1b2;}.f{fill:#8a6437;}.g{fill:#512f17;}.h{fill:#010101;opacity:.2;}</style></defs><rect class="f" width="411.95" height="411.95"/><path class="b" d="m138.06,354.29l147.08-199.87,119.11,107.76c5.05-17.86,7.75-36.7,7.75-56.17C412.01,92.23,319.78,0,206.01,0S0,92.23,0,206s89.85,203.59,201.58,205.95l-63.52-57.67Z"/><polygon class="h" points="138.06 354.29 201.5 412.01 411.95 411.95 412.01 269.2 285.14 154.42 138.06 354.29"/><path class="d" d="m121.9,153.85l13.25,189.25c.64,10.69,9.93,19.75,20.64,19.75h95.41c10.71,0,20-9.05,20.64-19.75l13.25-189.25H121.9Z"/><path class="d" d="m199.64,135.05c7.21-9.32,13.33-36.28.43-48.65-12.74-12.23-21.15-23.63-20.13-34.92.79-8.78,7.28-17.48,21.86-26.44-9.76,10.92-14.53,29.19-5.31,41.18,9.45,10.76,25.78,18.99,24.95,36.73-1.12,12.57-5,19.5-14.51,27.49-4.42,3.05-7.29,4.62-7.29,4.62Z"/><path class="c" d="m140.43,153.85l6.81,97.03c.53,8.85,8.17,15.58,16.99,15.58h78.56c8.82,0,16.46-6.72,16.99-15.58l6.81-97.03h-126.15Z"/><path class="g" d="m146.6,241.85l6.14,87.03c.48,7.94,7.37,13.97,15.33,13.97h70.86c7.95,0,14.85-6.03,15.32-13.97l6.14-87.03h-113.79Z"/><path class="e" d="m150.5,294.72l1.97,34.99c.48,7.94,7.37,13.97,15.33,13.97h70.86c7.95,0,14.85-6.03,15.32-13.97l2.5-34.99h-105.99Z"/></svg>