<?xml version="1.0" encoding="UTF-8"?>
<svg id="Layer_1" data-name="Layer 1" xmlns="http://www.w3.org/2000/svg" viewBox="0 0 512 512">
  <defs>
    <style>
      .cls-1 {
        stroke-miterlimit: 10;
      }

      .cls-1, .cls-2 {
        stroke: #000;
        stroke-linecap: round;
        stroke-width: 18px;
      }

      .cls-1, .cls-3 {
        fill: #fefffe;
      }

      .cls-2 {
        fill: none;
        stroke-linejoin: round;
      }

      .cls-4 {
        fill: #4c2804;
      }

      .cls-4, .cls-5, .cls-6, .cls-7, .cls-8, .cls-9, .cls-10, .cls-3 {
        stroke-width: 0px;
      }

      .cls-5 {
        fill: #7b4d1b;
      }

      .cls-6 {
        fill: #1d0f02;
      }

      .cls-7 {
        fill: #151200;
      }

      .cls-8 {
        fill: #dcdcdc;
      }

      .cls-9 {
        fill: #92500d;
      }

      .cls-10 {
        fill: #fbfdfc;
      }
    </style>
  </defs>
  <rect class="cls-8" width="512" height="512" rx="71.65" ry="71.65"/>
  <g>
    <path class="cls-1" d="m190.41,175.43c-6.4-5.08-23.02-18.27-24-38-.14-2.93-.82-16.67,9-26,8.1-7.7,18.62-7.91,23-8,2.99-.06,10.95.1,32,11,7.33,3.8,17.06,9.32,28,17,5.53-4.24,14.3-10.35,26-16,17.45-8.43,30.97-14.96,45-10,1.45.51,14.94,5.52,20,19,2.98,7.94,1.61,15.05,1,18-3.49,16.94-17.88,27.11-25,32-31.96,21.93-95.24,32.55-135,1Z"/>
    <path class="cls-9" d="m122.91,411.93c-14.44-24.7-14.17-59.53-14-81,.32-40.72,11.36-70.73,15-80,12.18-30.99,28.55-51.31,42-68,13.71-17.01,26.89-29.94,37-39,7.39,2.27,23,15,23,15l29,19,27-19s16.51-12.3,25-15c11.97,9.36,28.57,21.28,44,43,17.57,24.72,25.39,46.65,33,68,7.85,22.02,15.77,44.24,18,74,1.43,19.12,4.26,56.97-10,83-39.94,72.89-225.59,74.27-269,0Z"/>
    <polygon class="cls-4" points="172.91 322.93 161.91 350.93 253.91 418.93 347.91 349.93 337.91 323.93 172.91 322.93"/>
    <polygon class="cls-6" points="194.06 332.93 183.91 367.43 253.91 418.43 326.91 365.43 307.17 332.93 194.06 332.93"/>
    <polygon class="cls-3" points="167.91 182.93 167.41 336.43 254.41 406.43 342.91 335.93 340.91 182.93 307.17 143.93 252.91 175.93 202.91 143.93 167.91 182.93"/>
    <path class="cls-2" d="m138.91,417.93c-41.49-51.7-21.98-125.69-15.36-150.8,18.05-68.45,63.43-108.8,81.47-123.25,14.98-.51,45.79,14.16,55.39,27.55,8.64-12.92,37.31-27.59,53-27,18.73,16.18,59.87,56.27,77.5,121.5,7.49,27.71,27.29,100.98-13,152-52.54,66.54-185.11,67.15-239,0Z"/>
    <circle class="cls-7" cx="213.68" cy="183.7" r="9.77"/>
    <circle class="cls-7" cx="301.14" cy="183.7" r="9.77"/>
    <path class="cls-7" d="m283.91,199.93c-2.68-4.57-10.49-4.77-26-5-14.82-.22-22.28-.24-25,4-4.15,6.47,2.87,17.32,4,19,5.61,8.35,14.08,11.17,17,12v15.92c-1.71-.04-4.12-.06-7,.08-5.19.24-5.74.68-6,1-1.74,2.1.82,8.37,5,12,6.05,5.25,16.27,5.63,23,1,5.39-3.71,8.71-10.77,7-13-.26-.33-.79-.78-7-1-2.86-.1-5.25-.1-7-.07v-15.91c2.81-.67,12.06-3.23,18-12.02.97-1.44,7.8-11.53,4-18Z"/>
    <polygon class="cls-7" points="180.91 272.93 255.91 311.93 336.61 272.93 180.91 272.93"/>
    <g>
      <path class="cls-5" d="m233.71,90.4c-5.63-.48-10.61-5.27-11.78-11.01-1.47-5.24-.78-10.05,4.64-12.53,1.53-.64,3.25-.9,5.06-.35.36.11.58.45.54.81-.18,1.81-.29,3.14-.34,4.26-.17,1.93.19,3.33-.88,4.85-.45.65-.93,1.42-1.06,2.26-.63,3.88.96,7.98,4.19,10.78.39.31.1.98-.38.92h0Z"/>
      <path class="cls-5" d="m249.46,98.72c.36-4.04-.68-8.06-3.12-10.97-.55-.64-1.3-1.09-2.02-1.44-1.64-.86-1.98-2.33-2.87-4.05-.47-1.03-1.02-2.27-1.68-3.9-.14-.33-.02-.71.25-.91,3.92-2.85,9.87-1.59,12.03,2.68,1.75,3.89,2.87,8.22,1.8,12.39-.66,2.57-1.8,4.85-3.5,6.64-.33.37-.98.05-.9-.44h0Z"/>
      <path class="cls-5" d="m259.62,102.52c4.81-5.07,7.3-11.77,6.5-18.51-.22-1.43-.88-2.69-1.63-3.75-1.71-2.35-2.53-4.53-4.32-7.06-.95-1.41-2.06-2.91-3.4-4.77-.22-.28-.17-.68.12-.89,6.84-2.66,15.27,2.13,16.87,9.25,1.45,6.74-.34,13.65-4.25,19.1-2.5,3.36-5.75,5.94-9.33,7.47-.49.22-.95-.45-.57-.82h0Z"/>
      <path class="cls-5" d="m287.48,87.67c4.51-10.88,1.38-14.98-9.24-18.53-3.63-1.39-8.54-2.6-11.29-6.43-3.49-4.4-2.35-11.31,1.5-14.92,2.04-2.07,4.39-3.44,7.09-4.2.41-.12.82.27.72.68-.76,3.7-1.97,6.51-1.94,9.76.07,1.3.44,1.65,1.03,2.53,2.94,4.24,8.65,6.17,12.8,9.75,7.64,6.31,6.31,15.26.16,21.9-.36.43-1.08-.03-.84-.54h0Z"/>
    </g>
    <path class="cls-10" d="m350.91,277.93v55h16c.72-.15,3.13-.74,5-3,1.69-2.03,1.94-4.22,2-5v-40c.01-.43.03-2.97-2-5s-4.57-2.01-5-2h-16Z"/>
  </g>
</svg>