<?xml version="1.0" encoding="utf-8"?>
<!-- Generator: Adobe Illustrator 27.4.0, SVG Export Plug-In . SVG Version: 6.00 Build 0)  -->
<svg version="1.1" id="Layer_1" xmlns="http://www.w3.org/2000/svg" xmlns:xlink="http://www.w3.org/1999/xlink" x="0px" y="0px"
	 viewBox="0 0 1853.7 1835.1" style="enable-background:new 0 0 1853.7 1835.1;" xml:space="preserve">
<style type="text/css">
	.st0{fill:#EAB981;}
	.st1{fill:#FBF5E8;}
	.st2{fill:none;}
	.st3{fill:#FEFDFC;}
	.st4{fill:#886C3D;}
	.st5{fill:#D7B47A;}
	.st6{fill:#FBF7ED;}
	.st7{fill:#FEFEFE;}
	.st8{fill:#896C3D;}
	.st9{fill:#8A6D3E;}
	.st10{fill:#B1A792;}
</style>
<g id="Circle_BG">
	<path class="st0" d="M948.9,1835.1H907c-10-2.1-20.2-1.4-30.2-1.5c-57.4-0.4-113.5-9.8-169.2-22.6
		c-67.2-15.5-131.8-38.8-193.6-69.3c-72.4-35.7-139-80-200-133.1c-60.5-52.7-113.1-112.3-157.9-178.7
		c-35.6-52.7-65.2-108.7-89.1-167.7c-20.5-50.6-36.4-102.5-47.9-155.8c-7.7-35.6-12.8-71.5-16.1-107.8c-3.9-41.5-3.3-83.1-2.2-124.6
		C2.6,806.4,14.3,740,32.3,674.7C57,585,94.7,501.2,144.5,422.9c28.3-44.5,60.8-85.9,96.4-124.9c40.4-44.2,84.7-84,132.7-119.5
		c49.3-36.4,101.9-67.5,157.6-93.2c80.9-37.3,165.3-62.8,253.4-76c37.7-5.6,75.6-9,113.7-9.1c32.6-0.1,65.2-0.9,97.7,1.1
		c31.9,2,63.7,5.8,95.3,11.3c57.5,10.1,113.7,24.9,168.3,45.6c76.6,29.1,148.2,67.4,214.8,115.2c51.3,36.8,97.7,79.2,140.5,125.2
		c49.4,53,90.8,111.9,126,175.4c38.3,69.1,67.3,141.9,86.6,218.4c12.9,51.3,23.1,103.3,24.7,156.5c0.3,10.9-0.7,22,1.5,32.8v69.8
		c-2.2,10.8-1.2,21.9-1.5,32.8c-1.4,44.4-8.7,87.9-18.2,131.1c-18.6,84-48.4,163.9-89.7,239.4c-34.2,62.4-74.6,120.5-122.3,173.6
		c-52.6,58.5-111.3,109.9-176.7,153.4c-52.5,34.9-108.1,63.8-166.6,87.4c-72.4,29.2-147.4,48.7-224.8,58.9
		c-24.2,3.2-48.5,5.3-73,5.3C970.3,1833.6,959.5,1833.5,948.9,1835.1L948.9,1835.1z"/>
	<path class="st1" d="M946.6,1732.6h-37.5c-8.9-1.9-18.1-1.3-27-1.3c-51.3-0.4-101.5-8.7-151.2-20.2c-60.1-13.9-117.8-34.7-173-61.9
		c-64.7-31.9-124.3-71.5-178.8-118.9C325,1483.1,278,1429.8,238,1370.5c-31.8-47.1-58.3-97.1-79.6-149.9
		c-18.3-45.2-32.5-91.6-42.8-139.2c-6.9-31.8-11.4-63.9-14.4-96.3c-3.4-37.1-3-74.3-2-111.4c1.6-60.5,12-119.8,28.1-178.2
		c22.1-80.1,55.8-155,100.3-225c25.3-39.7,54.3-76.8,86.2-111.6c36.1-39.5,75.7-75.1,118.6-106.8c44-32.6,91-60.3,140.8-83.2
		c72.3-33.3,147.7-56.1,226.4-67.9c33.7-5,67.6-8.1,101.7-8.2c29.1-0.1,58.3-0.8,87.3,1c28.5,1.7,56.9,5.2,85.1,10.1
		c51.4,9,101.6,22.2,150.4,40.8c68.4,26,132.4,60.3,192,102.9c45.9,32.9,87.3,70.7,125.6,111.9c44.1,47.4,81.2,100,112.6,156.7
		c34.2,61.8,60.2,126.8,77.4,195.2c11.6,45.9,20.6,92.3,22.1,139.9c0.3,9.8-0.6,19.7,1.3,29.4v62.4c-2,9.7-1,19.6-1.3,29.3
		c-1.2,39.7-7.7,78.6-16.3,117.1c-16.7,75-43.2,146.5-80.2,213.9c-30.6,55.8-66.7,107.7-109.3,155.1c-47,52.3-99.4,98.2-157.9,137.1
		c-46.9,31.2-96.6,57-148.9,78.1c-64.8,26.1-131.7,43.6-200.9,52.7c-21.6,2.9-43.3,4.7-65.2,4.7
		C965.6,1731.2,956,1731.1,946.6,1732.6L946.6,1732.6z"/>
</g>
<g id="Design">
	<g>
		<path class="st2" d="M1374.6,796.7c1.6,1.9,3.1,3.8,4.7,5.7C1377.7,800.5,1376.2,798.6,1374.6,796.7L1374.6,796.7L1374.6,796.7z"
			/>
		<path class="st2" d="M1413.3,851c0.2,0.3,0.3,0.7,0.5,1C1413.6,851.6,1413.5,851.3,1413.3,851L1413.3,851z"/>
		<path class="st3" d="M362.6,603.4c0.2-0.9,0.2-1.8,0.3-2.8C362.7,601.6,362.7,602.5,362.6,603.4z"/>
		<path class="st3" d="M950.9,511.4c2.7-0.1,5.3-0.2,7.9-0.3c-6.7,0.2-13.4,0.3-20.1,0.3C942.8,511.5,946.8,511.5,950.9,511.4z"/>
		<path class="st3" d="M409.8,538.4c16.9,4.5,32.9,11.2,48.4,19.1c23,11.6,45.7,24.1,70.4,31.9c13.3,4.2,26.8,7.7,41.1,8.1
			c2.3-3.2,4.6-6.4,7-9.6c0.6-0.7,1.4-1.3,1.3-2.4c-0.3-0.1-0.6-0.2-0.9-0.2c-24.6-3.2-48.2-10.1-71.2-19.4
			c-14.6-5.9-28.3-13.8-42.8-20c-12.2-5.1-24.7-9.3-37.8-11.3c-9.1-1.4-17.8-0.5-25.9,3.6C402.8,537.2,406.1,537.5,409.8,538.4
			L409.8,538.4z"/>
		<path class="st3" d="M1089.5,503.1c3-0.2,6-0.4,9.1-0.6C1095.6,502.7,1092.6,502.9,1089.5,503.1z"/>
		<path class="st3" d="M1372.4,568.9c15.7-7.5,30.7-16.4,47.1-22.6c9.9-3.8,19.7-7.5,30.3-9c1.5-0.2,2.6,0.2,3.8,0.7
			c0.7,0.3,1.3,0.6,2,1c-10.8-5.9-22.2-6.3-35.3-3.2c-18.1,4.3-35.1,11.5-51.5,19.9c-20,10.2-40.9,18-62.7,23.6
			c-10.2,2.6-20.5,4.8-31,6c0,0.4,0,0.7,0.1,0.8c0.5,0.8,1.1,1.5,1.6,2.3c2.3,3,4.5,6,6.7,9.1c17.3-0.9,33.6-5.3,49.6-11
			C1346.6,581.8,1359.4,575.1,1372.4,568.9L1372.4,568.9z"/>
		<path class="st4" d="M1489.9,598.1c-1.7-14.3-4.9-28.2-13.7-39.9c-1-1.3-2-2.6-3-3.8c0,0.2,0,0.4,0.1,0.6c0.3,4.6,0.7,9.2,1,13.8
			c0.4,6-0.2,12-0.7,18c-1.2,14-3.5,27.8-7.3,41.4c-10.8,38.6-22.8,76.7-41.8,112.3c-9.7,18.1-20.6,35.5-34.2,51
			c-3.4,3.9-6.9,7.8-10.2,11.9c0,0,0,0,0,0c0.7,0.8,1.3,1.6,2,2.4c4.4,5.4,8.8,10.8,13,16.3c6.2,8.2,12,16.7,16.8,25.9
			c0.4,0.8,0.9,1.7,1.3,2.5c0.1,0.1,0.1,0.3,0.2,0.4c0.2,0.3,0.3,0.7,0.5,1c0.3,0.7,0.7,1.4,1.1,2.2c1.5-0.8,1.8-2,2.3-2.9
			c15.6-28.2,28-57.8,39.5-87.9c12.1-31.6,22.7-63.7,29.2-96.9c2.4-12.4,4.2-24.8,4.9-37.3c0.4-7.9,0.4-15.9-0.2-23.9
			C1490.4,602.8,1490.2,600.4,1489.9,598.1L1489.9,598.1z"/>
		<path class="st4" d="M452.2,778.4c-14.2-19.7-26.2-40.8-35.8-63.1c-13.2-30.9-23.6-62.9-31.7-95.5c-3.2-13-4.8-26.3-5.6-39.8
			c-0.5-8.4,0.3-16.7,0.7-25c0-0.3,0-0.6,0-0.9c-4.1,4.9-7.4,10.5-10,16.7c-3.7,8.9-5.8,18.2-6.8,27.7c-0.1,0.7-0.1,1.5-0.2,2.2
			c0,0.9-0.1,1.9-0.3,2.8c0,0.6-0.1,1.2-0.1,1.8c-0.6,8-0.6,15.9-0.2,23.8c0.7,14.8,3,29.4,6.3,43.8c12,51.8,30,101.5,52.8,149.3
			c0.4,0.8,0.8,1.6,1.2,2.4c4.5,9.3,9.1,18.6,14,27.7c0.3,0.6,0.5,1.4,1.7,1.6c0.4-0.9,0.8-1.7,1.2-2.6c1-2.1,2.1-4.2,3.2-6.2
			c3.9-7,8.3-13.6,13-20c5.2-7.1,10.8-13.9,16.4-20.8c0.3-0.3,0.6-0.7,0.9-1c0,0,0,0,0,0C466.3,794.9,458.5,787.2,452.2,778.4
			L452.2,778.4z"/>
		<path class="st5" d="M1390.4,791.5c13.6-15.5,24.5-32.8,34.2-51c19-35.5,31-73.7,41.8-112.3c3.8-13.6,6.1-27.4,7.3-41.4
			c0.5-5.9,1.1-12,0.7-18c-0.3-4.6-0.7-9.2-1-13.8c0-0.2,0-0.4-0.1-0.6c-0.1-0.1-0.2-0.3-0.3-0.4c-5.7-6.9-11.5-11.8-17.4-15
			c-0.7-0.3-1.3-0.7-2-1c-1.2-0.5-2.3-0.9-3.8-0.7c-10.6,1.5-20.4,5.2-30.3,9c-16.3,6.2-31.4,15.1-47.1,22.6
			c-13,6.2-25.8,12.9-39.4,17.7c-16,5.7-32.3,10.1-49.6,11c0.4,0.5,0.7,1,1.1,1.6c1,1.5,2,3,3,4.5c4.8,7.4,9.2,15.1,13.3,23
			c2.3,4.6,4.6,9.2,6.7,13.9c0.4,0.9,1.6,2.4,0.3,3c-1.4,0.7-1.6-1.2-2-2.1c-1-2-2.1-3.9-3.2-5.8c-2-3.3-4.2-6.5-6.6-9.6
			c-10.4-13.2-21.6-25.6-33.5-37.3c-0.4-0.2-0.7-0.4-1.1-0.7c-6-3.7-11.5-8.1-17.3-12.3c-14.8-10.7-30-20.8-46.2-29.2
			c-17.6-9.1-36.5-14.7-55.7-19c-11.7-2.6-23.6-4.4-35.6-5.2c-14.3-0.9-28.6-0.9-42.9-0.3c-18.9,0.8-37.8,2.3-56.7,3.6
			c-11.2,0.8-22.5,1.4-33.8,1.9c-11.6,0.6-23.2,0-34.8,0.6c-17.7,1-35.4-0.2-53.1-0.4c-18.5-0.3-37-1.6-55.5-3
			c-25.3-2-50.6-3.7-76-2.9c-20,0.6-39.4,4.4-58.7,9.5c-22.3,6-42.9,15.6-62.3,28.1c-13.4,8.6-26.2,18.2-39.2,27.4
			c-0.7,0.5-1.4,1-2.1,1.5c-0.3,0.2-0.7,0.4-1.1,0.5c-13.3,13.1-25.7,27-36.8,42c-1.1,1.4-2,2.9-2.9,4.4c-1.4,2.3-2.7,4.7-3.8,7.1
			c-0.3,0.7-0.7,1.4-1.6,1c-0.6-0.3-0.4-1.1-0.2-1.7c0.2-0.5,0.4-0.9,0.6-1.4c2.2-4.7,4.4-9.4,6.8-13.9c3.3-6.4,6.8-12.6,10.6-18.7
			c1.8-3,3.8-5.9,5.8-8.8c0.3-0.5,0.7-1,1-1.4c-14.3-0.4-27.8-3.9-41.1-8.1c-24.7-7.8-47.4-20.2-70.4-31.9
			c-15.6-7.9-31.5-14.6-48.4-19.1c-3.6-1-7-1.2-10.3-0.3c-1,0.5-1.9,1-2.9,1.6c-6.5,3.9-12,8.6-16.6,14.2c0,0.1-0.1,0.1-0.2,0.2
			c0,0.3,0,0.6,0,0.9c-0.4,8.3-1.2,16.6-0.7,25c0.8,13.4,2.4,26.8,5.6,39.8c8.1,32.7,18.4,64.6,31.7,95.5
			c9.6,22.3,21.5,43.4,35.8,63.1c6.3,8.8,14.1,16.4,20.8,24.9c0,0,0,0,0,0c0.1-0.1,0.2-0.2,0.2-0.3c0-0.1,0.1-0.1,0.1-0.2
			c3.3-4,6.6-8,9.9-12.1c0.5,1.1,0.5,1.9,0.3,2.6c-0.2,0.6-0.5,1.1-0.7,1.6c-2.3,5.2-5,10.2-7.1,15.5c-8.6,21.7-18,43-27.4,64.4
			c-2.2,4.9-4.1,10-5.7,15.1c-12.6,39.1-22.6,78.9-30.5,119.2c-1.4,7-2.6,14-3.9,21.1c0.6-0.7,1.2-1.4,1.8-2.1
			c15.5-17.8,31.4-34.9,47.9-51.6c4-4,8-8,12-12c3-2.9,6-5.8,9-8.7c0.2,0.6,0.3,0.8,0.2,1c-0.5,0.9-1,1.8-1.5,2.7
			c-0.2,0.3-0.3,0.6-0.5,0.9c-8,13.9-14.4,28.3-19.1,43.2c0,0.5-0.1,0.9-0.1,1.4c-0.4,5.1-0.5,10.2-0.3,15.3
			c0.5,15,1.9,29.9,4.1,44.7c2.2,14.6,4.2,29.2,6.4,43.8c2.8,19.1,7.4,37.7,13,56.1c4,13.1,8.7,25.9,13,38.8c0.2,0.7,0.4,1.4,0.8,2
			c0.3-0.4,0.6-0.9,0.9-1.3c4.6-27,10.7-53.6,21.6-78.9c1.7-4,2.9-8.2,4.4-12.2c0.3-0.7,0.5-1.8,1.5-1.8c1.2,0,0.8,1.3,0.9,1.9
			c1,3.9,0.6,8,1,12c1.9,19.8,6.1,38.9,13.3,57.5c10.9,28.2,26.4,53.9,44.6,77.9c11.3,15,25.6,27,40.6,38.3
			c18.9,14.3,39,26.8,60.5,36.8c23,10.7,47,19.1,71.1,27.2c20,6.7,40.6,11.1,60.7,17c13.8,4.1,27.8,7.4,41.9,10.1
			c14,2.7,28.1,4.8,42.4,6c9.9,0.8,19.8,2.2,29.7,1.7c12.7-0.6,25.4-1.8,38-3.4c17.8-2.3,35.3-5.6,52.8-9.7
			c9.9-2.3,19.4-5.9,29.3-8.2c34.1-8,67-19.4,99.5-32.3c32.1-12.7,61.3-30.6,88.4-51.9c20.6-16.2,36.5-36.2,50.2-58.3
			c12.3-19.8,22.8-40.4,30.1-62.6c4.2-13,6.9-26.3,8.5-39.9c0.7-6,0.9-11.9,1.6-17.9c0.1-0.7-0.3-2.2,1-2.2c0.9,0,1.2,1.1,1.5,1.8
			c6.6,18.6,14.6,36.7,18.9,56c2.6,11.7,5.1,23.3,7.1,35.1c0.3,0.4,0.6,0.8,0.9,1.3c0.3-0.4,0.5-0.9,0.6-1.4
			c7.9-23.1,16-46.1,21.4-70c3.1-13.8,5.3-27.8,7.2-41.8c1.7-12.4,3.6-24.7,5.2-37.1c0.9-6.9,1.7-13.9,2.2-20.9
			c0.5-8.1,1-16.1,0.7-24.2c-0.1-1.8-0.2-3.6-0.3-5.3c0-0.4-0.1-0.9-0.1-1.3c-4.8-15-11.3-29.4-19.1-43.2c-0.3-0.6-0.7-1.2-1-1.8
			c-0.4-0.7-1.3-1.4-0.7-2.8c2.3,2.2,4.6,4.4,6.8,6.6c18.7,18.2,36.6,37.1,53.8,56.7c2.6,2.9,5.1,5.9,7.6,8.8
			c0.7,0.8,1.4,1.6,2.1,2.4c0.2-0.9,0.1-1.6,0-2.3c-4.8-27.8-10.7-55.4-17.9-82.6c-6.2-23.3-11.6-47-21.3-69.2
			c-11.8-27-22.5-54.4-34.8-81.1c-0.2-0.5-0.6-1.1-0.8-1.7c-0.2-0.7-0.2-1.5,0.4-2.6c1.5,1.9,3,3.8,4.6,5.6c0.1,0.1,0.1,0.2,0.2,0.2
			c1.6,1.9,3.1,3.8,4.7,5.7c0.2,0.2,0.3,0.4,0.5,0.6c0.1,0.1,0.2,0.2,0.3,0.4c0,0,0,0,0,0C1383.4,799.3,1386.9,795.4,1390.4,791.5
			L1390.4,791.5z M1076,1070.2c4.9-0.4,9.9,4.1,9.9,9c0,5.3-4.4,9.3-10.7,10.1c-4.7,0.5-9.2-2.7-10.1-7.2c0-0.1-0.1-0.2-0.1-0.3
			C1064.2,1077.2,1070.4,1070.7,1076,1070.2L1076,1070.2z M776.4,1070.2c5.1-0.1,11.8,6,11.9,10.5c0,4.6-4.5,8.7-9.6,8.6
			c-6.2-0.1-11.3-4.6-11.4-10C767.1,1074.5,771.4,1070.2,776.4,1070.2z M589.6,1225.7c-4.3,0-7.9-3.5-7.9-7.8c0-3.7,3.2-6.7,7.1-6.7
			c4.4,0,7.8,3.4,7.8,7.8C596.6,1222.9,593.6,1225.7,589.6,1225.7L589.6,1225.7z M678.5,874.3c-9.1,3.5-18.6,5-28.4,5.1
			c-5.5,0-11-0.6-16.3-1.9c-24.9-6.2-39.4-26.5-37.7-52.5c0.8-11.4,3.7-22.3,8.9-32.5c17.8-34.7,45-58.9,82-71.4
			c14.6-4.9,29.5-6.3,44.7-2.3c22.6,5.9,33.3,27.6,34.2,43.3c0.8,14.6-2.8,28.3-8.9,41.2C740.7,837.7,713.7,860.7,678.5,874.3
			L678.5,874.3z M766.4,1040.9c0,3.7-2.7,6.3-6.6,6.3c-3.9,0-6.4-2.5-6.4-6.3c0-3.7,2.7-6.2,6.6-6.2
			C763.4,1034.7,766.4,1037.7,766.4,1040.9L766.4,1040.9z M1158.7,1083.7c-4.2,13.5-9.9,26-17.3,37.4c-3.3,7.3-7.8,13.9-12.6,20.4
			c-16.3,22.2-37.4,38.7-61.4,51.8c-10.3,5.6-20.6,11-31.8,14.7c-0.9,0.3-1.9,0.6-2.8,0.8c-11.1,26-22.9,51.8-34.1,77.7
			c-6.2,14.4-12.4,28.7-18.5,43.1c-0.9,2.1-2.1,3.3-4.2,4.2c-28.1,11.7-56.7,12.9-85.8,4.7c-4.7-1.3-9.1-3.4-13.7-5
			c-1.7-0.6-2.7-1.8-3.4-3.4c-16.8-40.8-35.5-80.8-52.7-121.4c-11.2-3-21.4-8.2-31.5-13.7c-13-7-25.4-14.8-36.7-24.2
			c-16.7-13.9-30.5-30.3-40.6-49.6c-0.2-0.3-0.2-0.6-0.3-0.9c-5.5-8.6-10.1-17.9-13.9-27.8c-10.9-28.4-13.6-58-11.6-88.1
			c3.4-51.1,22.4-96.5,51-138.4c3.3-4.9,6.8-9.7,10.3-14.4c0.6-0.8,1.3-1.6,2.1-2.3c0.7-0.7,1.6-0.9,2.6-0.2c1,0.7,1.3,1.6,0.9,2.7
			c-0.2,0.7-0.6,1.3-1,1.9c-20.6,33-32.9,69.1-39.9,107.2c-4.5,24.7-6.5,49.6-3.8,74.6c0.3,2.9,0.7,5.8,1.1,8.7
			c1.7,2.7,2.7,5.7,3.9,8.6c10.5,23.5,27.2,40.5,51.6,49.5c7.6,2.8,15.6,3.7,23.7,4.2c24.3,1.5,48.1-2,71.4-8.2
			c17.4-4.7,33.1-12.9,47.8-23.3c2.2-1.6,4.1-3.7,6.1-5.6c0.1-3.1,0.2-6.2,0.3-9.3c0.2-8,0-16,0-23.9c0.8-18.2,0.6-36.3,0.5-54.4
			c0-2.6-0.8-3.8-3.3-4.6c-8.5-3.1-15.4-8.5-21.4-15c-7.7-8.4-14.2-17.6-19.3-27.8c-3.1-6.1-6.7-11.7-11.8-16.3
			c-2.6-2.4-5.4-4.4-8.6-6.1c-10.8-5.6-20.6-12.4-28.6-21.6c-20-23.2-21.3-58.1-2.8-82.6c14.2-18.8,33.1-30.2,56-35.7
			c22.4-5.4,45.1-8.4,68.2-6.2c18.7,1.8,37.3,4.9,54.7,12.5c18.7,8.1,33.5,21.1,43.3,39.1c13.2,24.3,7.1,58.1-13.7,77.8
			c-6.6,6.3-13.9,11.6-22,15.6c-9.7,4.8-16.6,12.2-21.4,21.8c-4.4,8.7-9.6,16.7-15.7,24.2c-7.4,9.2-16,16.9-27.4,20.8
			c-1.7,0.6-1.7,1.8-1.8,3.2c-0.1,7.1-0.2,14.1-0.2,21.2c-0.3,22.5,0.1,45,1,67.4c21.2,18.8,46.4,28.5,73.8,33.4
			c14.9,2.6,29.9,4.4,45,4.2c19.2-0.3,37-4.7,52.6-16.6c13.2-10.1,22.7-22.7,29.3-37.8c1.2-2.8,2.2-5.8,3.9-8.4
			c1.3-8.8,2-17.8,2.1-26.8c0.7-37.6-6.6-73.8-18.8-109.2c-6.6-19-15-37.1-25.8-54.1c-0.4-0.7-0.9-1.4-1.2-2.2c-0.4-1.1,0-2,1-2.7
			c0.9-0.6,1.8-0.4,2.6,0.3c0.6,0.5,1.2,1.2,1.7,1.8c23.4,31.3,42.5,65,52.8,102.9C1170.3,997.1,1172.2,1040.5,1158.7,1083.7
			L1158.7,1083.7z M809,1055.8c-0.1-3,2.8-5.6,6.2-5.6c3.5,0,5.6,2.1,5.6,5.6c0,3.2-2.6,5.7-6,5.7
			C811.5,1061.4,809.1,1059.1,809,1055.8L809,1055.8z M1044,1055.7c-0.1,3.3-2.4,5.7-5.7,5.7c-3.4,0-6.1-2.4-6.1-5.6
			c0-3.5,2.1-5.6,5.5-5.7C1041.2,1050.1,1044.1,1052.7,1044,1055.7L1044,1055.7z M1086.6,1040.8c0.1-3.3,3.2-6.2,6.6-6.1
			c3.9,0,6.5,2.6,6.4,6.4c-0.1,3.8-2.6,6.2-6.6,6.2C1089.2,1047.1,1086.5,1044.4,1086.6,1040.8L1086.6,1040.8z M1215.3,878.3
			c-4.1,0.7-8.2,1-11.4,1.1c-11.7-0.1-22.3-2-32.2-6.1c-31.7-13.1-56.8-34.1-73-64.6c-7.5-14.1-12.1-29.1-11.5-45.3
			c0.7-19.3,13.8-42.8,42.4-46.3c15.9-1.9,31.1,1.1,45.6,7.2c31.2,13.2,55,34.8,71.2,64.6c6.8,12.5,10.8,25.8,10.8,40.1
			C1257,854.8,1240.9,873.8,1215.3,878.3L1215.3,878.3z M1263.5,1225.7c-4,0-7-2.9-7-6.7c0-4.4,3.4-7.8,7.8-7.8c3.9,0,7.1,3,7,6.7
			C1271.3,1222.3,1267.8,1225.8,1263.5,1225.7z"/>
		<path class="st4" d="M1331,1113.3c-0.3-0.7-0.6-1.9-1.5-1.8c-1.4,0.1-0.9,1.5-1,2.2c-0.6,5.9-0.8,11.9-1.6,17.9
			c-1.7,13.6-4.3,26.9-8.5,39.9c-7.2,22.2-17.7,42.8-30.1,62.6c-13.7,22-29.6,42.1-50.2,58.3c-27.2,21.3-56.3,39.1-88.4,51.9
			c-32.5,12.9-65.4,24.3-99.5,32.3c-9.9,2.3-19.4,5.9-29.3,8.2c-17.4,4.1-35,7.4-52.8,9.7c-12.6,1.6-25.3,2.8-38,3.4
			c-9.9,0.5-19.8-0.9-29.7-1.7c-14.2-1.2-28.3-3.4-42.4-6c-14.1-2.7-28.1-6-41.9-10.1c-20.2-5.9-40.8-10.3-60.7-17
			c-24.1-8.1-48-16.5-71.1-27.2c-21.5-10-41.5-22.5-60.5-36.8c-15-11.3-29.2-23.3-40.6-38.3c-18.2-24.1-33.6-49.7-44.6-77.9
			c-7.2-18.5-11.4-37.7-13.3-57.5c-0.4-4,0-8.1-1-12c-0.2-0.7,0.3-1.9-0.9-1.9c-0.9,0-1.2,1.1-1.5,1.8c-1.5,4.1-2.7,8.3-4.4,12.2
			c-10.9,25.3-17,51.9-21.6,78.9c0,0,0,0,0-0.1c0.3-0.4,0.5-1.1,0.9-1.4c0.2-0.3,0.6-0.4,1-0.3c0.9,0.1,1.1,0.8,1.2,1.5
			c0,0.3,0.1,0.7,0.1,1c0.3,2.9,0.4,5.8,0.8,8.7c2.2,15.7,5,31.2,9,46.6c7.2,27.9,18.9,54.2,31.4,80c0.2,0.4,0.4,1,1.1,0.8
			c0.2-0.8,0.4-1.6,0.5-2.4c1.7-12.9,4.4-25.5,7.9-37.9c1.3-4.5,2.6-8.9,4.1-13.4c0.5-1.5,1.1-2.9,1.7-4.3c0.2-0.6,0.6-1.2,1.4-0.9
			s0.7,1,0.6,1.6c-1,7.4-0.4,14.9-0.9,22.3c-0.5,6.9-0.3,13.9,0.1,20.8c0.1,1.6,0.5,2.7,1.8,3.8c9.9,8.6,19.7,17.5,30.7,24.9
			c30.7,20.8,63.2,38.2,97.4,52.4c98.2,40.9,200.4,55,306.1,44.1c74.2-7.6,144.7-28,211.2-61.7c31.2-15.8,61.4-33.4,87.5-57.3
			c3.1-2.8,4.6-5.6,4.7-9.8c0.2-12.5-0.8-24.9-0.6-37.3c0-1.3-1.6-3.4,0.2-3.8c1.6-0.4,1.9,2,2.4,3.4c1.7,4.9,3.2,9.9,4.7,14.9
			c2.4,8.3,4.4,16.7,5.9,25.3c0.9,5.1,1.7,10.2,2.6,15.6c0.4-0.4,0.7-0.5,0.7-0.6c0.4-0.7,0.8-1.5,1.2-2.2
			c9.8-19.7,18.2-39.8,25-60.4c1.2-3.8,2.5-7.7,3.6-11.6c5.8-19.9,9.8-40.3,11.7-61.3c0-0.3,0.1-0.7,0.1-1.1c0.1-0.7,0.3-1.4,1-1.7
			c0.6-0.2,0.9,0,1.2,0.3c0.4,0.4,0.6,1.1,0.9,1.5c0,0,0,0.1,0.1,0.1c-2-11.8-4.5-23.5-7.1-35.1
			C1345.6,1150,1337.6,1131.9,1331,1113.3L1331,1113.3z"/>
		<path class="st4" d="M481.3,1164.9c-5.6-18.4-10.3-37-13-56.1c-2.1-14.6-4.2-29.2-6.4-43.8c-2.2-14.8-3.6-29.7-4.1-44.7
			c-0.2-5.1-0.1-10.2,0.3-15.3c0-0.5,0.1-0.9,0.1-1.4c-0.2,0.7-0.5,1.5-0.7,2.2c-5.5,18.2-8.6,37.2-9.2,56.8
			c-0.4,13.4,0.2,26.8,1.3,40.1c0,0.1,0,0.2,0,0.3c1.2,13.3,2.8,26.6,4.6,39.9c4.3,31.8,12.1,62.9,20.4,93.8
			c0.2,0.8,0.2,1.9,1.3,2.6c0.5-1,1-2,1.5-3c4-8.1,8.2-16.2,13-23.9c0.3-0.5,0.7-1,1-1.6c0.2-0.3,0.3-0.5,0.5-0.8
			c0.9-1.3,1.8-2.6,2.7-3.9c0.1-0.2,0.2-0.3,0.3-0.4c-0.4-0.6-0.6-1.3-0.8-2C490,1190.7,485.3,1177.9,481.3,1164.9L481.3,1164.9z"/>
		<path class="st4" d="M1395.3,1010.3c0.4,8.1-0.1,16.1-0.7,24.2c-0.5,7-1.3,14-2.2,20.9c-1.6,12.4-3.5,24.7-5.2,37.1
			c-2,14-4.1,28-7.2,41.8c-5.4,23.8-13.5,46.9-21.4,70c-0.2,0.5-0.3,1-0.6,1.4c0.1,0.1,0.2,0.3,0.3,0.4c1.1,1.5,2.2,3.1,3.2,4.6
			c4.3,6.7,8.1,13.7,11.7,20.8c1.3,2.6,2.6,5.1,3.9,7.7c0.4-0.3,0.6-0.5,0.7-0.6c0.3-0.9,0.6-1.8,0.8-2.7
			c11.4-41.6,20.7-83.5,24.1-126.6c1.5-19.1,3.4-38.2,1.5-57.4c-1.1-10.7-2.3-21.4-4.7-31.9c-1.1-4.8-2.4-9.6-3.8-14.2
			c-0.2-0.7-0.4-1.4-0.7-2.1c0,0.4,0.1,0.9,0.1,1.3C1395.1,1006.8,1395.2,1008.6,1395.3,1010.3L1395.3,1010.3z"/>
		<path class="st6" d="M593.4,587c13-9.2,25.8-18.8,39.2-27.4c19.4-12.4,40-22.1,62.3-28.1c19.3-5.1,38.7-8.9,58.7-9.5
			c25.4-0.8,50.7,0.9,76,2.9c18.5,1.5,37,2.7,55.5,3c17.7,0.3,35.4,1.4,53.1,0.4c11.6-0.7,23.2-0.1,34.8-0.6
			c11.3-0.6,22.5-1.1,33.8-1.9c18.9-1.3,37.8-2.9,56.7-3.6c14.3-0.6,28.6-0.7,42.9,0.3c12,0.8,23.8,2.5,35.6,5.2
			c19.3,4.3,38.1,9.8,55.7,18.9c16.2,8.4,31.4,18.5,46.2,29.2c5.7,4.1,11.2,8.6,17.3,12.3c0.4,0.2,0.7,0.4,1.1,0.7
			c-0.3-0.3-0.7-0.7-1.1-1c-17.3-16.9-36-32.3-56.3-46c-18.8-12.8-38.6-23.4-60-31.4c-9.7-3.6-19.5-5.9-29.4-7
			c-1.2-0.1-2.4-0.2-3.6-0.3c-4.5-0.3-9-0.5-13.5-0.3c-3,0.2-6,0.4-9.1,0.6c-0.6,0.1-1.3,0.1-1.9,0.2c-17.3,1.9-34.7,2.9-52.2,3.6
			c-14.7,0.6-29.5,0.7-44.1,2.2c-10.8,1.1-21.7,1.7-32.5,2c-2.7,0.1-5.3,0.2-7.9,0.3c-4,0.2-8.1,0.1-12.1,0c-9.2,0-18.4,0-27.6,0
			c-1.5,0-3,0-4.6,0c-1.7,0-3.4,0-5.1,0c-13.9,0.1-27.7-1.9-41.6-2.5c-35.8-1.7-71.5-3.3-107.2-6.2c-9.6-0.8-19,0.2-28.3,2.7
			c-17.9,4.7-34.8,11.8-50.9,20.7c-28.1,15.6-53.4,34.9-76.8,56.9c-1.8,1.7-3.5,3.4-5.3,5.1c-0.3,0.3-0.7,0.7-1.1,1
			c0.4-0.1,0.8-0.3,1.1-0.5C592.1,588,592.8,587.5,593.4,587L593.4,587z"/>
		<path class="st7" d="M989.3,1209.3c-21.1-3.5-40.4-11.2-57.6-23.6c-1.1,15.6-2.2,31.2-3.3,46.9c-0.1,1.5-0.3,2.9-2.1,2.8
			c-1.6-0.1-1.7-1.4-1.8-2.8c-0.3-5.5-0.7-11-1.1-16.4c-0.7-10.2-1.4-20.3-2.1-30.5c-18.4,13.4-39.2,21.1-61.8,24.3
			c-4.2,0.6-8.5,0.9-12.7,0.5c12.8,36.1,25.2,72.3,36.6,108.9c0.4,1.3,0.7,2.6,2.2,3.1c13.2,4.4,26.6,7.9,40.8,7.6
			c14.1,0.3,27.5-3.2,40.7-7.6c1.6-0.5,1.8-1.8,2.2-3.1c11.5-36.5,23.6-72.9,36.6-108.9C1000.6,1211.1,994.9,1210.2,989.3,1209.3
			L989.3,1209.3z"/>
		<path class="st7" d="M951,794.2c22.8,3.6,45.6,6.6,67.6,14.6c-2-2.6-4.8-4.2-7.7-5.8c-12.3-6.6-25.4-11.1-38.9-14.7
			c-16.8-4.5-33.8-7.5-51.3-6.7c-18.1,0.9-35.5,5.1-52.6,10.6c-11.1,3.6-21.9,7.7-31.6,14.4c-0.9,0.6-2,1-2.2,2.8
			c2.4-1,4.3-2,6.4-2.7c13.8-4.4,27.8-7.3,42.1-9.6C905.4,793.4,928,790.6,951,794.2L951,794.2z"/>
		<path class="st7" d="M621.2,804.1c-3.7,8.6-5.7,17.6-4.8,27c1.1,10.9,6.2,19,16.5,23.4c6.7,2.8,13.7,3.2,20.8,2.7
			c1.8-0.1,1.8-0.8,0.9-2.1c-3.2-4.4-4.9-9.6-6-14.9c-1.8-7.9-1.9-15.9-0.8-23.8c3.6-27.7,13.6-52.6,32.8-73.9
			c-0.6,0.2-0.9,0.2-1.2,0.3C653.5,757,633,776.5,621.2,804.1L621.2,804.1z"/>
		<path class="st7" d="M755.7,763.5c0-9.3-1.3-18.4-9.5-24.5c-12.7-9.5-26.9-8.6-41.3-5.6c9.4,4.1,12.9,12.2,15,21.3
			c1.4,5.8,1.4,11.7,1.4,17.6c0,1.9-0.5,2.7-2.6,2.8c-2.8,0.1-5.2,1.4-7.1,3.5c-5.4,5.6-3.6,15.5,3.4,17.4c2.8,0.8,2.8,1.8,2.1,4
			c-4.1,14.1-9.8,27.5-17.8,39.9c-0.4,0.7-1.4,1.2-0.8,2.4c0.5-0.2,0.8-0.3,1.2-0.6c21-13,37.7-30,49.4-51.9
			C753.4,781.6,755.7,772.7,755.7,763.5L755.7,763.5z"/>
		<path class="st7" d="M1204.4,765c-9.4-9-19.8-16.6-31.8-22.2c0.2,0.2,0.3,0.5,0.5,0.7c21.1,23.4,31.2,51.3,32.6,82.4
			c0.5,10.4-1.4,20.5-7.5,29.3c-1.2,1.8-0.1,1.8,1.2,1.9c5.1,0.3,10.2,0.2,15.2-1c11.9-2.9,19.3-10.1,21.5-22.2
			c1.5-8.5,0.2-16.7-2.5-24.8C1227.9,791.8,1217.4,777.5,1204.4,765L1204.4,765z"/>
		<path class="st7" d="M1136,799.5c-0.5-1.6-1.1-3,1.6-3.5c4-0.8,6.5-4.1,7-8.2c0.8-6.7-3.6-12.2-10.5-12.9
			c-1.8-0.2-2.3-0.7-2.2-2.4c0.1-3.4-0.2-6.9,0.2-10.3c1.3-11.8,3.9-23,16.4-28.9c-2.8-1.1-5.4-1.3-8.1-1.6
			c-9.8-1.1-19.5-0.7-28.5,4c-7.4,3.9-12.2,9.6-13.7,18.1c-2.2,13.4,0.4,25.8,6.7,37.5c9.3,17,22.1,31,37.4,42.7
			c3.9,3,7.9,5.7,12.5,8.3c0-1.7-0.9-2.4-1.4-3.2C1145.6,826.9,1140,813.6,1136,799.5L1136,799.5z"/>
		<path class="st4" d="M942.2,1118.9c0.2,3.6,1.5,5.7,4.6,7.6c15.3,9.5,31,18.1,48.1,23.9c27,9.2,53.9,10.1,80.5-1.8
			c24-10.7,40.7-28.9,52.4-52c8.4-16.7,13.6-34.2,16.3-52.2c0-0.2,0.1-0.4,0.1-0.6c-1.7,2.6-2.7,5.6-3.9,8.4
			c-6.6,15.1-16.2,27.7-29.3,37.8c-15.6,12-33.4,16.3-52.6,16.6c-15.1,0.2-30.1-1.5-45-4.2c-27.5-4.9-52.7-14.6-73.8-33.4
			c0,0.1,0,0.3,0,0.4C940.1,1086.1,941,1102.5,942.2,1118.9L942.2,1118.9z"/>
		<path class="st4" d="M730.3,1105.7c15.2,25,36.5,42.3,65.3,49.1c21.2,5,42.1,2.8,62.5-4.3c16.5-5.8,31.9-13.9,46.7-23.2
			c0.3-0.2,0.6-0.4,0.9-0.6c0.9-0.5,1.7-1.1,2.6-1.6c2.1-1.3,2.2-3.1,2.3-5c1.1-16.7,2.4-33.4,3-50.2c0-0.3,0-0.5,0-0.8
			c-2,1.9-3.9,4-6.1,5.6c-14.7,10.3-30.4,18.6-47.8,23.3c-23.4,6.3-47.1,9.7-71.4,8.2c-8.1-0.5-16.1-1.4-23.7-4.2
			c-24.3-9-41.1-26-51.6-49.5c-1.3-2.9-2.2-5.9-3.9-8.6c0.1,0.3,0.1,0.6,0.1,0.9C712.5,1066.4,718.9,1086.8,730.3,1105.7
			L730.3,1105.7z"/>
		<path class="st8" d="M808.5,1179.9c-1-2.5-2.7-2.5-4.7-2.7c-19.8-1.9-38.2-7.7-54.9-18.7c-14.6-9.5-26.3-21.4-35.6-35
			c-0.7-1.1-1.5-2.2-2.2-3.3c0.1,0.3,0.2,0.7,0.3,0.9c10.1,19.3,23.9,35.7,40.6,49.6c11.3,9.4,23.8,17.2,36.7,24.2
			c10.1,5.4,20.3,10.7,31.5,13.7c-0.1-0.3-0.2-0.6-0.4-0.9C816.1,1198.6,812.2,1189.3,808.5,1179.9L808.5,1179.9z"/>
		<path class="st8" d="M1110.2,1154.3c-17.6,13.1-37.4,20.5-59.2,22.6c-4.2,0.4-6.1,1.9-7.7,5.9c-3.4,8.5-6.9,17-10.5,25.4
			c-0.1,0.2-0.1,0.3-0.2,0.5c0.9-0.3,1.9-0.5,2.8-0.8c11.2-3.6,21.6-9,31.8-14.7c24-13.1,45.1-29.6,61.4-51.8
			c4.8-6.4,9.3-13,12.6-20.4c-1.5,2.3-3.1,4.6-4.8,6.8C1129.3,1137.8,1120.5,1146.6,1110.2,1154.3L1110.2,1154.3z"/>
		<path class="st8" d="M778.6,1089.3c5.1,0.1,9.6-4,9.6-8.6c0-4.6-6.8-10.6-11.9-10.5c-4.9,0.1-9.2,4.3-9.2,9.1
			C767.3,1084.7,772.4,1089.2,778.6,1089.3z"/>
		<path class="st8" d="M1065.1,1082c0.9,4.6,5.4,7.8,10.1,7.2c6.3-0.7,10.7-4.8,10.7-10.1c0-4.9-5-9.5-9.9-9
			c-5.6,0.5-11.8,7-11,11.5C1065,1081.8,1065,1081.9,1065.1,1082L1065.1,1082z"/>
		<path class="st8" d="M588.8,1211.3c-3.9,0-7.1,3-7.1,6.7c0,4.3,3.6,7.8,7.9,7.8c4,0,7-2.8,7-6.7
			C596.6,1214.7,593.2,1211.3,588.8,1211.3L588.8,1211.3z"/>
		<path class="st8" d="M1264.3,1211.3c-4.4,0-7.8,3.4-7.8,7.8c0,3.8,3,6.6,7,6.7c4.3,0,7.9-3.5,7.9-7.8
			C1271.4,1214.2,1268.2,1211.2,1264.3,1211.3z"/>
		<path class="st9" d="M760,1034.6c-3.9-0.1-6.6,2.5-6.6,6.2c0,3.8,2.5,6.3,6.4,6.3c3.9,0,6.6-2.5,6.6-6.3
			C766.4,1037.6,763.4,1034.6,760,1034.6L760,1034.6z"/>
		<path class="st9" d="M1099.6,1041c0.1-3.8-2.5-6.3-6.4-6.4c-3.4,0-6.5,2.8-6.6,6.1c-0.1,3.7,2.6,6.4,6.4,6.4
			C1097,1047.2,1099.6,1044.8,1099.6,1041L1099.6,1041z"/>
		<path class="st8" d="M820.8,1055.8c0-3.5-2.1-5.6-5.6-5.6c-3.4,0-6.2,2.6-6.2,5.6c0.1,3.3,2.4,5.7,5.7,5.7
			C818.2,1061.4,820.8,1059,820.8,1055.8L820.8,1055.8z"/>
		<path class="st8" d="M1032.3,1055.8c0,3.2,2.6,5.6,6.1,5.6c3.3,0,5.6-2.4,5.7-5.7c0.1-3-2.8-5.6-6.2-5.6
			C1034.4,1050.2,1032.3,1052.3,1032.3,1055.8L1032.3,1055.8z"/>
		<path class="st10" d="M1015.3,1176.3c-28.2-4.1-54.1-13.9-77.3-30.7c-0.5-0.4-1-0.7-1.5-1.1c-1.1-0.8-1.7-0.5-1.8,0.9
			c-0.2,2.5-0.5,4.9-0.7,7.4c-0.8,10.9-1.5,21.9-2.3,32.8c17.2,12.5,36.5,20.1,57.6,23.6c5.6,0.9,11.2,1.8,16.8,1.1
			c3.7-10.2,7.5-20.5,11.3-30.6C1018.4,1177.3,1017.8,1176.7,1015.3,1176.3L1015.3,1176.3z"/>
		<path class="st10" d="M859.6,1210c22.6-3.2,43.4-11,61.8-24.3c-0.8-12.9-1.7-25.8-3-38.7c-0.1-1,0.4-2.3-0.8-2.8
			c-0.9-0.3-1.6,0.7-2.4,1.2c-23.3,16.9-49.4,26.9-77.9,30.9c-2.7,0.4-2.6,1.3-1.8,3.4c2.9,7.4,5.7,14.9,8.4,22.4
			c1,2.8,2,5.5,2.9,8.3C851.1,1210.9,855.4,1210.6,859.6,1210L859.6,1210z"/>
		<path d="M1514.3,588.3c-2.8-19.9-9.4-38.3-23.1-53.4c-0.3-0.3-0.6-0.6-0.8-1c-19.8-21.4-43.7-30.3-72.8-23.2
			c-18.7,4.5-36.2,11.9-53.3,20.6c-9.7,4.9-19.2,10.4-29.2,14.6c-23.2,9.7-47,16.9-72.3,18.4c-4.2,0.2-6.9-0.5-9.9-3.7
			c-21.6-23-45.3-43.4-72.7-59.2c-2.2-1.3-4.4-2.6-6.7-3.8c-32.1-17.4-66.2-26.2-103-23.3c-8.5,0.7-17,1.2-25.5,1.9
			c-27.2,2.1-54.5,3.1-81.8,3.7c-13.8,0.3-27.6,1.4-41.4,1.1c-15.1-0.4-30.3-1.3-45.4-1.5c-27.2-0.3-54.3-2.2-81.4-4.2
			c-17.9-1.3-35.8-2.3-53.7,0.7c-24.7,4.1-47.4,13.1-68.6,25.5c-5.4,3.2-10.7,6.5-15.9,10.1c-21.6,14.8-40.9,32.1-58.8,51.2
			c-1.1,1.2-2,2.2-3.9,1.9c-6.8-0.8-13.7-1.2-20.4-2.2c-23.9-3.7-46.4-11.6-67.9-22.4c-9.8-5-19.6-10-29.5-14.8
			c-14.1-6.8-28.7-11.9-44-15.2c-23.1-5-43.3,0.6-61.2,15.7c-3.3,2.8-6.4,5.8-9.2,9c-6.6,7.5-11.9,15.9-15.8,25.4
			c-5.9,14.4-8.3,29.5-8.8,44.9c-0.7,22.4,2.5,44.5,7.3,66.3c4.5,20.6,10.5,40.8,17.2,60.7c4.8,14.2,10,28.2,15.5,42.1
			c13.8,35.4,28.7,70.3,48.9,102.6c0.8,1.3,0.7,2.4,0.2,3.8c-1.5,4-3.2,7.9-4.5,11.9c-16.6,53.3-31.3,107-35.1,163.1
			c-0.7,9.7-0.4,19.5-0.2,29.2c0,0.7-0.3,1.6,0.6,1.9c0.8,0.3,1.3-0.5,1.7-1.1c2.2-3.1,5-5.5,7.6-8.2c10.2-10.7,18.9-22.6,28.7-33.6
			c0.7-0.8,1.1-1.9,2.7-2.1c-0.5,9.7-0.9,19.2-0.7,28.8c0.8,58.8,11.7,116,27.6,172.4c4.4,15.7,9.4,31.3,17.7,45.5
			c0.5,0.8,0.7,2.4,1.8,2.3c1.3-0.1,1.2-1.7,1.6-2.8c3.5-11.3,7.2-22.5,11.2-33.5c0.3-1,0.4-2.2,1.5-3c0.8,4.1,1.4,7.9,2.3,11.8
			c12.6,51,36,96.5,71,135.8c0.8,0.8,1.4,2.6,2.7,2c1.4-0.6,0.6-2.4,0.7-3.7c0-0.3-0.1-0.6-0.1-0.9c-2-8.8-3.6-17.6-4.6-26.6
			c-0.6-5.5-1.6-11-1.5-17.2c5.4,4.8,10.9,8.5,16.1,12.6c63.1,50,134.1,82.4,212.2,99.2c3.9,0.8,7.8,1.7,11.8,2.4
			c75.8,14.6,152,15.7,228.3,4.5c12.9-1.9,25.6-4.2,38.1-6.9c78.3-16.8,149.9-49.5,213.7-100.4c4.7-3.7,9.6-7.1,14.6-11.5
			c-0.6,9.6-1.6,18.3-3,26.9c-1,6.2-2.3,12.4-3.3,18.6c-0.2,1.1-0.5,2.6,0.8,3.1c1.1,0.4,1.6-1,2.3-1.8
			c34.4-38.4,57.5-82.9,70.5-132.6c1.3-5,2.2-10.1,3.3-15.7c5.3,13.6,9.3,26.9,13.9,40.8c1.1-1.8,1.7-2.8,2.3-3.8
			c4.7-8.3,8.5-17,11.6-26c10.6-31.7,18.1-64.2,24.1-97.1c7.1-39.1,10.9-78.4,9.1-118.2c-0.1-1.6-0.1-3.3-0.2-5.5
			c0.9,0.6,1.2,0.7,1.3,0.9c12.3,14.4,23.9,29.5,37.3,42.9c0.6,0.6,1.1,1.7,2.1,1.4c0.9-0.3,0.5-1.5,0.5-2.2
			c0.6-15.7-0.1-31.3-1.6-46.9c-1.7-17.8-5.1-35.3-9-52.7c-7.9-35.3-16.2-70.5-29.2-104.4c-0.6-1.6-0.4-2.7,0.5-4
			c2.4-3.8,4.7-7.6,6.9-11.4c19.3-34.4,34.4-70.6,48.1-107.5c3.2-8.6,6.3-17.1,9.2-25.8c8.1-23.8,15.1-47.8,19.7-72.6
			C1515.2,635.7,1517.6,612.2,1514.3,588.3L1514.3,588.3z M1490.8,629.1c-0.7,12.5-2.5,25-4.9,37.3c-6.5,33.3-17.1,65.3-29.2,96.9
			c-11.5,30.1-23.9,59.7-39.5,87.9c-0.5,1-0.8,2.2-2.3,2.9c-0.3-0.7-0.7-1.5-1.1-2.2c-0.2-0.3-0.3-0.7-0.5-1l0,0
			c-0.1-0.2-0.1-0.3-0.2-0.4c-0.4-0.8-0.8-1.7-1.3-2.5c-4.8-9.2-10.6-17.7-16.8-25.9c-4.2-5.5-8.5-10.9-13-16.3
			c-0.7-0.8-1.3-1.6-2-2.4c-0.1-0.1-0.2-0.2-0.3-0.4c-0.2-0.2-0.3-0.4-0.5-0.6c-1.6-1.9-3.1-3.8-4.7-5.7l0,0
			c-0.1-0.1-0.1-0.2-0.2-0.2c-1.5-1.9-3.1-3.7-4.6-5.6c-0.6,1.1-0.6,1.9-0.4,2.6c0.2,0.6,0.5,1.2,0.8,1.7
			c12.3,26.7,23,54.2,34.8,81.1c9.7,22.2,15.1,45.8,21.3,69.2c7.2,27.3,13.1,54.8,17.9,82.6c0.1,0.7,0.2,1.4,0,2.3
			c-0.7-0.8-1.4-1.6-2.1-2.4c-2.5-3-5.1-5.9-7.6-8.8c-17.2-19.6-35.1-38.4-53.8-56.7c-2.3-2.2-4.5-4.4-6.8-6.6
			c-0.6,1.4,0.3,2,0.7,2.8c0.3,0.6,0.7,1.2,1,1.8c7.8,13.8,14.3,28.2,19.1,43.2c0.2,0.7,0.4,1.4,0.7,2.1c1.4,4.7,2.7,9.4,3.8,14.2
			c2.4,10.5,3.6,21.2,4.7,31.9c2,19.2,0.1,38.3-1.5,57.4c-3.4,43.1-12.7,85-24.1,126.6c-0.2,0.9-0.5,1.8-0.8,2.7
			c-0.1,0.2-0.3,0.3-0.7,0.6c-1.3-2.6-2.7-5.1-3.9-7.7c-3.6-7.1-7.3-14.2-11.7-20.8c-1-1.6-2.1-3.1-3.2-4.6
			c-0.1-0.1-0.2-0.3-0.3-0.4c-0.3-0.4-0.6-0.8-0.9-1.3c0,0,0-0.1-0.1-0.1c-0.3-0.4-0.6-1.1-0.9-1.5c-0.3-0.3-0.7-0.5-1.2-0.3
			c-0.7,0.2-0.9,0.9-1,1.7c-0.1,0.4-0.1,0.7-0.1,1.1c-1.9,21.1-6,41.4-11.7,61.3c-1.1,3.9-2.3,7.7-3.6,11.6
			c-6.7,20.6-15.2,40.7-25,60.4c-0.4,0.7-0.8,1.5-1.2,2.2c-0.1,0.2-0.3,0.3-0.7,0.6c-0.9-5.3-1.7-10.4-2.6-15.6
			c-1.5-8.6-3.5-16.9-5.9-25.3c-1.4-5-3-10-4.7-14.9c-0.5-1.4-0.8-3.8-2.4-3.4c-1.8,0.4-0.2,2.5-0.2,3.8
			c-0.2,12.4,0.8,24.9,0.6,37.3c-0.1,4.2-1.6,6.9-4.7,9.8c-26,23.9-56.2,41.4-87.5,57.3c-66.5,33.7-137.1,54.1-211.2,61.7
			c-105.7,10.8-207.8-3.3-306.1-44.1c-34.2-14.2-66.8-31.6-97.4-52.4c-10.9-7.4-20.7-16.3-30.7-24.9c-1.2-1-1.7-2.2-1.8-3.8
			c-0.4-6.9-0.5-13.9-0.1-20.8c0.5-7.4-0.1-14.9,0.9-22.3c0.1-0.6,0.2-1.3-0.6-1.6c-0.8-0.3-1.1,0.3-1.4,0.9
			c-0.6,1.4-1.2,2.8-1.7,4.3c-1.5,4.4-2.9,8.9-4.2,13.4c-3.5,12.4-6.2,25.1-7.9,37.9c-0.1,0.8-0.3,1.6-0.5,2.4
			c-0.8,0.2-0.9-0.4-1.1-0.8c-12.5-25.9-24.1-52.1-31.4-80c-4-15.3-6.8-30.9-9-46.6c-0.4-2.9-0.5-5.8-0.8-8.7c0-0.3,0-0.7-0.1-1
			c-0.1-0.7-0.3-1.4-1.2-1.5c-0.4-0.1-0.8,0.1-1,0.3c-0.4,0.4-0.6,1-0.9,1.4c0,0,0,0,0,0.1c-0.3,0.4-0.6,0.9-0.9,1.3
			c-0.1,0.2-0.2,0.3-0.3,0.4c-0.9,1.3-1.8,2.6-2.7,3.9c-0.2,0.3-0.3,0.5-0.5,0.8c-0.3,0.5-0.7,1-1,1.6c-4.8,7.7-9,15.7-13,23.9
			c-0.5,1-1,2-1.5,3c-1.2-0.7-1.1-1.8-1.3-2.6c-8.3-30.9-16.1-62-20.4-93.8c-1.8-13.3-3.5-26.5-4.6-39.9c0-0.1,0-0.2,0-0.3
			c-1.1-13.3-1.7-26.7-1.3-40.1c0.6-19.6,3.7-38.5,9.2-56.8c0.2-0.7,0.4-1.5,0.7-2.2c4.7-14.9,11.1-29.3,19.1-43.2
			c0.2-0.3,0.3-0.6,0.5-0.9c0.5-0.9,1-1.8,1.5-2.7c0.1-0.1-0.1-0.4-0.2-1c-3,2.9-6,5.8-9,8.7c-4,4-8,8-12,12
			c-16.5,16.7-32.4,33.8-47.9,51.6c-0.6,0.7-1.2,1.4-1.8,2.1c1.3-7,2.5-14.1,3.9-21.1c7.8-40.3,17.8-80.1,30.5-119.2
			c1.7-5.1,3.6-10.2,5.7-15.1c9.3-21.4,18.8-42.7,27.4-64.4c2.1-5.3,4.8-10.3,7.1-15.5c0.2-0.5,0.5-1,0.7-1.6
			c0.2-0.7,0.2-1.5-0.3-2.6c-3.3,4.1-6.6,8.1-9.9,12.1c0,0.1-0.1,0.1-0.1,0.2c-0.1,0.1-0.2,0.2-0.2,0.3c-0.3,0.3-0.6,0.7-0.9,1
			c-5.7,6.8-11.2,13.7-16.4,20.8c-4.7,6.4-9.1,13-13,20c-1.1,2-2.2,4.1-3.2,6.2c-0.4,0.8-0.8,1.7-1.2,2.6c-1.3-0.2-1.4-1-1.7-1.6
			c-4.8-9.2-9.5-18.4-14-27.7c-0.4-0.8-0.8-1.6-1.2-2.4c-22.8-47.8-40.8-97.5-52.8-149.3c-3.4-14.5-5.6-29.1-6.3-43.8
			c-0.4-7.9-0.3-15.8,0.2-23.8c0-0.6,0.1-1.2,0.1-1.8c0.1-0.9,0.2-1.8,0.3-2.8c0.1-0.7,0.1-1.5,0.2-2.2c1-9.5,3.1-18.8,6.8-27.7
			c2.6-6.2,5.9-11.8,10-16.7c0-0.1,0.1-0.1,0.2-0.2c4.6-5.5,10.1-10.2,16.6-14.2c1-0.6,1.9-1.1,2.9-1.6c8.1-4.1,16.8-5,25.9-3.6
			c13.1,2,25.6,6.2,37.8,11.3c14.5,6.1,28.2,14,42.8,20c22.9,9.3,46.5,16.3,71.2,19.4c0.3,0,0.6,0.2,0.9,0.2
			c0.1,1.1-0.7,1.7-1.3,2.4c-2.5,3.1-4.8,6.3-7,9.6c-0.3,0.5-0.7,1-1,1.4c-2,2.9-3.9,5.8-5.8,8.8c-3.8,6.1-7.3,12.3-10.6,18.7
			c-2.4,4.6-4.6,9.2-6.8,13.9c-0.2,0.5-0.5,0.9-0.6,1.4c-0.2,0.6-0.4,1.4,0.2,1.7c0.9,0.5,1.2-0.3,1.6-1c1.2-2.4,2.4-4.8,3.8-7.1
			c0.9-1.5,1.9-3,2.9-4.4c11.1-15.1,23.4-29,36.8-42c0.3-0.3,0.7-0.7,1.1-1c1.8-1.7,3.5-3.4,5.3-5.1c23.3-22,48.7-41.4,76.8-57
			c16.1-8.9,33-16,50.9-20.7c9.3-2.5,18.7-3.4,28.3-2.7c35.7,2.9,71.4,4.6,107.2,6.2c13.9,0.6,27.7,2.6,41.6,2.5c1.7,0,3.4,0,5.1,0
			c1.5,0,3,0,4.6,0c9.2,0,18.4,0,27.6,0c6.7,0,13.4-0.1,20.1-0.3c10.8-0.3,21.7-0.9,32.5-2c14.6-1.5,29.4-1.6,44.1-2.2
			c17.4-0.7,34.8-1.7,52.2-3.6c0.7-0.1,1.3-0.1,1.9-0.2c3-0.3,6.1-0.5,9.1-0.6c4.5-0.1,9,0,13.5,0.3c1.2,0.1,2.4,0.2,3.6,0.3
			c9.9,1.1,19.7,3.3,29.4,7c21.3,8,41.2,18.6,60,31.4c20.2,13.7,39,29.1,56.3,46c0.3,0.3,0.7,0.7,1.1,1c11.8,11.7,23,24.1,33.5,37.3
			c2.4,3.1,4.6,6.3,6.6,9.6c1.1,1.9,2.2,3.8,3.2,5.8c0.4,0.9,0.6,2.8,2,2.1c1.3-0.6,0.1-2.1-0.3-3c-2.1-4.7-4.4-9.3-6.7-13.9
			c-4-7.9-8.4-15.6-13.3-23c-1-1.5-2-3-3-4.5c-0.4-0.5-0.7-1-1.1-1.6c-2.2-3.1-4.3-6.1-6.7-9.1c-0.6-0.7-1.1-1.5-1.6-2.3
			c-0.1-0.1-0.1-0.4-0.1-0.8c10.5-1.2,20.8-3.4,31-6c21.8-5.6,42.7-13.4,62.7-23.6c16.5-8.4,33.4-15.7,51.5-19.9
			c13.1-3.1,24.5-2.7,35.3,3.2c5.9,3.2,11.6,8.1,17.4,15c0.1,0.1,0.2,0.3,0.3,0.4c1,1.2,2,2.5,3,3.8c8.8,11.7,12.1,25.6,13.7,39.9
			c0.3,2.4,0.5,4.8,0.7,7.1C1491.3,613.2,1491.3,621.2,1490.8,629.1L1490.8,629.1z"/>
		<path d="M1105.6,851c-0.5-0.7-1.1-1.3-1.7-1.8c-0.8-0.7-1.6-0.9-2.6-0.3c-1,0.7-1.3,1.6-1,2.7c0.3,0.8,0.7,1.5,1.2,2.2
			c10.8,17,19.2,35.1,25.8,54.1c12.3,35.3,19.5,71.6,18.8,109.2c-0.2,9.1-0.8,18-2.1,26.8c0,0.2-0.1,0.4-0.1,0.6
			c-2.7,18-7.8,35.5-16.3,52.2c-11.7,23.1-28.4,41.3-52.4,52c-26.5,11.8-53.5,11-80.5,1.8c-17.1-5.8-32.8-14.5-48.1-23.9
			c-3.1-1.9-4.3-4.1-4.6-7.6c-1.2-16.4-2.1-32.9-2.8-49.3c0-0.1,0-0.3,0-0.4c-0.9-22.5-1.3-44.9-1-67.4c0.1-7.1,0.2-14.1,0.2-21.2
			c0-1.4,0-2.6,1.8-3.2c11.4-3.9,20-11.6,27.4-20.8c6.1-7.5,11.3-15.6,15.7-24.2c4.8-9.5,11.7-16.9,21.4-21.8
			c8.1-4,15.4-9.3,22-15.6c20.8-19.8,26.9-53.5,13.7-77.8c-9.8-18.1-24.6-31-43.3-39.1c-17.3-7.5-35.9-10.7-54.7-12.5
			c-23.1-2.2-45.7,0.8-68.2,6.2c-22.8,5.5-41.8,16.9-56,35.7c-18.4,24.4-17.2,59.3,2.8,82.6c8,9.3,17.8,16.1,28.6,21.6
			c3.2,1.6,6,3.7,8.6,6.1c5.1,4.6,8.8,10.2,11.8,16.3c5.1,10.2,11.6,19.4,19.3,27.8c6,6.6,13,12,21.4,15c2.5,0.9,3.3,2.1,3.3,4.6
			c0.1,18.2,0.4,36.3-0.5,54.4c0,8,0.2,16,0,23.9c-0.1,3.1-0.2,6.2-0.3,9.3c0,0.3,0,0.5,0,0.8c-0.6,16.7-1.9,33.4-3,50.2
			c-0.1,1.9-0.2,3.7-2.3,5c-0.9,0.6-1.7,1.1-2.6,1.6c-0.3,0.2-0.6,0.4-0.9,0.6c-14.8,9.2-30.2,17.4-46.7,23.2
			c-20.4,7.1-41.3,9.3-62.5,4.3c-28.9-6.8-50.1-24.1-65.3-49.1c-11.4-18.8-17.8-39.3-21.1-60.7c-0.1-0.3-0.1-0.6-0.1-0.9
			c-0.4-2.9-0.8-5.8-1.1-8.7c-2.7-25.1-0.8-49.9,3.8-74.6c7-38.1,19.2-74.2,39.9-107.2c0.4-0.6,0.8-1.2,1-1.9c0.4-1.1,0-2-0.9-2.7
			c-0.9-0.6-1.8-0.4-2.6,0.2c-0.8,0.7-1.4,1.5-2.1,2.3c-3.4,4.8-7,9.6-10.3,14.4c-28.6,41.9-47.5,87.3-51,138.4
			c-2,30.2,0.7,59.7,11.6,88.1c3.8,9.9,8.4,19.2,13.9,27.8c0.7,1.1,1.4,2.2,2.2,3.3c9.3,13.7,21,25.5,35.6,35
			c16.7,10.9,35.1,16.8,54.9,18.7c1.9,0.2,3.7,0.2,4.7,2.7c3.7,9.4,7.6,18.7,11.6,28c0.1,0.3,0.2,0.6,0.4,0.9
			c17.2,40.6,35.9,80.6,52.7,121.4c0.7,1.6,1.6,2.8,3.4,3.4c4.6,1.6,9,3.7,13.7,5c29.1,8.2,57.8,6.9,85.8-4.7
			c2.1-0.9,3.3-2.2,4.2-4.2c6.1-14.4,12.3-28.8,18.5-43.1c11.2-26,23.1-51.7,34.1-77.7c0.1-0.2,0.1-0.3,0.2-0.5
			c3.6-8.4,7.1-16.9,10.5-25.4c1.6-3.9,3.4-5.4,7.7-5.9c21.7-2.1,41.6-9.5,59.2-22.6c10.3-7.7,19.1-16.6,26.4-26.4
			c1.7-2.2,3.2-4.5,4.8-6.8c7.4-11.4,13.1-23.9,17.3-37.4c13.5-43.2,11.6-86.6-0.3-129.8C1148.1,916,1129,882.3,1105.6,851
			L1105.6,851z M882.9,797.1c-14.2,2.3-28.3,5.2-42.1,9.6c-2.1,0.7-4.1,1.7-6.4,2.7c0.2-1.8,1.3-2.2,2.2-2.8
			c9.7-6.7,20.5-10.8,31.6-14.4c17.1-5.5,34.5-9.7,52.6-10.6c17.5-0.8,34.5,2.2,51.3,6.7c13.4,3.6,26.6,8.1,38.9,14.7
			c2.8,1.5,5.7,3.1,7.7,5.8c-22-8-44.8-11-67.6-14.6C928,790.6,905.5,793.5,882.9,797.1L882.9,797.1z M1017.4,1179.8
			c-3.8,10.2-7.6,20.4-11.3,30.6c-13,36-25.1,72.3-36.6,108.9c-0.4,1.3-0.7,2.6-2.2,3.1c-13.2,4.4-26.6,7.9-40.7,7.6
			c-14.2,0.3-27.6-3.2-40.8-7.6c-1.6-0.5-1.8-1.8-2.2-3.1c-11.4-36.6-23.8-72.8-36.6-108.9c-1-2.8-1.9-5.5-2.9-8.3
			c-2.7-7.5-5.5-14.9-8.4-22.4c-0.8-2.1-0.9-3,1.8-3.4c28.4-4,54.5-14,77.9-30.9c0.7-0.5,1.5-1.6,2.4-1.2c1.2,0.4,0.7,1.8,0.8,2.8
			c1.2,12.9,2.1,25.8,3,38.7c0.7,10.2,1.3,20.3,2.1,30.5c0.4,5.5,0.8,11,1.1,16.4c0.1,1.3,0.2,2.7,1.8,2.8c1.8,0.1,2-1.3,2.1-2.8
			c1.1-15.6,2.2-31.2,3.3-46.9c0.8-10.9,1.5-21.9,2.3-32.8c0.2-2.5,0.5-4.9,0.7-7.4c0.1-1.3,0.7-1.7,1.8-0.9c0.5,0.4,1,0.7,1.5,1.1
			c23.2,16.8,49.1,26.7,77.3,30.7C1017.8,1176.7,1018.4,1177.3,1017.4,1179.8L1017.4,1179.8z"/>
		<path d="M757,803.3c6.1-12.9,9.8-26.7,8.9-41.2c-0.9-15.6-11.6-37.3-34.2-43.3c-15.2-4-30.2-2.6-44.7,2.3
			c-37.1,12.6-64.3,36.7-82,71.4c-5.2,10.1-8.1,21.1-8.9,32.5c-1.7,25.9,12.8,46.3,37.7,52.5c5.4,1.3,10.8,1.9,16.3,1.9
			c9.7-0.1,19.3-1.5,28.4-5.1C713.7,860.7,740.7,837.7,757,803.3L757,803.3z M647.8,816.4c-1,7.9-0.9,15.9,0.8,23.8
			c1.2,5.3,2.8,10.4,6,14.9c0.9,1.3,0.9,2-0.9,2.1c-7.1,0.4-14.1,0.1-20.8-2.7c-10.3-4.4-15.4-12.5-16.5-23.4
			c-0.9-9.4,1.1-18.4,4.8-27c11.8-27.6,32.3-47,58.2-61.3c0.2-0.1,0.6-0.2,1.2-0.3C661.4,763.8,651.5,788.7,647.8,816.4L647.8,816.4
			z M699.6,841.6c-0.3,0.2-0.7,0.3-1.2,0.6c-0.6-1.2,0.4-1.8,0.8-2.4c8-12.4,13.7-25.8,17.8-39.9c0.6-2.2,0.7-3.2-2.1-4
			c-7-1.9-8.8-11.8-3.4-17.4c1.9-2,4.3-3.4,7.1-3.5c2.1-0.1,2.6-0.8,2.6-2.8c0-5.9,0-11.8-1.4-17.6c-2.1-9.1-5.7-17.1-15-21.3
			c14.5-3,28.6-3.8,41.3,5.6c8.3,6.1,9.5,15.2,9.5,24.5c0,9.3-2.3,18.1-6.7,26.3C737.4,811.6,720.6,828.6,699.6,841.6L699.6,841.6z"
			/>
		<path d="M1246.2,788.9c-16.2-29.8-40-51.4-71.2-64.6c-14.5-6.2-29.7-9.1-45.6-7.2c-28.6,3.4-41.7,27-42.4,46.3
			c-0.6,16.2,4.1,31.2,11.5,45.3c16.2,30.5,41.3,51.5,73,64.6c9.9,4.1,20.5,6,32.2,6.1c3.2,0,7.3-0.3,11.4-1.1
			c25.5-4.4,41.6-23.4,41.7-49.3C1257,814.7,1253,801.3,1246.2,788.9L1246.2,788.9z M1142.4,834.1c-15.3-11.7-28.2-25.7-37.4-42.7
			c-6.4-11.7-9-24.2-6.7-37.5c1.4-8.5,6.3-14.3,13.7-18.1c9-4.7,18.7-5.1,28.5-4c2.6,0.3,5.3,0.6,8.1,1.6
			c-12.5,5.8-15,17.1-16.4,28.9c-0.4,3.4-0.1,6.8-0.2,10.3c-0.1,1.7,0.5,2.2,2.2,2.4c6.9,0.7,11.2,6.2,10.5,12.9
			c-0.5,4.1-3,7.4-7,8.2c-2.8,0.5-2.1,1.9-1.6,3.5c4,14,9.6,27.3,17.5,39.7c0.5,0.8,1.4,1.5,1.4,3.2
			C1150.2,839.8,1146.2,837.1,1142.4,834.1L1142.4,834.1z M1236.1,833.9c-2.2,12.2-9.7,19.4-21.5,22.2c-5,1.2-10.1,1.3-15.2,1
			c-1.3-0.1-2.4-0.1-1.2-1.9c6.1-8.9,7.9-19,7.5-29.3c-1.4-31.1-11.5-59-32.6-82.4c-0.2-0.2-0.3-0.5-0.5-0.7
			c11.9,5.5,22.4,13.2,31.8,22.2c13.1,12.5,23.5,26.8,29.3,44.1C1236.3,817.2,1237.7,825.4,1236.1,833.9L1236.1,833.9z"/>
	</g>
</g>
</svg>
