<?xml version="1.0" encoding="UTF-8"?>
<svg id="emoji" xmlns="http://www.w3.org/2000/svg" viewBox="0 0 800 800">
  <defs>
    <style>
      .cls-1 {
        fill: none;
        stroke: #6a462f;
        stroke-miterlimit: 10;
      }

      .cls-2 {
        fill-rule: evenodd;
      }

      .cls-2, .cls-3, .cls-4 {
        stroke-width: 0px;
      }

      .cls-2, .cls-4 {
        fill: #6a462f;
      }

      .cls-3 {
        fill: #a57939;
      }
    </style>
  </defs>
  <ellipse class="cls-3" cx="363.96" cy="399.44" rx="414.22" ry="281.08" transform="translate(-150.38 565.18) rotate(-65.52)"/>
  <path class="cls-2" d="m192.33,776.43c-.21-.09-.12-.41.1-.38,131.34,13.73,263.69-112.56,347.44-296.52,83.8-184.07,91.46-365.55-5.28-455.53-.78-.72.04-1.98,1.01-1.54,141.28,64.32,178.97,285.25,84.18,493.46-94.79,208.21-286.16,324.85-427.45,260.53Z"/>
  <g>
    <path class="cls-2" d="m210.72,736.03s-12.17-187.48,72.46-373.38c84.34-185.26,233.01-299.04,234.02-299.82-.72.55-74.9,57.41-117.01,149.91-42.32,92.95-36.23,186.69-36.23,186.69,0,0,6.09,93.74-36.23,186.69-42.32,92.95-117.01,149.91-117.01,149.91Z"/>
    <path class="cls-4" d="m210.72,736.03l-14.76.96c.35,5.44,3.67,10.25,8.63,12.5s10.76,1.61,15.1-1.7l-8.97-11.76ZM517.21,62.84l8.98,11.75c6.49-4.96,7.73-14.24,2.77-20.74-4.96-6.49-14.24-7.73-20.74-2.77l8.98,11.76Zm-153.24,336.59l14.76-.96-14.76.96Zm-94.25-42.91c-43.17,94.82-61.57,189.82-69.21,260.95-3.83,35.6-4.97,65.34-5.16,86.23-.09,10.45.05,18.69.23,24.36.09,2.84.18,5.03.25,6.53.04.75.07,1.33.09,1.73.01.2.02.36.03.47,0,.06,0,.1,0,.13,0,.02,0,.03,0,.04,0,0,0,.01,0,.01t14.76-.95q14.76-.96,14.76-.95h0s0,0,0,0c0-.01,0-.04,0-.07,0-.07-.01-.19-.02-.35-.02-.32-.04-.82-.08-1.48-.06-1.33-.15-3.35-.23-6.01-.16-5.31-.3-13.16-.22-23.2.18-20.07,1.28-48.83,4.99-83.33,7.43-69.09,25.26-160.78,66.72-251.85l-26.93-12.26ZM508.22,51.08c-1.58,1.21-152.62,116.8-238.5,305.44l26.93,12.26c82.81-181.88,229.09-293.85,229.54-294.19l-17.96-23.51Zm-94.56,167.79c20.21-44.39,48.22-80.43,71.43-105.52,23.17-25.06,41.21-38.85,41.1-38.76l-17.97-23.5c-1.28.98-77.84,59.65-121.49,155.53l26.93,12.26Zm-49.69,180.56q14.76-.96,14.76-.95s0,0,0,0h0s0,0,0-.02c0-.03,0-.07,0-.14,0-.14-.02-.37-.04-.68-.03-.63-.07-1.59-.11-2.87-.08-2.56-.15-6.39-.1-11.31.09-9.83.63-23.96,2.45-40.94,3.66-34.03,12.43-79.05,32.74-123.65l-26.93-12.26c-22.01,48.35-31.35,96.68-35.23,132.75-1.94,18.08-2.53,33.19-2.62,43.84-.05,5.33.03,9.55.12,12.47.05,1.46.09,2.6.13,3.4.02.4.04.71.05.93,0,.11.01.2.02.26,0,.03,0,.06,0,.08,0,0,0,.02,0,.03,0,0,0,0,0,.01t14.76-.95Zm0,0q-14.76.96-14.76.95s0,0,0,0h0s0,0,0,.02c0,.03,0,.07,0,.14,0,.14.02.37.04.68.03.63.07,1.59.11,2.87.08,2.56.15,6.39.1,11.31-.09,9.83-.63,23.96-2.45,40.94-3.66,34.03-12.43,79.05-32.74,123.65l26.93,12.26c22.01-48.35,31.35-96.68,35.23-132.75,1.94-18.08,2.53-33.19,2.62-43.84.05-5.33-.03-9.55-.12-12.47-.05-1.46-.09-2.6-.13-3.4-.02-.4-.04-.71-.05-.93,0-.11-.01-.2-.02-.26,0-.03,0-.06,0-.08,0-.01,0-.02,0-.03,0,0,0,0,0-.01t-14.76.95Zm-49.69,180.56c-20.31,44.6-48.5,80.78-71.76,105.88-11.61,12.52-21.91,22.21-29.27,28.73-3.68,3.26-6.61,5.72-8.6,7.35-.99.81-1.75,1.41-2.24,1.8-.25.19-.42.33-.54.42-.06.04-.09.07-.11.09-.01,0-.02.01-.02.01h0s0,0,0,0t8.98,11.76q8.97,11.76,8.98,11.76s0,0,0,0c0,0,.01-.01.02-.02.02-.01.04-.03.06-.05.05-.04.12-.09.21-.16.17-.14.42-.33.73-.57.62-.49,1.51-1.2,2.65-2.13,2.26-1.85,5.5-4.57,9.48-8.1,7.97-7.06,18.99-17.43,31.34-30.76,24.66-26.61,54.98-65.39,76.99-113.74l-26.93-12.26Z"/>
  </g>
  <g id="line">
    <path class="cls-1" d="m363.96,399.44s-6.09-93.74,36.23-186.69c42.32-92.95,117.01-149.91,117.01-149.91"/>
    <path class="cls-1" d="m363.96,399.44s6.09,93.74-36.23,186.69c-42.32,92.95-117.01,149.91-117.01,149.91"/>
  </g>
</svg>