<?xml version="1.0" encoding="utf-8"?>
<!-- Generator: Adobe Illustrator 27.8.0, SVG Export Plug-In . SVG Version: 6.00 Build 0)  -->
<svg version="1.1" id="Layer_1" xmlns="http://www.w3.org/2000/svg" xmlns:xlink="http://www.w3.org/1999/xlink" x="0px" y="0px"
	 viewBox="0 0 455.7 92.6" style="enable-background:new 0 0 455.7 92.6;" xml:space="preserve">
<style type="text/css">
	.st0{display:none;}
	.st1{display:inline;}
	.st2{fill:#FFFFFF;}
	.st3{fill:#F6A800;}
	.st4{fill:none;stroke:#FFFFFF;stroke-width:2;stroke-miterlimit:10;}
</style>
<g id="Layer_2_00000116946506299531928510000002871595304525048450_" class="st0">
	<rect class="st1" width="455.7" height="92.9"/>
</g>
<g id="Layer_1_00000052083721319024475730000000504172695935428016_" xmlns:rdf="http://www.w3.org/1999/02/22-rdf-syntax-ns#" xmlns:cc="http://creativecommons.org/ns#" xmlns:dc="http://purl.org/dc/elements/1.1/">
	<g transform="matrix(1.0198685,0,0,1.0198685,-18.068536,-28.945795)">
		<path class="st2" d="M97.9,93.7v8.9h5.1v-1.5h-3.3v-2.4h3v-1.5h-3v-2.1h3.2v-1.5L97.9,93.7L97.9,93.7z M103.9,102.7h1.7v-4.4
			c0-0.4,0.1-0.7,0.2-0.9c0.1-0.2,0.4-0.2,0.6-0.2s0.4,0.1,0.5,0.2s0.1,0.4,0.1,0.6v4.7h1.7v-4.4c0-0.4,0.1-0.7,0.2-0.9
			c0.1-0.2,0.4-0.2,0.6-0.2s0.4,0.1,0.5,0.2s0.1,0.4,0.1,0.6v4.7h1.7v-4.9c0-0.6-0.1-1.1-0.4-1.5s-0.7-0.5-1.3-0.5
			c-0.4,0-0.8,0.1-1.1,0.3c-0.3,0.2-0.5,0.4-0.6,0.8l0,0c-0.1-0.4-0.3-0.6-0.5-0.8c-0.3-0.2-0.6-0.3-1-0.3s-0.7,0.1-1,0.2
			s-0.5,0.4-0.7,0.7V96h-1.7L103.9,102.7L103.9,102.7z M113.5,102.7h1.7V102l0,0c0.2,0.3,0.4,0.5,0.6,0.7s0.5,0.2,0.9,0.2
			c0.7,0,1.2-0.3,1.6-0.9c0.3-0.5,0.5-1.5,0.5-2.7s-0.2-2.2-0.5-2.7c-0.4-0.6-0.9-0.9-1.6-0.9c-0.3,0-0.6,0.1-0.9,0.2
			c-0.2,0.1-0.4,0.3-0.6,0.6l0,0v-2.8h-1.7V102.7L113.5,102.7z M115.4,97.6c0.1-0.4,0.4-0.5,0.7-0.5c0.4,0,0.6,0.2,0.7,0.5
			c0.1,0.4,0.2,0.9,0.2,1.7c0,0.7,0,1.3-0.2,1.7c-0.1,0.4-0.4,0.6-0.7,0.6c-0.4,0-0.6-0.2-0.7-0.6s-0.2-0.9-0.2-1.7
			C115.2,98.6,115.3,98,115.4,97.6 M124.7,99.6v-0.4c0-0.5,0-1-0.1-1.4s-0.2-0.8-0.4-1.1c-0.2-0.3-0.5-0.5-0.8-0.7
			c-0.3-0.1-0.7-0.2-1.2-0.2c-0.6,0-1,0.1-1.4,0.3c-0.4,0.2-0.6,0.5-0.8,0.8c-0.2,0.3-0.3,0.7-0.4,1.1s-0.1,0.9-0.1,1.3
			s0,0.9,0.1,1.3c0,0.4,0.1,0.8,0.3,1.2c0.2,0.4,0.4,0.6,0.8,0.9c0.4,0.2,0.9,0.3,1.5,0.3c0.9,0,1.5-0.2,1.8-0.6
			c0.4-0.4,0.6-1,0.6-1.8H123c0,0.4-0.1,0.7-0.2,1c-0.1,0.2-0.4,0.3-0.6,0.3s-0.3,0-0.4-0.1s-0.2-0.2-0.2-0.4
			c-0.1-0.1-0.1-0.3-0.1-0.5s0-0.4,0-0.6v-0.7H124.7L124.7,99.6z M121.3,98.6v-0.3c0-0.1,0-0.3,0-0.5s0.1-0.3,0.1-0.4
			c0.1-0.1,0.1-0.2,0.3-0.3c0.1-0.1,0.2-0.1,0.4-0.1c0.2,0,0.3,0,0.4,0.1s0.2,0.2,0.2,0.3c0.1,0.1,0.1,0.3,0.1,0.5s0,0.4,0,0.7
			L121.3,98.6L121.3,98.6z M129.2,102.7h1.7v-8.9h-1.7v2.8c-0.2-0.3-0.4-0.5-0.6-0.6s-0.5-0.2-0.8-0.2c-0.7,0-1.2,0.3-1.6,0.9
			c-0.4,0.5-0.5,1.5-0.5,2.7s0.2,2.2,0.5,2.7c0.3,0.6,0.9,0.9,1.6,0.9c0.4,0,0.6-0.1,0.9-0.2c0.2-0.1,0.5-0.4,0.7-0.7L129.2,102.7
			L129.2,102.7z M127.5,97.6c0.1-0.4,0.4-0.5,0.7-0.5c0.4,0,0.6,0.2,0.7,0.5c0.1,0.4,0.2,0.9,0.2,1.7c0,0.7,0,1.3-0.2,1.7
			c-0.1,0.4-0.4,0.6-0.7,0.6c-0.4,0-0.6-0.2-0.7-0.6s-0.2-0.9-0.2-1.7C127.3,98.6,127.3,98,127.5,97.6 M135.5,102.7h1.7v-8.9h-1.7
			v2.8l0,0c-0.2-0.3-0.4-0.5-0.6-0.6s-0.5-0.2-0.9-0.2c-0.7,0-1.2,0.3-1.6,0.9c-0.3,0.5-0.5,1.5-0.5,2.7s0.2,2.2,0.5,2.7
			c0.4,0.6,0.9,0.9,1.6,0.9c0.4,0,0.6-0.1,0.9-0.2c0.2-0.1,0.5-0.4,0.6-0.7l0,0V102.7L135.5,102.7z M133.8,97.6
			c0.1-0.4,0.4-0.5,0.7-0.5c0.4,0,0.6,0.2,0.7,0.5c0.1,0.4,0.2,0.9,0.2,1.7c0,0.7-0.1,1.3-0.2,1.7c-0.1,0.4-0.4,0.6-0.7,0.6
			c-0.4,0-0.6-0.2-0.7-0.6c-0.1-0.4-0.2-0.9-0.2-1.7C133.6,98.6,133.7,98,133.8,97.6 M143.3,99.6v-0.4c0-0.5,0-1-0.1-1.4
			s-0.2-0.8-0.4-1.1c-0.2-0.3-0.4-0.5-0.7-0.7c-0.3-0.1-0.7-0.2-1.2-0.2c-0.6,0-1.1,0.1-1.4,0.3c-0.3,0.2-0.6,0.5-0.8,0.8
			s-0.3,0.7-0.4,1.1c-0.1,0.4-0.1,0.9-0.1,1.3s0,0.9,0.1,1.3c0,0.4,0.1,0.8,0.3,1.2c0.1,0.4,0.4,0.6,0.8,0.9
			c0.3,0.2,0.8,0.3,1.5,0.3c0.8,0,1.4-0.2,1.8-0.6c0.4-0.4,0.6-1,0.6-1.8h-1.6c-0.1,0.4-0.1,0.7-0.3,1c-0.1,0.2-0.4,0.3-0.6,0.3
			c-0.1,0-0.3,0-0.4-0.1c-0.1-0.1-0.2-0.2-0.3-0.4c-0.1-0.1-0.1-0.3-0.1-0.5s0-0.4,0-0.6v-0.7H143.3L143.3,99.6z M139.9,98.6v-0.3
			c0-0.1,0-0.3,0-0.5s0.1-0.3,0.1-0.4c0.1-0.1,0.2-0.2,0.3-0.3c0.1-0.1,0.2-0.1,0.4-0.1c0.2,0,0.3,0,0.4,0.1
			c0.1,0.1,0.2,0.2,0.3,0.3c0,0.1,0.1,0.3,0.1,0.5s0.1,0.4,0.1,0.7L139.9,98.6L139.9,98.6z M147.8,102.7h1.6v-8.9h-1.7v2.8l0,0
			c-0.2-0.3-0.4-0.5-0.6-0.6c-0.2-0.1-0.5-0.2-0.9-0.2c-0.7,0-1.2,0.3-1.6,0.9c-0.3,0.5-0.5,1.5-0.5,2.7s0.2,2.2,0.5,2.7
			c0.3,0.6,0.9,0.9,1.6,0.9c0.4,0,0.6-0.1,0.9-0.2s0.5-0.4,0.6-0.7l0,0L147.8,102.7L147.8,102.7z M146,97.6c0.1-0.4,0.4-0.5,0.7-0.5
			s0.6,0.2,0.7,0.5c0.1,0.4,0.2,0.9,0.2,1.7c0,0.7-0.1,1.3-0.2,1.7c-0.1,0.4-0.4,0.6-0.7,0.6s-0.6-0.2-0.7-0.6
			c-0.1-0.4-0.1-0.9-0.1-1.7C145.9,98.6,145.9,98,146,97.6 M153.2,99.9v0.4c0,0.8,0.2,1.5,0.7,1.9c0.4,0.5,1.1,0.7,2.2,0.7
			c1,0,1.7-0.2,2.3-0.7c0.5-0.4,0.8-1.1,0.8-2.1c0-0.3,0-0.5-0.1-0.7c0-0.2-0.1-0.5-0.2-0.6c-0.1-0.2-0.3-0.4-0.5-0.5
			s-0.5-0.3-0.8-0.5l-1.4-0.6c-0.4-0.1-0.6-0.3-0.7-0.5c-0.1-0.2-0.2-0.4-0.2-0.7c0-0.1,0-0.3,0.1-0.4c0-0.1,0.1-0.2,0.1-0.3
			c0.1-0.1,0.2-0.2,0.3-0.2s0.3-0.1,0.5-0.1c0.4,0,0.6,0.1,0.8,0.3c0.1,0.2,0.2,0.6,0.2,1h1.7v-0.2c0-0.4-0.1-0.8-0.2-1.1
			c-0.1-0.3-0.4-0.6-0.6-0.7c-0.2-0.2-0.5-0.4-0.9-0.4c-0.4-0.1-0.7-0.1-1.1-0.1c-0.9,0-1.6,0.2-2.1,0.7c-0.5,0.4-0.7,1.1-0.7,1.9
			c0,0.4,0,0.7,0.1,1c0.1,0.2,0.2,0.5,0.5,0.7c0.2,0.2,0.4,0.4,0.7,0.6s0.6,0.3,1.1,0.4c0.3,0.1,0.5,0.2,0.7,0.3
			c0.2,0.1,0.4,0.2,0.5,0.3c0.1,0.1,0.2,0.2,0.2,0.4c0.1,0.1,0.1,0.3,0.1,0.5c0,0.4-0.1,0.7-0.4,0.9c-0.2,0.2-0.5,0.3-0.7,0.3
			s-0.4,0-0.6-0.1s-0.3-0.2-0.4-0.3c-0.1-0.1-0.2-0.2-0.2-0.4c0-0.2,0-0.4,0-0.6v-0.3L153.2,99.9L153.2,99.9z M160.1,100.9
			c0.1,0.4,0.2,0.8,0.4,1.1c0.2,0.3,0.5,0.5,0.8,0.7c0.3,0.1,0.7,0.2,1.3,0.2c0.5,0,0.9-0.1,1.2-0.2c0.4-0.1,0.6-0.4,0.8-0.7
			c0.2-0.3,0.4-0.6,0.5-1.1c0.1-0.4,0.1-1,0.1-1.5c0-0.6,0-1.1-0.1-1.5c-0.1-0.5-0.2-0.9-0.4-1.1c-0.2-0.3-0.5-0.5-0.8-0.7
			c-0.3-0.1-0.7-0.2-1.3-0.2c-0.5,0-0.9,0.1-1.2,0.2c-0.4,0.1-0.6,0.4-0.8,0.7c-0.2,0.3-0.4,0.7-0.5,1.1c-0.1,0.5-0.1,1-0.1,1.5
			S160,100.4,160.1,100.9 M161.8,98.4c0-0.3,0-0.5,0.1-0.7s0.1-0.4,0.3-0.5c0.1-0.1,0.3-0.2,0.5-0.2c0.4,0,0.6,0.2,0.7,0.6
			c0.1,0.4,0.2,1,0.2,1.8c0,0.9-0.1,1.5-0.2,1.8c-0.1,0.4-0.4,0.6-0.7,0.6c-0.2,0-0.4-0.1-0.5-0.2s-0.2-0.3-0.3-0.5
			s-0.1-0.5-0.1-0.7c0-0.3,0-0.6,0-1S161.7,98.7,161.8,98.4 M166.7,102.7h1.7v-5.6h1v-1.2h-1v-0.6c0-0.2,0.1-0.4,0.1-0.4
			c0.1-0.1,0.3-0.1,0.5-0.1h0.1c0.1,0,0.1,0,0.2,0v-1.2c-0.3,0-0.6,0-0.9,0c-0.3,0-0.5,0-0.7,0.1s-0.4,0.2-0.6,0.3
			c-0.1,0.1-0.3,0.3-0.4,0.5c-0.1,0.2-0.1,0.5-0.1,0.8V96h-0.9v1.2h0.9L166.7,102.7L166.7,102.7z M170.8,95.9h-0.9v1.2h0.9v3.9
			c0,0.4,0,0.6,0,0.9c0.1,0.2,0.1,0.4,0.2,0.5c0.1,0.1,0.3,0.2,0.5,0.3c0.2,0,0.5,0.1,0.8,0.1c0.2,0,0.4,0,0.6,0c0.2,0,0.4,0,0.6,0
			v-1.2c-0.1,0-0.1,0-0.2,0h-0.2c-0.2,0-0.4-0.1-0.5-0.2s-0.1-0.3-0.1-0.6v-3.6h1V96h-1v-1.9h-1.7L170.8,95.9L170.8,95.9z
			 M175.4,102.7h2l0.9-4.8l0.9,4.8h2l1.5-6.7H181l-0.8,4.8l0,0l-0.9-4.8h-1.9l-0.8,4.8l0,0l-0.8-4.8h-1.7L175.4,102.7L175.4,102.7z
			 M184.8,98v-0.2c0-0.2,0.1-0.5,0.2-0.6c0.1-0.1,0.3-0.2,0.6-0.2s0.5,0.1,0.6,0.2s0.2,0.3,0.2,0.6c0,0.2,0,0.4-0.1,0.5
			s-0.3,0.2-0.5,0.3l-1,0.2c-0.3,0.1-0.5,0.2-0.7,0.3c-0.2,0.1-0.4,0.2-0.5,0.4c-0.1,0.2-0.2,0.4-0.3,0.6s-0.1,0.5-0.1,0.8
			c0,0.2,0,0.4,0.1,0.7c0.1,0.2,0.1,0.4,0.3,0.6c0.1,0.2,0.3,0.4,0.5,0.5s0.5,0.2,0.7,0.2c0.4,0,0.8-0.1,1-0.2s0.5-0.4,0.7-0.7
			c0,0.1,0.1,0.2,0.1,0.4c0,0.1,0.1,0.2,0.1,0.4h1.7c-0.1-0.2-0.1-0.4-0.2-0.6c0-0.2,0-0.4,0-0.7V98c0-0.3,0-0.6-0.1-0.8
			s-0.2-0.5-0.4-0.7s-0.4-0.3-0.7-0.4s-0.7-0.1-1.2-0.1c-0.3,0-0.6,0-0.9,0.1s-0.5,0.2-0.7,0.4c-0.2,0.2-0.4,0.4-0.5,0.6
			c-0.1,0.3-0.2,0.6-0.2,1v0.1L184.8,98L184.8,98z M186.4,100.7c0,0.2,0,0.3-0.1,0.5c-0.1,0.1-0.2,0.2-0.3,0.3s-0.2,0.1-0.3,0.2
			c-0.1,0-0.2,0.1-0.4,0.1s-0.4-0.1-0.5-0.3c-0.1-0.2-0.1-0.4-0.1-0.7c0-0.3,0.1-0.5,0.2-0.7c0.2-0.2,0.4-0.3,0.8-0.4
			c0.1,0,0.2-0.1,0.4-0.1c0.1,0,0.2-0.1,0.4-0.2L186.4,100.7L186.4,100.7z M189.3,102.7h1.7v-4c0-0.2,0-0.4,0.1-0.6s0.2-0.3,0.3-0.4
			s0.2-0.1,0.4-0.2s0.3-0.1,0.5-0.1h0.3c0.1,0,0.2,0,0.2,0v-1.7h-0.1h-0.2c-0.4,0-0.6,0.1-0.9,0.3c-0.2,0.2-0.5,0.4-0.6,0.8l0,0
			v-0.9h-1.7V102.7L189.3,102.7z M198.5,99.6v-0.4c0-0.5,0-1-0.1-1.4s-0.2-0.8-0.4-1.1c-0.2-0.3-0.5-0.5-0.8-0.7
			c-0.3-0.1-0.7-0.2-1.2-0.2c-0.6,0-1.1,0.1-1.4,0.3c-0.4,0.2-0.6,0.5-0.8,0.8s-0.3,0.7-0.4,1.1c-0.1,0.4-0.1,0.9-0.1,1.3
			s0,0.9,0.1,1.3c0,0.4,0.1,0.8,0.3,1.2c0.2,0.4,0.4,0.6,0.8,0.9c0.4,0.2,0.9,0.3,1.5,0.3c0.9,0,1.5-0.2,1.8-0.6
			c0.4-0.4,0.6-1,0.6-1.8h-1.5c-0.1,0.4-0.1,0.7-0.3,1s-0.4,0.3-0.6,0.3c-0.2,0-0.3,0-0.4-0.1c-0.1-0.1-0.2-0.2-0.2-0.4
			c-0.1-0.1-0.1-0.3-0.1-0.5s0-0.4,0-0.6v-0.7H198.5L198.5,99.6z M195.1,98.6v-0.3c0-0.1,0-0.3,0-0.5s0.1-0.3,0.1-0.4
			c0.1-0.1,0.2-0.2,0.3-0.3s0.2-0.1,0.4-0.1s0.3,0,0.4,0.1s0.2,0.2,0.2,0.3c0.1,0.1,0.1,0.3,0.1,0.5s0,0.4,0.1,0.7L195.1,98.6"/>
		<path class="st2" d="M99.7,79.6h-1.8v8.9h1.8V79.6z M101.1,88.5h1.7V84c0-0.7,0.3-1.1,0.9-1.1c0.2,0,0.5,0.1,0.6,0.2
			s0.2,0.4,0.2,0.7v4.6h1.7v-5c0-0.7-0.2-1.2-0.5-1.5s-0.7-0.5-1.3-0.5c-0.4,0-0.7,0.1-1,0.2c-0.3,0.1-0.5,0.4-0.7,0.7l0,0v-0.8
			h-1.6L101.1,88.5L101.1,88.5z M107.8,88.5h1.7v-5.6h1v-1.2h-1v-0.6c0-0.2,0.1-0.4,0.2-0.4c0.1-0.1,0.2-0.1,0.5-0.1h0.2
			c0.1,0,0.1,0,0.2,0v-1.2c-0.3,0-0.6,0-1,0c-0.2,0-0.5,0-0.7,0.1s-0.4,0.2-0.6,0.3c-0.1,0.1-0.2,0.3-0.4,0.5
			c-0.1,0.2-0.1,0.5-0.1,0.8v0.7h-0.9V83h0.9L107.8,88.5L107.8,88.5z M111.2,86.7c0.1,0.4,0.2,0.8,0.4,1.1c0.2,0.3,0.5,0.5,0.8,0.7
			s0.8,0.2,1.3,0.2s0.9-0.1,1.2-0.2c0.4-0.1,0.6-0.4,0.9-0.7c0.2-0.3,0.4-0.6,0.4-1.1c0.1-0.4,0.1-1,0.1-1.5c0-0.6,0-1.1-0.1-1.5
			c-0.1-0.5-0.2-0.9-0.4-1.1c-0.2-0.3-0.5-0.5-0.8-0.7c-0.4-0.1-0.8-0.2-1.3-0.2s-0.9,0.1-1.2,0.2c-0.3,0.1-0.6,0.4-0.8,0.7
			c-0.2,0.3-0.4,0.7-0.5,1.1c-0.1,0.5-0.1,1-0.1,1.5C111,85.7,111.1,86.2,111.2,86.7 M112.8,84.2c0-0.3,0.1-0.5,0.1-0.7
			c0.1-0.2,0.2-0.4,0.3-0.5c0.1-0.1,0.3-0.2,0.5-0.2c0.4,0,0.6,0.2,0.7,0.6s0.2,1,0.2,1.8c0,0.9,0,1.5-0.2,1.8
			c-0.1,0.4-0.4,0.6-0.7,0.6c-0.2,0-0.4-0.1-0.5-0.2s-0.2-0.3-0.3-0.5c0-0.2-0.1-0.5-0.1-0.7c0-0.3,0-0.6,0-1S112.8,84.5,112.8,84.2
			 M117.4,88.5h1.7v-4c0-0.2,0-0.4,0.1-0.6c0.1-0.1,0.2-0.3,0.3-0.4c0.1-0.1,0.2-0.1,0.4-0.2c0.1-0.1,0.3-0.1,0.4-0.1h0.3
			c0.1,0,0.2,0,0.2,0v-1.6h-0.1h-0.1c-0.4,0-0.7,0.1-0.9,0.3c-0.2,0.2-0.5,0.4-0.6,0.8l0,0v-0.9h-1.6L117.4,88.5L117.4,88.5z
			 M121.6,88.5h1.7v-4.4c0-0.4,0.1-0.7,0.2-0.9c0.2-0.2,0.4-0.2,0.7-0.2c0.2,0,0.4,0.1,0.5,0.2s0.2,0.4,0.2,0.6v4.7h1.7v-4.4
			c0-0.4,0.1-0.7,0.2-0.9c0.2-0.2,0.4-0.2,0.7-0.2c0.2,0,0.4,0.1,0.5,0.2c0.1,0.1,0.1,0.4,0.1,0.6v4.7h1.7v-4.9
			c0-0.6-0.1-1.1-0.4-1.5c-0.2-0.4-0.7-0.5-1.3-0.5c-0.4,0-0.7,0.1-1,0.3c-0.3,0.2-0.5,0.5-0.7,0.8c-0.1-0.4-0.3-0.6-0.6-0.8
			c-0.2-0.2-0.6-0.3-1-0.3s-0.7,0.1-1,0.2s-0.5,0.4-0.7,0.7l0,0v-0.7h-1.5V88.5L121.6,88.5z M132.7,83.8v-0.2c0-0.2,0.1-0.5,0.2-0.6
			c0.1-0.1,0.4-0.2,0.6-0.2c0.3,0,0.5,0.1,0.6,0.2c0.1,0.1,0.2,0.3,0.2,0.6c0,0.2-0.1,0.4-0.1,0.5c-0.1,0.1-0.3,0.2-0.6,0.3l-1,0.2
			c-0.3,0.1-0.6,0.2-0.8,0.3c-0.2,0.1-0.4,0.2-0.5,0.4c-0.1,0.2-0.2,0.4-0.3,0.6s-0.1,0.5-0.1,0.9c0,0.2,0,0.4,0.1,0.7
			c0.1,0.2,0.2,0.4,0.3,0.6c0.1,0.2,0.3,0.4,0.5,0.5s0.5,0.2,0.8,0.2c0.4,0,0.7-0.1,1-0.2c0.2-0.1,0.5-0.4,0.7-0.7l0,0
			c0,0.1,0,0.2,0.1,0.4c0,0.1,0.1,0.2,0.1,0.4h1.6c-0.1-0.2-0.1-0.4-0.1-0.6s-0.1-0.4-0.1-0.7v-3.8c0-0.3,0-0.6-0.1-0.8
			c-0.1-0.2-0.2-0.5-0.4-0.7c-0.2-0.2-0.4-0.3-0.7-0.4s-0.7-0.1-1.2-0.1c-0.4,0-0.6,0-0.9,0.1s-0.5,0.2-0.7,0.4
			c-0.2,0.2-0.4,0.4-0.5,0.6c-0.1,0.3-0.2,0.6-0.2,1v0.1H132.7L132.7,83.8z M134.3,86.4c0,0.2,0,0.4-0.1,0.5
			c-0.1,0.1-0.1,0.2-0.2,0.3c-0.1,0.1-0.2,0.1-0.4,0.2c-0.1,0-0.2,0.1-0.4,0.1s-0.4-0.1-0.5-0.3c-0.1-0.2-0.1-0.4-0.1-0.7
			c0-0.3,0.1-0.5,0.2-0.7c0.1-0.2,0.4-0.3,0.7-0.4c0.1,0,0.2-0.1,0.4-0.1c0.1,0,0.3-0.1,0.4-0.2V86.4L134.3,86.4z M137.6,81.8h-0.9
			V83h0.9v3.9c0,0.4,0,0.6,0.1,0.9c0,0.2,0.1,0.4,0.2,0.5c0.1,0.1,0.2,0.2,0.5,0.3c0.2,0,0.5,0.1,0.9,0.1c0.2,0,0.4,0,0.6,0
			s0.4,0,0.5,0v-1.2c0,0-0.1,0-0.2,0H140c-0.2,0-0.4-0.1-0.5-0.2c-0.1-0.1-0.1-0.3-0.1-0.6v-3.6h1v-1.2h-1V80h-1.8V81.8L137.6,81.8z
			 M141.2,81h1.7v-1.5h-1.7C141.2,79.5,141.2,81,141.2,81z M141.2,88.5h1.7v-6.7h-1.7C141.2,81.8,141.2,88.5,141.2,88.5z
			 M144.2,79.6v8.9h1.7v-1.9l0.6-0.8l1.4,2.8h1.9l-2.2-4.1l1.9-2.7h-1.9l-1.7,2.5l0,0v-4.7H144.2L144.2,79.6z M156.9,88.5v-8.9h-1.3
			c-0.1,0.5-0.3,0.9-0.6,1.1c-0.4,0.2-0.8,0.3-1.4,0.3h-0.2v1.2h1.8v6.2L156.9,88.5L156.9,88.5z M162.2,88.5v-8.9h-1.3
			c-0.1,0.5-0.3,0.9-0.6,1.1c-0.4,0.2-0.8,0.3-1.4,0.3h-0.3v1.2h1.8v6.2L162.2,88.5"/>
		<g transform="matrix(1.003125,0,0,1.003125,-0.05536402,-0.08869345)">
			<path class="st2" d="M84.5,82.8L84.5,82.8l-12.9-31h-0.1l-19.2,8.4v-8.4H39.5v14l12.9-5.6v18.3L39.5,65.9v30.9h12.9l9.7-4.2v-4.5
				l3.1,3.1L84.5,82.8L84.5,82.8z M75,86.9L62.1,74.3V56L75,86.9"/>
			<path class="st3" d="M39.5,65.9l12.9-5.6v18.3L39.5,65.9L39.5,65.9z"/>
		</g>
	</g>
</g>
<g id="Layer_1_00000016778249121485630220000001037716919546658705_" xmlns:rdf="http://www.w3.org/1999/02/22-rdf-syntax-ns#" xmlns:cc="http://creativecommons.org/ns#" xmlns:dc="http://purl.org/dc/elements/1.1/">
	<g transform="matrix(1.0110494,0,0,1.0110494,-221.79,-28.337246)">
		<path class="st2" d="M580.1,80h2.6c2.5,0,3.8,1.3,3.8,3.8c0,2.9-1.5,4-4.1,4h-2.3C580.1,87.8,580.1,80,580.1,80z M574.7,103h5.4
			V91.6h2.9c2.2,0,3.1,1.3,3.2,3.4l0.2,5.2c0,1.1,0.1,2.1,0.7,2.8h5.9v-0.2c-1-0.5-1.2-2-1.2-4.8c-0.1-5.7-0.6-7.7-4.4-8.2v-0.1
			c3.1-0.6,4.5-3,4.5-6.7c0-4.6-2.7-6.9-7.2-6.9h-10V103"/>
		<path class="st2" d="M494.6,76v18.8c0,7.2,4.2,8.7,8.6,8.7s8.6-1.8,8.6-8.7V76h-5.4v18.8c0,2.7-0.6,4.7-3.2,4.7
			c-2.5,0-3.2-2-3.2-4.7V76H494.6"/>
		<path class="st2" d="M513.1,76v26.9h5V84.1h0.1l6.7,18.9h6.2V76h-5v18.4H526L519.4,76C519.4,76,513.1,76,513.1,76z"/>
		<path class="st2" d="M532.4,103h5.4V76h-5.4V103z"/>
		<path class="st2" d="M538.2,76l6.2,26.9h7l6.2-26.9H552l-4,19.9h-0.1L544.1,76H538.2L538.2,76z"/>
		<path class="st2" d="M558,76v26.9h15.5v-4.5h-10v-7.2h9v-4.5h-9v-6.3h9.6V76L558,76L558,76z"/>
		<path class="st2" d="M592.3,94.5v1.1c0,5,2.4,7.9,8.6,7.9c5.9,0,9.3-2.6,9.3-8.3c0-3.3-1-5.4-5.1-7.1l-4.2-1.8
			c-2.3-1-2.8-2-2.8-3.6s0.6-3.1,3.1-3.1c2.1,0,2.9,1.5,2.9,4h5.2v-0.7c0-5.2-3.5-7.2-8.3-7.2c-5.1,0-8.3,2.7-8.3,7.9
			c0,4.5,2.2,6.5,7.1,8.1c3.6,1.2,4.8,2.2,4.8,4.6c0,2.3-1.6,3.3-3.3,3.3c-2.9,0-3.6-1.6-3.6-4.1v-0.8L592.3,94.5"/>
		<path class="st2" d="M611,103h5.4V76H611V103z"/>
		<path class="st2" d="M644.6,76l-3.8,10.4h-0.1L637.2,76h-20.1v4.4h5.9v22.5h5.4V80.5h4.6l5.1,11.9V103h5.4V92.4l7-16.3L644.6,76
			L644.6,76z"/>
		<path class="st2" d="M446.9,73.6h-9v-27h14.8c4,0,7.4,2.6,8.6,6c1,3.2,0.1,6.6-2.2,9.1c0.3,0.9,0.6,1.5,0.9,2.3
			c0.7,1.5,1.3,3,1.9,4.5l2.1,5.1h-9.1c0,0-0.1-0.2-0.1-0.3c-0.4-0.8-0.7-1.7-1.1-2.4l-2.2-5.2c-0.9-2.1-1.7-4.1-2.6-6.2
			c1.1,0,1.9,0.2,3-0.3c0.7-0.4,1.8-1.3,1.9-3c0-0.9-0.3-1.5-0.9-2.2c-0.6-0.6-1.4-1.1-2.4-1.1H447L446.9,73.6"/>
		<path class="st2" d="M540.9,46.5v27h-9v-11h-6.3v11h-5h-4V52.8h-6.3v20.8h-9V52.8H495v20.8h-9.3c-1.6-3.9-3.3-7.8-4.9-11.7
			c-0.2-0.8-0.4-1.6-0.6-2.4v14.1h-9.3c-1.8-4.3-3.6-8.5-5.5-12.8c-0.6-1.5-1.2-2.7-1.8-4.3l-0.1-0.2l-1.4-3.4l-2.1-4.8
			c-0.2-0.6-0.5-1.1-0.6-1.6h9.2c1.9,4.6,3.8,9.2,5.8,13.7l0.1,0.1c-0.1-0.5-0.2-1.2-0.3-1.7v-8.1v-4.1h9.3c0.1,0.3,0.2,0.5,0.3,0.7
			c1.1,2.6,2.1,5.1,3.2,7.7l2.4,5.5c-0.1-0.6-0.2-1.1-0.2-1.7V46.5h36.4v9.7h6.3v-9.7H540.9"/>
		<path class="st2" d="M573,46.5h-6.7l-5.7,21.3L555,46.5h-6.7l-7.2,27h5.7l1.2-5.7h7.2l1.3,5.7h8.3l1.2-5.7h7.2l1.3,5.7h5.7
			L573,46.5L573,46.5z M549,63.4l2.6-12.2h0.1l2.6,12.2H549L549,63.4z M567,63.4l2.6-12.2h0.1l2.6,12.2H567"/>
		<path class="st2" d="M596.4,55.7c0-3.9-0.6-9.6-8.4-9.6c-8.1,0-9.1,5.8-9.1,14s1,14,9.1,14c7.2,0,8.6-5,8.6-10.8h-5.4
			c0,5.8-1.5,6.8-3.4,6.8c-2.3,0-3.5-1.5-3.5-9.6c0-7.6,0.6-10.4,3.4-10.4c2.4,0,3.2,1.7,3.2,5.6H596.4"/>
		<path class="st2" d="M597.7,73.6h5.5v-12h6.4v12h5.5v-27h-5.6v10.3h-6.4V46.5h-5.5C597.7,46.5,597.7,73.6,597.7,73.6z"/>
		<path class="st2" d="M616.2,46.5v27h15.5v-4.4h-10.1v-7.3h9.1v-4.5h-9.1v-6.4h9.7v-4.5L616.2,46.5L616.2,46.5z"/>
		<path class="st2" d="M632.5,46.5v27h5V54.6h0.1l6.7,18.9h6.2v-27h-5V65h-0.1l-6.6-18.5C638.8,46.5,632.5,46.5,632.5,46.5z"/>
	</g>
</g>
<line class="st4" x1="204.6" y1="13.1" x2="204.6" y2="82.5"/>
</svg>
