<?xml version="1.0" encoding="UTF-8"?><svg id="a" xmlns="http://www.w3.org/2000/svg" width="412.01" height="412.01" viewBox="0 0 412.01 412.01"><defs><style>.b{fill:#422512;}.c{fill:#61371a;}.d{fill:#732f29;}.e{fill:#010101;isolation:isolate;opacity:.2;}.f{fill:#502d16;}.f,.g,.h{fill-rule:evenodd;}.g{fill:#ffb380;}.h{fill:#f95;}</style></defs><rect class="d" x=".03" y=".03" width="411.95" height="411.95"/><polygon class="e" points="283.38 82.6 674.35 439.57 472.05 656.52 134.56 341.81 283.38 82.6"/><path class="g" d="m189.85,213.67l11.97,5.12c4.22,1.81,6.17,6.65,4.37,10.85l-48.29,112.84c-1.8,4.21-6.65,6.14-10.87,4.34l-11.97-5.12c-4.22-1.81-6.17-6.65-4.37-10.85l48.29-112.84c1.8-4.21,6.65-6.14,10.87-4.34h0Zm0,0"/><path class="h" d="m187.62,217.2l11.01,4.71c3.88,1.66,5.6,6.29,3.85,10.37l-46.86,109.49c-1.75,4.08-6.28,6.03-10.16,4.37l-11.01-4.71c-3.88-1.66-5.6-6.29-3.85-10.37l46.86-109.49c1.75-4.08,6.28-6.03,10.16-4.37h0Zm0,0"/><path class="f" d="m226.21,63.66c34.48-3.21,59.08,20.51,60.41,21.83,5.66,5.63,12.65,12.58,14.28,23.37,1.69,11.17-3.29,20.28-7.87,28.39-22.56,39.96-26.14,39.3-33.37,55.16-10.37,22.75-16.64,54.03-17.92,60.64-2.04,10.54-3.86,22.88-13.88,30.43-1.64,1.24-7.16,5.1-21.24,6.07-6.51.45-42.48,2.2-67.31-23.8-6.14-6.43-11.8-13.05-12.6-22.59-1.2-14.34,10.16-21.82,23.46-43.11,10.41-16.66,15.16-30.83,20.4-46.46,5.57-16.59,8.67-28.96,18.02-58.37,2.28-7.17,5.77-17.64,15.58-24.67,7.64-5.47,15.55-6.3,22.03-6.9Zm-10.19-8.89"/><path class="b" d="m286.82,141.99c-5.39,10.03-9.65,16.69-13.2,22.37-11.31,18.16-17.16,27.16-20.73,35.71-3.57,8.53-12.29,29.38-15.16,51.57-.36,2.75-1.19,9.85-5.49,17.62-1.81,3.26-5.4,9.76-12.47,13.8-7.39,4.22-14.49,3.42-24.75,2.25,0,0-18.81-3.29-31.54-14.03-1.53-1.29-2.11-2.46-1.82-3.34.73-2.24,9.42-.48,13.19.08,0,0,17.42,2.59,35.44-4.9,13.66-5.68,11.97-18.2,34.53-66.88,9.02-19.46,15.95-31.04,21.89-40.12,5.44-8.32,11.03-15.23,22.21-29.04,5.32-6.57,7.76-9.33,8.43-8.92,1.67,1.03-9.22,21.4-10.53,23.84Zm4.19-.25"/><path class="c" d="m163.09,186.33c4.84-10.86,8.72-24.35,10.67-31.14.42-1.45,1.27-4.48,2.63-8.65,1.54-4.71,2.31-6.36,4.69-14.89,4.31-15.47,4.47-19.42,8.49-29.92,4.71-12.31,8.43-17.15,10.06-19.15,6.28-7.67,12.91-11.28,14.28-12.01,7.58-4.02,14.44-4.82,17.23-5.03,2.49-.19,19.43-1.25,29.51,9.58.83.89,5.13,5.51,3.85,7.79-1.4,2.51-8.64.72-13.19-.08,0,0-18.69-3.28-36.75,2.99-10.16,3.53-13.19,14.29-30.62,70.96-3.44,11.17-7.72,25.27-16.05,43.01-4.14,8.83-12.65,25.73-29.05,33.06-1.51.68-5.76,2.71-6.76,1.5-1.59-1.93,6.8-9.97,16.77-24.23,5.53-7.9,10-14.3,14.23-23.79Zm-27.92,22.76"/></svg>