<?xml version="1.0" encoding="UTF-8"?><svg id="a" xmlns="http://www.w3.org/2000/svg" width="412.01" height="412.01" viewBox="0 0 412.01 412.01"><defs><style>.b{fill:none;}.c{fill:#666766;}.d{fill:#444545;}.e{fill:#010101;opacity:.2;}</style></defs><rect class="d" width="411.95" height="411.95"/><path class="b" d="m138.06,354.29l147.08-199.87,119.11,107.76c5.05-17.86,7.75-36.7,7.75-56.17C412.01,92.23,319.78,0,206.01,0S0,92.23,0,206s89.85,203.59,201.58,205.95l-63.52-57.67Z"/><polygon class="e" points="138.06 354.29 201.5 412.01 411.95 411.95 412.01 269.2 285.14 154.42 138.06 354.29"/><path class="c" d="m121.9,153.85l13.25,189.25c.64,10.69,9.93,19.75,20.64,19.75h95.41c10.71,0,20-9.05,20.64-19.75l13.25-189.25H121.9Z"/><path class="c" d="m199.64,135.05c7.21-9.32,13.33-36.28.43-48.65-12.74-12.23-21.15-23.63-20.13-34.92.79-8.78,7.28-17.48,21.86-26.44-9.76,10.92-14.53,29.19-5.31,41.18,9.45,10.76,25.78,18.99,24.95,36.73-1.12,12.57-5,19.5-14.51,27.49-4.42,3.05-7.29,4.62-7.29,4.62Z"/><path class="c" d="m287.89,300.68c-2.08,0-4.22-.15-6.36-.45-12.88-1.77-24.3-8.45-32.16-18.81-7.86-10.36-11.21-23.16-9.43-36.05,3.3-23.97,24.01-42.05,48.18-42.05,2.22,0,4.47.15,6.69.46,12.96,1.78,23.57,8.65,29.89,19.35,5.67,9.6,7.72,21.61,5.91,34.71-3.58,26.02-20.35,42.83-42.72,42.83Zm.23-77.88c-14.49,0-26.91,10.85-28.89,25.23-1.06,7.73.95,15.41,5.66,21.62,4.71,6.22,11.57,10.23,19.3,11.29,1.26.17,2.51.26,3.7.26,14.63,0,21.7-13.44,23.43-26.01,1.18-8.59-.02-16.46-3.39-22.16-3.32-5.63-8.63-8.98-15.78-9.96-1.34-.19-2.7-.28-4.03-.28Z"/></svg>