<?xml version="1.0" encoding="UTF-8"?><svg id="a" xmlns="http://www.w3.org/2000/svg" width="412.01" height="412.01" viewBox="0 0 412.01 412.01"><defs><style>.b{stroke-width:.06px;}.b,.c,.d,.e,.f,.g,.h,.i,.j,.k,.l,.m,.n,.o,.p,.q,.r,.s,.t,.u,.v,.w{fill:none;}.b,.c,.i,.j,.k,.l,.q,.t,.u,.v,.w{stroke:#c87137;}.c{stroke-width:.06px;}.x,.y{fill:#ffb380;}.z{fill:#c87137;}.aa{fill:#422512;}.ab{fill:#61371a;}.ac{fill:#732f29;}.ad{fill:#010101;isolation:isolate;opacity:.2;}.d{stroke-width:.08px;}.d,.e,.f,.g,.h,.m,.n,.o,.p,.r,.s{stroke:#803300;}.e{stroke-width:.07px;}.f{stroke-width:.07px;}.g{stroke-width:.07px;}.h{stroke-width:.07px;}.i{stroke-width:.06px;}.j{stroke-width:.06px;}.k{stroke-width:.06px;}.l{stroke-width:.06px;}.m{stroke-width:.07px;}.n{stroke-width:.07px;}.o{stroke-width:.07px;}.p{stroke-width:.07px;}.q{stroke-width:.06px;}.ae{fill:#502d16;}.ae,.y,.af{fill-rule:evenodd;}.af{fill:#f95;}.r{stroke-width:.08px;}.s{stroke-width:.08px;}.t{stroke-width:.06px;}.u{stroke-width:.06px;}.v{stroke-width:.06px;}.w{stroke-width:.06px;}</style></defs><rect class="ac" x=".03" y=".03" width="411.95" height="411.95"/><polygon class="ad" points="300.78 91.21 674.35 439.57 472.05 656.52 134.56 341.81 300.78 91.21"/><path class="y" d="m189.56,214.1l11.72,4.73c4.13,1.67,6.07,6.44,4.35,10.71l-46.2,114.32c-1.72,4.26-6.43,6.35-10.57,4.68l-11.72-4.73c-4.13-1.67-6.07-6.44-4.35-10.71l46.2-114.32c1.72-4.26,6.43-6.35,10.57-4.68h0Zm0,0"/><path class="af" d="m187.41,217.7l10.78,4.36c3.8,1.54,5.51,6.1,3.84,10.24l-44.83,110.92c-1.67,4.14-6.08,6.23-9.88,4.69l-10.78-4.36c-3.8-1.54-5.51-6.1-3.84-10.24l44.83-110.92c1.67-4.14,6.08-6.23,9.88-4.69h0Zm0,0"/><path class="ae" d="m213.81,54.47l80.94,32.71c9.74,3.93,14.5,14.7,10.69,24.14l-70.86,175.32c-3.81,9.44-14.72,13.87-24.46,9.94l-80.94-32.71c-9.74-3.93-14.5-14.7-10.69-24.14l70.86-175.32c3.81-9.44,14.72-13.87,24.46-9.93h0Zm0,0"/><path class="aa" d="m287.66,138.98c-9.86,27.98-32.36,82.61-44.85,113.26-12.49,30.65-14.98,37.32-20.82,39-5.84,1.69-15.05-1.61-26.81-5.72-11.76-4.11-26.08-9.05-30.88-13.01-4.8-3.96-.08-6.96,11.07-3.63,11.15,3.33,28.72,12.99,43.07,3.02,14.36-9.97,25.49-39.57,37.21-70.1,11.72-30.53,24.03-62,31.56-77.07,7.54-15.07,10.3-13.74.44,14.24h0Zm0,0"/><path class="ab" d="m136.18,211.28c9.86-27.98,32.36-82.61,44.85-113.26,12.49-30.65,14.98-37.32,20.82-39,5.84-1.69,15.05,1.61,26.81,5.72,11.76,4.11,26.08,9.05,30.88,13.01,4.8,3.96.08,6.96-11.07,3.63-11.15-3.33-28.72-12.99-43.07-3.02-14.35,9.97-25.49,39.57-37.21,70.1-11.72,30.54-24.03,62-31.56,77.07-7.54,15.07-10.3,13.74-.44-14.24h0Zm0,0"/><path class="z" d="m172.27,152.45c1.52.32,2.76,2.44,4.07,3.93,1.31,1.49,2.71,2.35,2.07,3.49-.64,1.15-3.31,2.58-4.83,2.26-1.52-.32-1.91-2.39-2.79-3.86-.89-1.47-2.28-2.33-2.07-3.49.21-1.17,2.03-2.65,3.55-2.33h0Zm0,0"/><path class="r" d="m172.27,152.45c1.52.32,2.76,2.44,4.07,3.93,1.31,1.49,2.71,2.35,2.07,3.49-.64,1.15-3.31,2.58-4.83,2.26-1.52-.32-1.91-2.39-2.79-3.86-.89-1.47-2.28-2.33-2.07-3.49.21-1.17,2.03-2.65,3.55-2.33h0Zm0,0"/><path class="x" d="m172.09,152.72c1.49.32,2.69,2.37,3.98,3.81,1.28,1.44,2.65,2.28,2.03,3.38-.62,1.1-3.21,2.47-4.69,2.16-1.49-.32-1.87-2.32-2.74-3.74-.87-1.42-2.23-2.25-2.03-3.38.2-1.13,1.96-2.55,3.45-2.23h0Zm0,0"/><path class="c" d="m172.09,152.72c1.49.32,2.69,2.37,3.98,3.81,1.28,1.44,2.65,2.28,2.03,3.38-.62,1.1-3.21,2.47-4.69,2.16-1.49-.32-1.87-2.32-2.74-3.74-.87-1.42-2.23-2.25-2.03-3.38.2-1.13,1.96-2.55,3.45-2.23h0Zm0,0"/><path class="z" d="m194.35,133.9c2.08.47,3.83,3.24,5.67,5.21,1.84,1.96,3.76,3.12,2.93,4.57-.83,1.45-4.4,3.2-6.49,2.74-2.08-.47-2.67-3.15-3.93-5.07-1.26-1.92-3.18-3.07-2.93-4.57.25-1.5,2.67-3.34,4.75-2.88h0Zm0,0"/><path class="h" d="m194.35,133.9c2.08.47,3.83,3.24,5.67,5.21,1.84,1.96,3.76,3.12,2.93,4.57-.83,1.45-4.4,3.2-6.49,2.74-2.08-.47-2.67-3.15-3.93-5.07-1.26-1.92-3.18-3.07-2.93-4.57.25-1.5,2.67-3.34,4.75-2.88h0Zm0,0"/><path class="x" d="m194.12,134.24c2.03.46,3.74,3.14,5.54,5.05,1.8,1.9,3.68,3.02,2.88,4.42-.8,1.4-4.27,3.07-6.3,2.61-2.03-.46-2.62-3.05-3.85-4.91-1.23-1.86-3.11-2.98-2.88-4.42.23-1.45,2.58-3.21,4.61-2.76h0Zm0,0"/><path class="j" d="m194.12,134.24c2.03.46,3.74,3.14,5.54,5.05,1.8,1.9,3.68,3.02,2.88,4.42-.8,1.4-4.27,3.07-6.3,2.61-2.03-.46-2.62-3.05-3.85-4.91-1.23-1.86-3.11-2.98-2.88-4.42.23-1.45,2.58-3.21,4.61-2.76h0Zm0,0"/><path class="z" d="m206.89,170.31c2.08.47,3.83,3.24,5.67,5.21,1.84,1.96,3.76,3.12,2.93,4.57-.83,1.45-4.4,3.2-6.49,2.74-2.08-.47-2.67-3.15-3.93-5.07-1.26-1.92-3.18-3.07-2.93-4.57.25-1.5,2.67-3.34,4.75-2.88h0Zm0,0"/><path class="h" d="m206.89,170.31c2.08.47,3.83,3.24,5.67,5.21,1.84,1.96,3.76,3.12,2.93,4.57-.83,1.45-4.4,3.2-6.49,2.74-2.08-.47-2.67-3.15-3.93-5.07-1.26-1.92-3.18-3.07-2.93-4.57.25-1.5,2.67-3.34,4.75-2.88h0Zm0,0"/><path class="x" d="m206.67,170.64c2.03.46,3.74,3.14,5.54,5.05,1.8,1.9,3.68,3.03,2.88,4.42-.8,1.4-4.27,3.07-6.3,2.61-2.03-.46-2.62-3.05-3.85-4.91-1.23-1.86-3.11-2.98-2.88-4.42.23-1.45,2.58-3.21,4.61-2.76h0Zm0,0"/><path class="j" d="m206.67,170.64c2.03.46,3.74,3.14,5.54,5.05,1.8,1.9,3.68,3.03,2.88,4.42-.8,1.4-4.27,3.07-6.3,2.61-2.03-.46-2.62-3.05-3.85-4.91-1.23-1.86-3.11-2.98-2.88-4.42.23-1.45,2.58-3.21,4.61-2.76h0Zm0,0"/><path class="z" d="m178.75,183.23c2.08.47,3.83,3.24,5.67,5.21,1.84,1.96,3.76,3.12,2.93,4.57-.83,1.45-4.4,3.2-6.49,2.74-2.08-.47-2.67-3.15-3.93-5.07-1.26-1.92-3.18-3.07-2.93-4.57.25-1.5,2.67-3.34,4.75-2.88h0Zm0,0"/><path class="h" d="m178.75,183.23c2.08.47,3.83,3.24,5.67,5.21,1.84,1.96,3.76,3.12,2.93,4.57-.83,1.45-4.4,3.2-6.49,2.74-2.08-.47-2.67-3.15-3.93-5.07-1.26-1.92-3.18-3.07-2.93-4.57.25-1.5,2.67-3.34,4.75-2.88h0Zm0,0"/><path class="x" d="m178.52,183.57c2.03.46,3.74,3.14,5.54,5.05,1.8,1.9,3.67,3.03,2.88,4.42-.8,1.4-4.27,3.07-6.3,2.61-2.03-.46-2.62-3.05-3.85-4.91-1.23-1.86-3.11-2.98-2.88-4.42.23-1.45,2.58-3.21,4.61-2.76h0Zm0,0"/><path class="j" d="m178.52,183.57c2.03.46,3.74,3.14,5.54,5.05,1.8,1.9,3.67,3.03,2.88,4.42-.8,1.4-4.27,3.07-6.3,2.61-2.03-.46-2.62-3.05-3.85-4.91-1.23-1.86-3.11-2.98-2.88-4.42.23-1.45,2.58-3.21,4.61-2.76h0Zm0,0"/><path class="z" d="m209.97,220.93c1.82,1.11,5.01.33,7.69.19,2.69-.14,4.87.37,5.29-1.25.42-1.62-.94-5.36-2.76-6.48-1.82-1.11-4.11.41-6.35.91-2.24.51-4.42,0-5.29,1.25-.86,1.25-.41,4.26,1.42,5.37h0Zm0,0"/><path class="h" d="m209.97,220.93c1.82,1.11,5.01.33,7.69.19,2.69-.14,4.87.37,5.29-1.25.41-1.62-.94-5.36-2.76-6.48-1.82-1.11-4.11.41-6.35.91-2.24.51-4.42,0-5.29,1.25-.86,1.25-.41,4.26,1.42,5.37h0Zm0,0"/><path class="x" d="m210.05,220.53c1.78,1.08,4.88.34,7.49.22,2.61-.12,4.75.38,5.14-1.18.4-1.56-.94-5.18-2.72-6.26-1.78-1.08-4,.38-6.18.86-2.18.48-4.31-.02-5.14,1.18-.84,1.2-.38,4.1,1.4,5.19h0Zm0,0"/><path class="j" d="m210.05,220.53c1.78,1.08,4.88.34,7.49.22,2.61-.12,4.75.38,5.14-1.18.4-1.56-.94-5.18-2.72-6.26-1.78-1.08-4,.38-6.18.86-2.18.48-4.31-.02-5.14,1.18-.84,1.2-.38,4.1,1.4,5.19h0Zm0,0"/><path class="z" d="m222.47,156.29c1.82,1.11,5.01.33,7.69.19,2.69-.14,4.87.37,5.29-1.25.42-1.62-.94-5.36-2.76-6.48-1.82-1.11-4.11.41-6.35.91-2.24.51-4.42,0-5.29,1.25-.86,1.25-.41,4.26,1.42,5.37h0Zm0,0"/><path class="h" d="m222.47,156.29c1.82,1.11,5.01.33,7.69.19,2.69-.14,4.87.37,5.29-1.25.42-1.62-.94-5.36-2.76-6.48-1.82-1.11-4.11.41-6.35.91-2.24.51-4.42,0-5.29,1.25-.86,1.25-.41,4.26,1.42,5.37h0Zm0,0"/><path class="x" d="m222.54,155.89c1.78,1.08,4.88.34,7.49.22,2.61-.12,4.74.38,5.14-1.18.4-1.56-.94-5.18-2.72-6.26-1.78-1.08-4,.38-6.18.86-2.18.48-4.31-.02-5.14,1.18-.84,1.2-.38,4.1,1.4,5.19h0Zm0,0"/><path class="j" d="m222.54,155.89c1.78,1.08,4.88.34,7.49.22,2.61-.12,4.74.38,5.14-1.18.4-1.56-.94-5.18-2.72-6.26-1.78-1.08-4,.38-6.18.86-2.18.48-4.31-.02-5.14,1.18-.84,1.2-.38,4.1,1.4,5.19h0Zm0,0"/><path class="z" d="m162.13,218.21c1.82,1.11,5.01.33,7.69.19,2.69-.14,4.87.37,5.29-1.25.42-1.62-.94-5.36-2.76-6.48-1.82-1.11-4.11.41-6.35.91-2.24.51-4.42,0-5.29,1.25-.86,1.25-.41,4.26,1.42,5.37h0Zm0,0"/><path class="h" d="m162.13,218.21c1.82,1.11,5.01.33,7.69.19,2.69-.14,4.87.37,5.29-1.25.42-1.62-.94-5.36-2.76-6.48-1.82-1.11-4.11.41-6.35.91-2.24.51-4.42,0-5.29,1.25-.86,1.25-.41,4.26,1.42,5.37h0Zm0,0"/><path class="x" d="m162.2,217.81c1.78,1.08,4.88.34,7.49.22,2.61-.12,4.75.38,5.14-1.18.4-1.56-.94-5.18-2.72-6.26-1.78-1.08-4,.38-6.18.86-2.18.48-4.31-.02-5.14,1.18-.84,1.2-.38,4.11,1.4,5.19h0Zm0,0"/><path class="j" d="m162.2,217.81c1.78,1.08,4.88.34,7.49.22,2.61-.12,4.75.38,5.14-1.18.4-1.56-.94-5.18-2.72-6.26-1.78-1.08-4,.38-6.18.86-2.18.48-4.31-.02-5.14,1.18-.84,1.2-.38,4.11,1.4,5.19h0Zm0,0"/><path class="z" d="m148.96,180.28c1.82,1.11,5.01.33,7.69.19,2.69-.14,4.87.37,5.29-1.25.42-1.62-.94-5.36-2.76-6.48-1.82-1.11-4.11.41-6.35.91-2.24.51-4.42,0-5.29,1.25-.86,1.25-.41,4.26,1.42,5.37h0Zm0,0"/><path class="h" d="m148.96,180.28c1.82,1.11,5.01.33,7.69.19,2.69-.14,4.87.37,5.29-1.25.42-1.62-.94-5.36-2.76-6.48-1.82-1.11-4.11.41-6.35.91-2.24.51-4.42,0-5.29,1.25-.86,1.25-.41,4.26,1.42,5.37h0Zm0,0"/><path class="x" d="m149.03,179.88c1.78,1.08,4.88.34,7.49.22,2.61-.12,4.75.38,5.14-1.18.4-1.56-.94-5.18-2.72-6.26-1.78-1.08-4,.38-6.18.86-2.18.48-4.31-.02-5.14,1.18-.84,1.2-.38,4.11,1.4,5.19h0Zm0,0"/><path class="j" d="m149.03,179.88c1.78,1.08,4.88.34,7.49.22,2.61-.12,4.75.38,5.14-1.18.4-1.56-.94-5.18-2.72-6.26-1.78-1.08-4,.38-6.18.86-2.18.48-4.31-.02-5.14,1.18-.84,1.2-.38,4.11,1.4,5.19h0Zm0,0"/><path class="z" d="m217.42,254.63c1.82,1.11,5.01.33,7.69.19,2.69-.14,4.87.37,5.29-1.25.41-1.62-.94-5.36-2.76-6.48-1.82-1.11-4.11.41-6.35.91-2.24.51-4.42,0-5.29,1.25-.86,1.25-.41,4.26,1.42,5.37h0Zm0,0"/><path class="h" d="m217.42,254.63c1.82,1.11,5.01.33,7.69.19,2.69-.14,4.87.37,5.29-1.25.42-1.62-.94-5.36-2.76-6.48-1.82-1.11-4.11.41-6.35.91-2.24.51-4.42,0-5.29,1.25-.86,1.25-.41,4.26,1.42,5.37h0Zm0,0"/><path class="x" d="m217.49,254.22c1.78,1.08,4.88.34,7.49.22,2.61-.12,4.75.38,5.14-1.18.4-1.56-.94-5.18-2.72-6.26-1.78-1.08-4,.38-6.18.86-2.18.48-4.31-.02-5.14,1.18-.84,1.2-.38,4.1,1.4,5.19h0Zm0,0"/><path class="j" d="m217.49,254.22c1.78,1.08,4.88.34,7.49.22,2.61-.12,4.75.38,5.14-1.18.4-1.56-.94-5.18-2.72-6.26-1.78-1.08-4,.38-6.18.86-2.18.48-4.31-.02-5.14,1.18-.84,1.2-.38,4.1,1.4,5.19h0Zm0,0"/><path class="z" d="m224.71,112.44c1.82,1.11,5.01.33,7.69.19,2.69-.14,4.87.37,5.29-1.25.42-1.62-.94-5.36-2.76-6.48-1.82-1.11-4.11.41-6.35.91-2.24.51-4.42,0-5.29,1.25-.86,1.25-.41,4.26,1.42,5.37h0Zm0,0"/><path class="h" d="m224.71,112.44c1.82,1.11,5.01.33,7.69.19,2.69-.14,4.87.37,5.29-1.25.42-1.62-.94-5.36-2.76-6.48-1.82-1.11-4.11.41-6.35.91-2.24.51-4.42,0-5.29,1.25-.86,1.25-.41,4.26,1.42,5.37h0Zm0,0"/><path class="x" d="m224.78,112.03c1.78,1.08,4.88.34,7.49.22,2.61-.12,4.75.38,5.14-1.18.4-1.56-.94-5.18-2.72-6.26-1.78-1.08-4,.38-6.18.86-2.18.48-4.31-.02-5.14,1.18-.84,1.2-.38,4.1,1.4,5.19h0Zm0,0"/><path class="j" d="m224.78,112.03c1.78,1.08,4.88.34,7.49.22,2.61-.12,4.75.38,5.14-1.18.4-1.56-.94-5.18-2.72-6.26-1.78-1.08-4,.38-6.18.86-2.18.48-4.31-.02-5.14,1.18-.84,1.2-.38,4.1,1.4,5.19h0Zm0,0"/><path class="z" d="m238.4,191.99c2.08.47,3.83,3.24,5.67,5.21,1.84,1.96,3.76,3.12,2.93,4.57-.83,1.45-4.4,3.2-6.49,2.74-2.08-.47-2.67-3.15-3.93-5.07-1.26-1.92-3.18-3.07-2.93-4.57.25-1.5,2.67-3.34,4.75-2.88h0Zm0,0"/><path class="h" d="m238.4,191.99c2.08.47,3.83,3.24,5.67,5.21,1.84,1.96,3.76,3.12,2.93,4.57-.83,1.45-4.4,3.2-6.49,2.74-2.08-.47-2.67-3.15-3.93-5.07-1.26-1.92-3.18-3.07-2.93-4.57.25-1.5,2.67-3.34,4.75-2.88h0Zm0,0"/><path class="x" d="m238.17,192.33c2.03.46,3.74,3.14,5.54,5.05,1.8,1.9,3.68,3.03,2.88,4.42-.8,1.4-4.27,3.07-6.3,2.61-2.03-.46-2.62-3.05-3.85-4.91-1.23-1.86-3.11-2.98-2.88-4.42.23-1.44,2.58-3.21,4.61-2.76h0Zm0,0"/><path class="j" d="m238.17,192.33c2.03.46,3.74,3.14,5.54,5.05,1.8,1.9,3.68,3.03,2.88,4.42-.8,1.4-4.27,3.07-6.3,2.61-2.03-.46-2.62-3.05-3.85-4.91-1.23-1.86-3.11-2.98-2.88-4.42.23-1.44,2.58-3.21,4.61-2.76h0Zm0,0"/><path class="z" d="m188.76,232.03c2.08.47,3.83,3.24,5.67,5.21,1.84,1.96,3.76,3.12,2.93,4.57-.83,1.45-4.4,3.2-6.49,2.74-2.08-.47-2.67-3.15-3.93-5.07-1.26-1.92-3.18-3.07-2.93-4.57.25-1.5,2.67-3.34,4.75-2.88h0Zm0,0"/><path class="h" d="m188.76,232.03c2.08.47,3.83,3.24,5.67,5.21,1.84,1.96,3.76,3.12,2.93,4.57-.83,1.45-4.4,3.2-6.49,2.74-2.08-.47-2.67-3.15-3.93-5.07-1.26-1.92-3.18-3.07-2.93-4.57.25-1.5,2.67-3.34,4.75-2.88h0Zm0,0"/><path class="x" d="m188.53,232.37c2.03.46,3.74,3.14,5.54,5.05,1.8,1.9,3.68,3.03,2.88,4.42-.8,1.4-4.27,3.07-6.3,2.61-2.03-.46-2.62-3.05-3.85-4.91-1.23-1.86-3.11-2.98-2.88-4.42.23-1.45,2.58-3.21,4.61-2.76h0Zm0,0"/><path class="j" d="m188.53,232.37c2.03.46,3.74,3.14,5.54,5.05,1.8,1.9,3.68,3.03,2.88,4.42-.8,1.4-4.27,3.07-6.3,2.61-2.03-.46-2.62-3.05-3.85-4.91-1.23-1.86-3.11-2.98-2.88-4.42.23-1.45,2.58-3.21,4.61-2.76h0Zm0,0"/><path class="z" d="m144.07,210.77c2.08.47,3.83,3.24,5.67,5.21,1.84,1.96,3.76,3.12,2.93,4.57-.83,1.45-4.4,3.2-6.49,2.74-2.08-.47-2.67-3.15-3.93-5.07-1.26-1.92-3.18-3.07-2.93-4.57.25-1.5,2.67-3.34,4.75-2.88h0Zm0,0"/><path class="h" d="m144.07,210.77c2.08.47,3.83,3.24,5.67,5.21,1.84,1.96,3.76,3.12,2.93,4.57-.83,1.45-4.4,3.2-6.49,2.74-2.08-.47-2.67-3.15-3.93-5.07-1.26-1.92-3.18-3.07-2.93-4.57.25-1.5,2.67-3.34,4.75-2.88h0Zm0,0"/><path class="x" d="m143.85,211.11c2.03.46,3.74,3.14,5.54,5.05,1.8,1.9,3.68,3.03,2.88,4.42-.8,1.4-4.27,3.07-6.3,2.61-2.03-.46-2.62-3.05-3.85-4.91-1.23-1.86-3.11-2.98-2.88-4.42.23-1.45,2.58-3.21,4.61-2.76h0Zm0,0"/><path class="j" d="m143.85,211.11c2.03.46,3.74,3.14,5.54,5.05,1.8,1.9,3.68,3.03,2.88,4.42-.8,1.4-4.27,3.07-6.3,2.61-2.03-.46-2.62-3.05-3.85-4.91-1.23-1.86-3.11-2.98-2.88-4.42.23-1.45,2.58-3.21,4.61-2.76h0Zm0,0"/><path class="z" d="m212.36,267.14c2.08.47,3.83,3.24,5.67,5.21,1.84,1.96,3.76,3.12,2.93,4.57-.83,1.45-4.4,3.2-6.49,2.74-2.08-.47-2.67-3.15-3.93-5.07-1.26-1.92-3.18-3.07-2.93-4.57.25-1.5,2.67-3.34,4.75-2.88h0Zm0,0"/><path class="h" d="m212.36,267.14c2.08.47,3.83,3.24,5.67,5.21,1.84,1.96,3.76,3.12,2.93,4.57-.83,1.45-4.4,3.2-6.49,2.74-2.08-.47-2.67-3.15-3.93-5.07-1.26-1.92-3.18-3.07-2.93-4.57.25-1.5,2.67-3.34,4.75-2.88h0Zm0,0"/><path class="x" d="m212.13,267.48c2.03.46,3.74,3.14,5.54,5.05,1.8,1.9,3.68,3.03,2.88,4.42-.8,1.4-4.27,3.07-6.3,2.61-2.03-.46-2.62-3.05-3.85-4.91-1.23-1.86-3.11-2.98-2.88-4.42.23-1.45,2.58-3.21,4.61-2.76h0Zm0,0"/><path class="j" d="m212.13,267.48c2.03.46,3.74,3.14,5.54,5.05,1.8,1.9,3.68,3.03,2.88,4.42-.8,1.4-4.27,3.07-6.3,2.61-2.03-.46-2.62-3.05-3.85-4.91-1.23-1.86-3.11-2.98-2.88-4.42.23-1.45,2.58-3.21,4.61-2.76h0Zm0,0"/><path class="z" d="m241,219.26c2.08.47,3.83,3.24,5.67,5.21,1.84,1.96,3.76,3.12,2.93,4.57-.83,1.45-4.4,3.2-6.49,2.74-2.08-.47-2.67-3.15-3.93-5.07-1.26-1.92-3.18-3.07-2.93-4.57.25-1.5,2.67-3.34,4.75-2.88h0Zm0,0"/><path class="h" d="m241,219.26c2.08.47,3.83,3.24,5.67,5.21,1.84,1.96,3.76,3.12,2.93,4.57-.83,1.45-4.4,3.2-6.49,2.74-2.08-.47-2.67-3.15-3.93-5.07-1.26-1.92-3.18-3.07-2.93-4.57.25-1.5,2.67-3.34,4.75-2.88h0Zm0,0"/><path class="x" d="m240.78,219.6c2.03.46,3.74,3.14,5.54,5.05,1.8,1.9,3.68,3.02,2.88,4.42-.8,1.4-4.27,3.07-6.3,2.61-2.03-.46-2.62-3.05-3.85-4.91-1.23-1.86-3.11-2.98-2.88-4.42.23-1.45,2.58-3.21,4.61-2.76h0Zm0,0"/><path class="j" d="m240.78,219.6c2.03.46,3.74,3.14,5.54,5.05,1.8,1.9,3.68,3.02,2.88,4.42-.8,1.4-4.27,3.07-6.3,2.61-2.03-.46-2.62-3.05-3.85-4.91-1.23-1.86-3.11-2.98-2.88-4.42.23-1.45,2.58-3.21,4.61-2.76h0Zm0,0"/><path class="z" d="m259.04,171.56c2.08.47,3.83,3.24,5.67,5.21,1.84,1.96,3.76,3.12,2.93,4.57-.83,1.45-4.4,3.2-6.49,2.74-2.08-.47-2.67-3.15-3.93-5.07-1.26-1.92-3.18-3.07-2.93-4.57.25-1.5,2.67-3.34,4.75-2.88h0Zm0,0"/><path class="h" d="m259.04,171.56c2.08.47,3.83,3.24,5.67,5.21,1.84,1.96,3.76,3.12,2.93,4.57-.83,1.45-4.4,3.2-6.49,2.74-2.08-.47-2.67-3.15-3.93-5.07-1.26-1.92-3.18-3.07-2.93-4.57.25-1.5,2.67-3.34,4.75-2.88h0Zm0,0"/><path class="x" d="m258.82,171.9c2.03.46,3.74,3.14,5.54,5.05,1.8,1.9,3.68,3.03,2.88,4.42-.8,1.4-4.27,3.07-6.3,2.62-2.03-.46-2.62-3.05-3.85-4.91-1.23-1.86-3.11-2.98-2.88-4.42.23-1.45,2.58-3.21,4.61-2.76h0Zm0,0"/><path class="j" d="m258.82,171.9c2.03.46,3.74,3.14,5.54,5.05,1.8,1.9,3.68,3.03,2.88,4.42-.8,1.4-4.27,3.07-6.3,2.61-2.03-.46-2.62-3.05-3.85-4.91-1.23-1.86-3.11-2.98-2.88-4.42.23-1.45,2.58-3.21,4.61-2.76h0Zm0,0"/><path class="z" d="m271.71,132.56c2.08.47,3.83,3.24,5.67,5.21,1.84,1.96,3.76,3.12,2.93,4.57-.83,1.45-4.4,3.2-6.49,2.74-2.08-.47-2.67-3.15-3.93-5.07-1.26-1.92-3.18-3.07-2.93-4.57.25-1.5,2.67-3.34,4.75-2.88h0Zm0,0"/><path class="h" d="m271.71,132.56c2.08.47,3.83,3.24,5.67,5.21,1.84,1.96,3.76,3.12,2.93,4.57-.83,1.45-4.4,3.2-6.49,2.74-2.08-.47-2.67-3.15-3.93-5.07-1.26-1.92-3.18-3.07-2.93-4.57.25-1.5,2.67-3.34,4.75-2.88h0Zm0,0"/><path class="x" d="m271.48,132.9c2.03.46,3.74,3.14,5.54,5.05,1.8,1.9,3.67,3.02,2.88,4.42-.8,1.4-4.27,3.07-6.3,2.62-2.03-.46-2.62-3.05-3.85-4.91-1.23-1.86-3.11-2.98-2.88-4.42.23-1.44,2.58-3.21,4.61-2.76h0Zm0,0"/><path class="j" d="m271.48,132.9c2.03.46,3.74,3.14,5.54,5.05,1.8,1.9,3.67,3.02,2.88,4.42-.8,1.4-4.27,3.07-6.3,2.62-2.03-.46-2.62-3.05-3.85-4.91-1.23-1.86-3.11-2.98-2.88-4.42.23-1.44,2.58-3.21,4.61-2.76h0Zm0,0"/><path class="z" d="m244.03,123.89c1.6.37,2.96,2.44,4.39,3.91,1.42,1.47,2.91,2.35,2.29,3.41-.61,1.06-3.32,2.31-4.92,1.94-1.6-.37-2.08-2.36-3.06-3.79-.98-1.43-2.46-2.31-2.29-3.41.17-1.1,1.99-2.44,3.59-2.07h0Zm0,0"/><path class="g" d="m244.03,123.89c1.6.37,2.96,2.44,4.39,3.91,1.42,1.47,2.91,2.35,2.29,3.41-.61,1.06-3.32,2.31-4.92,1.94-1.6-.37-2.08-2.36-3.06-3.79-.98-1.43-2.46-2.31-2.29-3.41.17-1.1,1.99-2.44,3.59-2.07h0Zm0,0"/><path class="x" d="m243.86,124.14c1.55.36,2.89,2.37,4.29,3.79,1.39,1.43,2.84,2.28,2.25,3.3-.59,1.02-3.22,2.22-4.78,1.86-1.55-.36-2.03-2.28-2.99-3.67-.96-1.39-2.41-2.24-2.25-3.3.16-1.06,1.93-2.34,3.49-1.98h0Zm0,0"/><path class="i" d="m243.86,124.14c1.55.36,2.89,2.37,4.29,3.79,1.39,1.43,2.84,2.28,2.25,3.3-.59,1.02-3.22,2.22-4.78,1.86-1.55-.36-2.03-2.28-2.99-3.67-.96-1.39-2.41-2.24-2.25-3.3.16-1.06,1.93-2.34,3.49-1.98h0Zm0,0"/><path class="z" d="m267.03,164.07c1.82,1.11,5.01.33,7.69.19,2.69-.14,4.87.37,5.29-1.25.42-1.62-.94-5.36-2.76-6.48-1.82-1.11-4.11.41-6.35.91-2.24.51-4.42,0-5.29,1.25-.86,1.25-.41,4.26,1.42,5.37h0Zm0,0"/><path class="h" d="m267.03,164.07c1.82,1.11,5.01.33,7.69.19,2.69-.14,4.87.37,5.29-1.25.42-1.62-.94-5.36-2.76-6.48-1.82-1.11-4.11.41-6.35.91-2.24.51-4.42,0-5.29,1.25-.86,1.25-.41,4.26,1.42,5.37h0Zm0,0"/><path class="x" d="m267.1,163.66c1.78,1.08,4.88.34,7.49.22,2.61-.12,4.75.38,5.14-1.18.4-1.56-.94-5.18-2.72-6.26-1.78-1.08-4,.38-6.18.85-2.18.48-4.31-.02-5.14,1.18-.84,1.2-.38,4.1,1.4,5.19h0Zm0,0"/><path class="j" d="m267.1,163.66c1.78,1.08,4.88.34,7.49.22,2.61-.12,4.75.38,5.14-1.18.4-1.56-.94-5.18-2.72-6.26-1.78-1.08-4,.38-6.18.85-2.18.48-4.31-.02-5.14,1.18-.84,1.2-.38,4.1,1.4,5.19h0Zm0,0"/><path class="z" d="m247.24,154.79c1.82,1.11,5.01.33,7.69.19,2.69-.14,4.87.37,5.29-1.25.42-1.62-.94-5.36-2.76-6.48-1.82-1.11-4.11.41-6.35.91-2.24.51-4.42,0-5.29,1.25-.86,1.25-.41,4.26,1.42,5.37h0Zm0,0"/><path class="h" d="m247.24,154.79c1.82,1.11,5.01.33,7.69.19,2.69-.14,4.87.37,5.29-1.25.42-1.62-.94-5.36-2.76-6.48-1.82-1.11-4.11.41-6.35.91-2.24.51-4.42,0-5.29,1.25-.86,1.25-.41,4.26,1.42,5.37h0Zm0,0"/><path class="x" d="m247.31,154.39c1.78,1.08,4.88.34,7.49.22,2.61-.12,4.75.38,5.14-1.18.4-1.56-.94-5.18-2.72-6.26-1.78-1.08-4,.38-6.18.86-2.18.48-4.31-.02-5.14,1.18-.84,1.2-.38,4.11,1.4,5.19h0Zm0,0"/><path class="j" d="m247.31,154.39c1.78,1.08,4.88.34,7.49.22,2.61-.12,4.75.38,5.14-1.18.4-1.56-.94-5.18-2.72-6.26-1.78-1.08-4,.38-6.18.86-2.18.48-4.31-.02-5.14,1.18-.84,1.2-.38,4.1,1.4,5.19h0Zm0,0"/><path class="z" d="m213.29,131.48c1.82,1.11,5.01.33,7.69.19,2.69-.14,4.87.37,5.29-1.25.42-1.62-.94-5.36-2.76-6.48-1.82-1.11-4.11.41-6.35.91-2.24.51-4.42,0-5.29,1.25-.86,1.25-.41,4.26,1.42,5.37h0Zm0,0"/><path class="h" d="m213.29,131.48c1.82,1.11,5.01.33,7.69.19,2.69-.14,4.87.37,5.29-1.25.42-1.62-.94-5.36-2.76-6.48-1.82-1.11-4.11.41-6.35.91-2.24.51-4.42,0-5.29,1.25-.86,1.25-.41,4.26,1.42,5.37h0Zm0,0"/><path class="x" d="m213.36,131.08c1.78,1.08,4.88.34,7.49.22,2.61-.12,4.75.38,5.14-1.18.4-1.56-.94-5.18-2.72-6.26-1.78-1.08-4,.38-6.18.86-2.18.48-4.31-.02-5.14,1.18-.84,1.2-.38,4.11,1.4,5.19h0Zm0,0"/><path class="j" d="m213.36,131.08c1.78,1.08,4.88.34,7.49.22,2.61-.12,4.75.38,5.14-1.18.4-1.56-.94-5.18-2.72-6.26-1.78-1.08-4,.38-6.18.86-2.18.48-4.31-.02-5.14,1.18-.84,1.2-.38,4.1,1.4,5.19h0Zm0,0"/><path class="z" d="m257.72,118.11c1.82,1.11,5.01.33,7.69.19,2.69-.14,4.87.37,5.29-1.25.42-1.62-.94-5.36-2.76-6.48-1.82-1.11-4.11.41-6.35.91-2.24.51-4.42,0-5.29,1.25-.86,1.25-.41,4.26,1.42,5.37h0Zm0,0"/><path class="h" d="m257.72,118.11c1.82,1.11,5.01.33,7.69.19,2.69-.14,4.87.37,5.29-1.25.42-1.62-.94-5.36-2.76-6.48-1.82-1.11-4.11.41-6.35.91-2.24.51-4.42,0-5.29,1.25-.86,1.25-.41,4.26,1.42,5.37h0Zm0,0"/><path class="x" d="m257.8,117.71c1.78,1.08,4.88.34,7.49.22,2.61-.12,4.75.38,5.14-1.18.4-1.56-.94-5.18-2.72-6.26-1.78-1.08-4,.38-6.18.86-2.18.48-4.31-.02-5.14,1.18-.84,1.2-.38,4.11,1.4,5.19h0Zm0,0"/><path class="j" d="m257.8,117.71c1.78,1.08,4.88.34,7.49.22,2.61-.12,4.75.38,5.14-1.18.4-1.56-.94-5.18-2.72-6.26-1.78-1.08-4,.38-6.18.86-2.18.48-4.31-.02-5.14,1.18-.84,1.2-.38,4.11,1.4,5.19h0Zm0,0"/><path class="z" d="m196.66,111.33c1.82,1.11,5.01.33,7.69.19,2.69-.14,4.87.37,5.29-1.25.42-1.62-.94-5.36-2.76-6.48-1.82-1.11-4.11.41-6.35.91-2.24.51-4.42,0-5.29,1.25-.86,1.25-.41,4.26,1.42,5.37h0Zm0,0"/><path class="h" d="m196.66,111.33c1.82,1.11,5.01.33,7.69.19,2.69-.14,4.87.37,5.29-1.25.42-1.62-.94-5.36-2.76-6.48-1.82-1.11-4.11.41-6.35.91-2.24.51-4.42,0-5.29,1.25-.86,1.25-.41,4.26,1.42,5.37h0Zm0,0"/><path class="x" d="m196.73,110.93c1.78,1.08,4.88.34,7.49.22,2.61-.12,4.74.38,5.14-1.18.4-1.56-.94-5.18-2.72-6.26-1.78-1.08-4,.38-6.18.86-2.18.48-4.31-.02-5.14,1.18-.84,1.2-.38,4.1,1.4,5.19h0Zm0,0"/><path class="j" d="m196.73,110.93c1.78,1.08,4.88.34,7.49.22,2.61-.12,4.74.38,5.14-1.18.4-1.56-.94-5.18-2.72-6.26-1.78-1.08-4,.38-6.18.86-2.18.48-4.31-.02-5.14,1.18-.84,1.2-.38,4.1,1.4,5.19h0Zm0,0"/><path class="z" d="m169.97,134.43c1.82,1.11,5.01.33,7.69.19,2.69-.14,4.87.37,5.29-1.25.42-1.62-.94-5.36-2.76-6.48-1.82-1.11-4.11.41-6.35.91-2.24.51-4.42,0-5.29,1.25-.86,1.25-.41,4.26,1.42,5.37h0Zm0,0"/><path class="h" d="m169.97,134.43c1.82,1.11,5.01.33,7.69.19,2.69-.14,4.87.37,5.29-1.25.42-1.62-.94-5.36-2.76-6.48-1.82-1.11-4.11.41-6.35.91-2.24.51-4.42,0-5.29,1.25-.86,1.25-.41,4.26,1.42,5.37h0Zm0,0"/><path class="x" d="m170.04,134.03c1.78,1.08,4.88.34,7.49.22,2.61-.12,4.74.38,5.14-1.18.4-1.56-.94-5.18-2.72-6.26-1.78-1.08-4,.38-6.18.86-2.18.48-4.31-.02-5.14,1.18-.84,1.2-.38,4.1,1.4,5.19h0Zm0,0"/><path class="j" d="m170.04,134.03c1.78,1.08,4.88.34,7.49.22,2.61-.12,4.75.38,5.14-1.18.4-1.56-.94-5.18-2.72-6.26-1.78-1.08-4,.38-6.18.86-2.18.48-4.31-.02-5.14,1.18-.84,1.2-.38,4.1,1.4,5.19h0Zm0,0"/><path class="z" d="m186.14,89.82c1.82,1.11,5.01.33,7.69.19,2.69-.14,4.87.37,5.29-1.25.42-1.62-.94-5.36-2.76-6.48-1.82-1.11-4.11.41-6.35.91-2.24.51-4.42,0-5.29,1.25-.86,1.25-.41,4.26,1.42,5.37h0Zm0,0"/><path class="h" d="m186.14,89.82c1.82,1.11,5.01.33,7.69.19,2.69-.14,4.87.37,5.29-1.25.42-1.62-.94-5.36-2.76-6.48-1.82-1.11-4.11.41-6.35.91-2.24.51-4.42,0-5.29,1.25-.86,1.25-.41,4.26,1.42,5.37h0Zm0,0"/><path class="x" d="m186.22,89.42c1.78,1.08,4.88.34,7.49.22,2.61-.12,4.75.38,5.14-1.18.4-1.56-.94-5.18-2.72-6.26-1.78-1.08-4,.38-6.18.86-2.18.48-4.31-.02-5.14,1.18-.84,1.2-.38,4.1,1.4,5.19h0Zm0,0"/><path class="j" d="m186.22,89.42c1.78,1.08,4.88.34,7.49.22,2.61-.12,4.75.38,5.14-1.18.4-1.56-.94-5.18-2.72-6.26-1.78-1.08-4,.38-6.18.86-2.18.48-4.31-.02-5.14,1.18-.84,1.2-.38,4.1,1.4,5.19h0Zm0,0"/><path class="z" d="m220.66,89.1c1.25.78,3.48.17,5.35.03,1.87-.14,3.38.2,3.7-.98.31-1.18-.58-3.88-1.83-4.66-1.25-.78-2.87.36-4.43.76-1.56.4-3.08.06-3.7.98-.62.92-.34,3.1.91,3.88h0Zm0,0"/><path class="d" d="m220.66,89.1c1.25.78,3.48.17,5.35.03,1.87-.14,3.38.2,3.7-.98.31-1.18-.58-3.88-1.83-4.66-1.25-.78-2.87.36-4.43.76-1.56.4-3.08.06-3.7.98-.62.92-.34,3.1.91,3.88h0Zm0,0"/><path class="x" d="m220.71,88.8c1.22.76,3.39.18,5.21.05,1.82-.13,3.3.2,3.6-.93.3-1.14-.58-3.75-1.8-4.51-1.22-.76-2.79.33-4.31.71-1.52.38-3,.05-3.6.93-.6.88-.32,2.99.9,3.75h0Zm0,0"/><path class="b" d="m220.71,88.8c1.22.76,3.39.18,5.21.05,1.82-.13,3.3.2,3.6-.93.3-1.14-.58-3.75-1.8-4.51-1.22-.76-2.79.33-4.31.71-1.52.38-3,.05-3.6.93-.6.88-.32,2.99.9,3.75h0Zm0,0"/><path class="z" d="m198.52,120.19c1.27.3,2.37,1.92,3.51,3.08,1.14,1.16,2.33,1.85,1.85,2.68-.48.83-2.63,1.79-3.9,1.49-1.27-.3-1.67-1.86-2.46-2.98-.79-1.13-1.97-1.82-1.85-2.68.13-.86,1.57-1.89,2.84-1.59h0Zm0,0"/><path class="o" d="m198.52,120.19c1.27.3,2.37,1.92,3.51,3.08,1.14,1.16,2.33,1.85,1.85,2.68-.48.83-2.63,1.79-3.9,1.49-1.27-.3-1.67-1.86-2.46-2.98-.79-1.13-1.97-1.82-1.85-2.68.13-.86,1.57-1.89,2.84-1.59h0Zm0,0"/><path class="x" d="m198.39,120.38c1.24.29,2.32,1.87,3.43,2.99,1.12,1.12,2.27,1.8,1.81,2.59-.46.8-2.55,1.71-3.79,1.42-1.24-.29-1.63-1.8-2.4-2.89s-1.93-1.76-1.81-2.59c.12-.83,1.52-1.82,2.76-1.52h0Zm0,0"/><path class="u" d="m198.39,120.38c1.24.29,2.32,1.87,3.43,2.99,1.12,1.12,2.27,1.8,1.81,2.59-.46.8-2.55,1.71-3.79,1.42-1.24-.29-1.63-1.8-2.4-2.89-.77-1.09-1.93-1.76-1.81-2.59.12-.83,1.52-1.82,2.76-1.52h0Zm0,0"/><path class="z" d="m244.2,93.32c2.08.47,3.83,3.24,5.67,5.21,1.84,1.96,3.76,3.12,2.93,4.57-.83,1.45-4.4,3.2-6.49,2.74-2.08-.47-2.67-3.15-3.93-5.07-1.26-1.92-3.18-3.07-2.93-4.57.25-1.5,2.67-3.34,4.75-2.88h0Zm0,0"/><path class="h" d="m244.2,93.32c2.08.47,3.83,3.24,5.67,5.21,1.84,1.96,3.76,3.12,2.93,4.57-.83,1.45-4.4,3.2-6.49,2.74-2.08-.47-2.67-3.15-3.93-5.07-1.26-1.92-3.18-3.07-2.93-4.57.25-1.5,2.67-3.34,4.75-2.88h0Zm0,0"/><path class="x" d="m243.98,93.66c2.03.46,3.74,3.14,5.54,5.05,1.8,1.9,3.67,3.03,2.88,4.42-.8,1.4-4.27,3.07-6.3,2.62-2.03-.46-2.62-3.05-3.85-4.91-1.23-1.86-3.11-2.98-2.88-4.42.23-1.45,2.58-3.21,4.61-2.76h0Zm0,0"/><path class="j" d="m243.98,93.66c2.03.46,3.74,3.14,5.54,5.05,1.8,1.9,3.67,3.03,2.88,4.42-.8,1.4-4.27,3.07-6.3,2.61-2.03-.46-2.62-3.05-3.85-4.91-1.23-1.86-3.11-2.98-2.88-4.42.23-1.45,2.58-3.21,4.61-2.76h0Zm0,0"/><path class="z" d="m282.99,115.38c2.08.47,3.83,3.24,5.67,5.21,1.84,1.96,3.76,3.12,2.93,4.57-.83,1.45-4.4,3.2-6.49,2.74-2.08-.47-2.67-3.15-3.93-5.07-1.26-1.92-3.18-3.07-2.93-4.57.25-1.5,2.67-3.34,4.75-2.88h0Zm0,0"/><path class="h" d="m282.99,115.38c2.08.47,3.83,3.24,5.67,5.21,1.84,1.96,3.76,3.12,2.93,4.57-.83,1.45-4.4,3.2-6.49,2.74-2.08-.47-2.67-3.15-3.93-5.07-1.26-1.92-3.18-3.07-2.93-4.57.25-1.5,2.67-3.34,4.75-2.88h0Zm0,0"/><path class="x" d="m282.76,115.72c2.03.46,3.74,3.14,5.54,5.05,1.8,1.9,3.68,3.03,2.88,4.42-.8,1.4-4.27,3.07-6.3,2.62-2.03-.46-2.62-3.05-3.85-4.91-1.23-1.86-3.11-2.98-2.88-4.42.23-1.45,2.58-3.21,4.61-2.76h0Zm0,0"/><path class="j" d="m282.76,115.72c2.03.46,3.74,3.14,5.54,5.05,1.8,1.9,3.68,3.03,2.88,4.42-.8,1.4-4.27,3.07-6.3,2.62-2.03-.46-2.62-3.05-3.85-4.91-1.23-1.86-3.11-2.98-2.88-4.42.23-1.45,2.58-3.21,4.61-2.76h0Zm0,0"/><path class="z" d="m272.48,86.2c2.08.47,3.83,3.24,5.67,5.21,1.84,1.96,3.76,3.12,2.93,4.57-.83,1.45-4.4,3.2-6.49,2.74-2.08-.47-2.67-3.15-3.93-5.07-1.26-1.92-3.18-3.07-2.93-4.57.25-1.5,2.67-3.34,4.75-2.88h0Zm0,0"/><path class="h" d="m272.48,86.2c2.08.47,3.83,3.24,5.67,5.21,1.84,1.96,3.76,3.12,2.93,4.57-.83,1.45-4.4,3.2-6.49,2.74-2.08-.47-2.67-3.15-3.93-5.07-1.26-1.92-3.18-3.07-2.93-4.57.25-1.5,2.67-3.34,4.75-2.88h0Zm0,0"/><path class="x" d="m272.25,86.54c2.03.46,3.74,3.14,5.54,5.05,1.8,1.9,3.67,3.03,2.88,4.42-.8,1.4-4.27,3.07-6.3,2.61-2.03-.46-2.62-3.05-3.85-4.91-1.23-1.86-3.11-2.98-2.88-4.42.23-1.45,2.58-3.21,4.61-2.76h0Zm0,0"/><path class="j" d="m272.25,86.54c2.03.46,3.74,3.14,5.54,5.05,1.8,1.9,3.67,3.03,2.88,4.42-.8,1.4-4.27,3.07-6.3,2.61-2.03-.46-2.62-3.05-3.85-4.91-1.23-1.86-3.11-2.98-2.88-4.42.23-1.45,2.58-3.21,4.61-2.76h0Zm0,0"/><path class="z" d="m287.78,107.29c1.34.8,3.62.31,5.56.27,1.94-.05,3.53.34,3.8-.77.27-1.1-.77-3.7-2.11-4.5-1.34-.8-2.96.21-4.57.52-1.61.31-3.2-.08-3.8.77-.6.84-.22,2.92,1.12,3.71h0Zm0,0"/><path class="n" d="m287.78,107.29c1.34.8,3.62.31,5.56.27,1.94-.05,3.53.34,3.8-.77.27-1.1-.77-3.7-2.11-4.5-1.34-.8-2.96.21-4.57.52-1.61.31-3.2-.08-3.8.77-.6.84-.22,2.92,1.12,3.71h0Zm0,0"/><path class="x" d="m287.82,107.01c1.3.77,3.53.32,5.42.28,1.89-.04,3.43.34,3.69-.72.26-1.06-.77-3.57-2.07-4.35-1.3-.77-2.88.19-4.45.48-1.56.29-3.11-.09-3.69.72-.58.81-.2,2.81,1.1,3.58h0Zm0,0"/><path class="v" d="m287.82,107.01c1.3.77,3.53.32,5.42.28,1.89-.04,3.43.34,3.69-.72.26-1.06-.77-3.57-2.07-4.35-1.3-.77-2.88.19-4.45.48-1.56.29-3.11-.09-3.69.72-.58.81-.2,2.81,1.1,3.58h0Zm0,0"/><path class="z" d="m198.17,196.17c1.9-1.05,5.03-.17,7.7.05,2.67.22,4.89-.22,5.19,1.41.3,1.63-1.33,5.33-3.23,6.38-1.9,1.05-4.08-.54-6.27-1.11-2.2-.58-4.42-.14-5.19-1.41-.77-1.28-.1-4.26,1.81-5.32h0Zm0,0"/><path class="f" d="m198.17,196.17c1.9-1.05,5.03-.17,7.7.05,2.67.22,4.89-.22,5.19,1.41.3,1.63-1.33,5.33-3.23,6.38-1.9,1.05-4.08-.54-6.27-1.11-2.2-.58-4.42-.14-5.19-1.41-.77-1.28-.1-4.26,1.81-5.32h0Zm0,0"/><path class="x" d="m198.21,196.57c1.86-1.02,4.9-.19,7.5.01,2.6.2,4.77-.23,5.05,1.34.28,1.57-1.31,5.14-3.17,6.17-1.86,1.02-3.97-.5-6.11-1.05-2.14-.55-4.3-.12-5.05-1.34-.75-1.23-.08-4.11,1.78-5.14h0Zm0,0"/><path class="k" d="m198.21,196.57c1.86-1.02,4.9-.19,7.5.01,2.6.2,4.77-.23,5.05,1.34.28,1.57-1.31,5.14-3.17,6.17-1.86,1.02-3.97-.5-6.11-1.05-2.14-.55-4.3-.12-5.05-1.34-.75-1.23-.08-4.11,1.78-5.14h0Zm0,0"/><path class="z" d="m189.97,207.58c2.08.47,3.83,3.24,5.67,5.21,1.84,1.96,3.76,3.12,2.93,4.57-.83,1.45-4.4,3.2-6.49,2.74-2.08-.47-2.67-3.15-3.93-5.07-1.26-1.92-3.18-3.07-2.93-4.57.25-1.5,2.67-3.34,4.75-2.88h0Zm0,0"/><path class="h" d="m189.97,207.58c2.08.47,3.83,3.24,5.67,5.21,1.84,1.96,3.76,3.12,2.93,4.57-.83,1.45-4.4,3.2-6.49,2.74-2.08-.47-2.67-3.15-3.93-5.07-1.26-1.92-3.18-3.07-2.93-4.57.25-1.5,2.67-3.34,4.75-2.88h0Zm0,0"/><path class="x" d="m189.74,207.92c2.03.46,3.74,3.14,5.54,5.05,1.8,1.9,3.68,3.03,2.88,4.42-.8,1.4-4.27,3.07-6.3,2.61-2.03-.46-2.62-3.05-3.85-4.91-1.23-1.86-3.11-2.98-2.88-4.42.23-1.44,2.58-3.21,4.61-2.76h0Zm0,0"/><path class="j" d="m189.74,207.92c2.03.46,3.74,3.14,5.54,5.05,1.8,1.9,3.68,3.03,2.88,4.42-.8,1.4-4.27,3.07-6.3,2.61-2.03-.46-2.62-3.05-3.85-4.91-1.23-1.86-3.11-2.98-2.88-4.42.23-1.44,2.58-3.21,4.61-2.76h0Zm0,0"/><path class="z" d="m165.98,256.21c1.82,1.11,5.01.33,7.69.19,2.69-.14,4.87.37,5.29-1.25.42-1.62-.94-5.36-2.76-6.48-1.82-1.11-4.11.41-6.35.91-2.24.51-4.42,0-5.29,1.25-.86,1.25-.41,4.26,1.42,5.37h0Zm0,0"/><path class="h" d="m165.98,256.21c1.82,1.11,5.01.33,7.69.19,2.69-.14,4.87.37,5.29-1.25.42-1.62-.94-5.36-2.76-6.48-1.82-1.11-4.11.41-6.35.91-2.24.51-4.42,0-5.29,1.25-.86,1.25-.41,4.26,1.42,5.37h0Zm0,0"/><path class="x" d="m166.05,255.81c1.78,1.08,4.88.34,7.49.22,2.61-.12,4.75.38,5.14-1.18.4-1.56-.94-5.18-2.72-6.26-1.78-1.08-4,.38-6.18.86-2.18.48-4.31-.02-5.14,1.18-.84,1.2-.38,4.1,1.4,5.19h0Zm0,0"/><path class="j" d="m166.05,255.81c1.78,1.08,4.88.34,7.49.22,2.61-.12,4.75.38,5.14-1.18.4-1.56-.94-5.18-2.72-6.26-1.78-1.08-4,.38-6.18.86-2.18.48-4.31-.02-5.14,1.18-.84,1.2-.38,4.1,1.4,5.19h0Zm0,0"/><path class="z" d="m130.51,235.28c-1.13,1.89-.43,5.13-.36,7.88.08,2.75-.47,4.99,1.11,5.38,1.57.39,5.27-1.08,6.39-2.97,1.13-1.89-.31-4.2-.75-6.47-.45-2.28.1-4.53-1.11-5.38-1.2-.86-4.15-.32-5.28,1.57h0Zm0,0"/><path class="m" d="m130.51,235.28c-1.13,1.89-.43,5.13-.36,7.88.08,2.75-.47,4.99,1.11,5.38,1.57.39,5.27-1.08,6.39-2.97,1.13-1.89-.31-4.2-.75-6.47-.45-2.28.1-4.53-1.11-5.38-1.2-.86-4.15-.32-5.28,1.57h0Zm0,0"/><path class="x" d="m130.9,235.34c-1.1,1.84-.44,5-.38,7.67.06,2.67-.47,4.86,1.04,5.24,1.52.37,5.09-1.07,6.18-2.92,1.1-1.84-.28-4.09-.7-6.3-.42-2.22.11-4.41-1.04-5.24-1.16-.83-4.01-.3-5.1,1.55h0Zm0,0"/><path class="t" d="m130.9,235.34c-1.1,1.84-.44,5-.38,7.67.06,2.67-.47,4.86,1.04,5.24,1.52.37,5.09-1.07,6.18-2.92,1.1-1.84-.28-4.08-.7-6.3-.42-2.22.11-4.41-1.04-5.24-1.16-.83-4.01-.3-5.1,1.55h0Zm0,0"/><path class="z" d="m231.11,167.24c-1.13,1.89-.43,5.13-.36,7.88.07,2.75-.47,4.99,1.1,5.38,1.57.39,5.27-1.08,6.39-2.97s-.31-4.2-.75-6.47c-.45-2.28.1-4.53-1.11-5.38-1.2-.86-4.15-.32-5.28,1.57h0Zm0,0"/><path class="m" d="m231.11,167.24c-1.13,1.89-.43,5.13-.36,7.88.07,2.75-.47,4.99,1.11,5.38,1.57.39,5.27-1.08,6.39-2.97,1.13-1.89-.31-4.2-.75-6.47-.45-2.28.1-4.53-1.11-5.38-1.2-.86-4.15-.32-5.28,1.57h0Zm0,0"/><path class="x" d="m231.5,167.31c-1.1,1.84-.44,5-.38,7.67.06,2.67-.47,4.86,1.04,5.24,1.52.37,5.09-1.07,6.18-2.92,1.1-1.84-.28-4.08-.7-6.3-.42-2.22.11-4.41-1.04-5.24-1.16-.83-4.01-.3-5.1,1.55h0Zm0,0"/><path class="t" d="m231.5,167.31c-1.1,1.84-.44,5-.38,7.67.06,2.67-.47,4.86,1.04,5.24,1.52.37,5.09-1.07,6.18-2.92,1.1-1.84-.28-4.08-.7-6.3-.42-2.22.11-4.41-1.04-5.24-1.16-.83-4.01-.3-5.1,1.55h0Zm0,0"/><path class="z" d="m183.66,166.61c-1.13,1.89-.43,5.13-.36,7.88.08,2.74-.47,4.99,1.11,5.38,1.57.39,5.27-1.08,6.39-2.97,1.13-1.89-.31-4.2-.75-6.47-.45-2.28.1-4.53-1.11-5.38-1.2-.86-4.15-.32-5.28,1.57h0Zm0,0"/><path class="m" d="m183.66,166.61c-1.13,1.89-.43,5.13-.36,7.88.08,2.74-.47,4.99,1.1,5.38,1.57.39,5.27-1.08,6.39-2.97,1.13-1.89-.31-4.2-.75-6.47-.45-2.28.1-4.53-1.11-5.38-1.2-.86-4.15-.32-5.28,1.57h0Zm0,0"/><path class="x" d="m184.06,166.68c-1.1,1.84-.44,5-.38,7.67.06,2.67-.47,4.86,1.04,5.24,1.52.37,5.09-1.07,6.18-2.92,1.1-1.84-.28-4.08-.7-6.3-.42-2.22.11-4.41-1.04-5.24-1.16-.83-4.01-.29-5.1,1.55h0Zm0,0"/><path class="t" d="m184.06,166.68c-1.1,1.84-.44,5-.38,7.67.06,2.67-.47,4.86,1.04,5.24,1.52.37,5.09-1.07,6.18-2.92,1.1-1.84-.28-4.08-.7-6.3-.42-2.22.11-4.41-1.04-5.24-1.16-.83-4.01-.29-5.1,1.55h0Zm0,0"/><path class="z" d="m153.87,189.73c-1.13,1.89-.43,5.13-.36,7.88.08,2.74-.47,4.99,1.11,5.38,1.57.39,5.27-1.08,6.39-2.97,1.13-1.89-.31-4.2-.75-6.47-.45-2.28.1-4.53-1.11-5.38-1.2-.86-4.15-.32-5.28,1.57h0Zm0,0"/><path class="m" d="m153.87,189.73c-1.13,1.89-.43,5.13-.36,7.88.08,2.74-.47,4.99,1.11,5.38,1.57.39,5.27-1.08,6.39-2.97,1.13-1.89-.31-4.2-.75-6.47-.45-2.28.1-4.53-1.11-5.38-1.2-.86-4.15-.32-5.28,1.57h0Zm0,0"/><path class="x" d="m154.27,189.8c-1.1,1.84-.44,5-.38,7.67.06,2.67-.47,4.86,1.04,5.24,1.52.37,5.09-1.07,6.18-2.92,1.1-1.84-.28-4.08-.7-6.3-.42-2.22.11-4.41-1.04-5.24-1.16-.83-4.01-.29-5.1,1.55h0Zm0,0"/><path class="t" d="m154.27,189.8c-1.1,1.84-.44,5-.38,7.67.06,2.67-.47,4.86,1.04,5.24,1.52.37,5.09-1.07,6.18-2.92,1.1-1.84-.28-4.08-.7-6.3-.42-2.22.11-4.41-1.04-5.24-1.16-.83-4.01-.29-5.1,1.55h0Zm0,0"/><path class="z" d="m254.05,196.33c-1.13,1.89-.43,5.13-.36,7.88.08,2.74-.47,4.99,1.11,5.38,1.57.39,5.27-1.08,6.39-2.97,1.13-1.89-.31-4.2-.75-6.47-.45-2.28.1-4.53-1.11-5.38-1.2-.86-4.15-.32-5.28,1.57h0Zm0,0"/><path class="m" d="m254.05,196.33c-1.13,1.89-.43,5.13-.36,7.88.08,2.74-.47,4.99,1.11,5.38,1.57.39,5.27-1.08,6.39-2.97,1.13-1.89-.31-4.2-.75-6.47-.45-2.28.1-4.53-1.11-5.38-1.2-.86-4.15-.32-5.28,1.57h0Zm0,0"/><path class="x" d="m254.44,196.4c-1.1,1.84-.44,5-.38,7.67.06,2.67-.47,4.86,1.04,5.24,1.52.37,5.09-1.07,6.18-2.92,1.1-1.84-.28-4.08-.7-6.3s.11-4.41-1.04-5.24c-1.16-.83-4.01-.29-5.1,1.55h0Zm0,0"/><path class="t" d="m254.44,196.4c-1.1,1.84-.44,5-.38,7.67.06,2.67-.47,4.86,1.04,5.24,1.52.37,5.09-1.07,6.18-2.92,1.1-1.84-.28-4.08-.7-6.3-.42-2.22.11-4.41-1.04-5.24-1.16-.83-4.01-.3-5.1,1.55h0Zm0,0"/><path class="z" d="m242.73,74.12c-1.13,1.89-.43,5.13-.36,7.88.08,2.74-.47,4.99,1.11,5.38,1.57.39,5.27-1.08,6.39-2.97,1.13-1.89-.31-4.2-.75-6.47-.45-2.28.1-4.53-1.11-5.38-1.2-.86-4.15-.32-5.28,1.57h0Zm0,0"/><path class="m" d="m242.73,74.12c-1.13,1.89-.43,5.13-.36,7.88.08,2.74-.47,4.99,1.11,5.38,1.57.39,5.27-1.08,6.39-2.97,1.13-1.89-.31-4.2-.75-6.47-.45-2.28.1-4.53-1.11-5.38-1.2-.86-4.15-.32-5.28,1.57h0Zm0,0"/><path class="x" d="m243.12,74.18c-1.1,1.84-.44,5-.38,7.67.06,2.67-.47,4.86,1.04,5.24,1.52.37,5.09-1.07,6.18-2.92,1.1-1.84-.28-4.08-.7-6.3-.42-2.22.11-4.41-1.04-5.24-1.16-.83-4.01-.3-5.1,1.55h0Zm0,0"/><path class="t" d="m243.12,74.18c-1.1,1.84-.44,5-.38,7.67.06,2.67-.47,4.86,1.04,5.24,1.52.37,5.09-1.07,6.18-2.92,1.1-1.84-.28-4.08-.7-6.3-.42-2.22.11-4.41-1.04-5.24-1.16-.83-4.01-.3-5.1,1.55h0Zm0,0"/><path class="z" d="m206.65,65.29c-1.13,1.89-.43,5.13-.36,7.88.08,2.74-.47,4.99,1.11,5.38,1.57.39,5.27-1.08,6.39-2.97,1.13-1.89-.31-4.2-.75-6.47-.45-2.28.1-4.53-1.11-5.38-1.2-.86-4.15-.32-5.28,1.57h0Zm0,0"/><path class="m" d="m206.65,65.29c-1.13,1.89-.43,5.13-.36,7.88.08,2.74-.47,4.99,1.1,5.38,1.57.39,5.27-1.08,6.39-2.97,1.13-1.89-.31-4.2-.75-6.47-.45-2.28.1-4.53-1.11-5.38-1.2-.86-4.15-.32-5.28,1.57h0Zm0,0"/><path class="x" d="m207.04,65.35c-1.1,1.84-.44,5-.38,7.67.06,2.67-.47,4.86,1.04,5.24,1.52.37,5.09-1.07,6.18-2.92,1.1-1.84-.28-4.08-.7-6.3-.42-2.22.11-4.41-1.04-5.24-1.16-.83-4.01-.29-5.1,1.55h0Zm0,0"/><path class="t" d="m207.04,65.35c-1.1,1.84-.44,5-.38,7.67.06,2.67-.47,4.86,1.04,5.24,1.52.37,5.09-1.07,6.18-2.92,1.1-1.84-.28-4.08-.7-6.3-.42-2.22.11-4.41-1.04-5.24-1.16-.83-4.01-.29-5.1,1.55h0Zm0,0"/><path class="z" d="m228.41,63.26c1.69.35,3.04,2.74,4.48,4.42,1.44,1.68,2.99,2.63,2.26,3.94-.72,1.31-3.7,2.96-5.39,2.61-1.69-.35-2.09-2.69-3.06-4.35-.97-1.65-2.51-2.61-2.26-3.94.25-1.33,2.28-3.03,3.97-2.68h0Zm0,0"/><path class="s" d="m228.41,63.26c1.69.35,3.04,2.74,4.48,4.42,1.44,1.68,2.99,2.63,2.26,3.94-.72,1.31-3.7,2.96-5.39,2.61-1.69-.35-2.09-2.69-3.06-4.35-.97-1.65-2.51-2.61-2.26-3.94.25-1.33,2.28-3.03,3.97-2.68h0Zm0,0"/><path class="x" d="m228.21,63.56c1.65.34,2.97,2.66,4.38,4.28,1.41,1.62,2.92,2.55,2.22,3.81-.7,1.26-3.59,2.84-5.24,2.49-1.65-.34-2.05-2.61-3-4.21-.95-1.6-2.46-2.53-2.22-3.81.24-1.28,2.21-2.91,3.86-2.57h0Zm0,0"/><path class="q" d="m228.21,63.56c1.65.34,2.97,2.66,4.38,4.28,1.41,1.62,2.92,2.55,2.22,3.81-.7,1.26-3.59,2.84-5.24,2.49-1.65-.34-2.05-2.61-3-4.21-.95-1.6-2.46-2.53-2.22-3.81.24-1.28,2.21-2.91,3.86-2.57h0Zm0,0"/><path class="z" d="m209.54,148.44c-.78,1.31-.31,3.54-.27,5.43.04,1.89-.34,3.44.73,3.7,1.07.26,3.59-.76,4.37-2.07.78-1.31-.2-2.89-.49-4.46-.3-1.57.08-3.12-.73-3.7-.82-.59-2.83-.21-3.6,1.1h0Zm0,0"/><path class="p" d="m209.54,148.44c-.78,1.31-.31,3.54-.27,5.43.04,1.89-.34,3.44.73,3.7,1.07.26,3.59-.76,4.37-2.07.78-1.31-.2-2.89-.49-4.46-.3-1.57.08-3.12-.73-3.7-.82-.59-2.83-.21-3.6,1.1h0Zm0,0"/><path class="x" d="m209.81,148.49c-.75,1.27-.32,3.44-.29,5.29.03,1.84-.34,3.35.69,3.6,1.03.25,3.47-.76,4.22-2.03.75-1.27-.18-2.81-.45-4.34-.28-1.53.09-3.04-.69-3.6-.79-.57-2.73-.19-3.48,1.09h0Zm0,0"/><path class="w" d="m209.81,148.49c-.75,1.27-.32,3.44-.29,5.29.03,1.84-.34,3.35.69,3.6,1.03.25,3.47-.76,4.22-2.03.75-1.27-.18-2.81-.45-4.34-.28-1.53.09-3.04-.69-3.6-.79-.57-2.73-.19-3.48,1.09h0Zm0,0"/><path class="z" d="m156.89,228.1c2.08.47,3.83,3.24,5.67,5.21,1.84,1.96,3.76,3.12,2.93,4.57-.83,1.45-4.4,3.2-6.49,2.74-2.08-.47-2.67-3.15-3.93-5.07-1.26-1.92-3.18-3.07-2.93-4.57.25-1.5,2.67-3.34,4.75-2.88h0Zm0,0"/><path class="h" d="m156.89,228.1c2.08.47,3.83,3.24,5.67,5.21,1.84,1.96,3.76,3.12,2.93,4.57-.83,1.45-4.4,3.2-6.49,2.74-2.08-.47-2.67-3.15-3.93-5.07-1.26-1.92-3.18-3.07-2.93-4.57.25-1.5,2.67-3.34,4.75-2.88h0Zm0,0"/><path class="x" d="m156.67,228.44c2.03.46,3.74,3.14,5.54,5.05,1.8,1.9,3.67,3.02,2.88,4.42-.8,1.4-4.27,3.07-6.3,2.61-2.03-.46-2.62-3.05-3.85-4.91-1.23-1.86-3.11-2.98-2.88-4.42.23-1.44,2.58-3.21,4.61-2.76h0Zm0,0"/><path class="j" d="m156.67,228.44c2.03.46,3.74,3.14,5.54,5.05,1.8,1.9,3.67,3.02,2.88,4.42-.8,1.4-4.27,3.07-6.3,2.61-2.03-.46-2.62-3.05-3.85-4.91-1.23-1.86-3.11-2.98-2.88-4.42.23-1.44,2.58-3.21,4.61-2.76h0Zm0,0"/><path class="z" d="m220.09,189.79c-.78,1.31-.31,3.54-.27,5.43.04,1.89-.34,3.44.73,3.7,1.07.26,3.59-.76,4.37-2.07.78-1.31-.2-2.89-.49-4.46-.3-1.57.08-3.12-.73-3.7-.82-.59-2.83-.21-3.6,1.1h0Zm0,0"/><path class="p" d="m220.09,189.79c-.78,1.31-.31,3.54-.27,5.43.04,1.89-.34,3.44.73,3.7,1.07.26,3.59-.76,4.37-2.07.78-1.31-.2-2.89-.49-4.46-.3-1.57.08-3.12-.73-3.7-.82-.59-2.83-.21-3.6,1.1h0Zm0,0"/><path class="x" d="m220.35,189.83c-.75,1.27-.32,3.44-.29,5.29.03,1.84-.34,3.35.69,3.6,1.03.25,3.47-.76,4.22-2.03.75-1.27-.18-2.81-.45-4.34-.28-1.53.09-3.04-.69-3.6-.79-.57-2.73-.19-3.48,1.09h0Zm0,0"/><path class="w" d="m220.35,189.83c-.75,1.27-.32,3.44-.29,5.29.03,1.84-.34,3.35.69,3.6,1.03.25,3.47-.76,4.22-2.03.75-1.27-.18-2.81-.45-4.34-.28-1.53.09-3.04-.69-3.6-.79-.57-2.73-.19-3.48,1.09h0Zm0,0"/><path class="z" d="m194.76,252.44c-.78,1.31-.31,3.54-.27,5.43.04,1.89-.34,3.44.73,3.7,1.07.26,3.59-.76,4.37-2.07.78-1.31-.2-2.89-.49-4.46-.3-1.57.08-3.12-.73-3.7-.82-.59-2.83-.21-3.6,1.1h0Zm0,0"/><path class="p" d="m194.76,252.44c-.78,1.31-.31,3.54-.27,5.43.04,1.89-.34,3.44.73,3.7,1.07.26,3.59-.76,4.37-2.07.78-1.31-.2-2.89-.49-4.46-.3-1.57.08-3.12-.73-3.7-.82-.59-2.83-.21-3.6,1.1h0Zm0,0"/><path class="x" d="m195.03,252.49c-.75,1.27-.32,3.44-.29,5.29.03,1.84-.34,3.35.69,3.6,1.03.25,3.47-.76,4.22-2.03.75-1.27-.18-2.81-.45-4.34-.28-1.53.09-3.04-.69-3.6-.79-.57-2.73-.19-3.48,1.09h0Zm0,0"/><path class="w" d="m195.03,252.49c-.75,1.27-.32,3.44-.29,5.29.03,1.84-.34,3.35.69,3.6,1.03.25,3.47-.76,4.22-2.03.75-1.27-.18-2.81-.45-4.34-.28-1.53.09-3.04-.69-3.6-.79-.57-2.73-.19-3.48,1.09h0Zm0,0"/><path class="z" d="m226.51,227.55c-.78,1.31-.31,3.54-.27,5.43.04,1.89-.34,3.44.73,3.7,1.07.26,3.59-.76,4.37-2.07.78-1.31-.2-2.89-.49-4.46-.3-1.57.08-3.12-.73-3.7-.82-.59-2.83-.21-3.6,1.1h0Zm0,0"/><path class="p" d="m226.51,227.55c-.78,1.31-.31,3.54-.27,5.43.04,1.89-.34,3.44.73,3.7,1.07.26,3.59-.76,4.37-2.07.78-1.31-.2-2.89-.49-4.46-.3-1.57.08-3.12-.73-3.7-.82-.59-2.83-.21-3.6,1.1h0Zm0,0"/><path class="x" d="m226.77,227.6c-.75,1.27-.32,3.44-.29,5.29.03,1.84-.34,3.35.69,3.6,1.03.25,3.47-.76,4.22-2.03.75-1.27-.18-2.81-.45-4.34-.28-1.53.09-3.04-.69-3.6-.79-.57-2.73-.19-3.48,1.09h0Zm0,0"/><path class="w" d="m226.77,227.59c-.75,1.27-.32,3.44-.29,5.29.03,1.84-.34,3.35.69,3.6,1.03.25,3.47-.76,4.22-2.03.75-1.27-.18-2.81-.45-4.34-.28-1.53.09-3.04-.69-3.6-.79-.57-2.73-.19-3.48,1.09h0Zm0,0"/><path class="z" d="m172.01,225.98c-.78,1.31-.31,3.54-.27,5.43.04,1.89-.34,3.44.73,3.7,1.07.26,3.59-.76,4.37-2.07.78-1.31-.2-2.89-.49-4.46-.3-1.57.08-3.12-.73-3.7-.82-.59-2.83-.21-3.6,1.1h0Zm0,0"/><path class="p" d="m172.01,225.98c-.78,1.31-.31,3.54-.27,5.43.04,1.89-.34,3.44.73,3.7,1.07.26,3.59-.76,4.37-2.07.78-1.31-.2-2.89-.49-4.46-.3-1.57.08-3.12-.73-3.7-.82-.59-2.83-.21-3.6,1.1h0Zm0,0"/><path class="x" d="m172.27,226.03c-.75,1.27-.32,3.44-.29,5.29.03,1.84-.34,3.35.69,3.6,1.03.25,3.47-.76,4.22-2.03.75-1.27-.18-2.81-.45-4.34-.28-1.53.09-3.04-.69-3.6-.79-.57-2.73-.19-3.48,1.09h0Zm0,0"/><path class="w" d="m172.27,226.03c-.75,1.27-.32,3.44-.29,5.29.03,1.84-.34,3.35.69,3.6,1.03.25,3.47-.76,4.22-2.03.75-1.27-.18-2.81-.45-4.34-.28-1.53.09-3.04-.69-3.6-.79-.57-2.73-.19-3.48,1.09h0Zm0,0"/><path class="z" d="m203.87,229.91c-.78,1.31-.31,3.54-.27,5.43.04,1.89-.34,3.44.73,3.7,1.07.26,3.59-.76,4.37-2.07.78-1.31-.2-2.89-.49-4.46-.3-1.57.08-3.12-.73-3.7-.82-.59-2.83-.21-3.6,1.1h0Zm0,0"/><path class="p" d="m203.87,229.91c-.78,1.31-.31,3.54-.27,5.43.04,1.89-.34,3.44.73,3.7,1.07.26,3.59-.76,4.37-2.07.78-1.31-.2-2.89-.49-4.46-.3-1.57.08-3.12-.73-3.7-.82-.59-2.83-.21-3.6,1.1h0Zm0,0"/><path class="x" d="m204.14,229.95c-.75,1.27-.32,3.45-.29,5.29.03,1.84-.34,3.35.69,3.6,1.03.25,3.47-.76,4.22-2.03.75-1.27-.18-2.81-.45-4.34-.28-1.53.09-3.04-.69-3.6-.79-.57-2.73-.19-3.48,1.09h0Zm0,0"/><path class="w" d="m204.14,229.95c-.75,1.27-.32,3.45-.29,5.29.03,1.84-.34,3.35.69,3.6,1.03.25,3.47-.76,4.22-2.03.75-1.27-.18-2.81-.45-4.34-.28-1.53.09-3.04-.69-3.6-.79-.57-2.73-.19-3.48,1.09h0Zm0,0"/><path class="z" d="m238,240.51c-.78,1.31-.31,3.54-.27,5.43.04,1.89-.34,3.44.73,3.7,1.07.26,3.59-.76,4.37-2.07.78-1.3-.2-2.89-.49-4.46-.3-1.57.08-3.12-.73-3.7-.82-.59-2.83-.21-3.6,1.1h0Zm0,0"/><path class="p" d="m238,240.51c-.78,1.31-.31,3.54-.27,5.43.04,1.89-.34,3.44.73,3.7,1.07.26,3.59-.76,4.37-2.07.78-1.31-.2-2.89-.49-4.46-.3-1.57.08-3.12-.73-3.7-.82-.59-2.83-.21-3.6,1.1h0Zm0,0"/><path class="x" d="m238.27,240.55c-.75,1.27-.32,3.44-.29,5.29.03,1.84-.34,3.35.69,3.6,1.03.25,3.47-.76,4.22-2.03.75-1.27-.18-2.81-.46-4.34-.28-1.53.09-3.04-.69-3.6-.79-.57-2.73-.19-3.48,1.09h0Zm0,0"/><path class="w" d="m238.27,240.55c-.75,1.27-.32,3.44-.29,5.29.03,1.84-.34,3.35.69,3.6,1.03.25,3.47-.76,4.22-2.03.75-1.27-.18-2.81-.46-4.34-.28-1.53.09-3.04-.69-3.6-.79-.57-2.73-.19-3.48,1.09h0Zm0,0"/><path class="z" d="m227.47,265.02c-.78,1.31-.31,3.54-.27,5.43.04,1.89-.34,3.44.73,3.7,1.07.26,3.59-.76,4.37-2.07.78-1.31-.2-2.89-.49-4.46-.3-1.57.08-3.12-.73-3.7-.82-.59-2.83-.21-3.6,1.1h0Zm0,0"/><path class="p" d="m227.47,265.02c-.78,1.31-.31,3.54-.27,5.43.04,1.89-.34,3.44.73,3.7,1.07.26,3.59-.76,4.37-2.07.78-1.31-.2-2.89-.49-4.46-.3-1.57.08-3.12-.73-3.7-.82-.59-2.83-.21-3.6,1.1h0Zm0,0"/><path class="x" d="m227.74,265.07c-.75,1.27-.32,3.44-.29,5.29.03,1.84-.34,3.35.69,3.6,1.03.25,3.47-.76,4.22-2.03.75-1.27-.18-2.81-.46-4.34-.28-1.53.09-3.04-.69-3.6-.79-.57-2.73-.19-3.48,1.09h0Zm0,0"/><path class="w" d="m227.74,265.07c-.75,1.27-.32,3.44-.29,5.29.03,1.84-.34,3.35.69,3.6,1.03.25,3.47-.76,4.22-2.03.75-1.27-.18-2.81-.46-4.34-.28-1.53.09-3.04-.69-3.6-.79-.57-2.73-.19-3.48,1.09h0Zm0,0"/><path class="z" d="m179.63,262.31c-.78,1.31-.31,3.54-.27,5.43.04,1.89-.34,3.44.73,3.7,1.07.26,3.59-.76,4.37-2.07.78-1.31-.2-2.89-.49-4.46-.3-1.57.08-3.12-.73-3.7-.82-.59-2.83-.21-3.6,1.1h0Zm0,0"/><path class="p" d="m179.63,262.31c-.78,1.31-.31,3.54-.27,5.43.04,1.89-.34,3.44.73,3.7,1.07.26,3.59-.76,4.37-2.07.78-1.31-.2-2.89-.49-4.46-.3-1.57.08-3.12-.73-3.7-.82-.59-2.83-.21-3.6,1.1h0Zm0,0"/><path class="x" d="m179.89,262.35c-.75,1.27-.32,3.44-.29,5.29.03,1.84-.34,3.35.69,3.6,1.03.25,3.47-.76,4.22-2.03.75-1.27-.18-2.81-.45-4.34-.28-1.53.09-3.04-.69-3.6-.79-.57-2.73-.19-3.48,1.09h0Zm0,0"/><path class="w" d="m179.89,262.35c-.75,1.27-.32,3.44-.29,5.29.03,1.84-.34,3.35.69,3.6,1.03.25,3.47-.76,4.22-2.03.75-1.27-.18-2.81-.45-4.34-.28-1.53.09-3.04-.69-3.6-.79-.57-2.73-.19-3.48,1.09h0Zm0,0"/><path class="z" d="m218.94,165.03c-.78,1.31-.31,3.54-.27,5.43.04,1.89-.34,3.44.73,3.7,1.07.26,3.59-.76,4.37-2.07.78-1.31-.2-2.89-.49-4.46-.3-1.57.08-3.12-.73-3.7-.82-.59-2.83-.21-3.6,1.1h0Zm0,0"/><path class="p" d="m218.94,165.03c-.78,1.31-.31,3.54-.27,5.43.04,1.89-.34,3.44.73,3.7,1.07.26,3.59-.76,4.37-2.07.78-1.31-.2-2.89-.49-4.46-.3-1.57.08-3.12-.73-3.7-.82-.59-2.83-.21-3.6,1.1h0Zm0,0"/><path class="x" d="m219.21,165.08c-.75,1.27-.32,3.45-.29,5.29.03,1.84-.34,3.35.69,3.6,1.03.25,3.47-.76,4.22-2.03.75-1.27-.18-2.81-.45-4.34-.28-1.53.09-3.04-.69-3.6-.79-.57-2.73-.19-3.48,1.09h0Zm0,0"/><path class="w" d="m219.21,165.08c-.75,1.27-.32,3.45-.29,5.29.03,1.84-.34,3.35.69,3.6,1.03.25,3.47-.76,4.22-2.03.75-1.27-.18-2.81-.45-4.34-.28-1.53.09-3.04-.69-3.6-.79-.57-2.73-.19-3.48,1.09h0Zm0,0"/><path class="z" d="m232.27,132.06c-.78,1.31-.31,3.54-.27,5.43.04,1.89-.34,3.44.73,3.7,1.07.26,3.59-.76,4.37-2.07.78-1.31-.2-2.89-.49-4.46-.3-1.57.08-3.12-.73-3.7-.82-.59-2.83-.21-3.6,1.1h0Zm0,0"/><path class="p" d="m232.27,132.06c-.78,1.31-.31,3.54-.27,5.43.04,1.89-.34,3.44.73,3.7,1.07.26,3.59-.76,4.37-2.07.78-1.31-.2-2.89-.49-4.46-.3-1.57.08-3.12-.73-3.7-.82-.59-2.83-.21-3.6,1.1h0Zm0,0"/><path class="x" d="m232.54,132.1c-.75,1.27-.32,3.45-.29,5.29.03,1.84-.34,3.35.69,3.6,1.03.25,3.47-.76,4.22-2.03.75-1.27-.18-2.81-.45-4.34-.28-1.53.09-3.04-.69-3.6-.79-.57-2.73-.19-3.48,1.09h0Zm0,0"/><path class="w" d="m232.54,132.1c-.75,1.27-.32,3.45-.29,5.29.03,1.84-.34,3.35.69,3.6,1.03.25,3.47-.76,4.22-2.03.75-1.27-.18-2.81-.45-4.34-.28-1.53.09-3.04-.69-3.6-.79-.57-2.73-.19-3.48,1.09h0Zm0,0"/><path class="z" d="m181.42,107.67c-.78,1.31-.31,3.54-.27,5.43.04,1.89-.34,3.44.73,3.7,1.07.26,3.59-.76,4.37-2.07.78-1.31-.2-2.89-.49-4.46-.3-1.57.08-3.12-.73-3.7-.82-.59-2.83-.21-3.6,1.1h0Zm0,0"/><path class="p" d="m181.42,107.67c-.78,1.31-.31,3.54-.27,5.43.04,1.89-.34,3.44.73,3.7,1.07.26,3.59-.76,4.37-2.07.78-1.31-.2-2.89-.49-4.46-.3-1.57.08-3.12-.73-3.7-.82-.59-2.83-.21-3.6,1.1h0Zm0,0"/><path class="x" d="m181.68,107.71c-.75,1.27-.32,3.44-.29,5.29.03,1.84-.34,3.35.69,3.6,1.03.25,3.47-.76,4.22-2.03.75-1.27-.18-2.81-.45-4.34-.28-1.53.09-3.04-.69-3.6-.79-.57-2.73-.19-3.48,1.09h0Zm0,0"/><path class="w" d="m181.68,107.71c-.75,1.27-.32,3.44-.29,5.29.03,1.84-.34,3.35.69,3.6,1.03.25,3.47-.76,4.22-2.03.75-1.27-.18-2.81-.45-4.34-.28-1.53.09-3.04-.69-3.6-.79-.57-2.73-.19-3.48,1.09h0Zm0,0"/><path class="z" d="m199.24,69.97c-1.26-.76-3.45-.24-5.3-.16-1.85.08-3.36-.27-3.64.83-.28,1.1.67,3.66,1.93,4.42,1.26.76,2.83-.26,4.37-.6,1.54-.34,3.05.02,3.64-.83.59-.85.26-2.9-1-3.66h0Zm0,0"/><path class="e" d="m199.24,69.97c-1.26-.76-3.45-.24-5.3-.16-1.85.08-3.36-.27-3.64.83-.28,1.1.67,3.66,1.93,4.42,1.26.76,2.83-.26,4.37-.6,1.54-.34,3.05.02,3.64-.83.59-.85.26-2.9-1-3.66h0Zm0,0"/><path class="x" d="m199.19,70.25c-1.23-.74-3.36-.25-5.16-.18-1.8.07-3.27-.27-3.54.79-.27,1.06.67,3.53,1.89,4.28,1.23.74,2.75-.24,4.25-.56,1.5-.32,2.97.03,3.54-.79.57-.82.24-2.8-.99-3.54h0Zm0,0"/><path class="l" d="m199.19,70.25c-1.23-.74-3.36-.25-5.16-.18-1.8.07-3.27-.27-3.54.79-.27,1.06.67,3.53,1.89,4.28,1.23.74,2.75-.24,4.25-.56,1.5-.32,2.97.03,3.54-.79.57-.82.24-2.8-.99-3.54h0Zm0,0"/><path class="z" d="m207.92,89.61c-.78,1.31-.31,3.54-.27,5.43.04,1.89-.34,3.44.73,3.7,1.07.26,3.59-.76,4.37-2.07.78-1.31-.2-2.89-.49-4.46-.3-1.57.08-3.12-.73-3.7-.82-.59-2.83-.21-3.6,1.1h0Zm0,0"/><path class="p" d="m207.92,89.61c-.78,1.31-.31,3.54-.27,5.43.04,1.89-.34,3.44.73,3.7,1.07.26,3.59-.76,4.37-2.07.78-1.31-.2-2.89-.49-4.46-.3-1.57.08-3.12-.73-3.7-.82-.59-2.83-.21-3.6,1.1h0Zm0,0"/><path class="x" d="m208.19,89.65c-.75,1.27-.32,3.45-.29,5.29.03,1.84-.34,3.35.69,3.6,1.03.25,3.47-.76,4.22-2.03.75-1.27-.18-2.81-.45-4.34-.28-1.53.09-3.04-.69-3.6-.79-.57-2.73-.19-3.48,1.09h0Zm0,0"/><path class="w" d="m208.19,89.65c-.75,1.27-.32,3.45-.29,5.29.03,1.84-.34,3.35.69,3.6,1.03.25,3.47-.76,4.22-2.03.75-1.27-.18-2.81-.45-4.34-.28-1.53.09-3.04-.69-3.6-.79-.57-2.73-.19-3.48,1.09h0Zm0,0"/><path class="z" d="m156.94,155.96c-.78,1.31-.31,3.54-.27,5.43.04,1.89-.34,3.44.73,3.7,1.07.26,3.59-.76,4.37-2.07.78-1.31-.2-2.89-.49-4.46-.3-1.57.08-3.12-.73-3.7-.82-.59-2.83-.21-3.6,1.1h0Zm0,0"/><path class="p" d="m156.94,155.96c-.78,1.31-.31,3.54-.27,5.43.04,1.89-.34,3.44.73,3.7,1.07.26,3.59-.76,4.37-2.07.78-1.31-.2-2.89-.49-4.46-.3-1.57.08-3.12-.73-3.7-.82-.59-2.83-.21-3.6,1.1h0Zm0,0"/><path class="x" d="m157.21,156c-.75,1.27-.32,3.44-.29,5.29.03,1.84-.34,3.35.69,3.6,1.03.25,3.47-.76,4.22-2.03.75-1.27-.18-2.81-.45-4.34-.28-1.53.09-3.04-.69-3.6-.79-.57-2.73-.19-3.48,1.09h0Zm0,0"/><path class="w" d="m157.21,156c-.75,1.27-.32,3.44-.29,5.29.03,1.84-.34,3.35.69,3.6,1.03.25,3.47-.76,4.22-2.03.75-1.27-.18-2.81-.45-4.34-.28-1.53.09-3.04-.69-3.6-.79-.57-2.73-.19-3.48,1.09h0Zm0,0"/><path class="z" d="m197.55,155.11c-.78,1.31-.31,3.54-.27,5.43.04,1.89-.34,3.44.73,3.7,1.07.26,3.59-.76,4.37-2.07.78-1.31-.2-2.89-.49-4.46-.3-1.57.08-3.12-.73-3.7-.82-.59-2.83-.21-3.6,1.1h0Zm0,0"/><path class="p" d="m197.55,155.11c-.78,1.31-.31,3.54-.27,5.43.04,1.89-.34,3.44.73,3.7,1.07.26,3.59-.76,4.37-2.07.78-1.31-.2-2.89-.49-4.46-.3-1.57.08-3.12-.73-3.7-.82-.59-2.83-.21-3.6,1.1h0Zm0,0"/><path class="x" d="m197.82,155.15c-.75,1.27-.32,3.45-.29,5.29.03,1.84-.34,3.35.69,3.6,1.03.25,3.47-.76,4.22-2.03.75-1.27-.18-2.81-.45-4.34-.28-1.53.09-3.04-.69-3.6-.79-.57-2.73-.19-3.48,1.09h0Zm0,0"/><path class="w" d="m197.82,155.15c-.75,1.27-.32,3.45-.29,5.29.03,1.84-.34,3.35.69,3.6,1.03.25,3.47-.76,4.22-2.03.75-1.27-.18-2.81-.45-4.34-.28-1.53.09-3.04-.69-3.6-.79-.57-2.73-.19-3.48,1.09h0Zm0,0"/><path class="z" d="m175.41,170.31c-1.26-.76-3.45-.24-5.3-.16-1.85.08-3.36-.27-3.64.83-.28,1.1.67,3.66,1.93,4.42,1.26.76,2.83-.26,4.37-.6,1.54-.34,3.05.02,3.64-.83.59-.85.26-2.9-1-3.66h0Zm0,0"/><path class="e" d="m175.41,170.31c-1.26-.76-3.45-.24-5.3-.16-1.85.08-3.36-.27-3.64.83-.28,1.1.67,3.66,1.93,4.42,1.26.76,2.83-.26,4.37-.6,1.54-.34,3.05.02,3.64-.83.59-.85.26-2.9-1-3.66h0Zm0,0"/><path class="x" d="m175.36,170.59c-1.23-.74-3.36-.25-5.16-.18-1.8.07-3.27-.27-3.54.79-.27,1.06.67,3.53,1.89,4.28,1.23.74,2.75-.24,4.25-.56,1.5-.32,2.97.03,3.54-.79.57-.82.24-2.8-.98-3.54h0Zm0,0"/><path class="l" d="m175.36,170.59c-1.23-.74-3.36-.25-5.16-.18-1.8.07-3.27-.27-3.54.79-.27,1.06.67,3.53,1.89,4.28,1.23.74,2.75-.24,4.25-.56,1.5-.32,2.97.03,3.54-.79.57-.82.24-2.8-.98-3.54h0Zm0,0"/><path class="z" d="m147.31,195.4c-1.26-.76-3.45-.24-5.3-.16-1.85.08-3.36-.27-3.64.83-.28,1.1.67,3.66,1.93,4.42,1.26.76,2.83-.26,4.37-.6,1.54-.34,3.05.02,3.64-.83.59-.85.26-2.9-1-3.66h0Zm0,0"/><path class="e" d="m147.31,195.4c-1.26-.76-3.45-.24-5.3-.16-1.85.08-3.36-.27-3.64.83-.28,1.1.67,3.66,1.93,4.42,1.26.76,2.83-.26,4.37-.6,1.54-.34,3.05.02,3.64-.83.59-.85.26-2.9-1-3.66h0Zm0,0"/><path class="x" d="m147.26,195.67c-1.23-.74-3.36-.25-5.16-.18-1.8.07-3.27-.27-3.54.79-.27,1.06.67,3.53,1.89,4.28,1.23.74,2.75-.24,4.25-.56,1.5-.32,2.97.03,3.54-.79.57-.82.24-2.8-.98-3.54h0Zm0,0"/><path class="l" d="m147.26,195.67c-1.23-.74-3.36-.25-5.16-.18-1.8.07-3.27-.27-3.54.79-.27,1.06.67,3.53,1.89,4.28,1.23.74,2.75-.24,4.25-.56,1.5-.32,2.97.03,3.54-.79.57-.82.24-2.8-.98-3.54h0Zm0,0"/><path class="z" d="m138.29,219.25c-1.26-.76-3.45-.24-5.3-.16-1.85.08-3.36-.27-3.64.83-.28,1.1.67,3.66,1.93,4.42,1.26.76,2.83-.26,4.37-.6,1.54-.34,3.05.02,3.64-.83.59-.85.26-2.9-1-3.66h0Zm0,0"/><path class="e" d="m138.29,219.25c-1.26-.76-3.45-.24-5.3-.16-1.85.08-3.36-.27-3.64.83-.28,1.1.67,3.66,1.93,4.42,1.26.76,2.83-.26,4.37-.6,1.54-.34,3.05.02,3.64-.83.59-.85.26-2.9-1-3.66h0Zm0,0"/><path class="x" d="m138.24,219.52c-1.23-.74-3.36-.25-5.16-.18-1.8.07-3.27-.27-3.54.79-.27,1.06.67,3.53,1.89,4.28,1.23.74,2.75-.24,4.25-.56,1.5-.32,2.97.03,3.54-.79.57-.82.24-2.8-.98-3.54h0Zm0,0"/><path class="l" d="m138.24,219.52c-1.23-.74-3.36-.25-5.16-.18-1.8.07-3.27-.27-3.54.79-.27,1.06.67,3.53,1.89,4.28,1.23.74,2.75-.24,4.25-.56,1.5-.32,2.97.03,3.54-.79.57-.82.24-2.8-.98-3.54h0Zm0,0"/><path class="z" d="m156.07,248.81c-1.26-.76-3.45-.24-5.3-.16-1.85.08-3.36-.27-3.64.83-.28,1.1.67,3.66,1.93,4.42,1.26.76,2.83-.26,4.37-.6,1.54-.34,3.05.02,3.64-.83.59-.85.26-2.9-1-3.66h0Zm0,0"/><path class="e" d="m156.07,248.81c-1.26-.76-3.45-.24-5.3-.16-1.85.08-3.36-.27-3.64.83-.28,1.1.67,3.66,1.93,4.42,1.26.76,2.83-.26,4.37-.6,1.54-.34,3.05.02,3.64-.83.59-.85.26-2.9-1-3.66h0Zm0,0"/><path class="x" d="m156.02,249.09c-1.23-.74-3.36-.25-5.16-.18-1.8.07-3.27-.27-3.54.79-.27,1.06.67,3.53,1.89,4.28,1.23.74,2.75-.24,4.25-.56,1.5-.32,2.97.03,3.54-.79.57-.82.24-2.8-.99-3.54h0Zm0,0"/><path class="l" d="m156.02,249.09c-1.23-.74-3.36-.25-5.16-.18-1.8.07-3.27-.27-3.54.79-.27,1.06.67,3.53,1.89,4.28,1.23.74,2.75-.24,4.25-.56,1.5-.32,2.97.03,3.54-.79.57-.82.24-2.8-.99-3.54h0Zm0,0"/><path class="z" d="m204.22,275.31c-1.26-.76-3.45-.24-5.3-.16-1.85.08-3.36-.27-3.64.83-.28,1.1.67,3.66,1.93,4.42,1.26.76,2.83-.26,4.37-.6,1.54-.34,3.05.02,3.64-.83.59-.85.26-2.9-1-3.66h0Zm0,0"/><path class="e" d="m204.22,275.31c-1.26-.76-3.45-.24-5.3-.16-1.85.08-3.36-.27-3.64.83-.28,1.1.67,3.66,1.93,4.42,1.26.76,2.83-.26,4.37-.6,1.54-.34,3.05.02,3.64-.83.59-.85.26-2.9-1-3.66h0Zm0,0"/><path class="x" d="m204.17,275.58c-1.23-.74-3.36-.25-5.16-.18s-3.27-.27-3.54.79c-.27,1.06.67,3.53,1.89,4.28,1.23.74,2.75-.24,4.25-.56,1.5-.32,2.97.03,3.54-.79.57-.82.24-2.8-.99-3.54h0Zm0,0"/><path class="l" d="m204.17,275.58c-1.23-.74-3.36-.25-5.16-.18-1.8.07-3.27-.27-3.54.79-.27,1.06.67,3.53,1.89,4.28,1.23.74,2.75-.24,4.25-.56,1.5-.32,2.97.03,3.54-.79.57-.82.24-2.8-.99-3.54h0Zm0,0"/><path class="z" d="m166.23,265.07c-1.26-.76-3.45-.24-5.3-.16-1.85.08-3.36-.27-3.64.83-.28,1.1.67,3.66,1.93,4.42,1.26.76,2.83-.26,4.37-.6,1.54-.34,3.05.02,3.64-.83.59-.85.26-2.9-1-3.66h0Zm0,0"/><path class="e" d="m166.23,265.07c-1.26-.76-3.45-.24-5.3-.16-1.85.08-3.36-.27-3.64.83-.28,1.1.67,3.66,1.93,4.42,1.26.76,2.83-.26,4.37-.6,1.54-.34,3.05.02,3.64-.83.59-.85.26-2.9-1-3.66h0Zm0,0"/><path class="x" d="m166.18,265.34c-1.23-.74-3.36-.25-5.16-.18-1.8.07-3.27-.27-3.54.79-.27,1.06.67,3.53,1.89,4.28,1.23.74,2.76-.24,4.25-.56,1.5-.32,2.97.03,3.54-.79.57-.82.24-2.8-.98-3.54h0Zm0,0"/><path class="l" d="m166.18,265.34c-1.23-.74-3.36-.25-5.16-.18-1.8.07-3.27-.27-3.54.79-.27,1.06.67,3.53,1.89,4.28,1.23.74,2.75-.24,4.25-.56,1.5-.32,2.97.03,3.54-.79.57-.82.24-2.8-.98-3.54h0Zm0,0"/><path class="z" d="m264.42,126.37c-1.26-.76-3.45-.24-5.3-.16-1.85.08-3.36-.27-3.64.83-.28,1.1.67,3.66,1.93,4.42,1.26.76,2.83-.26,4.37-.6,1.54-.34,3.05.02,3.64-.83.59-.85.26-2.9-1-3.66h0Zm0,0"/><path class="e" d="m264.42,126.37c-1.26-.76-3.45-.24-5.3-.16-1.85.08-3.36-.27-3.64.83-.28,1.1.67,3.66,1.93,4.42,1.26.76,2.83-.26,4.37-.6,1.54-.34,3.05.02,3.64-.83.59-.85.26-2.9-1-3.66h0Zm0,0"/><path class="x" d="m264.37,126.64c-1.23-.74-3.36-.25-5.16-.18-1.8.07-3.27-.27-3.54.79-.27,1.06.67,3.53,1.89,4.28,1.23.74,2.75-.24,4.25-.56,1.5-.32,2.97.03,3.54-.79.57-.82.24-2.8-.99-3.54h0Zm0,0"/><path class="l" d="m264.37,126.64c-1.23-.74-3.36-.25-5.16-.18-1.8.07-3.27-.27-3.54.79-.27,1.06.67,3.53,1.89,4.28,1.23.74,2.75-.24,4.25-.56,1.5-.32,2.97.03,3.54-.79.57-.82.24-2.8-.99-3.54h0Zm0,0"/><path class="z" d="m264.96,95.9c-1.26-.76-3.45-.24-5.3-.16-1.85.08-3.36-.27-3.64.83-.28,1.1.67,3.66,1.93,4.42,1.26.76,2.83-.26,4.37-.6,1.54-.34,3.05.02,3.64-.83.59-.85.26-2.9-1-3.66h0Zm0,0"/><path class="e" d="m264.96,95.9c-1.26-.76-3.45-.24-5.3-.16-1.85.08-3.36-.27-3.64.83-.28,1.1.67,3.66,1.93,4.42,1.26.76,2.83-.26,4.37-.6,1.54-.34,3.05.02,3.64-.83.59-.85.26-2.9-1-3.66h0Zm0,0"/><path class="x" d="m264.91,96.17c-1.23-.74-3.36-.25-5.16-.18-1.8.07-3.27-.27-3.54.79-.27,1.06.67,3.53,1.89,4.28,1.23.74,2.75-.24,4.25-.56,1.5-.32,2.97.03,3.54-.79.57-.82.24-2.8-.99-3.54h0Zm0,0"/><path class="l" d="m264.91,96.17c-1.23-.74-3.36-.25-5.16-.18-1.8.07-3.27-.27-3.54.79-.27,1.06.67,3.53,1.89,4.28,1.23.74,2.75-.24,4.25-.56,1.5-.32,2.97.03,3.54-.79.57-.82.24-2.8-.99-3.54h0Zm0,0"/><path class="z" d="m263.99,81.44c-1.26-.76-3.45-.24-5.3-.16-1.85.08-3.36-.27-3.64.83-.28,1.1.67,3.66,1.93,4.42,1.26.76,2.83-.26,4.37-.6,1.54-.34,3.05.02,3.64-.83.59-.85.26-2.9-1-3.66h0Zm0,0"/><path class="e" d="m263.99,81.44c-1.26-.76-3.45-.24-5.3-.16-1.85.08-3.36-.27-3.64.83-.28,1.1.67,3.66,1.93,4.42,1.26.76,2.83-.26,4.37-.6,1.54-.34,3.05.02,3.64-.83.59-.85.26-2.9-1-3.66h0Zm0,0"/><path class="x" d="m263.94,81.71c-1.23-.74-3.36-.25-5.16-.18s-3.27-.27-3.54.79c-.27,1.06.67,3.53,1.89,4.28,1.23.74,2.75-.24,4.25-.56,1.5-.32,2.97.03,3.54-.79.57-.82.24-2.8-.99-3.54h0Zm0,0"/><path class="l" d="m263.94,81.71c-1.23-.74-3.36-.25-5.16-.18-1.8.07-3.27-.27-3.54.79-.27,1.06.67,3.53,1.89,4.28,1.23.74,2.75-.24,4.25-.56,1.5-.32,2.97.03,3.54-.79.57-.82.24-2.8-.99-3.54h0Zm0,0"/><path class="z" d="m188.43,144.25c-1.26-.76-3.45-.24-5.3-.16-1.85.08-3.36-.27-3.64.83-.28,1.1.67,3.66,1.93,4.42s2.83-.26,4.37-.6c1.54-.34,3.05.02,3.64-.83.59-.85.26-2.9-1-3.66h0Zm0,0"/><path class="e" d="m188.43,144.25c-1.26-.76-3.45-.24-5.3-.16-1.85.08-3.36-.27-3.64.83-.28,1.1.67,3.66,1.93,4.42s2.83-.26,4.37-.6c1.54-.34,3.05.02,3.64-.83.59-.85.26-2.9-1-3.66h0Zm0,0"/><path class="x" d="m188.38,144.52c-1.23-.74-3.36-.25-5.16-.18s-3.27-.27-3.54.79c-.27,1.06.67,3.53,1.89,4.28,1.23.74,2.75-.24,4.25-.56,1.5-.32,2.97.03,3.54-.79.57-.82.24-2.8-.99-3.54h0Zm0,0"/><path class="l" d="m188.38,144.52c-1.23-.74-3.36-.25-5.16-.18-1.8.07-3.27-.27-3.54.79-.27,1.06.67,3.53,1.89,4.28,1.23.74,2.75-.24,4.25-.56,1.5-.32,2.97.03,3.54-.79.57-.82.24-2.8-.99-3.54h0Zm0,0"/><path class="z" d="m256.28,163.36c-1.26-.76-3.45-.24-5.3-.16-1.85.08-3.36-.27-3.64.83-.28,1.1.67,3.66,1.93,4.42,1.26.76,2.83-.26,4.37-.6,1.54-.34,3.05.02,3.64-.83.59-.85.26-2.9-1-3.66h0Zm0,0"/><path class="e" d="m256.28,163.36c-1.26-.76-3.45-.24-5.3-.16-1.85.08-3.36-.27-3.64.83-.28,1.1.67,3.66,1.93,4.42,1.26.76,2.83-.26,4.37-.6,1.54-.34,3.05.02,3.64-.83.59-.85.26-2.9-1-3.66h0Zm0,0"/><path class="x" d="m256.23,163.63c-1.23-.74-3.36-.25-5.16-.18-1.8.07-3.27-.27-3.54.79-.27,1.06.67,3.53,1.89,4.28,1.23.74,2.75-.24,4.25-.56,1.5-.32,2.97.03,3.54-.79.57-.82.24-2.8-.99-3.54h0Zm0,0"/><path class="l" d="m256.23,163.63c-1.23-.74-3.36-.25-5.16-.18-1.8.07-3.27-.28-3.54.79-.27,1.06.67,3.53,1.89,4.28,1.23.74,2.75-.24,4.25-.56,1.5-.32,2.97.03,3.54-.79.57-.82.24-2.8-.99-3.54h0Zm0,0"/><path class="z" d="m173.25,141.95c-1.26-.76-3.45-.24-5.3-.16-1.85.08-3.36-.27-3.64.83-.28,1.1.67,3.66,1.93,4.42,1.26.76,2.83-.26,4.37-.6,1.54-.34,3.05.02,3.64-.83.59-.85.26-2.9-1-3.66h0Zm0,0"/><path class="e" d="m173.25,141.95c-1.26-.76-3.45-.24-5.3-.16-1.85.08-3.36-.27-3.64.83-.28,1.1.67,3.66,1.93,4.42,1.26.76,2.83-.26,4.37-.6,1.54-.34,3.05.02,3.64-.83.59-.85.26-2.9-1-3.66h0Zm0,0"/><path class="x" d="m173.2,142.22c-1.23-.74-3.36-.25-5.16-.18-1.8.07-3.27-.27-3.54.79-.27,1.06.67,3.53,1.89,4.28,1.23.74,2.75-.24,4.25-.56,1.5-.32,2.97.03,3.54-.79.57-.82.24-2.8-.98-3.54h0Zm0,0"/><path class="l" d="m173.2,142.22c-1.23-.74-3.36-.25-5.16-.18-1.8.07-3.27-.27-3.54.79-.27,1.06.67,3.53,1.89,4.28,1.23.74,2.75-.24,4.25-.56,1.5-.32,2.97.03,3.54-.79.57-.82.24-2.8-.98-3.54h0Zm0,0"/><path class="z" d="m249.73,112.12c-1.26-.76-3.45-.24-5.3-.16-1.85.08-3.36-.27-3.64.83-.28,1.1.67,3.66,1.93,4.42,1.26.76,2.83-.26,4.37-.6,1.54-.34,3.05.02,3.64-.83.59-.85.26-2.9-1-3.66h0Zm0,0"/><path class="e" d="m249.73,112.12c-1.26-.76-3.45-.24-5.3-.16-1.85.08-3.36-.27-3.64.83-.28,1.1.67,3.66,1.93,4.42,1.26.76,2.83-.26,4.37-.6,1.54-.34,3.05.02,3.64-.83.59-.85.26-2.9-1-3.66h0Zm0,0"/><path class="x" d="m249.68,112.39c-1.23-.74-3.36-.25-5.16-.18-1.8.07-3.27-.27-3.54.79-.27,1.06.67,3.53,1.89,4.28,1.23.74,2.75-.24,4.25-.56,1.5-.32,2.97.03,3.54-.79.57-.82.24-2.8-.98-3.54h0Zm0,0"/><path class="l" d="m249.68,112.39c-1.23-.74-3.36-.25-5.16-.18-1.8.07-3.27-.27-3.54.79-.27,1.06.67,3.53,1.89,4.28,1.23.74,2.75-.24,4.25-.56,1.5-.32,2.97.03,3.54-.79.57-.82.24-2.8-.98-3.54h0Zm0,0"/></svg>