<?xml version="1.0" encoding="UTF-8"?><svg id="a" xmlns="http://www.w3.org/2000/svg" width="412.01" height="412.01" viewBox="0 0 412.01 412.01"><defs><style>.b{fill:#ffa05f;}.c{fill:#ff7100;}.d{fill:#97cf43;}.e{fill:#30c03f;}.f{fill:#5a4530;}.g{fill:#732f29;}.h{fill:#010101;isolation:isolate;opacity:.2;}</style></defs><rect class="g" x=".03" y=".03" width="411.95" height="411.95"/><polygon class="h" points="252.77 139.72 612.03 462.7 479.57 594.83 142.08 280.12 252.77 139.72"/><path class="c" d="m107.11,208.3c0,49,39.72,88.72,88.72,88.72s88.72-39.72,88.72-88.72-39.72-88.72-88.72-88.72-88.72,39.72-88.72,88.72Z"/><path class="e" d="m195.46,148.13c-3.89-8.39,3.66-20.14,16.85-26.26,13.19-6.11,27.04-4.27,30.93,4.12l-47.78,22.14Z"/><path class="d" d="m195.46,148.13c3.89,8.39,17.73,10.23,30.93,4.12,13.19-6.11,20.74-17.87,16.85-26.26l-47.78,22.14Z"/><path class="b" d="m165,148.37c0,2.45,1.99,4.44,4.44,4.44s4.44-1.99,4.44-4.44-1.99-4.44-4.44-4.44-4.44,1.99-4.44,4.44Z"/><path class="b" d="m143.18,165.88c0,2.45,1.99,4.44,4.44,4.44s4.44-1.99,4.44-4.44-1.99-4.44-4.44-4.44-4.44,1.99-4.44,4.44Z"/><path class="b" d="m235.09,159.75c0,2.45,1.99,4.45,4.44,4.45,2.45,0,4.45-1.99,4.45-4.44h0c0-2.46-1.99-4.46-4.44-4.46-2.45,0-4.45,1.99-4.45,4.44h0Z"/><path class="b" d="m256.91,179.88c0,2.45,1.99,4.45,4.44,4.45,2.45,0,4.45-1.99,4.45-4.44h0c0-2.46-1.99-4.46-4.44-4.46-2.45,0-4.45,1.99-4.45,4.44h0Z"/><path class="b" d="m239.54,188.64c0,2.45,1.99,4.45,4.44,4.45,2.45,0,4.45-1.99,4.45-4.44h0c0-2.46-1.99-4.46-4.44-4.46-2.45,0-4.45,1.99-4.45,4.44h0Z"/><path class="b" d="m214.08,172.07c0,2.45,1.99,4.45,4.44,4.45,2.45,0,4.45-1.99,4.45-4.44h0c0-2.46-1.99-4.46-4.44-4.46-2.45,0-4.45,1.99-4.45,4.44h0Z"/><path class="b" d="m260.41,213.15c0,2.45,1.99,4.45,4.44,4.45s4.45-1.99,4.45-4.44h0c0-2.46-1.99-4.46-4.44-4.46s-4.45,1.99-4.45,4.44h0Z"/><path class="f" d="m194.56,149.09s-5.17-32.55-1.55-36.16,6.37-2.29,7.75-1.03c2.84,2.58-3.1,29.96-3.1,33.58s-1.55,7.23-3.1,3.62h0Z"/><path class="f" d="m186.36,148.59s6.24-.99,10.18,0c3.94.99,4.27,1.31,4.92,2.3.66.99-4.6.66-4.6.66,0,0-3.61-.99-5.91-.99h-3.94s-2.63-.98-.66-1.97Z"/></svg>