<?xml version="1.0" encoding="UTF-8"?><svg id="a" xmlns="http://www.w3.org/2000/svg" width="412.01" height="412.01" viewBox="0 0 412.01 412.01"><defs><style>.b{opacity:.1;}.c{fill:#ed5564;}.d{fill:#e5e8ec;}.e{fill:#685642;}.f{fill:#a58763;}.g{fill:#cbd0d8;}.h{fill:#732f29;}.i{fill:#010101;isolation:isolate;opacity:.2;}</style></defs><rect class="h" x=".03" y=".03" width="411.95" height="411.95"/><polygon class="i" points="301.92 123.79 604.41 413.31 430.31 586.97 110.09 288.37 301.92 123.79"/><path class="d" d="m262.08,319.21l-152-30.99,9.86-20.61s1.21-33.68,10.06-77.1c8.86-43.43,20.93-74.89,20.93-74.89l-1.01-22.82,152,30.99-9.86,20.6s-1.21,33.68-10.06,77.11c-8.85,43.42-20.93,74.89-20.93,74.89l1,22.82Z"/><path class="c" d="m119.94,267.61s1.21-33.68,10.06-77.1c8.86-43.43,20.93-74.89,20.93-74.89l141.13,28.78s-1.21,33.68-10.06,77.11c-8.85,43.42-20.93,74.89-20.93,74.89l-141.13-28.78Z"/><path class="g" d="m187.19,298.28c-3-.61-5.93,1.33-6.54,4.32l10.85,2.21c.61-3-1.32-5.93-4.32-6.54Z"/><path class="g" d="m165.48,293.86c-3-.61-5.93,1.33-6.54,4.32l10.86,2.21c.61-3-1.33-5.93-4.32-6.54Z"/><path class="g" d="m143.76,289.43c-3-.61-5.92,1.33-6.53,4.33l10.85,2.21c.61-3-1.33-5.93-4.32-6.54Z"/><path class="g" d="m122.05,285c-3-.61-5.93,1.33-6.54,4.32l10.85,2.21c.61-3-1.32-5.93-4.32-6.54Z"/><path class="g" d="m181.39,104.86c3,.61,5.93-1.33,6.54-4.32l-10.85-2.21c-.61,2.99,1.32,5.92,4.32,6.53Z"/><path class="g" d="m203.11,109.29c3,.61,5.93-1.33,6.54-4.32l-10.86-2.21c-.61,2.99,1.33,5.92,4.33,6.53Z"/><path class="g" d="m224.83,113.72c3,.61,5.92-1.33,6.53-4.32l-10.85-2.21c-.61,2.99,1.33,5.92,4.33,6.53Z"/><path class="g" d="m246.53,118.14c3,.61,5.93-1.33,6.54-4.32l-10.85-2.21c-.61,2.99,1.32,5.92,4.32,6.53Z"/><path class="g" d="m268.25,122.57c3,.61,5.93-1.33,6.54-4.32l-10.86-2.21c-.61,2.99,1.33,5.92,4.33,6.53Z"/><path class="g" d="m289.97,127c3,.61,5.92-1.33,6.53-4.32l-10.85-2.21c-.61,2.99,1.33,5.92,4.32,6.53Z"/><path class="g" d="m159.68,100.44c3,.61,5.92-1.33,6.53-4.32l-10.85-2.21c-.61,2.99,1.33,5.92,4.32,6.53Z"/><g class="b"><path d="m140.87,192.72c8.86-43.43,20.92-74.9,20.92-74.9l-1-22.81-10.86-2.21,1.01,22.82s-12.07,31.46-20.93,74.89c-8.85,43.42-10.06,77.1-10.06,77.1l-9.86,20.61,10.86,2.21,9.85-20.61s1.22-33.68,10.07-77.1Z"/></g><path class="e" d="m201.15,183.59c-.23.38-.48.75-.75,1.11-1.94,2.65-4.51,4.46-7.13,5.31l-3.31-2.43,5.82-7.93,5.36,3.94Z"/><path class="f" d="m190.35,198.4c-.27.37-.55.71-.84,1.05l-5.36-3.94,5.82-7.93,3.31,2.43c-.02,2.75-.99,5.74-2.93,8.39Z"/><path class="f" d="m201.15,183.59l-5.36-3.94,6.09-8.29.21-.14c1.94,3.33,1.65,8.16-.93,12.37Z"/><path class="e" d="m184.15,195.52l5.36,3.94c-3.24,3.72-7.76,5.45-11.52,4.59l.07-.24,6.09-8.29h0Z"/><path class="e" d="m202.08,171.22l-.21.14-6.09,8.29-5.05-3.71,6.09-8.29-.15-.21c1.18.21,2.29.67,3.27,1.4.88.65,1.59,1.46,2.13,2.38Z"/><path class="f" d="m178.06,203.81l-.07.24c-1.04-.24-2.03-.67-2.91-1.32-.98-.72-1.76-1.65-2.31-2.71l.25.08,6.09-8.29,5.05,3.71-6.09,8.29h0Z"/><rect class="e" x="179.62" y="186.57" width="9.84" height="6.26" transform="translate(-77.59 226.17) rotate(-53.71)"/><rect class="f" x="185.44" y="178.64" width="9.84" height="6.26" transform="translate(-68.82 227.62) rotate(-53.71)"/><path class="e" d="m179.1,191.81l-6.09,8.29-.25-.08c-1.74-3.31-1.39-7.97,1.11-12.04l5.23,3.84Z"/><path class="f" d="m184.92,183.88l-5.82,7.93-5.23-3.84c.23-.38.48-.75.75-1.11,1.94-2.65,4.51-4.46,7.13-5.31l3.17,2.33Z"/><path class="e" d="m190.75,175.95l-5.82,7.93-3.17-2.33c.02-2.75.99-5.74,2.93-8.39.27-.37.55-.71.84-1.05l5.23,3.84h0Z"/><path class="f" d="m196.83,167.66l-6.09,8.29-5.23-3.84c3.14-3.6,7.48-5.33,11.16-4.67l.15.21Z"/><path class="e" d="m207.16,220.55c.07.44.12.88.16,1.33.25,3.27-.52,6.32-1.96,8.67l-4.09.31-.74-9.81,6.63-.5Z"/><path class="f" d="m208.59,238.83c.03.45.05.9.05,1.34l-6.63.5-.74-9.81,4.09-.31c1.77,2.11,2.99,5,3.23,8.28Z"/><path class="f" d="m207.16,220.55l-6.63.5-.77-10.26.06-.24c3.64,1.27,6.57,5.12,7.34,10Z"/><path class="e" d="m202.01,240.67l6.63-.5c-.04,4.93-2.35,9.19-5.76,10.99l-.1-.23-.77-10.26h0Z"/><path class="e" d="m199.82,210.56l-.06.24.77,10.26-6.24.47-.77-10.26-.26-.06c1.03-.6,2.18-.98,3.39-1.07,1.09-.08,2.16.07,3.17.42Z"/><path class="f" d="m202.78,250.93l.1.23c-.95.5-1.98.81-3.07.89-1.22.09-2.4-.11-3.52-.55l.24-.1-.77-10.26,6.24-.47.77,10.26h0Z"/><rect class="e" x="195.38" y="231.08" width="6.26" height="9.84" transform="translate(-17.17 15.58) rotate(-4.31)"/><rect class="f" x="194.65" y="221.27" width="6.26" height="9.84" transform="translate(-16.44 15.5) rotate(-4.31)"/><path class="e" d="m195.76,241.14l.77,10.26-.24.1c-3.48-1.38-6.24-5.15-6.99-9.87l6.47-.49Z"/><path class="f" d="m195.02,231.33l.74,9.81-6.47.49c-.07-.44-.12-.88-.16-1.33-.25-3.27.52-6.32,1.96-8.67l3.92-.3Z"/><path class="e" d="m194.28,221.52l.74,9.81-3.92.3c-1.77-2.11-2.99-5-3.23-8.28-.03-.45-.05-.9-.05-1.34l6.47-.49h0Z"/><path class="f" d="m193.51,211.27l.77,10.26-6.47.49c.04-4.78,2.2-8.92,5.44-10.81l.26.06Z"/><path class="e" d="m240.8,187.76c-.06.44-.14.88-.24,1.32-.73,3.2-2.36,5.89-4.42,7.71l-4-.91,2.18-9.59,6.49,1.47Z"/><path class="f" d="m236.79,205.65c-.1.44-.22.87-.35,1.3l-6.49-1.47,2.18-9.59,4,.91c1.08,2.53,1.38,5.66.66,8.86Z"/><path class="f" d="m240.8,187.76l-6.49-1.47,2.28-10.03.13-.21c3.11,2.28,4.77,6.83,4.07,11.72Z"/><path class="e" d="m229.95,205.47l6.49,1.47c-1.49,4.71-4.95,8.09-8.74,8.8l-.03-.25,2.28-10.03h0Z"/><path class="e" d="m236.73,176.05l-.13.21-2.28,10.03-6.1-1.39,2.28-10.03-.23-.14c1.17-.27,2.37-.3,3.56-.02,1.07.24,2.04.7,2.9,1.34Z"/><path class="f" d="m227.67,215.5l.03.25c-1.05.2-2.13.19-3.2-.05-1.19-.27-2.27-.81-3.2-1.56l.26-.02,2.28-10.03,6.1,1.39-2.28,10.03h0Z"/><rect class="e" x="223.07" y="196.85" width="9.84" height="6.26" transform="translate(-17.55 377.98) rotate(-77.19)"/><rect class="f" x="225.25" y="187.26" width="9.84" height="6.26" transform="translate(-6.5 372.64) rotate(-77.19)"/><path class="e" d="m223.85,204.09l-2.28,10.03-.26.02c-2.92-2.35-4.45-6.76-3.78-11.49l6.32,1.44Z"/><path class="f" d="m226.03,194.49l-2.18,9.59-6.32-1.44c.06-.44.14-.88.24-1.32.73-3.2,2.36-5.89,4.42-7.71l3.84.87Z"/><path class="e" d="m228.21,184.9l-2.18,9.59-3.84-.87c-1.08-2.53-1.38-5.66-.66-8.86.1-.44.22-.87.35-1.3l6.32,1.44h0Z"/><path class="f" d="m230.49,174.87l-2.28,10.03-6.32-1.44c1.44-4.55,4.73-7.87,8.38-8.73l.23.14Z"/></svg>