<?xml version="1.0" encoding="UTF-8"?><svg id="a" xmlns="http://www.w3.org/2000/svg" width="412.01" height="412.01" viewBox="0 0 412.01 412.01"><defs><style>.b{fill:none;}.c{fill:#f37263;}.d{fill:#ffd367;}.e{fill:#84a93f;}.f{fill:#b8784e;}.g{fill:#deb980;}.h{fill:#732f29;}.i{fill:#010101;opacity:.2;}</style></defs><rect class="h" x=".03" y=".03" width="411.95" height="411.95"/><rect class="i" x="125.08" y="223.21" width="517.65" height="296.64" transform="translate(356.52 -162.02) rotate(43)"/><path class="g" d="m343.32,206c0,75.83-61.48,137.31-137.31,137.31s-137.31-61.47-137.31-137.31,61.48-137.31,137.31-137.31,137.31,61.48,137.31,137.31Z"/><path class="f" d="m206.01,354.97c-82.14,0-148.96-66.82-148.96-148.96S123.87,57.04,206.01,57.04s148.96,66.82,148.96,148.96-66.82,148.96-148.96,148.96Zm0-274.62c-69.29,0-125.66,56.37-125.66,125.66s56.37,125.66,125.66,125.66,125.66-56.37,125.66-125.66-56.37-125.66-125.66-125.66Z"/><path class="b" d="m301.94,148.3v.35s0,0,.01.02v-.36s0,0,0,0h0Z"/><path class="b" d="m206.01,68.69c-75.83,0-137.31,61.48-137.31,137.31s61.48,137.31,137.31,137.31,137.31-61.47,137.31-137.31-61.48-137.31-137.31-137.31Zm115.75,109.62c0,1.58-.81,2.94-2.22,3.74-.98.56-2.23.83-3.82.83-4.59,0-13.53-5.8-13.53-10.75,0-.76.29-4.57,6.05-4.57,4.59,0,13.53,5.8,13.53,10.75Zm-82.77-69.6c3.82,0,6.13,1.64,7.4,3.01,1.6,1.73,2.48,4.07,2.48,6.58,0,4.91-3.5,10.12-10,10.12-3.82,0-6.13-1.64-7.4-3.01-1.6-1.73-2.48-4.07-2.48-6.58,0-4.91,3.51-10.12,10-10.12Zm-22.39,68.87c1.26-1.25,3.55-2.75,7.3-2.75,2.3,0,4.21.63,5.74,1.63,1.56-3.62,4.61-6.4,8.37-7.69-.08-.48-.15-.97-.15-1.45,0-2.31.91-4.43,2.56-5.98,1.22-1.14,3.42-2.5,7.01-2.5,6.77,0,10.43,4.82,10.43,9.36,0,2.31-.91,4.43-2.56,5.98-.21.19-.48.4-.75.59,1.28,2.12,2.06,4.58,2.06,7.24,0,7.77-6.3,14.07-14.07,14.07-4.5,0-8.46-2.15-11.03-5.44-.03.03-.05.07-.09.11-1.26,1.26-3.55,2.75-7.3,2.75-6.55,0-10.09-4.96-10.09-9.62,0-2.42.91-4.65,2.56-6.3Zm-11.89-91.04h2.98l.19,2.57c0,4.43-14.57,7-15.25,7h-2.98l-.19-2.57c0-4.43,14.57-7,15.25-7Zm-15.9,25.64c0-2.04.82-3.84,2.31-5.09,1.48-1.24,3.5-1.87,6.01-1.87,6.43,0,11.42,5.81,11.42,10.81,0,1-.2,1.95-.58,2.8,1.29,2.03,2.06,4.42,2.06,7,0,7.25-5.88,13.13-13.12,13.13s-13.13-5.88-13.13-13.13c0-4.45,2.23-8.37,5.61-10.74-.34-.97-.58-1.95-.58-2.91Zm-4.93,58.75c-7.47-3.72-10.51-12.78-6.79-20.25,3.72-7.47,12.79-10.51,20.26-6.79,7.47,3.72,10.5,12.78,6.79,20.25-3.72,7.47-12.78,10.5-20.25,6.79Zm9.68,44.82c0,1.38-.55,2.28-1.01,2.8-.74.83-1.82,1.29-3.02,1.29-5.66,0-12.58-9.08-12.58-13.56,0-1.38.55-2.28,1.01-2.8.74-.83,1.82-1.29,3.02-1.29,5.66,0,12.58,9.08,12.58,13.56Zm-53.02-116.67c5.69-11.43,19.58-16.09,31.02-10.39,11.43,5.69,16.09,19.58,10.39,31.01-5.69,11.44-19.58,16.09-31.02,10.4-11.44-5.69-16.09-19.58-10.39-31.02Zm20.25,60.3c-7.38,0-9.6-15.78-9.6-15.94v-2.98l2.36-.07c7.38,0,9.6,15.78,9.6,15.94v2.98l-2.35.07Zm1.87,60.73c0,1.79-.58,3.33-1.67,4.46-.82.85-2.34,1.86-4.91,1.86-5.48,0-10.84-7.22-10.84-12.61,0-1.79.58-3.33,1.67-4.46.82-.85,2.34-1.86,4.91-1.86,5.48,0,10.83,7.22,10.83,12.61Zm-38.84-95.56c1.27-1.03,2.99-1.55,5.13-1.55,6.31,0,12.48,6.82,12.48,11.91,0,1.83-.74,3.43-2.08,4.52-1.27,1.03-2.99,1.55-5.13,1.55-6.31,0-12.48-6.82-12.48-11.91,0-1.83.74-3.43,2.08-4.52Zm-21.69,43.57c3.47-6.97,11.93-9.8,18.9-6.33,6.97,3.47,9.81,11.93,6.34,18.9-3.47,6.97-11.93,9.8-18.9,6.33-6.97-3.47-9.8-11.93-6.34-18.9Zm-4.3,42.91c0-4.51,5.6-8.77,11.53-8.77,2.36,0,4.18.4,5.58,1.22,1.71,1.01,2.69,2.65,2.69,4.52,0,4.51-5.6,8.78-11.53,8.78-2.36,0-4.18-.4-5.58-1.22-1.71-1.01-2.69-2.65-2.69-4.52Zm11.03,36.67c-.9,0-1.58-.07-2.14-.23-1.93-.53-2.61-2.06-2.61-3.21,0-5.06,14.27-7.34,14.42-7.34.89,0,1.58.07,2.14.23,1.92.53,2.61,2.06,2.61,3.21,0,5.06-14.27,7.34-14.42,7.34Zm14.88,44.42c-7.63,0-13.81-6.18-13.81-13.81s6.18-13.81,13.81-13.81,13.81,6.18,13.81,13.81-6.18,13.81-13.81,13.81Zm.39-96.68c0-7.41,6.01-13.42,13.42-13.42s13.42,6.01,13.42,13.42-6.01,13.42-13.42,13.42-13.42-6.01-13.42-13.42Zm22.7,82.21c-7.12-3.55-10.02-12.19-6.47-19.32,3.55-7.12,12.2-10.18,19.32-6.63,1.27.63,2.35,1.03,3.33,2.22h.07s-.04.16-.06.17c4.56,4.24,6.05,11.15,3.13,17.01-3.55,7.12-12.19,10.1-19.32,6.56Zm13.51,2.46c0-2.51,1.76-3.83,3.5-3.83,5.56,0,10.55,11.31,10.55,14.71,0,.81-.18,1.53-.54,2.13-.63,1.06-1.73,1.69-2.97,1.69-5.56,0-10.56-11.31-10.56-14.71Zm17.85,45.39c-2.02,0-3.66-.46-4.86-1.38-1.35-1.03-2.09-2.56-2.09-4.32,0-5.2,6.69-11.58,12.13-11.58,2.02,0,3.66.46,4.86,1.38,1.35,1.03,2.09,2.56,2.09,4.32,0,5.2-6.69,11.58-12.13,11.58Zm19.59-45.94c-11.86,0-21.47-9.61-21.47-21.47s9.61-21.47,21.47-21.47,21.47,9.61,21.47,21.47-9.61,21.47-21.47,21.47Zm41.78,44.74c-3.65,7.33-12.55,10.31-19.88,6.67-7.33-3.65-10.31-12.55-6.66-19.88,1.23-2.48,3.09-4.41,5.26-5.8-4.77-1.66-8.18-6.96-8.18-11.69,0-2.08.66-3.88,1.92-5.21.96-1.03,2.75-2.25,5.8-2.25,6.29,0,11.17,6.59,11.17,12.26,0,1.77-.51,3.32-1.42,4.56,1.81.16,3.61.62,5.33,1.47,7.33,3.65,10.31,12.55,6.66,19.88Zm-.9-43.97c0-4.62,9.81-11.31,13.96-11.31,1.09,0,1.99.23,2.73.71,1.09.7,1.71,1.85,1.71,3.15,0,4.62-9.8,11.31-13.96,11.31-1.09,0-1.99-.23-2.73-.71-1.09-.7-1.71-1.85-1.71-3.15Zm14.95,46.96c-6.11,0-11.06-4.95-11.06-11.06s4.95-11.06,11.06-11.06,11.06,4.95,11.06,11.06-4.95,11.06-11.06,11.06Zm9.3-80.17c-5.68,11.4-19.52,16.04-30.91,10.36-11.39-5.67-16.03-19.51-10.36-30.91,5.67-11.4,19.52-16.04,30.91-10.36,11.4,5.68,16.03,19.52,10.36,30.91Zm-4.8-36.69c-2.66,0-4.86-.55-6.55-1.64-1.89-1.22-2.98-3.08-2.98-5.09,0-3.49,3.4-7.02,9.89-7.02,2.65,0,4.86.55,6.55,1.64,1.9,1.22,2.98,3.08,2.98,5.09,0,3.49-3.4,7.02-9.89,7.02Zm9.26-75.7c.5-1.01,1.11-1.92,1.79-2.76-.28-1.38-.43-2.81-.43-4.27,0-11.9,9.64-21.54,21.54-21.54s21.55,9.64,21.55,21.54c0,7.25-3.6,13.65-9.09,17.56,1.93,1.81,3.31,3.75,3.31,5.34,0,1.23-.61,2.35-1.64,3.01-.68.43-1.5.65-2.47.65-2,0-5.55-1.76-8.56-4.05-4.24,6.05-12.34,8.3-19.17,4.9-7.52-3.74-10.58-12.87-6.83-20.39Zm24.83,86.91l-.05,5.98h0c-3.51,0-6.66-4.03-10.42-8.27-.7-.78-1.65-2.84-1.97-3.09,0,0,.5-.6,1.31-.6h-.02l.05-5.98h0c3.51,0,6.66,3.84,10.42,8.08.69.78,1.65,2.93,1.97,3.18,0,0-.5.69-1.31.69h.02Zm-7.12-51.96v-5.96s.08.07.08.07c.48-.18,2.45-1.21,3.49-1.95,3.18-2.3,4.8-4.9,10.78-4.9v5.96s.25-.07.26-.07c-.48.18-2.62,1.21-3.66,1.95-3.19,2.3-6.16,4.9-10.94,4.9Zm9.19,95.17l-.1,2.73c-2.31,0-4.18-1.51-5.76-3.57-5.39-2-9.25-7.15-9.25-13.23,0-7.82,6.34-14.16,14.16-14.16s14.16,6.34,14.16,14.16-5.85,13.58-13.22,14.07Zm25.31-43.21c-5.87-2.92-8.26-10.05-5.34-15.93,2.92-5.87,10.05-8.26,15.93-5.34,5.87,2.92,8.26,10.06,5.34,15.93-2.92,5.87-10.06,8.26-15.93,5.34Z"/><path class="c" d="m183.76,125.83c0,7.25,5.88,13.13,13.13,13.13s13.12-5.88,13.12-13.13c0-2.58-.77-4.97-2.06-7-.39.88-.97,1.66-1.72,2.29-1.48,1.24-3.5,1.87-6.01,1.87-5.2,0-9.4-3.8-10.84-7.9-3.39,2.37-5.61,6.29-5.61,10.74Z"/><path class="c" d="m233.99,184.45c0,2.37-.88,4.56-2.47,6.19,2.57,3.29,6.53,5.44,11.03,5.44,7.77,0,14.07-6.3,14.07-14.07,0-2.66-.78-5.12-2.06-7.24-1.3.97-3.28,1.91-6.26,1.91-6.06,0-9.6-3.86-10.28-7.91-3.76,1.29-6.81,4.07-8.37,7.69,2.83,1.84,4.35,4.96,4.35,7.99Z"/><path class="c" d="m150.97,195.44c0-7.41-6.01-13.42-13.42-13.42s-13.42,6.01-13.42,13.42,6.01,13.42,13.42,13.42,13.42-6.01,13.42-13.42Z"/><path class="c" d="m219.25,258.08c0-11.86-9.61-21.47-21.47-21.47s-21.47,9.61-21.47,21.47,9.61,21.47,21.47,21.47,21.47-9.61,21.47-21.47Zm-19.4.06c0-.98.27-1.82.79-2.51.69-.92,1.77-1.44,2.97-1.44,5.61,0,11.77,9.85,11.77,14.03,0,.97-.27,1.82-.79,2.51-.69.91-1.77,1.44-2.97,1.44-5.61,0-11.77-9.85-11.77-14.03Z"/><path class="c" d="m293.34,236.61c-7.82,0-14.16,6.34-14.16,14.16,0,6.09,3.86,11.23,9.25,13.23-1.43-1.86-2.63-4.17-3.7-6.25-.51-.99-1.2-2.34-1.48-2.68.16.19.74.67,1.64.72-.02,0-.04-.02-.06-.03l.21-5.93c4.41,0,7.21,5.44,9.45,9.82.51.99,1.2,2.34,1.48,2.68-.16-.19-.74-.67-1.64-.72.02.01.04.02.06.03l-.11,3.2c7.37-.49,13.22-6.57,13.22-14.07s-6.34-14.16-14.16-14.16Z"/><path class="c" d="m287.77,127.89c5.08,2.53,8.06,7.53,8.34,12.82,2.22,1.06,4.7,2.74,6.63,4.54,5.49-3.9,9.09-10.31,9.09-17.56,0-11.9-9.65-21.54-21.55-21.54s-21.54,9.64-21.54,21.54c0,1.46.15,2.89.43,4.27,4.38-5.45,12.09-7.32,18.61-4.08Z"/><path class="c" d="m253.62,305.16c-6.11,0-11.06,4.95-11.06,11.06s4.95,11.06,11.06,11.06,11.06-4.95,11.06-11.06-4.95-11.06-11.06-11.06Z"/><path class="c" d="m123.74,264.5c-7.63,0-13.81,6.18-13.81,13.81s6.18,13.81,13.81,13.81,13.81-6.18,13.81-13.81-6.18-13.81-13.81-13.81Z"/><path class="d" d="m108.46,187.02c6.97,3.47,15.43.63,18.9-6.33,3.47-6.97.64-15.43-6.34-18.9-6.97-3.47-15.43-.64-18.9,6.33-3.47,6.97-.63,15.43,6.34,18.9Z"/><path class="d" d="m204.13,164.14c3.72-7.47.68-16.54-6.79-20.25-7.47-3.72-16.54-.68-20.26,6.79-3.72,7.47-.68,16.53,6.79,20.25,7.47,3.72,16.53.68,20.25-6.79Z"/><path class="d" d="m166.14,271.17c2.92-5.85,1.55-12.69-3.01-16.93-.04,0,0,.01,0,.01v3.71s.13-.02.19-.02c-.04,0-.19.03-.19.07v2.92s1.15-.27,1.17-.28c-.37.23-.89,1.12-1.67,1.75-4.05,3.3-9.06,6.61-11.45,6.72v-.86s-.4,0-.4,0c.06,0,.4.87.4.86v-3.71s-.13.02-.18.02c.04,0,.18-.03.18-.07v-2.92s-1.38.27-1.4.29c.37-.23,1.01-1.12,1.79-1.75,4.05-3.3,6.78-6.61,11.56-6.72v-.34s-.19,0-.14,0c-.99-1.2-2.07-1.59-3.33-2.22-7.12-3.55-15.77-.57-19.32,6.55-3.55,7.12-.65,15.81,6.47,19.36,7.12,3.55,15.77.69,19.32-6.44Z"/><path class="d" d="m252.56,216.2c-11.39-5.68-25.23-1.03-30.91,10.36-5.68,11.4-1.04,25.24,10.36,30.91,11.4,5.68,25.24,1.04,30.91-10.36,5.67-11.4,1.04-25.24-10.36-30.91Z"/><path class="d" d="m293.38,150.21c-2.9-2.21-5.31-4.91-5.31-7.01,0-1.23.62-2.35,1.64-3.01.67-.43,1.51-.65,2.47-.65s2.4.45,3.92,1.18c-.28-5.29-3.26-10.29-8.34-12.82-6.51-3.25-14.22-1.37-18.61,4.08-.68.84-1.28,1.75-1.79,2.76-3.74,7.52-.69,16.65,6.83,20.39,6.83,3.39,14.93,1.15,19.17-4.9Z"/><path class="d" d="m150.93,130.09c11.43,5.69,25.32,1.04,31.02-10.4,5.69-11.44,1.04-25.32-10.39-31.01-11.44-5.7-25.32-1.04-31.02,10.39-5.69,11.44-1.04,25.33,10.39,31.02Z"/><path class="d" d="m330.18,200.37c-5.87-2.92-13-.53-15.93,5.34-2.92,5.87-.53,13,5.34,15.93,5.87,2.92,13.01.53,15.93-5.34,2.92-5.87.53-13-5.34-15.93Z"/><path class="d" d="m232.9,304.41c-1.72-.86-3.53-1.32-5.33-1.47-.16.22-.31.45-.5.65-.97,1.03-2.75,2.25-5.8,2.25-1.05,0-2.04-.24-2.99-.57-2.17,1.4-4.03,3.33-5.26,5.8-3.65,7.33-.67,16.23,6.66,19.88,7.33,3.65,16.23.66,19.88-6.67,3.65-7.33.67-16.23-6.66-19.88Z"/><path class="e" d="m134.22,140.98c2.14,0,3.87-.52,5.13-1.55,1.34-1.09,2.08-2.7,2.08-4.52,0-5.09-6.17-11.91-12.48-11.91-2.14,0-3.87.52-5.13,1.55-1.34,1.09-2.08,2.7-2.08,4.52,0,5.09,6.17,11.91,12.48,11.91Z"/><path class="e" d="m163.14,156.33c0-.16-2.22-15.94-9.6-15.94l-2.36.07v2.98c0,.16,2.22,15.94,9.6,15.94l2.35-.07v-2.98Z"/><path class="e" d="m238.86,128.42c6.5,0,10-5.22,10-10.12,0-2.51-.88-4.85-2.48-6.58-1.27-1.37-3.57-3.01-7.4-3.01-6.49,0-10,5.22-10,10.12,0,2.51.88,4.85,2.48,6.58,1.27,1.37,3.57,3.01,7.4,3.01Z"/><path class="e" d="m248.29,176.68c2.98,0,4.97-.94,6.26-1.91.27-.2.54-.4.75-.59,1.65-1.55,2.56-3.67,2.56-5.98,0-4.54-3.65-9.36-10.43-9.36-3.59,0-5.8,1.36-7.01,2.5-1.65,1.55-2.56,3.67-2.56,5.98,0,.48.07.96.15,1.45.69,4.06,4.23,7.91,10.28,7.91Z"/><path class="e" d="m224.13,193.5c3.75,0,6.04-1.5,7.3-2.75.03-.03.05-.07.09-.11,1.59-1.64,2.47-3.83,2.47-6.19,0-3.03-1.51-6.15-4.35-7.99-1.53-.99-3.44-1.63-5.74-1.63-3.75,0-6.04,1.5-7.3,2.75-1.65,1.65-2.56,3.89-2.56,6.3,0,4.66,3.54,9.62,10.09,9.62Z"/><path class="e" d="m180.98,202.18c-1.2,0-2.28.46-3.02,1.29-.46.52-1.01,1.42-1.01,2.8,0,4.48,6.92,13.56,12.58,13.56,1.2,0,2.27-.46,3.02-1.29.46-.52,1.01-1.42,1.01-2.8,0-4.48-6.92-13.56-12.58-13.56Z"/><path class="e" d="m123.28,240.35c0-1.15-.68-2.68-2.61-3.21-.57-.16-1.25-.23-2.14-.23-.15,0-14.42,2.28-14.42,7.34,0,1.15.68,2.68,2.61,3.21.57.16,1.25.23,2.14.23.14,0,14.42-2.28,14.42-7.34Z"/><path class="e" d="m117.63,207.99c0-1.87-.98-3.52-2.69-4.52-1.4-.82-3.22-1.22-5.58-1.22-5.93,0-11.53,4.26-11.53,8.77,0,1.87.98,3.52,2.69,4.52,1.4.82,3.22,1.22,5.58,1.22,5.93,0,11.53-4.26,11.53-8.78Z"/><path class="e" d="m151.82,207.5c-2.57,0-4.09,1.01-4.91,1.86-1.1,1.13-1.67,2.67-1.67,4.46,0,5.39,5.36,12.61,10.84,12.61,2.57,0,4.09-1.01,4.91-1.86,1.1-1.13,1.67-2.67,1.67-4.46,0-5.39-5.35-12.61-10.83-12.61Z"/><path class="e" d="m149.79,262.73s1.4-.29,1.4-.29v2.92s-.14.07-.18.07c.06,0,.18-.02.18-.02v3.71c2.39-.11,7.34-3.42,11.39-6.72.78-.64,1.42-1.53,1.79-1.75-.02.01-1.22.28-1.22.28v-2.92s.14-.07.19-.07c-.06,0-.19.02-.19.02v-3.71c-4.78.11-7.51,3.42-11.56,6.72-.78.64-1.42,1.53-1.79,1.75Z"/><path class="e" d="m162.89,254.25s.08,0,.12-.01c.02,0,.04,0,.06,0h-.18v.02Z"/><path class="e" d="m150.97,269.14v-.02c-.06,0-.12.02-.18.02,0,0,.18,0,.18,0Z"/><path class="e" d="m173.86,293.11c.35-.6.54-1.32.54-2.13,0-3.39-4.99-14.71-10.55-14.71-1.74,0-3.5,1.31-3.5,3.83,0,3.39,4.99,14.71,10.56,14.71,1.23,0,2.34-.63,2.97-1.69Z"/><path class="e" d="m214.59,270.73c.53-.69.79-1.54.79-2.51,0-4.18-6.16-14.03-11.77-14.03-1.19,0-2.27.52-2.97,1.44-.52.69-.79,1.54-.79,2.51,0,4.18,6.16,14.03,11.77,14.03,1.19,0,2.28-.52,2.97-1.44Z"/><path class="e" d="m243.11,284.18c4.16,0,13.96-6.69,13.96-11.31,0-1.3-.62-2.45-1.71-3.15-.74-.48-1.64-.71-2.73-.71-4.16,0-13.96,6.69-13.96,11.31,0,1.3.62,2.45,1.71,3.15.74.48,1.64.71,2.73.71Z"/><path class="e" d="m293.5,220.9c-.32-.25-1.27-2.31-1.97-3.09-3.76-4.24-6.92-8.13-10.42-8.13h0l-.05,5.98h.02c-.81,0-1.31.55-1.31.55.32.25,1.28,2.4,1.97,3.19,3.76,4.24,6.92,8.22,10.42,8.22h0l.05-5.98h-.02c.81,0,1.3-.74,1.31-.74Z"/><path class="e" d="m265.03,198.31c-1.69-1.09-3.89-1.64-6.55-1.64-6.5,0-9.89,3.53-9.89,7.02,0,2.01,1.09,3.87,2.98,5.09,1.69,1.09,3.89,1.64,6.55,1.64,6.5,0,9.89-3.53,9.89-7.02,0-2.01-1.09-3.87-2.98-5.09Z"/><path class="e" d="m299.69,162.81s-.26.07-.26.07v-5.96c-5.98,0-7.58,2.6-10.77,4.9-1.03.75-3.17,1.77-3.66,1.95,0,0,.07-.07.07-.07v5.96c4.78,0,7.76-2.61,10.94-4.9,1.04-.75,3.17-1.77,3.66-1.95Z"/><path class="e" d="m192.64,96.1c.68,0,15.25-2.57,15.25-7l-.19-2.57h-2.98c-.68,0-15.25,2.56-15.25,7l.19,2.57h2.98Z"/><path class="e" d="m200.22,122.98c2.51,0,4.54-.63,6.01-1.87.75-.63,1.33-1.41,1.72-2.29.38-.85.58-1.8.58-2.8,0-5-4.99-10.81-11.42-10.81-2.52,0-4.54.63-6.01,1.87-1.49,1.25-2.31,3.06-2.31,5.09,0,.96.23,1.94.58,2.91,1.44,4.1,5.64,7.9,10.84,7.9Z"/><path class="e" d="m294.33,261.62c.9.05,1.49.53,1.64.72-.28-.34-.97-1.69-1.48-2.68-2.25-4.37-5.04-9.82-9.45-9.82l-.21,5.93s.04.02.06.03c-.9-.05-1.48-.52-1.64-.72.28.34.97,1.69,1.48,2.68,1.07,2.08,2.27,4.39,3.7,6.25,1.58,2.06,3.44,3.57,5.76,3.57l.1-2.73.11-3.2s-.04-.02-.06-.03Z"/><path class="e" d="m227.07,303.59c.19-.2.34-.43.5-.65.92-1.25,1.42-2.8,1.42-4.56,0-5.67-4.88-12.26-11.17-12.26-3.04,0-4.83,1.22-5.8,2.25-1.26,1.33-1.92,3.14-1.92,5.21,0,4.73,3.41,10.03,8.18,11.69.95.33,1.94.57,2.99.57,3.04,0,4.83-1.23,5.8-2.25Z"/><path class="e" d="m188.23,309.59c-1.2-.91-2.84-1.38-4.86-1.38-5.44,0-12.13,6.39-12.13,11.58,0,1.76.74,3.29,2.09,4.32,1.2.91,2.84,1.38,4.86,1.38,5.44,0,12.13-6.39,12.13-11.58,0-1.76-.74-3.29-2.09-4.32Z"/><path class="e" d="m302.19,172.13c0,4.95,8.94,10.75,13.53,10.75,1.59,0,2.84-.27,3.82-.83,1.41-.8,2.22-2.16,2.22-3.74,0-4.95-8.94-10.75-13.53-10.75-5.75,0-6.05,3.81-6.05,4.57Z"/><path class="e" d="m292.19,139.53c-.96,0-1.79.22-2.47.65-1.03.66-1.64,1.79-1.64,3.01,0,2.1,2.4,4.8,5.31,7.01,3.01,2.29,6.56,4.05,8.56,4.05.96,0,1.79-.22,2.47-.65,1.03-.66,1.64-1.79,1.64-3.01,0-1.59-1.38-3.53-3.31-5.34-1.93-1.81-4.41-3.48-6.63-4.54-1.52-.73-2.92-1.18-3.92-1.18Zm9.77,9.13s0,0-.01-.02v-.35h.01v.36Z"/><path class="f" d="m206.01,354.97c-82.14,0-148.96-66.82-148.96-148.96S123.87,57.04,206.01,57.04s148.96,66.82,148.96,148.96-66.82,148.96-148.96,148.96Zm0-274.62c-69.29,0-125.66,56.37-125.66,125.66s56.37,125.66,125.66,125.66,125.66-56.37,125.66-125.66-56.37-125.66-125.66-125.66Z"/></svg>