<svg xmlns="http://www.w3.org/2000/svg" width="500" height="500" viewBox="0 0 500 500"><defs><style>.a,.b{fill:#f37a7f;}.b,.c{stroke:#000;}.b{stroke-linecap:round;stroke-linejoin:round;stroke-width:10px;}.c{fill:#a3aab4;stroke-miterlimit:10;stroke-width:12px;}</style></defs><path class="a" d="M288,280a5,5,0,0,1-2.9-.92l-69-49A5,5,0,0,1,214,226.3a5,5,0,0,1,1.62-4c.11-.1,11-10,23.7-23.7,8.51-9.16,34.44-45,53.36-71.11,9.67-13.35,18-24.87,22.33-30.53,2.32-3,6.88-6.62,15.5-6.62,16.76,0,38.92,13.34,47.42,28.55,4.95,8.87,5.07,18,.31,25.73-.06.1-.12.2-.19.3-9.41,13.11-19.68,27.05-29.6,40.53-19.17,26-37.28,50.64-43.11,61a144.93,144.93,0,0,0-12.52,29.84,5,5,0,0,1-3.14,3.42A5.18,5.18,0,0,1,288,280Z"/><path d="M330.52,95.34C351.43,95.34,386.94,121,374,142c-28,39-64,86-73,102a149.37,149.37,0,0,0-13,31l-69-49s11-10,24-24,63-85,76-102c2.48-3.24,6.59-4.66,11.52-4.66m0-10h0c-10.66,0-16.47,4.67-19.47,8.59-4.36,5.7-12.72,17.25-22.41,30.63-18.85,26-44.67,61.7-53,70.64-12.53,13.49-23.29,23.31-23.4,23.4a10,10,0,0,0,.94,15.56l69,49A10,10,0,0,0,288,285a9.92,9.92,0,0,0,3.39-.59,10,10,0,0,0,6.27-6.83,141,141,0,0,1,12-28.68c5.68-10.09,23.7-34.57,42.77-60.48,9.94-13.5,20.21-27.45,29.64-40.59.14-.19.27-.39.39-.59,5.75-9.33,5.67-20.27-.21-30.79-4.6-8.24-12.71-16.07-22.81-22-9.9-5.85-20.19-9.07-29-9.07Z"/><line class="b" x1="240" y1="199" x2="304" y2="249"/><path class="c" d="M250,254,168,365l-24,4-16,27,22,16,21-25-3-22"/></svg>