<?xml version="1.0" encoding="UTF-8"?><svg id="a" xmlns="http://www.w3.org/2000/svg" width="412.01" height="412.01" viewBox="0 0 412.01 412.01"><defs><style>.d{fill:#f7c876;}.e{fill:#00478c;}.f{fill:#f5b03e;}.g{fill:#f6af41;}.h{fill:#ffebca;}.i{fill:#f2a259;}.j{fill:#317c31;}.k{fill:#485020;}.l{fill:#010101;isolation:isolate;opacity:.2;}</style></defs><rect id="b" class="e" x=".03" y=".03" width="411.95" height="411.95"/><rect id="c" class="l" x="249.23" y="112.13" width="296.64" height="517.65" transform="translate(-144.88 408.71) rotate(-47)"/><path class="k" d="m123.77,291.42c-7.56,9.38-6.02,21.15,0,25.32,6.02,4.18,15.67,8.35,22.99,10.44,7.32,2.09,16.97,4.18,21.93,2.6,4.99-1.57,26.65-26.38,35.27-35,8.62-8.62,33.73-39.91,38.15-46.22,9.14-13.04,20.17-32.72,18.6-50.75-.43-4.93-4.5-10.87-4.5-10.87l21.93-43.87,27.87-13.42s-.11-1.25.79-3.47c.89-2.25,4.26-4.07,4.26-4.07l-28.44-25.46s-1.98,5.1-3.39,6.29c-1.22,1.06-3.04.79-3.04.79,0,0-3.33,10.57-4.26,11.68-.92,1.11-25.02,30.96-25.02,30.96l-34.7,6.43-12.2,3.77s-68.67,125.47-76.24,134.85Z"/><path class="g" d="m287.06,130.3s-7.67,1.6-8.19,1.95c-.54.35-15.32,18-19.95,26-4.64,8-21.2,36.68-21.2,36.68,0,0,10.49,3.74,14.42,5.18,3.93,1.44,8.73,3.04,8.73,3.04,0,0,2.68-14.23,14.97-35.98,12.28-21.74,21.01-30.28,21.01-30.28l-9.79-6.59h0Z"/><path class="d" d="m272.1,111.24s-9.62,9.79-26.73,23.15c-17.11,13.37-36.52,19.41-36.52,19.41,0,0-2.3,3.58-4.09,7.13-1.79,3.55-10.87,22.5-9.81,23.99.62.87,10.25,1.17,24.21,4.34,11.09,2.52,28.2,9.14,28.2,9.14,0,0,8.7-22.85,16.38-36.57,7.67-13.72,20.31-30.09,20.31-30.09l-11.93-20.5h0Z"/><path class="j" d="m245.02,204.39s-.54,5.18-11.41,23.51c-8.21,13.91-29.9,37.77-47.01,56.64-17.11,18.87-39.77,41.72-40.83,42.27-1.08.54-31.8-9.87-46.88-35-6.21-10.38-10.11-19.03-9.92-26.87s6.78-14.61,6.78-14.61l46.93-52.73s15.43-16.54,31.45-27.41c16.02-10.87,26-13.72,26-13.72,0,0-16.02,31.72-14.97,33.32,1.08,1.6,7.13.54,25.48,3.74,18.35,3.2,34.38,10.87,34.38,10.87h0Z"/><path class="f" d="m165.01,212.09c-9.38-13.94-11.22-25.43-11.22-25.43,0,0-10.3,9.41-14.23,13.85-2.25,2.55-39.01,44.25-39.66,45.09-.33.41-2.28,9.49,6.78,25.7,11.55,20.69,32.72,30.72,37.36,30.55,3.85-.16,52-53.98,51.29-57.72-.46-2.39-15.48-10.17-30.31-32.05Z"/><path class="h" d="m160.13,215.43c-9.79-11.74-25.76-9.06-25.76-9.06,0,0-6.15,6.59-10.95,11.93-4.8,5.34-14.37,16.75-14.37,16.75,0,0-3.06,13.69,4.23,27.76,6.78,13.04,28.87,24.05,46.14,5.34,17.27-18.71,11.96-39.23.7-52.73h0Z"/><path class="j" d="m307.72,95.41c-7.48-6.43-17.11-9.27-23.51-2.49-6.4,6.78-3.36,14.86,5.53,22.99,6.51,5.96,17.97,11.03,24.4,4.99,6.4-6.07,2.22-18.08-6.43-25.48h0Z"/><path class="j" d="m299.7,138.65c-16.56.54-30.28-16.56-30.64-26.35-.33-9.08,7.13-8.57,7.13-8.57,0,0-1.08,7.13,8.89,17.3,9.98,10.17,21.01,7.97,21.01,7.97,0,0,1.03,9.43-6.4,9.65Z"/><path class="i" d="m296.72,103.67c3.09,3.39,7.37,7.6,13.69,10.83,3.47,1.77,5.08,1.99,6.53,1.59,3.59-.98,5.68-5.57,6.05-9.08.69-6.55-4.38-11.66-8.6-15.92-4.88-4.93-10.41-10.51-17.04-9.24-4.22.81-8.66,4.34-9.24,8.6-.44,3.29,2.57,6.6,8.6,13.22Z"/></svg>