<?xml version="1.0" encoding="UTF-8"?><svg id="a" xmlns="http://www.w3.org/2000/svg" width="412.01" height="412.01" viewBox="0 0 412.01 412.01"><defs><style>.b{opacity:.1;}.c{fill:#e3e2e2;}.d{fill:#fff;}.e{fill:#414142;}.f{fill:#555;}.g{fill:#2b2d30;}.h{fill:#010101;opacity:.2;}.h,.i,.j{isolation:isolate;}.i{fill:#f2f2f2;opacity:.2;}.j{fill:#040000;opacity:.06;}</style></defs><rect class="f" x=".03" y=".03" width="411.95" height="411.95"/><polygon class="h" points="301.43 122.22 638.3 436.57 464.2 610.23 80.09 267.57 301.43 122.22"/><rect class="c" x="151.58" y="91.23" width="108.85" height="59.4"/><path class="g" d="m340.32,174.04v86.69c0,5.05-4.12,9.17-9.14,9.17H80.83c-5.02,0-9.14-4.12-9.14-9.17v-86.69c0-.35,0-.7.04-1.05.08-.7.23-1.4.51-2.06.19-.54.43-1.05.7-1.55l1.83-2.18c1.59-1.48,3.77-2.33,6.06-2.33h250.35c2.29,0,4.47.86,6.06,2.33l1.83,2.18c.27.5.51,1.01.7,1.55.27.66.43,1.36.51,2.06.04.35.04.7.04,1.05Z"/><polygon class="e" points="340.32 170.92 71.69 170.92 72.94 169.37 74.77 167.19 112.08 121.59 299.93 121.59 337.24 167.19 339.07 169.37 340.32 170.92"/><path class="e" d="m277.24,211.16v58.73h-142.46v-58.73c0-7.84,6.41-14.25,14.25-14.25h113.97c7.84,0,14.25,6.41,14.25,14.25Z"/><g class="b"><path class="c" d="m87.98,203.02h0c-4.36,0-7.89-3.53-7.89-7.89h0c0-4.36,3.53-7.89,7.89-7.89h0c4.36,0,7.89,3.53,7.89,7.89h0c0,4.36-3.53,7.89-7.89,7.89Z"/><path class="c" d="m111.64,203.02h0c-4.36,0-7.89-3.53-7.89-7.89h0c0-4.36,3.53-7.89,7.89-7.89h0c4.36,0,7.89,3.53,7.89,7.89h0c0,4.36-3.53,7.89-7.89,7.89Z"/></g><g class="b"><path class="c" d="m297.6,203.02h0c-4.36,0-7.89-3.53-7.89-7.89h0c0-4.36,3.53-7.89,7.89-7.89h0c4.36,0,7.89,3.53,7.89,7.89h0c0,4.36-3.53,7.89-7.89,7.89Z"/><path class="c" d="m321.26,203.02h0c-4.36,0-7.89-3.53-7.89-7.89h0c0-4.36,3.53-7.89,7.89-7.89h0c4.36,0,7.89,3.53,7.89,7.89h0c0,4.36-3.53,7.89-7.89,7.89Z"/></g><path class="i" d="m340.28,172.99H71.73c.08-.7.23-1.4.51-2.06h267.53c.27.66.43,1.36.51,2.06Z"/><rect x="251.7" y="164.61" width="30.96" height="6.33"/><rect class="e" x="214.94" y="164.61" width="30.96" height="6.33"/><rect class="d" x="288.45" y="164.61" width="30.96" height="6.33"/><path class="g" d="m267.45,210.99h-124.16c-.61,0-1.1.49-1.1,1.1v2.79c0,.61.49,1.1,1.1,1.1h124.16c.61,0,1.1-.49,1.1-1.1v-2.79c0-.61-.49-1.1-1.1-1.1Z"/><polygon class="c" points="287.25 298.1 124.76 298.1 140.04 234.45 144.95 213.99 267.06 213.99 271.97 234.45 287.25 298.1"/><polygon class="j" points="271.97 234.45 140.04 234.45 144.95 213.99 267.06 213.99 271.97 234.45"/></svg>