<?xml version="1.0" encoding="UTF-8"?><svg id="a" xmlns="http://www.w3.org/2000/svg" width="412.01" height="412.01" viewBox="0 0 412.01 412.01"><defs><style>.b{fill:#fff;}.c{fill:#bf7b00;}.d{fill:#d48900;}.e{fill:#732f29;}.f{fill:#010101;isolation:isolate;opacity:.2;}</style></defs><rect class="e" x=".03" y=".03" width="411.95" height="411.95"/><polygon class="f" points="296.12 122.22 632.99 436.57 458.9 610.23 106.54 288.8 296.12 122.22"/><polygon class="d" points="222.19 237.54 323.17 196.01 294.59 126.53 186.31 171.07 186.31 171.07 85.34 212.6 113.91 282.08 222.19 237.54 222.19 237.54"/><path class="c" d="m106.54,288.8l16.03-10.29-28.57-69.47-18.63,3.97,1.3,3.15c-1.1.45-2.09,1.22-2.68,2.18-1.19,1.93-.36,3.93,1.84,4.47,1.1.27,2.33.12,3.44-.33l2.6,6.31c-1.1.45-2.09,1.22-2.68,2.18-1.19,1.93-.36,3.93,1.84,4.46,1.1.27,2.33.12,3.44-.33l2.6,6.32c-1.1.45-2.09,1.22-2.68,2.18-1.19,1.93-.36,3.93,1.84,4.47,1.1.27,2.33.12,3.44-.33l2.6,6.31c-1.1.45-2.09,1.22-2.68,2.18-1.19,1.93-.36,3.93,1.84,4.47,1.1.27,2.33.12,3.44-.33l2.6,6.31c-1.1.45-2.09,1.22-2.68,2.18-1.19,1.93-.36,3.93,1.84,4.46,1.1.27,2.33.12,3.44-.33l2.6,6.32c-1.1.45-2.09,1.22-2.68,2.18-1.19,1.93-.36,3.93,1.84,4.47,1.1.27,2.33.12,3.44-.33l1.3,3.16Z"/><path class="c" d="m296.12,122.22l-16.03,10.29,28.57,69.47,18.63-3.97-1.3-3.15c1.1-.45,2.09-1.22,2.68-2.18,1.19-1.93.36-3.93-1.84-4.47-1.1-.27-2.33-.12-3.44.33l-2.6-6.31c1.1-.45,2.09-1.22,2.68-2.18,1.19-1.93.36-3.93-1.84-4.46-1.1-.27-2.33-.12-3.44.33l-2.6-6.32c1.1-.45,2.09-1.22,2.68-2.18,1.19-1.93.36-3.93-1.84-4.47-1.1-.27-2.33-.12-3.44.33l-2.6-6.31c1.1-.45,2.09-1.22,2.68-2.18,1.19-1.93.36-3.93-1.84-4.47-1.1-.27-2.33-.12-3.44.33l-2.6-6.31c1.1-.45,2.09-1.22,2.68-2.18,1.19-1.93.36-3.93-1.84-4.46-1.1-.27-2.33-.12-3.44.33l-2.6-6.32c1.1-.45,2.09-1.22,2.68-2.18,1.19-1.93.36-3.93-1.84-4.47-1.1-.27-2.33-.12-3.44.33l-1.3-3.16Z"/><path class="b" d="m176.32,199.83c-.21.09-.55.12-.99.1-.45-.02-.78.05-1,.2l-3.68,2.83,8.71,21.19c.32.78.86,1.55,1.61,2.31.22.22.4.75.55,1.56.18.9.14,1.53-.12,1.88-.04.05-.17.12-.39.21-.89.36-2.19.7-3.92,1-1.94.33-3.15.37-3.62.12-.58-.33-.83-.98-.75-1.95.06-.84.03-1.42-.11-1.75l-8.2-19.94-2.56,1.9c-.12.08-.3.29-.52.62s-.46.51-.69.54c-.68.09-1.86-.36-3.52-1.35-1.67-.99-2.54-1.78-2.61-2.34-.04-.71.4-1.43,1.31-2.19.24-.19.58-.35,1.03-.47.45-.12.79-.26,1.01-.41l12.54-9.35c.12-.08.45-.4.97-.96.35-.36.71-.59,1.09-.68.8-.2,1.43-.12,1.9.26.32.25.77.77,1.35,1.56.7.94,1.21,1.79,1.53,2.57.24.59.35,1.07.33,1.44-.02.37-.43.73-1.22,1.09Z"/><path class="b" d="m203.49,194.78c.13,3.9.59,8.6,1.37,14.09.65,4.85,1.12,7.58,1.43,8.17.21.51.41,1.01.61,1.49.26.71.18,1.2-.25,1.46-.35.21-1.6.47-3.73.78-2.22.32-3.47.34-3.74.08-.11-.11-.39-.72-.84-1.82-1.63-1.9-3.58-5.01-5.86-9.32.17.81.52,2.96,1.05,6.44.38,2.61.72,4.26,1,4.96.2.58.4,1.14.6,1.69.25.77.18,1.32-.22,1.64-.1.07-.27.16-.51.25-.97.4-2.12.65-3.45.76-1.57.14-2.62-.04-3.14-.54-.15-.13-.26-.35-.34-.66-.08-.31-.25-.67-.51-1.06-1.79-2.75-3.57-5.48-5.35-8.21-1.83-2.86-3.56-5.79-5.17-8.8-.43-.83-.67-1.29-.72-1.4-.45-1.1-.33-1.78.38-2.04.6-.22,1.68-.33,3.25-.35,1.69,0,2.65.15,2.88.46.13.17.34.76.63,1.77,1.01,2,2.93,5.48,5.75,10.44l-2.67-14.4c-.18-1.05,0-1.78.57-2.17.2-.11,1.15-.12,2.84-.01,1.69.1,2.59.28,2.69.52,1.17,2.47,3.48,6.4,6.92,11.8-1.6-8.39-2.38-13.31-2.35-14.76-.21-1.11.15-1.77,1.06-1.99.68-.19,1.65-.24,2.9-.16,1.5.07,2.47.37,2.9.88Z"/><path class="b" d="m211.25,182.97s.11.14.17.31c.24.59.44,1.41.58,2.44.15,1.13.13,1.8-.07,2.01-.22.22-1.5.4-3.82.56-2.32.16-3.61.11-3.87-.13-.14-.1-.26-.29-.37-.55-.3-.73-.42-1.57-.38-2.53.05-1.09.33-1.8.82-2.13.57-.36,1.75-.57,3.51-.62,1.77-.05,2.91.16,3.42.64Zm11.33,27.88c.5.92.42,1.67-.26,2.23-.12.08-.3.17-.55.27-.97.4-2.25.69-3.83.87-1.71.2-2.8.11-3.26-.26-.22-.16-.27-.62-.15-1.4.08-.5-.11-1.29-.55-2.36l-6.96-16.92c-.74-.89-1.18-1.51-1.33-1.85s.28-.73,1.27-1.14c.81-.33,2.03-.54,3.67-.64,1.64-.09,2.69-.01,3.14.24.12.08.22.19.29.35.09.22.1.68.03,1.4-.07.72-.04,1.22.08,1.52l6.66,16.19c.11.27.4.54.88.82.47.28.76.5.87.68Z"/><path class="b" d="m238.84,179.16c.39.56.38,1.23-.03,1.99-.34.61-.68,1.22-.99,1.82l-2.3,8.95,9.04,5.94c.43.2.85.39,1.27.56.58.26.94.57,1.08.92.09.21.1.46.02.74-.09.38-.68,1.17-1.76,2.37-.97,1.15-1.63,1.85-1.97,2.08-.78.32-1.41.17-1.88-.45-.81-1.05-3.24-2.95-7.29-5.71l-1.16,7.26c.08.57.16,1.11.25,1.64.1.87-.08,1.45-.56,1.74-.48.29-1.59.48-3.34.57-1.84.1-3.01-.02-3.49-.35-.17-.12-.29-.26-.36-.42-.14-.35-.06-.87.25-1.56.38-.97.58-1.49.58-1.56l2.05-10.59-8.14-5.7c-.48-.08-1.04-.34-1.68-.77-.16-.31.26-1.19,1.27-2.64,1.01-1.45,1.77-2.33,2.3-2.64.48-.29.87-.31,1.18-.06.31.25.6.52.88.82l5.99,4.6,1.48-7.39c-.02-.43-.04-.85-.04-1.25,0-.29.41-.64,1.21-1.06.39-.19,1.46-.29,3.2-.28,1.74,0,2.72.15,2.94.44Z"/></svg>